<?xml version="1.0" standalone="no"?>
<!DOCTYPE svg PUBLIC "-//W3C//DTD SVG 1.1//EN" "http://www.w3.org/Graphics/SVG/1.1/DTD/svg11.dtd" >
<svg xmlns="http://www.w3.org/2000/svg" xmlns:xlink="http://www.w3.org/1999/xlink" version="1.1">
<metadata>
Created by FontForge 20190801 at Mon Mar 17 19:15:12 2014
 By www-data
(c) 2014, Copyright by Botio Nikoltchev. All rights reserved.
</metadata>
<defs>
<font id="RopaSansProThinItalic" horiz-adv-x="400" >
  <font-face 
    font-family="RopaSansProThinItalic"
    font-weight="250"
    font-style="italic"
    font-stretch="normal"
    units-per-em="1000"
    panose-1="2 11 4 4 2 1 1 1 1 2"
    ascent="800"
    descent="-200"
    x-height="488"
    cap-height="655"
    bbox="-92 -322 1216 837"
    underline-thickness="50"
    underline-position="-100"
    slope="-7"
    unicode-range="U+000D-FEFF"
  />
<missing-glyph horiz-adv-x="496" 
d="M50 0v655h396v-655h-396zM76 26h344v603h-344v-603z" />
    <glyph glyph-name="f_f" unicode="ff" horiz-adv-x="550" 
d="M533 695q28 0 58 -10l-3 -25q-32 10 -57 10q-39 0 -60.5 -24t-29.5 -81l-11 -77h90l-3 -24h-90l-81 -567q-7 -52 -29 -73t-65 -21q-30 0 -59 9l4 27q30 -10 58 -10q55 0 64 66l80 569h-238l-68 -487q-7 -52 -29 -73t-65 -21q-30 0 -59 9l4 27q30 -10 58 -10q55 0 64 66
l67 489h-70l2 18l71 5l8 59q11 84 46.5 116.5t114.5 32.5q61 0 150 -28q27 28 78 28zM301 670q-64 0 -91.5 -26t-36.5 -92l-9 -64h238l10 71q7 54 26 87q-84 24 -137 24z" />
    <glyph glyph-name="f_f_i" unicode="ffi" horiz-adv-x="736" 
d="M565 695q47 0 121 -18l-3 -25q-74 18 -122 18q-58 0 -85.5 -26.5t-36.5 -91.5l-9 -64h266l-68 -488h-27l65 464h-239l-80 -567q-7 -52 -29 -73t-65 -21q-30 0 -59 9l4 27q30 -10 58 -10q55 0 64 66l79 569h-238l-68 -487q-7 -52 -29 -73t-65 -21q-30 0 -59 9l4 27
q30 -10 58 -10q55 0 64 66l67 489h-70l2 18l71 5l8 59q11 84 46.5 116.5t114.5 32.5q68 0 155 -30q34 30 105 30zM301 670q-64 0 -91.5 -26t-36.5 -92l-9 -64h238l8 58q9 66 32 99q-85 25 -141 25z" />
    <glyph glyph-name="f_f_j" unicode="ffj" horiz-adv-x="734" 
d="M565 695q47 0 121 -18l-3 -25q-74 18 -122 18q-58 0 -85.5 -26.5t-36.5 -91.5l-9 -64h266l-84 -591q-7 -52 -29 -73t-64 -21q-24 0 -60 11l1 7l3 19q33 -11 58 -11q28 0 43.5 15t20.5 51l80 569h-238l-69 -487q-7 -52 -29 -73t-65 -21q-30 0 -59 9l4 27q30 -10 58 -10
q55 0 64 66l68 489h-238l-68 -487q-7 -52 -29 -73t-65 -21q-30 0 -59 9l4 27q30 -10 58 -10q55 0 64 66l67 489h-70l2 18l71 5l8 59q11 84 46.5 116.5t114.5 32.5q68 0 155 -30q34 30 105 30zM301 670q-64 0 -91.5 -26t-36.5 -92l-9 -64h238l8 58q9 66 32 99q-85 25 -141 25
z" />
    <glyph glyph-name="f_f_l" unicode="ffl" horiz-adv-x="757" 
d="M564 695q62 0 132 -17l18 1q-5 -92 -22 -215l-65 -464h-27l64 457q13 91 22 198q-66 15 -126 15q-58 0 -85.5 -26.5t-36.5 -91.5l-9 -64h90l-3 -24h-90l-80 -567q-7 -52 -29 -73t-65 -21q-30 0 -59 9l4 27q30 -10 58 -10q55 0 64 66l79 569h-237l-68 -487q-7 -52 -29 -73
t-65 -21q-30 0 -59 9l4 27q30 -10 58 -10q55 0 64 66l67 489h-70l2 18l71 5l8 59q11 84 46.5 116.5t114.5 32.5q67 0 154 -30q36 30 105 30zM301 670q-64 0 -91.5 -26t-36.5 -92l-9 -64h237l8 58q9 66 32 99q-84 25 -140 25z" />
    <glyph glyph-name="f_i" unicode="fi" horiz-adv-x="504" 
d="M311 695q47 0 121 -18l-3 -25q-74 18 -122 18q-58 0 -85.5 -26.5t-36.5 -91.5l-9 -64h266l-68 -488h-27l65 464h-239l-80 -567q-7 -52 -29 -73t-65 -21q-30 0 -59 9l4 27q30 -10 58 -10q55 0 64 66l79 569h-70l2 18l71 5l8 59q11 83 46.5 116t108.5 33z" />
    <glyph glyph-name="f_j" unicode="fj" horiz-adv-x="493" 
d="M300 695q47 0 121 -18l-3 -25q-74 18 -122 18q-58 0 -85.5 -26.5t-36.5 -91.5l-9 -64h266l-84 -591q-7 -52 -29 -73t-64 -21q-24 0 -60 11l1 7l3 19q33 -11 58 -11q28 0 43.5 15t20.5 51l80 569h-238l-69 -487q-7 -52 -29 -73t-65 -21q-30 0 -59 9l4 27q30 -10 58 -10
q55 0 64 66l68 489h-70l2 18l71 5l8 59q11 83 46.5 116t108.5 33z" />
    <glyph glyph-name="f_l" unicode="fl" horiz-adv-x="504" 
d="M311 695q62 0 132 -17l18 1q-5 -92 -22 -215l-65 -464h-27l64 457q13 91 22 198q-66 15 -126 15q-58 0 -85.5 -26.5t-36.5 -91.5l-9 -64h90l-3 -24h-90l-80 -567q-7 -52 -29 -73t-65 -21q-30 0 -59 9l4 27q30 -10 58 -10q55 0 64 66l79 569h-70l2 18l71 5l8 59
q11 83 46.5 116t108.5 33z" />
    <glyph glyph-name=".notdef" horiz-adv-x="496" 
d="M50 0v655h396v-655h-396zM76 26h344v603h-344v-603z" />
    <glyph glyph-name=".null" horiz-adv-x="0" 
 />
    <glyph glyph-name=".null" horiz-adv-x="0" 
 />
    <glyph glyph-name="uni000D" unicode="&#xd;" horiz-adv-x="260" 
 />
    <glyph glyph-name="space" unicode=" " horiz-adv-x="260" 
 />
    <glyph glyph-name="exclam" unicode="!" horiz-adv-x="187" 
d="M94 200h-25l66 495h31zM59 44q27 0 24 -26l-1 -9q-3 -21 -26 -21q-28 0 -25 25l1 9q3 22 27 22z" />
    <glyph glyph-name="quotedbl" unicode="&#x22;" horiz-adv-x="283" 
d="M108 429h-28l35 254h28zM243 429h-28l35 254h28z" />
    <glyph glyph-name="numbersign" unicode="#" horiz-adv-x="525" 
d="M441 488h92l-3 -24h-92l-45 -315h92l-3 -24h-92l-17 -125h-28l17 125h-245l-17 -125h-28l17 125h-92l3 24h92l45 315h-92l3 24h92l18 125h28l-18 -125h245l18 125h28zM165 464l-45 -315h245l45 315h-245z" />
    <glyph glyph-name="dollar" unicode="$" horiz-adv-x="446" 
d="M295 695l-11 -83q53 -5 108 -19l-3 -27q-60 16 -106 21q-15 1 -36 1q-64 0 -97.5 -26t-41.5 -82l-2 -14q-14 -96 91 -133l83 -30q59 -22 83 -60.5t17 -100.5l-1 -9q-15 -145 -183 -145l-12 -82h-27l12 85q-63 9 -124 32l5 28q72 -26 123 -34q26 -2 40 -2q125 0 139 114
l2 17q10 97 -80 130l-97 36q-114 43 -97 160l1 7q10 70 52.5 102.5t123.5 32.5l11 81h27z" />
    <glyph glyph-name="percent" unicode="%" horiz-adv-x="866" 
d="M244 625q69 0 103 -41t24 -117l-7 -50q-20 -142 -158 -142q-70 0 -103 41.5t-23 117.5l7 49q10 74 48.5 108t108.5 34zM247 0h-31l419 613h32zM242 599q-58 0 -89 -28.5t-40 -89.5l-7 -49q-9 -62 18 -96.5t85 -34.5t88.5 28t39.5 91l7 49q9 64 -17.5 97t-84.5 33z
M674 338q69 0 103 -41t24 -117l-7 -50q-20 -142 -158 -142q-70 0 -103 41.5t-23 117.5l7 49q10 74 48.5 108t108.5 34zM672 312q-58 0 -89 -28.5t-40 -89.5l-7 -49q-9 -62 18 -96.5t85 -34.5t88.5 28t39.5 91l7 49q9 64 -17.5 97t-84.5 33z" />
    <glyph glyph-name="ampersand" unicode="&#x26;" horiz-adv-x="530" 
d="M284 667q52 0 116 -13l-5 -26q-58 13 -114 13q-70 0 -104.5 -31t-44.5 -103l-3 -22q-8 -54 27.5 -96.5t91.5 -42.5h173l13 94h25l-13 -94h72l-3 -25h-72l-44 -308q-103 -25 -173 -25q-218 0 -193 181l3 22q8 56 46 94.5t107 53.5q-48 19 -70.5 60t-14.5 97l3 22
q20 149 177 149zM418 321h-186q-68 0 -114.5 -37.5t-54.5 -93.5l-4 -27q-10 -72 31.5 -110.5t138.5 -38.5q77 0 148 19z" />
    <glyph glyph-name="quotesingle" unicode="'" horiz-adv-x="148" 
d="M108 429h-28l35 254h28z" />
    <glyph glyph-name="parenleft" unicode="(" horiz-adv-x="214" 
d="M302 701l-3 -24q-82 10 -113 -14.5t-42 -107.5l-63 -450q-11 -77 13 -102t106 -25l-3 -24q-95 0 -125 32t-17 124l62 446q14 96 54 128t131 17z" />
    <glyph glyph-name="parenright" unicode=")" horiz-adv-x="214" 
d="M25 677l3 24q95 0 125 -32t17 -124l-62 -446q-14 -96 -54 -128t-131 -17l3 24q82 -10 113 14.5t42 107.5l63 450q11 77 -13 102t-106 25z" />
    <glyph glyph-name="asterisk" unicode="*" horiz-adv-x="424" 
d="M265 561l121 53l11 -30l-125 -43l83 -98l-26 -22l-73 109l-74 -108l-27 21l85 98l-127 43l11 30l122 -54l-7 135h32z" />
    <glyph glyph-name="plus" unicode="+" 
d="M216 320h151l-3 -26h-151l-24 -168h-25l24 168h-151l3 26h151l24 168h25z" />
    <glyph glyph-name="comma" unicode="," horiz-adv-x="192" 
d="M60 44q28 0 24 -29l-1 -7q-1 -9 -8 -24l-29 -67h-28l27 72q-15 6 -12 26l1 7q3 22 26 22z" />
    <glyph glyph-name="hyphen" unicode="-" horiz-adv-x="350" 
d="M269 283h-190l4 26h190z" />
    <glyph glyph-name="period" unicode="." horiz-adv-x="191" 
d="M59 44q27 0 24 -26l-1 -9q-3 -21 -26 -21q-28 0 -25 25l1 9q3 22 27 22z" />
    <glyph glyph-name="slash" unicode="/" horiz-adv-x="245" 
d="M-10 0h-25l300 683h25z" />
    <glyph glyph-name="zero" unicode="0" horiz-adv-x="503" 
d="M286 613q86 0 127.5 -51t27.5 -150l-33 -231q-27 -193 -189 -193q-82 0 -124.5 52t-28.5 148l34 232q15 105 61 149t125 44zM284 587q-67 0 -105.5 -38t-51.5 -127l-34 -236q-12 -85 24 -128.5t103 -43.5q137 0 161 167l34 234q12 86 -23.5 129t-107.5 43z" />
    <glyph glyph-name="one" unicode="1" horiz-adv-x="266" 
d="M136 0h-27l80 571h-1l-153 -67l-6 27l166 70h25z" />
    <glyph glyph-name="two" unicode="2" horiz-adv-x="397" 
d="M221 613q76 0 111 -39t24 -108l-1 -6q-8 -47 -34 -90t-89 -110l-222 -234h290l-3 -26h-327l2 21l257 271q86 91 99 168l1 6q21 122 -111 122q-28 0 -73.5 -9.5t-74.5 -19.5l3 28q85 26 148 26z" />
    <glyph glyph-name="three" unicode="3" horiz-adv-x="379" 
d="M204 613q149 0 133 -147l-1 -9q-5 -49 -36.5 -89.5t-75.5 -57.5q45 -16 68 -57t15 -91l-2 -13q-13 -85 -54.5 -123t-113.5 -38q-65 0 -145 26l3 27q84 -28 145 -28q117 0 138 136l2 13q9 60 -23 98t-86 38h-105l4 24h103q49 0 89 39t47 97l1 8q16 122 -108 122
q-59 0 -129 -17l3 27q75 15 128 15z" />
    <glyph glyph-name="four" unicode="4" horiz-adv-x="403" 
d="M299 155h60l-3 -26h-60l-18 -129h-27l18 129h-299l3 22l365 450h24zM7 155h266l3 22l53 376z" />
    <glyph glyph-name="five" unicode="5" horiz-adv-x="441" 
d="M387 577h-251l-40 -286q38 43 87 67t94 24q133 0 106 -187l-2 -14q-12 -96 -59.5 -144.5t-120.5 -48.5q-72 0 -160 28l4 28q92 -30 158 -30q58 0 99 41.5t52 124.5l2 15q11 88 -9.5 124.5t-72.5 36.5q-98 0 -193 -110h-17l50 358h277z" />
    <glyph glyph-name="six" unicode="6" horiz-adv-x="480" 
d="M293 613q59 0 124 -21l-4 -26q-70 21 -124 21q-64 0 -109 -52.5t-61 -165.5l-11 -78q94 98 181 98q66 0 99.5 -45t21.5 -133l-4 -31q-25 -192 -184 -192q-81 0 -125 53t-31 146l26 188q17 124 70 181t131 57zM284 363q-78 0 -180 -100l-11 -81q-11 -80 25.5 -124
t103.5 -44q136 0 156 161l5 39q20 149 -99 149z" />
    <glyph glyph-name="seven" unicode="7" horiz-adv-x="371" 
d="M387 577l-305 -577h-33l307 573v1h-296l4 26h326z" />
    <glyph glyph-name="eight" unicode="8" horiz-adv-x="460" 
d="M267 613q73 0 112 -43.5t29 -113.5l-1 -7q-6 -44 -37 -80t-78 -49q54 -16 81.5 -59.5t18.5 -99.5l-2 -13q-12 -77 -62 -118.5t-129 -41.5q-86 0 -132 50t-33 131l2 12q19 118 142 146q-40 19 -60 56t-15 81l1 9q7 67 50.5 103.5t112.5 36.5zM264 588q-117 0 -133 -116
l-1 -7q-7 -52 27.5 -92.5t84.5 -40.5q55 0 92 32t46 87l1 6q10 60 -22.5 95.5t-94.5 35.5zM228 310q-67 0 -112 -37t-53 -93l-2 -14q-10 -73 28 -112.5t112 -39.5q67 0 109.5 36t52.5 99l2 13q10 62 -29.5 105t-107.5 43z" />
    <glyph glyph-name="nine" unicode="9" horiz-adv-x="475" 
d="M265 612q83 0 125.5 -52.5t28.5 -146.5l-29 -195q-17 -126 -59.5 -178t-120.5 -52q-67 0 -146 27l4 27q97 -28 146 -28q61 0 96.5 43t51.5 156l14 96q-40 -42 -91 -70t-92 -28q-67 0 -100 47t-19 135l5 32q15 100 60.5 143.5t125.5 43.5zM263 586q-65 0 -104 -36.5
t-52 -120.5l-6 -39q-12 -77 14.5 -115t82.5 -38q39 0 88.5 28.5t93.5 71.5l12 81q12 80 -24.5 124t-104.5 44z" />
    <glyph glyph-name="colon" unicode=":" horiz-adv-x="191" 
d="M113 446q27 0 24 -26l-1 -9q-3 -21 -26 -21q-28 0 -25 25l1 9q3 22 27 22zM56 44q27 0 24 -26l-1 -9q-3 -21 -26 -21q-28 0 -25 25l1 9q3 22 27 22z" />
    <glyph glyph-name="semicolon" unicode=";" horiz-adv-x="192" 
d="M60 44q28 0 24 -29l-1 -7q-1 -9 -8 -24l-29 -67h-28l27 72q-15 6 -12 26l1 7q3 22 26 22zM113 446q27 0 24 -26l-1 -9q-3 -21 -26 -21q-28 0 -25 25l1 9q3 22 27 22z" />
    <glyph glyph-name="less" unicode="&#x3c;" 
d="M389 447l-329 -144l289 -146l-4 -27l-313 159l4 30l358 158z" />
    <glyph glyph-name="equal" unicode="=" 
d="M376 385h-325l4 24h325zM350 195h-325l3 25h325z" />
    <glyph glyph-name="greater" unicode="&#x3e;" 
d="M371 318l-4 -30l-358 -158l5 30l329 144l-289 146l4 27z" />
    <glyph glyph-name="question" unicode="?" horiz-adv-x="395" 
d="M236 695q141 0 125 -148l-1 -9q-7 -70 -75 -139l-59 -60q-30 -31 -41 -54t-16 -61l-3 -24h-27l3 25q5 45 19 73t50 64l61 61q52 52 61 116l1 8q15 122 -103 122q-63 0 -140 -27l4 29q83 24 141 24zM134 44q27 0 24 -26l-1 -9q-3 -21 -26 -21q-28 0 -25 25l1 9q3 22 27 22
z" />
    <glyph glyph-name="at" unicode="@" horiz-adv-x="959" 
d="M482 695q393 0 393 -377v-50q0 -253 -159 -253q-44 0 -80 31t-44 79l15 93l-2 2l-3 -2q-27 -103 -78 -153t-115 -50q-62 0 -89.5 43.5t-15.5 142.5l13 108q22 178 156 178q43 0 83 -25.5t65 -58.5l8 72h25l-43 -334q4 -43 34.5 -72t70.5 -29q133 0 133 228v50
q0 351 -367 351q-170 0 -265 -100t-95 -281v-100q0 -173 91 -260t262 -87h135v-26h-135q-190 0 -284.5 95.5t-94.5 277.5v100q0 194 102 300.5t284 106.5zM474 461q-110 0 -129 -150l-14 -107q-11 -90 10.5 -126.5t73.5 -36.5q152 0 194 282l7 59q-65 79 -142 79z" />
    <glyph glyph-name="A" unicode="A" horiz-adv-x="506" 
d="M455 0h-31q-6 29 -19 88t-19 89h-297q-13 -30 -39.5 -89t-39.5 -88h-31l293 655h39zM288 628q-124 -282 -187 -424h279q-16 70 -46 212t-46 212z" />
    <glyph glyph-name="B" unicode="B" horiz-adv-x="527" 
d="M53 -5l82 667q117 5 147 5q106 0 155 -46t38 -127l-2 -14q-16 -112 -127 -146q59 -11 90 -54t25 -106l-2 -20q-16 -166 -238 -166q-56 0 -168 7zM122 344h168q61 0 104.5 38t51.5 94l2 14q11 74 -31.5 112.5t-141.5 38.5q-47 0 -117 -4zM119 320l-37 -300q65 -6 141 -6
q197 0 210 142l1 11q7 73 -32 113t-116 40h-167z" />
    <glyph glyph-name="C" unicode="C" horiz-adv-x="476" 
d="M297 667q65 0 147 -28l-5 -27q-85 29 -148 29q-73 0 -110.5 -40t-50.5 -146l-32 -265q-22 -175 137 -175q53 0 136 30l-2 -30q-85 -27 -136 -27q-187 0 -161 210l31 254q15 124 58.5 169.5t135.5 45.5z" />
    <glyph glyph-name="D" unicode="D" horiz-adv-x="571" 
d="M54 -5l82 665q107 7 153 7q118 0 173.5 -67.5t39.5 -201.5l-21 -174q-28 -236 -269 -236q-74 0 -158 7zM159 635l-76 -615q68 -6 131 -6q104 0 165.5 52t74.5 154l22 176q30 245 -189 245q-35 0 -128 -6z" />
    <glyph glyph-name="E" unicode="E" horiz-adv-x="475" 
d="M134 655h305l-3 -26h-278l-36 -283h258l-3 -26h-258l-36 -294h278l-2 -26h-305z" />
    <glyph glyph-name="F" unicode="F" horiz-adv-x="455" 
d="M436 629h-278l-36 -283h211l-3 -26h-211l-38 -320h-27l80 655h305z" />
    <glyph glyph-name="G" unicode="G" horiz-adv-x="558" 
d="M245 -12q-199 0 -174 204l34 280q13 110 60.5 152.5t147.5 42.5q69 0 165 -25l-3 -27q-99 26 -169 26q-82 0 -122 -36.5t-51 -127.5l-36 -290q-22 -173 149 -173q65 0 164 32l35 285h-135l3 26h162l-41 -328q-117 -41 -189 -41z" />
    <glyph glyph-name="H" unicode="H" horiz-adv-x="579" 
d="M465 326h-345l-39 -326h-27l80 655h27l-38 -303h345l38 303h27l-80 -655h-27z" />
    <glyph glyph-name="I" unicode="I" horiz-adv-x="207" 
d="M134 655h27l-80 -655h-27z" />
    <glyph glyph-name="J" unicode="J" horiz-adv-x="264" 
d="M218 655l-68 -553q-8 -64 -32 -89t-74 -25q-32 0 -74 11l3 28q36 -12 72 -12q35 0 53.5 19.5t24.5 68.5l68 552h27z" />
    <glyph glyph-name="K" unicode="K" horiz-adv-x="490" 
d="M134 655h27l-39 -316q182 155 358 316h36l-360 -319l303 -336h-37q-157 183 -301 333l-40 -333h-27z" />
    <glyph glyph-name="L" unicode="L" horiz-adv-x="437" 
d="M134 655h27l-78 -629h280l-2 -26h-307z" />
    <glyph glyph-name="M" unicode="M" horiz-adv-x="698" 
d="M577 0h-28l70 615l-280 -547h-38l-144 547l-80 -615h-28l85 655h40q87 -310 148 -558q136 254 284 558h46z" />
    <glyph glyph-name="N" unicode="N" horiz-adv-x="582" 
d="M157 622l-76 -622h-27l80 655h39q131 -298 260 -617l76 617h27l-80 -655h-35z" />
    <glyph glyph-name="O" unicode="O" horiz-adv-x="576" 
d="M320 667q105 0 153.5 -55t36.5 -156l-32 -262q-13 -106 -64.5 -156t-151.5 -50q-103 0 -152.5 55.5t-36.5 160.5l32 258q13 111 63.5 158t151.5 47zM317 642q-86 0 -129.5 -41t-55.5 -138l-32 -264q-11 -91 32 -138.5t131 -47.5q87 0 132 43.5t56 137.5l32 265
q22 183 -166 183z" />
    <glyph glyph-name="P" unicode="P" horiz-adv-x="504" 
d="M282 667q107 0 160.5 -51.5t42.5 -143.5l-1 -10q-9 -94 -67.5 -144t-161.5 -50q-59 0 -139 20l-35 -288h-27l81 659q99 8 147 8zM279 641q-37 0 -121 -6l-39 -323q72 -18 138 -18q178 0 199 167l1 8q10 82 -35.5 127t-142.5 45z" />
    <glyph glyph-name="Q" unicode="Q" horiz-adv-x="576" 
d="M320 667q105 0 153.5 -55t36.5 -156l-32 -262q-18 -147 -114 -188l118 -43l-2 -24h-12l-138 56q-28 -7 -68 -7q-103 0 -152.5 55.5t-36.5 160.5l32 258q13 111 63.5 158t151.5 47zM317 642q-86 0 -129.5 -41t-55.5 -138l-32 -264q-11 -91 32 -138.5t131 -47.5
q87 0 131.5 43.5t56.5 137.5l32 265q12 92 -31 137.5t-135 45.5z" />
    <glyph glyph-name="R" unicode="R" horiz-adv-x="538" 
d="M282 667q105 0 157.5 -51t43.5 -139l-1 -10q-14 -139 -149 -176l139 -291h-31q-15 34 -133 286q-90 -12 -191 12l-36 -298h-27l81 659q99 8 147 8zM279 641q-37 0 -121 -6l-39 -313q61 -15 139 -15q176 0 196 159l1 8q10 80 -36 123.5t-140 43.5z" />
    <glyph glyph-name="S" unicode="S" horiz-adv-x="451" 
d="M204 361l83 -32q115 -44 100 -175l-1 -9q-9 -82 -50 -119.5t-122 -37.5q-66 0 -162 35l5 28q72 -26 123 -34q26 -2 40 -2q65 0 98.5 29.5t40.5 95.5l2 18q12 109 -80 145l-97 38q-56 22 -81.5 67t-16.5 108l1 7q11 77 52 110.5t122 33.5q61 0 137 -21l-3 -27
q-63 17 -98 21q-15 1 -44 1q-124 0 -139 -116l-2 -15q-14 -108 92 -149z" />
    <glyph glyph-name="T" unicode="T" horiz-adv-x="517" 
d="M84 655h437l-3 -26h-205l-77 -629h-27l77 629h-205z" />
    <glyph glyph-name="U" unicode="U" horiz-adv-x="578" 
d="M532 655l-58 -464q-25 -203 -209 -203q-99 0 -149.5 53.5t-37.5 159.5l56 454h28l-57 -461q-11 -87 32 -133t131 -46q156 0 178 173l58 467h28z" />
    <glyph glyph-name="V" unicode="V" horiz-adv-x="510" 
d="M239 0h-40l-135 655h29q76 -355 127 -626q142 302 281 626h33z" />
    <glyph glyph-name="W" unicode="W" horiz-adv-x="828" 
d="M596 0h-44l-98 624l-249 -624h-44l-87 655h28q57 -373 84 -625q125 302 249 625h43q58 -332 97 -625q108 275 233 625h34z" />
    <glyph glyph-name="X" unicode="X" horiz-adv-x="483" 
d="M264 337l163 -337h-33q-63 143 -151 312q-110 -161 -223 -312h-36l246 335l-155 320h30q79 -153 142 -295q118 159 214 295h36z" />
    <glyph glyph-name="Y" unicode="Y" horiz-adv-x="455" 
d="M232 225l-27 -225h-27l27 225l-141 430h30q69 -207 126 -398q121 208 224 398h35z" />
    <glyph glyph-name="Z" unicode="Z" horiz-adv-x="470" 
d="M16 22l404 607h-323l3 26h359l-4 -22q-162 -232 -402 -607h328l-2 -26h-365z" />
    <glyph glyph-name="bracketleft" unicode="[" horiz-adv-x="220" 
d="M300 677h-133l-99 -699h133l-3 -25h-160l105 749h160z" />
    <glyph glyph-name="backslash" unicode="\" horiz-adv-x="280" 
d="M250 0h-25l-205 683h25z" />
    <glyph glyph-name="bracketright" unicode="]" horiz-adv-x="220" 
d="M88 -47h-159l3 25h132l99 699h-133l3 25h160z" />
    <glyph glyph-name="asciicircum" unicode="^" horiz-adv-x="464" 
d="M400 404h-25l-91 255l-161 -255h-27l178 279h24z" />
    <glyph glyph-name="underscore" unicode="_" horiz-adv-x="610" 
d="M463 -185h-450l4 26h450z" />
    <glyph glyph-name="grave" unicode="`" horiz-adv-x="176" 
d="M66 660l80 -114h-27l-89 114h36z" />
    <glyph glyph-name="a" unicode="a" horiz-adv-x="486" 
d="M243 500q79 0 146 -84l10 72h25l-68 -488h-25l4 31l33 169l-2 2l-3 -2q-29 -106 -81.5 -159t-113.5 -53q-134 0 -105 186l23 148q28 178 157 178zM244 474q-106 0 -130 -150l-24 -147q-14 -88 8.5 -125.5t75.5 -37.5q68 0 122 71.5t75 220.5l12 89q-67 79 -139 79z" />
    <glyph glyph-name="b" unicode="b" horiz-adv-x="481" 
d="M129 683h28q-8 -141 -18 -209l-7 -46l-35 -178l2 -2l3 2q34 127 91 188.5t118 61.5q58 0 84 -45t11 -138l-26 -162q-13 -82 -57.5 -124.5t-111.5 -42.5q-168 0 -143 179l37 266q15 109 24 250zM306 474q-67 0 -125.5 -89.5t-85.5 -232.5q-11 -70 19.5 -104.5t94.5 -34.5
q57 0 95 36t50 109l25 154q14 82 -7.5 122t-65.5 40z" />
    <glyph glyph-name="c" unicode="c" horiz-adv-x="399" 
d="M183 -12q-69 0 -101 45.5t-20 133.5l24 168q23 165 156 165q50 0 108 -17l-5 -26q-54 17 -105 17q-109 0 -127 -137l-23 -169q-21 -154 98 -154q43 0 105 24l-3 -28q-61 -22 -107 -22z" />
    <glyph glyph-name="d" unicode="d" horiz-adv-x="486" 
d="M356 0h-25l4 31l33 169l-2 2l-3 -2q-29 -106 -81.5 -159t-113.5 -53q-134 0 -105 186l23 148q28 178 157 178q37 0 76 -22t68 -58l36 263h28zM244 474q-106 0 -130 -150l-24 -147q-14 -88 8.5 -125.5t75.5 -37.5q68 0 122 71.5t75 220.5l12 89q-67 79 -139 79z" />
    <glyph glyph-name="e" unicode="e" horiz-adv-x="449" 
d="M278 500q57 0 89 -29.5t31 -80.5q-2 -83 -79.5 -139.5t-225.5 -65.5l-2 -16q-11 -86 14.5 -120t92.5 -34q61 0 137 39l-3 -30q-77 -36 -137 -36q-81 0 -112.5 43t-18.5 141l13 98q15 115 69 172.5t132 57.5zM276 474q-63 0 -111 -52.5t-61 -151.5l-8 -64q77 8 157 33
q58 29 87.5 68.5t29.5 78.5q0 42 -25.5 65t-68.5 23z" />
    <glyph glyph-name="f" unicode="f" horiz-adv-x="282" 
d="M279 695q28 0 58 -10l-3 -25q-32 10 -57 10q-39 0 -60.5 -23.5t-29.5 -81.5l-11 -77h90l-3 -24h-90l-80 -567q-7 -52 -29 -73t-65 -21q-30 0 -59 9l4 27q30 -10 58 -10t43.5 15.5t20.5 50.5l80 569h-71l2 18l72 5l11 74q11 76 38.5 105t80.5 29z" />
    <glyph glyph-name="g" unicode="g" horiz-adv-x="486" 
d="M243 500q79 0 146 -84l10 72h25l-76 -546q-11 -78 -43.5 -108.5t-107.5 -30.5q-68 0 -156 24l4 28q84 -26 155 -26q60 0 85.5 23t35.5 88l14 91l33 169l-2 2l-3 -2q-29 -106 -81.5 -159t-113.5 -53q-134 0 -105 186l23 148q28 178 157 178zM244 474q-106 0 -130 -150
l-24 -147q-14 -88 8.5 -125.5t75.5 -37.5q68 0 122 71.5t75 220.5l12 89q-67 79 -139 79z" />
    <glyph glyph-name="h" unicode="h" horiz-adv-x="491" 
d="M134 683h27q-7 -129 -20 -219l-9 -60l-31 -165l2 -2l3 2q35 125 97.5 193t122.5 68q55 0 77 -41.5t8 -140.5l-45 -318h-27l45 323q12 85 -4.5 118t-59.5 33q-71 0 -140 -112.5t-95 -301.5l-8 -60h-27l64 457q12 86 20 226z" />
    <glyph glyph-name="i" unicode="i" horiz-adv-x="207" 
d="M118 488h27l-68 -488h-27zM164 610l-1 -8q-3 -21 -24 -21q-26 0 -23 26l1 8q3 22 25 22q25 0 22 -27z" />
    <glyph glyph-name="j" unicode="j" horiz-adv-x="207" 
d="M145 488l-84 -591q-7 -52 -29 -73t-64 -21q-24 0 -60 11l4 26q33 -11 58 -11q28 0 43.5 15t20.5 51l84 593h27zM166 610l-1 -8q-3 -21 -24 -21q-26 0 -23 26l1 8q3 22 25 22q25 0 22 -27z" />
    <glyph glyph-name="k" unicode="k" horiz-adv-x="431" 
d="M134 683h28q-11 -156 -18 -209l-6 -46l-38 -189l2 -2l3 1q35 130 90 196t118 66q39 0 61 -22t22 -60q0 -63 -50 -118.5t-134 -72.5l123 -227h-33q-17 38 -38 79t-46.5 88.5t-38.5 72.5q91 15 140.5 67.5t49.5 108.5q0 27 -16 43t-43 16q-71 0 -136.5 -112.5t-86.5 -291.5
l-10 -71h-27l60 433q15 109 24 250z" />
    <glyph glyph-name="l" unicode="l" horiz-adv-x="207" 
d="M137 683h27q-8 -126 -22 -219l-65 -464h-27l64 457q14 94 23 226z" />
    <glyph glyph-name="m" unicode="m" horiz-adv-x="774" 
d="M605 500q55 0 77 -41t8 -141l-45 -318h-27l45 323q12 85 -4.5 118t-59.5 33q-69 0 -137 -113t-93 -301l-8 -60h-27l45 323q12 84 -5 117.5t-58 33.5q-70 0 -137.5 -112.5t-93.5 -301.5l-8 -60h-27l68 488h24l-12 -84l-30 -165l2 -2l3 2q35 125 96.5 193t120.5 68
q89 0 89 -108l-26 -153l2 -2l3 2q35 125 96 193t119 68z" />
    <glyph glyph-name="n" unicode="n" horiz-adv-x="496" 
d="M326 500q55 0 77 -41.5t8 -140.5l-45 -318h-27l45 323q12 85 -4.5 118t-59.5 33q-71 0 -140 -112.5t-95 -301.5l-8 -60h-27l68 488h24l-12 -84l-29 -165l2 -2l3 2q35 125 97.5 193t122.5 68z" />
    <glyph glyph-name="o" unicode="o" horiz-adv-x="483" 
d="M408 317l-21 -157q-12 -88 -55.5 -130t-124.5 -42t-119 47t-25 138l22 156q13 91 54.5 131t123.5 40q79 0 118.5 -48t26.5 -135zM359 159l22 161q10 74 -22 114t-98 40q-69 0 -103.5 -34t-45.5 -110l-22 -160q-10 -77 20.5 -116.5t96.5 -39.5q131 0 152 145z" />
    <glyph glyph-name="p" unicode="p" horiz-adv-x="482" 
d="M316 500q58 0 84 -45t10 -138l-29 -167q-29 -162 -143 -162q-35 0 -79 20t-75 48q-10 -62 -49 -241h-27q36 149 53 267l57 406h22l-10 -74l-29 -164l2 -2l3 2q34 127 91 188.5t119 61.5zM310 474q-68 0 -130.5 -95t-88.5 -275l-4 -26q28 -26 70.5 -45t74.5 -19
q50 0 80 31.5t43 107.5l28 159q14 83 -7.5 122.5t-65.5 39.5z" />
    <glyph glyph-name="q" unicode="q" horiz-adv-x="487" 
d="M243 500q79 0 146 -84l10 72h26l-95 -673h-28l31 216l35 169l-2 2l-3 -2q-29 -106 -81.5 -159t-113.5 -53q-134 0 -105 186l23 148q28 178 157 178zM244 474q-106 0 -130 -150l-24 -147q-14 -88 8.5 -125.5t75.5 -37.5q68 0 122 71.5t75 220.5l12 89q-67 79 -139 79z" />
    <glyph glyph-name="r" unicode="r" horiz-adv-x="329" 
d="M309 500q12 0 20 -2l-4 -31q-10 3 -25 3q-61 0 -124.5 -111t-88.5 -288l-10 -71h-27l68 488h24l-12 -84l-30 -165l2 -2l3 2q35 127 92.5 194t111.5 67z" />
    <glyph glyph-name="s" unicode="s" horiz-adv-x="395" 
d="M216 500q49 0 106 -18l-4 -30q-41 15 -65 19q-18 3 -43 3q-96 0 -108 -73l-1 -6q-12 -74 62 -111l86 -45q85 -44 70 -131l-2 -12q-19 -108 -134 -108q-69 0 -140 34l6 29q38 -19 88 -33q21 -4 47 -4q92 0 106 86l1 6q7 40 -7.5 66.5t-53.5 46.5l-89 45q-41 21 -58 57
t-9 79l2 10q17 90 140 90z" />
    <glyph glyph-name="t" unicode="t" horiz-adv-x="335" 
d="M160 488h150l-3 -24h-150l-47 -327q-10 -72 5 -97.5t61 -25.5q38 0 86 20l-3 -26q-47 -20 -87 -20q-57 0 -79 34t-10 117l47 325h-70l2 18l70 5l28 131h18z" />
    <glyph glyph-name="u" unicode="u" horiz-adv-x="496" 
d="M366 0h-25l4 31l34 169l-2 2l-3 -2q-28 -105 -80.5 -158.5t-114.5 -53.5q-133 0 -106 186l45 314h27l-45 -311q-13 -90 8.5 -126.5t73.5 -36.5q68 0 123.5 71.5t76.5 222.5l25 180h27z" />
    <glyph glyph-name="v" unicode="v" horiz-adv-x="422" 
d="M187 0h-33l-106 488h26q68 -304 97 -456l2 -2l3 2q117 225 224 456h30z" />
    <glyph glyph-name="w" unicode="w" horiz-adv-x="662" 
d="M474 0h-36l-83 457l-212 -457h-36l-49 488h28q16 -163 41 -455l3 -2l2 2q93 198 209 455h34q54 -302 79 -455l3 -2l2 2q97 252 171 455h30z" />
    <glyph glyph-name="x" unicode="x" horiz-adv-x="385" 
d="M204 253l126 -253h-33q-61 134 -109 234l-2 2l-3 -2q-68 -96 -172 -234h-36l195 253l-115 235h30q18 -40 53.5 -113t48.5 -101l2 -2l3 2q72 95 157 214h36z" />
    <glyph glyph-name="y" unicode="y" horiz-adv-x="496" 
d="M434 488l-76 -546q-11 -78 -43.5 -108.5t-107.5 -30.5q-68 0 -156 24l4 28q84 -26 155 -26q60 0 85.5 23t35.5 88l14 91l34 169l-2 2l-3 -2q-28 -105 -80.5 -158.5t-114.5 -53.5q-133 0 -106 186l45 314h27l-45 -311q-13 -90 8.5 -126.5t73.5 -36.5q68 0 123.5 71.5
t76.5 222.5l25 180h27z" />
    <glyph glyph-name="z" unicode="z" horiz-adv-x="404" 
d="M376 488l-3 -22q-133 -170 -322 -439h261l-3 -27h-299l2 21l324 441h-258l4 26h294z" />
    <glyph glyph-name="braceleft" unicode="{" horiz-adv-x="234" 
d="M322 701l-3 -24q-82 10 -113 -14.5t-42 -107.5l-15 -112q-13 -96 -75 -115q29 -10 39 -37t3 -78l-14 -105q-10 -78 13.5 -104t105.5 -26l-3 -24q-94 0 -124 33t-18 126l13 100q13 102 -50 102h-25l3 26h25q65 0 80 102l16 114q14 96 53.5 127.5t130.5 16.5z" />
    <glyph glyph-name="bar" unicode="|" horiz-adv-x="198" 
d="M66 -56h-28l107 768h28z" />
    <glyph glyph-name="braceright" unicode="}" horiz-adv-x="234" 
d="M25 677l3 24q94 0 124 -33t18 -126l-13 -99q-13 -102 50 -102h25l-3 -26h-25q-65 0 -80 -102l-17 -115q-14 -96 -54 -127.5t-130 -16.5l3 24q82 -10 113 14.5t42 107.5l16 113q14 96 75 115q-29 10 -39 37t-3 78l14 104q10 78 -13.5 104t-105.5 26z" />
    <glyph glyph-name="asciitilde" unicode="~" 
d="M367 323l-4 -29q-47 -24 -98 -24q-33 0 -67 17t-65 17q-16 0 -40 -6t-40 -12l-16 -5l4 29q46 24 97 24q34 0 68 -17t65 -17q16 0 40 6t40 12z" />
    <glyph glyph-name="uni00A0" unicode="&#xa0;" horiz-adv-x="260" 
 />
    <glyph glyph-name="exclamdown" unicode="&#xa1;" horiz-adv-x="187" 
d="M118 467q-27 0 -24 26l1 9q3 21 26 21q28 0 25 -25l-1 -9q-3 -22 -27 -22zM83 311h25l-66 -495h-31z" />
    <glyph glyph-name="cent" unicode="&#xa2;" horiz-adv-x="384" 
d="M103 337l-23 -169q-21 -154 98 -154q43 0 105 24l-3 -28q-56 -20 -100 -22l-11 -76h-26l11 77q-59 6 -86 51.5t-16 126.5l24 168q24 162 150 165l10 76h26l-10 -77q42 -3 88 -16l-5 -26q-54 17 -105 17q-109 0 -127 -137z" />
    <glyph glyph-name="sterling" unicode="&#xa3;" horiz-adv-x="377" 
d="M253 613q46 0 98 -16l-3 -26q-53 16 -96 16q-53 0 -79.5 -25.5t-33.5 -87.5l-15 -121h125l-3 -26h-125l-23 -170q-7 -49 -18 -78t-34 -53h287l-2 -26h-317l2 22q46 49 55 126l22 179h-70l3 26h70l16 120q10 77 43.5 108.5t97.5 31.5z" />
    <glyph glyph-name="currency" unicode="&#xa4;" horiz-adv-x="480" 
d="M465 483l-77 -67q13 -34 7 -81l-9 -62q-7 -50 -31 -83l54 -62l-19 -17l-51 59q-42 -39 -117 -39t-111 46l-76 -65l-15 18l78 68q-18 38 -11 92l9 62q6 43 23 74l-50 59l19 17l47 -55q41 47 124 47t118 -56l73 63zM257 468q-117 0 -135 -118l-9 -62q-9 -61 21 -96t91 -35
q119 0 135 118l9 62q9 61 -21.5 96t-90.5 35z" />
    <glyph glyph-name="yen" unicode="&#xa5;" horiz-adv-x="379" 
d="M203 245h103l-3 -24h-109l-11 -73h109l-3 -25h-109l-17 -123h-27l17 123h-108l3 25h108l11 73h-108l3 24h101l-114 356h30q59 -193 104 -347q71 120 201 347h34z" />
    <glyph glyph-name="brokenbar" unicode="&#xa6;" horiz-adv-x="198" 
d="M128 392h-28l45 320h28zM65 -56h-28l45 320h28z" />
    <glyph glyph-name="section" unicode="&#xa7;" horiz-adv-x="480" 
d="M283 695q42 0 116 -19l-6 -26q-53 13 -77 17q-20 2 -36 2q-52 0 -77 -19.5t-32 -66.5l-1 -6q-8 -47 8.5 -76t59.5 -48l103 -44q87 -38 74 -127l-2 -14q-15 -96 -155 -121q103 -43 86 -146l-2 -12q-18 -107 -138 -107q-47 0 -122 21l6 27q45 -13 84 -20q20 -2 35 -2
q50 0 75.5 19.5t33.5 68.5l1 6q7 46 -8.5 74t-59.5 47l-103 44q-46 20 -63.5 52t-9.5 83l2 13q16 96 148 116q-98 44 -80 147l2 12q9 54 41.5 79.5t96.5 25.5zM328 386l-72 31q-67 -5 -107 -33.5t-48 -73.5l-2 -11q-13 -76 60 -109l67 -29q144 19 161 111l2 12q6 38 -8 61.5
t-53 40.5z" />
    <glyph glyph-name="dieresis" unicode="&#xa8;" horiz-adv-x="219" 
d="M74 606l-1 -6q-3 -19 -21 -19q-11 0 -17 6.5t-4 17.5l1 6q3 20 22 20q24 0 20 -25zM188 606l-1 -6q-3 -19 -21 -19q-11 0 -17 6.5t-4 17.5l1 6q3 20 22 20q24 0 20 -25z" />
    <glyph glyph-name="copyright" unicode="&#xa9;" horiz-adv-x="646" 
d="M355 616q248 0 221 -222l-29 -207q-15 -107 -73.5 -154.5t-181.5 -47.5q-124 0 -179 58t-40 164l29 207q15 109 73 155.5t180 46.5zM353 590q-107 0 -158.5 -41t-63.5 -128l-32 -229q-12 -85 39 -133t158 -48q106 0 158.5 41.5t64.5 127.5l32 230q12 85 -39.5 132.5
t-158.5 47.5zM347 481q37 0 82 -13l-4 -26q-39 13 -75 13q-43 0 -65.5 -20.5t-29.5 -69.5l-15 -112q-14 -99 70 -99q38 0 80 17l-2 -28q-42 -15 -81 -15q-113 0 -95 124l16 112q9 63 37 90t82 27z" />
    <glyph glyph-name="ordfeminine" unicode="&#xaa;" horiz-adv-x="459" 
d="M249 667q79 0 146 -84l10 72h25l-59 -430h-25l4 31l30 159l-2 2l-3 -2q-27 -99 -80.5 -150.5t-109.5 -51.5q-132 0 -103 186l15 90q29 178 152 178zM250 641q-98 0 -125 -150l-16 -89q-15 -88 7 -125.5t75 -37.5q66 0 119.5 71.5t74.5 220.5l4 31q-67 79 -139 79zM339 0
h-309l3 24h309z" />
    <glyph glyph-name="guillemotleft" unicode="&#xab;" horiz-adv-x="392" 
d="M109 268l68 -170h-26l-74 170l123 170h26zM216 268l68 -170h-26l-74 170l123 170h26z" />
    <glyph glyph-name="logicalnot" unicode="&#xac;" 
d="M344 126h-25l24 168h-309l3 26h334z" />
    <glyph glyph-name="uni00AD" unicode="&#xad;" horiz-adv-x="350" 
d="M269 283h-190l4 26h190z" />
    <glyph glyph-name="registered" unicode="&#xae;" horiz-adv-x="536" 
d="M312 695q93 0 138.5 -52t31.5 -142l-5 -34q-13 -94 -57 -132t-137 -38q-92 0 -137.5 50.5t-32.5 143.5l5 34q14 94 58 132t136 38zM310 669q-79 0 -116.5 -30.5t-47.5 -104.5l-7 -52q-10 -77 29 -118t116 -41q78 0 116 30t49 105l7 53q10 76 -28.5 117t-117.5 41z
M310 609q37 0 56.5 -19.5t15.5 -51.5l-1 -7q-7 -43 -53 -55l42 -92h-32q-18 47 -38 86q-27 0 -46 3l-13 -89h-27l32 222q40 3 64 3zM309 584q-18 0 -40 -2l-12 -85q21 -3 39 -3q53 0 59 38l1 6q4 21 -8 33.5t-39 12.5z" />
    <glyph glyph-name="macron" unicode="&#xaf;" horiz-adv-x="249" 
d="M34 621h185l-4 -29h-185z" />
    <glyph glyph-name="degree" unicode="&#xb0;" horiz-adv-x="401" 
d="M250 695q74 0 109 -44t25 -126l-5 -38q-21 -160 -166 -160q-73 0 -108.5 44.5t-24.5 126.5l5 38q21 159 165 159zM249 670q-62 0 -94.5 -31.5t-42.5 -102.5l-5 -38q-9 -74 19.5 -110t88.5 -36t94 31.5t43 103.5l5 38q10 72 -18.5 108.5t-89.5 36.5z" />
    <glyph glyph-name="plusminus" unicode="&#xb1;" 
d="M216 320h151l-3 -26h-151l-24 -168h-25l24 168h-151l3 26h151l24 168h25zM323 0h-327l3 26h327z" />
    <glyph glyph-name="twosuperior" unicode="&#xb2;" 
d="M270 760q47 0 73.5 -30.5t17.5 -82.5l-1 -6q-11 -64 -81 -135l-147 -151h195l-3 -24h-230l3 21l177 184q54 55 61 107l1 7q6 43 -13 64.5t-59 21.5q-42 0 -98 -15l3 25q59 14 101 14z" />
    <glyph glyph-name="threesuperior" unicode="&#xb3;" 
d="M255 760q53 0 77.5 -27t17.5 -80l-1 -7q-5 -33 -25 -59.5t-52 -38.5q31 -10 47 -38.5t11 -66.5l-1 -7q-15 -113 -126 -113q-40 0 -104 16l4 24q57 -17 103 -17q84 0 97 92l1 7q6 40 -16 66t-64 26h-77l3 22h77q40 0 66 24.5t30 62.5l1 10q9 81 -72 81q-39 0 -98 -16l3 25
q60 14 98 14z" />
    <glyph glyph-name="acute" unicode="&#xb4;" horiz-adv-x="176" 
d="M30 546l80 114h36l-89 -114h-27z" />
    <glyph glyph-name="mu" unicode="&#xb5;" horiz-adv-x="496" 
d="M366 0h-25l4 31l34 169l-2 2l-3 -2q-28 -105 -80.5 -158.5t-114.5 -53.5q-74 0 -97 62q-7 -52 -47 -235h-27q36 147 53 268l57 405h27l-45 -311q-13 -90 8.5 -126.5t73.5 -36.5q68 0 123.5 71.5t76.5 222.5l25 180h27z" />
    <glyph glyph-name="paragraph" unicode="&#xb6;" horiz-adv-x="546" 
d="M172 -185h-27l70 493h-60q-60 0 -84 34t-14 111l16 115q8 62 39.5 88.5t95.5 26.5h86zM389 -185h-27l122 868h27zM264 657h-59q-52 0 -75 -21.5t-31 -79.5l-15 -106q-8 -66 9.5 -91t66.5 -25h58z" />
    <glyph glyph-name="periodcentered" unicode="&#xb7;" horiz-adv-x="191" 
d="M56 245q27 0 24 -26l-1 -9q-3 -21 -26 -21q-28 0 -25 25l1 9q3 22 27 22z" />
    <glyph glyph-name="cedilla" unicode="&#xb8;" horiz-adv-x="198" 
d="M89 -43h10q37 0 55.5 -22.5t12.5 -58.5l-1 -6q-12 -67 -77 -67q-25 0 -59 10l3 23q32 -10 59 -10q22 0 33 10t15 36l1 6q10 58 -51 58h-30l1 12l26 55h23z" />
    <glyph glyph-name="onesuperior" unicode="&#xb9;" 
d="M233 355h94l-3 -24h-225l3 24h104l52 369l-113 -46l-5 25l125 49h24z" />
    <glyph glyph-name="ordmasculine" unicode="&#xba;" horiz-adv-x="483" 
d="M427 478l-12 -86q-13 -92 -55.5 -134.5t-123.5 -42.5q-167 0 -140 190l12 86q14 94 55 135t123 41q79 0 116.5 -48.5t24.5 -140.5zM386 386l14 101q10 75 -20 114.5t-96 39.5q-68 0 -102.5 -34t-45.5 -110l-14 -100q-11 -78 18.5 -117t95.5 -39t103 35t47 110zM43 23h323
l-3 -24h-323z" />
    <glyph glyph-name="guillemotright" unicode="&#xbb;" horiz-adv-x="392" 
d="M202 268l-122 -170h-26l116 170l-69 170h26zM309 268l-122 -170h-26l116 170l-69 170h26z" />
    <glyph glyph-name="onequarter" unicode="&#xbc;" horiz-adv-x="953" 
d="M212 205h94l-3 -24h-225l3 24h104l52 369l-113 -46l-5 25l125 49h24zM278 0h-26l389 601h26zM613 114h179l1 7l23 165h26l-24 -172h56l-3 -24h-56l-13 -90h-27l13 90h-200l-6 16l142 315h26z" />
    <glyph glyph-name="onehalf" unicode="&#xbd;" horiz-adv-x="902" 
d="M212 205h94l-3 -24h-225l3 24h104l52 369l-113 -46l-5 25l125 49h24zM278 0h-26l389 601h26zM725 429q47 0 73.5 -30.5t17.5 -82.5l-1 -6q-11 -64 -81 -135l-147 -151h195l-3 -24h-230l3 21l177 184q54 55 61 107l1 7q6 43 -13 64.5t-59 21.5q-42 0 -98 -15l3 25
q60 14 101 14z" />
    <glyph glyph-name="threequarters" unicode="&#xbe;" horiz-adv-x="1180" 
d="M234 610q53 0 77.5 -27t17.5 -80l-1 -7q-5 -33 -25 -59.5t-52 -38.5q31 -10 47 -38.5t11 -66.5l-1 -7q-15 -113 -126 -113q-40 0 -104 16l4 24q57 -17 103 -17q84 0 97 92l1 7q6 40 -16 66t-64 26h-77l3 22h77q40 0 66 24.5t30 62.5l1 10q9 81 -72 81q-39 0 -98 -16l3 25
q60 14 98 14zM326 0h-26l389 601h26zM664 114h179l1 7l23 165h26l-24 -172h56l-3 -24h-56l-13 -90h-27l13 90h-200l-6 16l142 315h26z" />
    <glyph glyph-name="questiondown" unicode="&#xbf;" horiz-adv-x="395" 
d="M250 454q-27 0 -24 26l1 9q3 21 26 21q28 0 25 -25l-1 -9q-3 -22 -27 -22zM148 -197q-141 0 -125 148l1 9q7 70 75 139l59 60q30 31 41 54t16 61l3 24h27l-3 -25q-5 -45 -19 -73t-50 -64l-61 -61q-52 -52 -61 -116l-1 -8q-15 -122 103 -122q63 0 140 27l-4 -29
q-83 -24 -141 -24z" />
    <glyph glyph-name="Agrave" unicode="&#xc0;" horiz-adv-x="506" 
d="M455 0h-31l-38 177h-297l-79 -177h-31l293 655h39zM288 628l-187 -424h279zM228 814l77 -109h-26l-86 109h35z" />
    <glyph glyph-name="Aacute" unicode="&#xc1;" horiz-adv-x="506" 
d="M455 0h-31l-38 177h-297l-79 -177h-31l293 655h39zM288 628l-187 -424h279zM280 705l77 109h35l-86 -109h-26z" />
    <glyph glyph-name="Acircumflex" unicode="&#xc2;" horiz-adv-x="506" 
d="M455 0h-31l-38 177h-297l-79 -177h-31l293 655h39zM288 628l-187 -424h279zM419 748l-3 -26l-110 53l-123 -53l3 27l125 58z" />
    <glyph glyph-name="Atilde" unicode="&#xc3;" horiz-adv-x="506" 
d="M455 0h-31l-38 177h-297l-79 -177h-31l293 655h39zM288 628l-187 -424h279zM427 776l-4 -26q-36 -22 -76 -22q-15 0 -50 12.5t-49 12.5q-15 0 -33 -4.5t-29 -9.5l-11 -5l3 26q34 22 75 22q22 0 55 -12.5t44 -12.5q15 0 33.5 4.5t30.5 9.5z" />
    <glyph glyph-name="Adieresis" unicode="&#xc4;" horiz-adv-x="506" 
d="M455 0h-31l-38 177h-297l-79 -177h-31l293 655h39zM288 628l-187 -424h279zM264 761l-1 -6q-3 -19 -21 -19q-11 0 -17 6.5t-4 17.5l1 6q3 20 22 20q24 0 20 -25zM378 761l-1 -6q-3 -19 -21 -19q-11 0 -17 6.5t-4 17.5l1 6q3 20 22 20q24 0 20 -25z" />
    <glyph glyph-name="Aring" unicode="&#xc5;" horiz-adv-x="506" 
d="M304 798q40 0 61 -19.5t21 -53.5t-19 -57.5t-52 -29.5l140 -638h-31q-26 118 -38 177h-297q-13 -30 -39.5 -89t-39.5 -88h-31l285 638q-55 13 -55 75q0 37 26 61t69 24zM304 778q-32 0 -51.5 -18t-19.5 -46q0 -27 16 -42.5t44 -15.5q34 0 51.5 18t17.5 50
q0 25 -15.5 39.5t-42.5 14.5zM288 628q-152 -345 -187 -424h279q-16 70 -46 212t-46 212z" />
    <glyph glyph-name="AE" unicode="&#xc6;" horiz-adv-x="777" 
d="M738 629h-278l-36 -283h258l-3 -26h-258l-36 -294h278l-2 -26h-305l21 178h-260q-94 -139 -122 -178h-31l455 655h322zM380 204l53 430q-135 -199 -298 -430h245z" />
    <glyph glyph-name="Ccedilla" unicode="&#xc7;" horiz-adv-x="476" 
d="M297 667q65 0 147 -28l-5 -27q-85 29 -148 29q-73 0 -110.5 -40t-50.5 -146l-32 -265q-22 -175 137 -175q53 0 136 30l-2 -30q-78 -25 -126 -27l-15 -31h10q37 0 55.5 -22.5t12.5 -58.5l-1 -6q-12 -67 -77 -67q-25 0 -59 10l3 23q32 -10 59 -10q22 0 33 10t15 36l1 6
q10 58 -51 58h-30l1 12l19 40q-171 8 -147 210l31 254q15 124 58.5 169.5t135.5 45.5z" />
    <glyph glyph-name="Egrave" unicode="&#xc8;" horiz-adv-x="475" 
d="M134 655h305l-3 -26h-278l-36 -283h258l-3 -26h-258l-36 -294h278l-2 -26h-305zM218 814l77 -109h-26l-86 109h35z" />
    <glyph glyph-name="Eacute" unicode="&#xc9;" horiz-adv-x="475" 
d="M134 655h305l-3 -26h-278l-36 -283h258l-3 -26h-258l-36 -294h278l-2 -26h-305zM270 705l77 109h35l-86 -109h-26z" />
    <glyph glyph-name="Ecircumflex" unicode="&#xca;" horiz-adv-x="475" 
d="M134 655h305l-3 -26h-278l-36 -283h258l-3 -26h-258l-36 -294h278l-2 -26h-305zM409 748l-3 -26l-110 53l-123 -53l3 27l125 58z" />
    <glyph glyph-name="Edieresis" unicode="&#xcb;" horiz-adv-x="475" 
d="M134 655h305l-3 -26h-278l-36 -283h258l-3 -26h-258l-36 -294h278l-2 -26h-305zM254 761l-1 -6q-3 -19 -21 -19q-11 0 -17 6.5t-4 17.5l1 6q3 20 22 20q24 0 20 -25zM368 761l-1 -6q-3 -19 -21 -19q-11 0 -17 6.5t-4 17.5l1 6q3 20 22 20q24 0 20 -25z" />
    <glyph glyph-name="Igrave" unicode="&#xcc;" horiz-adv-x="207" 
d="M134 655h27l-80 -655h-27zM85 814l77 -109h-26l-86 109h35z" />
    <glyph glyph-name="Iacute" unicode="&#xcd;" horiz-adv-x="207" 
d="M134 655h27l-80 -655h-27zM137 705l77 109h35l-86 -109h-26z" />
    <glyph glyph-name="Icircumflex" unicode="&#xce;" horiz-adv-x="207" 
d="M134 655h27l-80 -655h-27zM276 748l-3 -26l-110 53l-123 -53l3 27l125 58z" />
    <glyph glyph-name="Idieresis" unicode="&#xcf;" horiz-adv-x="207" 
d="M134 655h27l-80 -655h-27zM121 761l-1 -6q-3 -19 -21 -19q-11 0 -17 6.5t-4 17.5l1 6q3 20 22 20q24 0 20 -25zM235 761l-1 -6q-3 -19 -21 -19q-11 0 -17 6.5t-4 17.5l1 6q3 20 22 20q24 0 20 -25z" />
    <glyph glyph-name="Eth" unicode="&#xd0;" horiz-adv-x="575" 
d="M293 667q118 0 173.5 -67.5t39.5 -201.5l-21 -174q-28 -236 -269 -236q-74 0 -158 7l41 331h-83l3 26h83l38 309q92 6 153 6zM291 641q-51 0 -128 -5l-35 -284h151l-3 -26h-151l-38 -306q68 -6 131 -6q104 0 165.5 52t74.5 154l22 176q30 245 -189 245z" />
    <glyph glyph-name="Ntilde" unicode="&#xd1;" horiz-adv-x="582" 
d="M157 622l-76 -622h-27l80 655h39q131 -298 260 -617l76 617h27l-80 -655h-35zM469 776l-4 -26q-36 -22 -76 -22q-15 0 -50 12.5t-49 12.5q-15 0 -33 -4.5t-29 -9.5l-11 -5l3 26q34 22 75 22q22 0 55 -12.5t44 -12.5q15 0 33.5 4.5t30.5 9.5z" />
    <glyph glyph-name="Ograve" unicode="&#xd2;" horiz-adv-x="576" 
d="M320 667q105 0 153.5 -55t36.5 -156l-32 -262q-13 -106 -64.5 -156t-151.5 -50q-103 0 -152.5 55.5t-36.5 160.5l32 258q13 111 63.5 158t151.5 47zM317 642q-86 0 -129.5 -41t-55.5 -138l-32 -264q-11 -91 32 -138.5t131 -47.5q87 0 132 43.5t56 137.5l32 265
q22 183 -166 183zM262 814l77 -109h-26l-86 109h35z" />
    <glyph glyph-name="Oacute" unicode="&#xd3;" horiz-adv-x="576" 
d="M320 667q105 0 153.5 -55t36.5 -156l-32 -262q-13 -106 -64.5 -156t-151.5 -50q-103 0 -152.5 55.5t-36.5 160.5l32 258q13 111 63.5 158t151.5 47zM317 642q-86 0 -129.5 -41t-55.5 -138l-32 -264q-11 -91 32 -138.5t131 -47.5q87 0 132 43.5t56 137.5l32 265
q22 183 -166 183zM314 705l77 109h35l-86 -109h-26z" />
    <glyph glyph-name="Ocircumflex" unicode="&#xd4;" horiz-adv-x="576" 
d="M320 667q105 0 153.5 -55t36.5 -156l-32 -262q-13 -106 -64.5 -156t-151.5 -50q-103 0 -152.5 55.5t-36.5 160.5l32 258q13 111 63.5 158t151.5 47zM317 642q-86 0 -129.5 -41t-55.5 -138l-32 -264q-11 -91 32 -138.5t131 -47.5q87 0 132 43.5t56 137.5l32 265
q22 183 -166 183zM453 748l-3 -26l-110 53l-123 -53l3 27l125 58z" />
    <glyph glyph-name="Otilde" unicode="&#xd5;" horiz-adv-x="576" 
d="M320 667q105 0 153.5 -55t36.5 -156l-32 -262q-13 -106 -64.5 -156t-151.5 -50q-103 0 -152.5 55.5t-36.5 160.5l32 258q13 111 63.5 158t151.5 47zM317 642q-86 0 -129.5 -41t-55.5 -138l-32 -264q-11 -91 32 -138.5t131 -47.5q87 0 132 43.5t56 137.5l32 265
q22 183 -166 183zM461 776l-4 -26q-36 -22 -76 -22q-15 0 -50 12.5t-49 12.5q-15 0 -33 -4.5t-29 -9.5l-11 -5l3 26q34 22 75 22q22 0 55 -12.5t44 -12.5q15 0 33.5 4.5t30.5 9.5z" />
    <glyph glyph-name="Odieresis" unicode="&#xd6;" horiz-adv-x="576" 
d="M320 667q105 0 153.5 -55t36.5 -156l-32 -262q-13 -106 -64.5 -156t-151.5 -50q-103 0 -152.5 55.5t-36.5 160.5l32 258q13 111 63.5 158t151.5 47zM317 642q-86 0 -129.5 -41t-55.5 -138l-32 -264q-11 -91 32 -138.5t131 -47.5q87 0 132 43.5t56 137.5l32 265
q22 183 -166 183zM298 761l-1 -6q-3 -19 -21 -19q-11 0 -17 6.5t-4 17.5l1 6q3 20 22 20q24 0 20 -25zM412 761l-1 -6q-3 -19 -21 -19q-11 0 -17 6.5t-4 17.5l1 6q3 20 22 20q24 0 20 -25z" />
    <glyph glyph-name="multiply" unicode="&#xd7;" 
d="M357 427l-137 -121l101 -119l-20 -17l-102 119l-136 -119l-15 18l136 119l-103 119l20 17l102 -118l138 120z" />
    <glyph glyph-name="Oslash" unicode="&#xd8;" horiz-adv-x="576" 
d="M563 705l-75 -111q33 -56 21 -150l-31 -247q-14 -109 -64.5 -159t-152.5 -50t-149 50l-64 -88h-28l76 108q-34 53 -22 153l31 248q14 114 63 161t152 47q105 0 152 -53l63 91h28zM317 642q-86 0 -130 -41t-56 -138l-32 -267q-9 -71 14 -115l344 510q-42 51 -140 51z
M470 571l-343 -509q42 -49 135 -49q88 0 132.5 43.5t56.5 137.5l32 265q9 67 -13 112z" />
    <glyph glyph-name="Ugrave" unicode="&#xd9;" horiz-adv-x="578" 
d="M532 655l-58 -464q-25 -203 -209 -203q-99 0 -149.5 53.5t-37.5 159.5l56 454h28l-57 -461q-11 -87 32 -133t131 -46q156 0 178 173l58 467h28zM266 814l77 -109h-26l-86 109h35z" />
    <glyph glyph-name="Uacute" unicode="&#xda;" horiz-adv-x="578" 
d="M532 655l-58 -464q-25 -203 -209 -203q-99 0 -149.5 53.5t-37.5 159.5l56 454h28l-57 -461q-11 -87 32 -133t131 -46q156 0 178 173l58 467h28zM318 705l77 109h35l-86 -109h-26z" />
    <glyph glyph-name="Ucircumflex" unicode="&#xdb;" horiz-adv-x="578" 
d="M532 655l-58 -464q-25 -203 -209 -203q-99 0 -149.5 53.5t-37.5 159.5l56 454h28l-57 -461q-11 -87 32 -133t131 -46q156 0 178 173l58 467h28zM457 748l-3 -26l-110 53l-123 -53l3 27l125 58z" />
    <glyph glyph-name="Udieresis" unicode="&#xdc;" horiz-adv-x="578" 
d="M532 655l-58 -464q-25 -203 -209 -203q-99 0 -149.5 53.5t-37.5 159.5l56 454h28l-57 -461q-11 -87 32 -133t131 -46q156 0 178 173l58 467h28zM302 761l-1 -6q-3 -19 -21 -19q-11 0 -17 6.5t-4 17.5l1 6q3 20 22 20q24 0 20 -25zM416 761l-1 -6q-3 -19 -21 -19
q-11 0 -17 6.5t-4 17.5l1 6q3 20 22 20q24 0 20 -25z" />
    <glyph glyph-name="Yacute" unicode="&#xdd;" horiz-adv-x="455" 
d="M232 225l-27 -225h-27l27 225l-141 430h30q69 -207 126 -398q121 208 224 398h35zM254 705l77 109h35l-86 -109h-26z" />
    <glyph glyph-name="Thorn" unicode="&#xde;" horiz-adv-x="494" 
d="M161 655l-15 -121q55 5 120 5q107 0 160.5 -51.5t42.5 -143.5l-1 -11q-22 -193 -229 -193q-59 0 -139 20l-19 -160h-27l80 655h27zM263 513q-51 0 -121 -5l-39 -324q72 -18 138 -18q177 0 199 167l1 8q10 82 -35.5 127t-142.5 45z" />
    <glyph glyph-name="germandbls" unicode="&#xdf;" horiz-adv-x="486" 
d="M281 695q67 0 104 -37t30 -92l-2 -15q-4 -30 -20.5 -52.5t-34 -34t-34 -30t-19.5 -40.5l-3 -21q-5 -40 28 -67l42 -35q37 -30 48.5 -61.5t3.5 -82.5l-3 -21q-9 -62 -35 -90t-74 -28q-52 0 -122 30l6 27q45 -20 86 -29q16 -2 33 -2q33 0 52.5 21.5t27.5 72.5l3 19
q7 43 -2.5 70.5t-40.5 51.5l-44 35q-44 35 -37 87l4 26q5 30 21.5 51.5t34.5 32t34 30t19 45.5l1 8q6 46 -23.5 75.5t-86.5 29.5q-58 0 -87.5 -32t-41.5 -119l-72 -518h-27l64 464h-69l2 18l71 5l4 29q14 102 51 140.5t108 38.5z" />
    <glyph glyph-name="agrave" unicode="&#xe0;" horiz-adv-x="486" 
d="M243 500q79 0 146 -84l10 72h25l-68 -488h-25l4 31l33 169l-2 2l-3 -2q-29 -106 -81.5 -159t-113.5 -53q-134 0 -105 186l23 148q28 178 157 178zM244 474q-106 0 -130 -150l-24 -147q-14 -88 8.5 -125.5t75.5 -37.5q68 0 122 71.5t75 220.5l12 89q-67 79 -139 79z
M204 660l80 -114h-27l-89 114h36z" />
    <glyph glyph-name="aacute" unicode="&#xe1;" horiz-adv-x="486" 
d="M243 500q79 0 146 -84l10 72h25l-68 -488h-25l4 31l33 169l-2 2l-3 -2q-29 -106 -81.5 -159t-113.5 -53q-134 0 -105 186l23 148q28 178 157 178zM244 474q-106 0 -130 -150l-24 -147q-14 -88 8.5 -125.5t75.5 -37.5q68 0 122 71.5t75 220.5l12 89q-67 79 -139 79z
M258 546l80 114h36l-89 -114h-27z" />
    <glyph glyph-name="acircumflex" unicode="&#xe2;" horiz-adv-x="486" 
d="M243 500q79 0 146 -84l10 72h25l-68 -488h-25l4 31l33 169l-2 2l-3 -2q-29 -106 -81.5 -159t-113.5 -53q-134 0 -105 186l23 148q28 178 157 178zM244 474q-106 0 -130 -150l-24 -147q-14 -88 8.5 -125.5t75.5 -37.5q68 0 122 71.5t75 220.5l12 89q-67 79 -139 79z
M388 593l-4 -26l-101 59l-120 -59l4 28l119 62z" />
    <glyph glyph-name="atilde" unicode="&#xe3;" horiz-adv-x="486" 
d="M243 500q79 0 146 -84l10 72h25l-68 -488h-25l4 31l33 169l-2 2l-3 -2q-29 -106 -81.5 -159t-113.5 -53q-134 0 -105 186l23 148q28 178 157 178zM244 474q-106 0 -130 -150l-24 -147q-14 -88 8.5 -125.5t75.5 -37.5q68 0 122 71.5t75 220.5l12 89q-67 79 -139 79z
M384 625l-3 -26q-27 -22 -67 -22q-15 0 -40.5 12.5t-38.5 12.5q-15 0 -31.5 -5t-25.5 -11l-10 -5l4 26q26 22 67 22q22 0 45 -12.5t33 -12.5q15 0 31.5 5t25.5 11z" />
    <glyph glyph-name="adieresis" unicode="&#xe4;" horiz-adv-x="486" 
d="M243 500q79 0 146 -84l10 72h25l-68 -488h-25l4 31l33 169l-2 2l-3 -2q-29 -106 -81.5 -159t-113.5 -53q-134 0 -105 186l23 148q28 178 157 178zM244 474q-106 0 -130 -150l-24 -147q-14 -88 8.5 -125.5t75.5 -37.5q68 0 122 71.5t75 220.5l12 89q-67 79 -139 79z
M239 606l-1 -6q-3 -19 -21 -19q-11 0 -17 6.5t-4 17.5l1 6q3 20 22 20q24 0 20 -25zM353 606l-1 -6q-3 -19 -21 -19q-11 0 -17 6.5t-4 17.5l1 6q3 20 22 20q24 0 20 -25z" />
    <glyph glyph-name="aring" unicode="&#xe5;" horiz-adv-x="486" 
d="M243 500q79 0 146 -84l10 72h25l-68 -488h-25l4 31l33 169l-2 2l-3 -2q-29 -106 -81.5 -159t-113.5 -53q-134 0 -105 186l23 148q28 178 157 178zM244 474q-106 0 -130 -150l-24 -147q-14 -88 8.5 -125.5t75.5 -37.5q68 0 122 71.5t75 220.5l12 89q-67 79 -139 79z
M281 706q40 0 62 -18.5t22 -53.5q0 -39 -25 -64.5t-68 -25.5q-85 0 -85 74q0 40 25 64t69 24zM280 686q-34 0 -51.5 -17.5t-17.5 -48.5q0 -26 16 -41t46 -15q68 0 68 68q0 26 -16 40t-45 14z" />
    <glyph glyph-name="ae" unicode="&#xe6;" horiz-adv-x="737" 
d="M566 500q57 0 89 -29.5t31 -80.5q-2 -83 -80 -139.5t-225 -65.5l-3 -23q-10 -82 14.5 -114.5t93.5 -32.5q61 0 137 39l-3 -30q-77 -36 -137 -36q-78 0 -110 40.5t-19 130.5q-30 -85 -80 -128t-106 -43q-134 0 -105 186l23 148q28 178 161 178q44 0 85.5 -27t71.5 -73
q56 100 162 100zM248 474q-110 0 -134 -150l-24 -147q-14 -88 8.5 -125.5t75.5 -37.5q64 0 116 60t77 196q8 61 26 108q-27 44 -66.5 70t-78.5 26zM564 474q-63 0 -111 -52.5t-61 -151.5l-8 -64q77 8 157 33q57 29 87 69t30 78q0 42 -25.5 65t-68.5 23z" />
    <glyph glyph-name="ccedilla" unicode="&#xe7;" horiz-adv-x="399" 
d="M242 500q50 0 108 -17l-5 -26q-54 17 -105 17q-109 0 -127 -137l-23 -169q-21 -154 98 -154q43 0 105 24l-3 -28q-58 -20 -103 -22l-14 -31h10q37 0 55.5 -22.5t12.5 -58.5l-1 -6q-12 -67 -77 -67q-25 0 -59 10l3 23q32 -10 59 -10q22 0 33 10t15 36l1 6q10 58 -51 58
h-30l1 12l19 41q-124 13 -102 178l24 168q23 165 156 165z" />
    <glyph glyph-name="egrave" unicode="&#xe8;" horiz-adv-x="449" 
d="M278 500q57 0 89 -29.5t31 -80.5q-2 -83 -79.5 -139.5t-225.5 -65.5l-2 -16q-11 -86 14.5 -120t92.5 -34q61 0 137 39l-3 -30q-77 -36 -137 -36q-81 0 -112.5 43t-18.5 141l13 98q15 115 69 172.5t132 57.5zM276 474q-63 0 -111 -52.5t-61 -151.5l-8 -64q77 8 157 33
q58 29 87.5 68.5t29.5 78.5q0 42 -25.5 65t-68.5 23zM209 660l80 -114h-27l-89 114h36z" />
    <glyph glyph-name="eacute" unicode="&#xe9;" horiz-adv-x="449" 
d="M278 500q57 0 89 -29.5t31 -80.5q-2 -83 -79.5 -139.5t-225.5 -65.5l-2 -16q-11 -86 14.5 -120t92.5 -34q61 0 137 39l-3 -30q-77 -36 -137 -36q-81 0 -112.5 43t-18.5 141l13 98q15 115 69 172.5t132 57.5zM276 474q-63 0 -111 -52.5t-61 -151.5l-8 -64q77 8 157 33
q58 29 87.5 68.5t29.5 78.5q0 42 -25.5 65t-68.5 23zM263 546l80 114h36l-89 -114h-27z" />
    <glyph glyph-name="ecircumflex" unicode="&#xea;" horiz-adv-x="449" 
d="M278 500q57 0 89 -29.5t31 -80.5q-2 -83 -79.5 -139.5t-225.5 -65.5l-2 -16q-11 -86 14.5 -120t92.5 -34q61 0 137 39l-3 -30q-77 -36 -137 -36q-81 0 -112.5 43t-18.5 141l13 98q15 115 69 172.5t132 57.5zM276 474q-63 0 -111 -52.5t-61 -151.5l-8 -64q77 8 157 33
q58 29 87.5 68.5t29.5 78.5q0 42 -25.5 65t-68.5 23zM393 593l-4 -26l-101 59l-120 -59l4 28l119 62z" />
    <glyph glyph-name="edieresis" unicode="&#xeb;" horiz-adv-x="449" 
d="M278 500q57 0 89 -29.5t31 -80.5q-2 -83 -79.5 -139.5t-225.5 -65.5l-2 -16q-11 -86 14.5 -120t92.5 -34q61 0 137 39l-3 -30q-77 -36 -137 -36q-81 0 -112.5 43t-18.5 141l13 98q15 115 69 172.5t132 57.5zM276 474q-63 0 -111 -52.5t-61 -151.5l-8 -64q77 8 157 33
q58 29 87.5 68.5t29.5 78.5q0 42 -25.5 65t-68.5 23zM244 606l-1 -6q-3 -19 -21 -19q-11 0 -17 6.5t-4 17.5l1 6q3 20 22 20q24 0 20 -25zM358 606l-1 -6q-3 -19 -21 -19q-11 0 -17 6.5t-4 17.5l1 6q3 20 22 20q24 0 20 -25z" />
    <glyph glyph-name="igrave" unicode="&#xec;" horiz-adv-x="207" 
d="M118 488h27l-68 -488h-27zM71 660l80 -114h-27l-89 114h36z" />
    <glyph glyph-name="iacute" unicode="&#xed;" horiz-adv-x="207" 
d="M118 488h27l-68 -488h-27zM125 546l80 114h36l-89 -114h-27z" />
    <glyph glyph-name="icircumflex" unicode="&#xee;" horiz-adv-x="207" 
d="M118 488h27l-68 -488h-27zM255 593l-4 -26l-101 59l-120 -59l4 28l119 62z" />
    <glyph glyph-name="idieresis" unicode="&#xef;" horiz-adv-x="207" 
d="M118 488h27l-68 -488h-27zM106 606l-1 -6q-3 -19 -21 -19q-11 0 -17 6.5t-4 17.5l1 6q3 20 22 20q24 0 20 -25zM220 606l-1 -6q-3 -19 -21 -19q-11 0 -17 6.5t-4 17.5l1 6q3 20 22 20q24 0 20 -25z" />
    <glyph glyph-name="eth" unicode="&#xf0;" horiz-adv-x="496" 
d="M184 670l3 25q134 0 193 -97l83 23l-3 -19l-71 -21q44 -93 22 -256l-25 -177q-11 -79 -54 -119.5t-113 -40.5q-75 0 -115.5 50t-28.5 140l12 93q21 168 146 168q51 0 90 -37t60 -87l5 37q18 139 -25 221l-135 -39l3 22l121 34q-53 80 -168 80zM237 413q-51 0 -80.5 -33
t-42.5 -120l-12 -84q-10 -74 23 -118t94 -44q121 0 139 129l20 138q-19 48 -58.5 90t-82.5 42z" />
    <glyph glyph-name="ntilde" unicode="&#xf1;" horiz-adv-x="496" 
d="M326 500q55 0 77 -41.5t8 -140.5l-45 -318h-27l45 323q12 85 -4.5 118t-59.5 33q-71 0 -140 -112.5t-95 -301.5l-8 -60h-27l68 488h24l-12 -84l-29 -165l2 -2l3 2q35 125 97.5 193t122.5 68zM394 625l-3 -26q-27 -22 -67 -22q-15 0 -40.5 12.5t-38.5 12.5q-15 0 -31.5 -5
t-25.5 -11l-10 -5l4 26q26 22 67 22q22 0 45 -12.5t33 -12.5q15 0 31.5 5t25.5 11z" />
    <glyph glyph-name="ograve" unicode="&#xf2;" horiz-adv-x="483" 
d="M408 317l-21 -157q-12 -88 -55.5 -130t-124.5 -42t-119 47t-25 138l22 156q13 91 54.5 131t123.5 40q79 0 118.5 -48t26.5 -135zM359 159l22 161q10 74 -22 114t-98 40q-69 0 -103.5 -34t-45.5 -110l-22 -160q-10 -77 20.5 -116.5t96.5 -39.5q131 0 152 145zM207 660
l80 -114h-27l-89 114h36z" />
    <glyph glyph-name="oacute" unicode="&#xf3;" horiz-adv-x="483" 
d="M408 317l-21 -157q-12 -88 -55.5 -130t-124.5 -42t-119 47t-25 138l22 156q13 91 54.5 131t123.5 40q79 0 118.5 -48t26.5 -135zM359 159l22 161q10 74 -22 114t-98 40q-69 0 -103.5 -34t-45.5 -110l-22 -160q-10 -77 20.5 -116.5t96.5 -39.5q131 0 152 145zM261 546
l80 114h36l-89 -114h-27z" />
    <glyph glyph-name="ocircumflex" unicode="&#xf4;" horiz-adv-x="483" 
d="M408 317l-21 -157q-12 -88 -55.5 -130t-124.5 -42t-119 47t-25 138l22 156q13 91 54.5 131t123.5 40q79 0 118.5 -48t26.5 -135zM359 159l22 161q10 74 -22 114t-98 40q-69 0 -103.5 -34t-45.5 -110l-22 -160q-10 -77 20.5 -116.5t96.5 -39.5q131 0 152 145zM391 593
l-4 -26l-101 59l-120 -59l4 28l119 62z" />
    <glyph glyph-name="otilde" unicode="&#xf5;" horiz-adv-x="483" 
d="M408 317l-21 -157q-12 -88 -55.5 -130t-124.5 -42t-119 47t-25 138l22 156q13 91 54.5 131t123.5 40q79 0 118.5 -48t26.5 -135zM359 159l22 161q10 74 -22 114t-98 40q-69 0 -103.5 -34t-45.5 -110l-22 -160q-10 -77 20.5 -116.5t96.5 -39.5q131 0 152 145zM387 625
l-3 -26q-27 -22 -67 -22q-15 0 -40.5 12.5t-38.5 12.5q-15 0 -31.5 -5t-26.5 -11l-9 -5l4 26q26 22 67 22q22 0 45 -12.5t33 -12.5q15 0 31.5 5t26.5 11z" />
    <glyph glyph-name="odieresis" unicode="&#xf6;" horiz-adv-x="483" 
d="M408 317l-21 -157q-12 -88 -55.5 -130t-124.5 -42t-119 47t-25 138l22 156q13 91 54.5 131t123.5 40q79 0 118.5 -48t26.5 -135zM359 159l22 161q10 74 -22 114t-98 40q-69 0 -103.5 -34t-45.5 -110l-22 -160q-10 -77 20.5 -116.5t96.5 -39.5q131 0 152 145zM242 606
l-1 -6q-3 -19 -21 -19q-11 0 -17 6.5t-4 17.5l1 6q3 20 22 20q24 0 20 -25zM356 606l-1 -6q-3 -19 -21 -19q-11 0 -17 6.5t-4 17.5l1 6q3 20 22 20q24 0 20 -25z" />
    <glyph glyph-name="divide" unicode="&#xf7;" 
d="M226 489q26 0 23 -26l-1 -9q-3 -21 -27 -21q-27 0 -24 25l1 9q3 22 28 22zM364 294h-327l3 26h327zM183 181q26 0 23 -26l-1 -9q-3 -21 -27 -21q-27 0 -24 25l1 9q3 22 28 22z" />
    <glyph glyph-name="oslash" unicode="&#xf8;" horiz-adv-x="483" 
d="M476 538l-81 -107q23 -45 13 -114l-22 -157q-12 -88 -55 -130t-124 -42q-77 0 -115 42l-61 -81h-28l76 100q-27 45 -16 124l22 156q13 91 54.5 131t123.5 40q81 0 119 -49l66 87h28zM261 474q-68 0 -103 -34t-46 -110l-22 -160q-7 -58 8 -95l266 352q-30 47 -103 47z
M375 404l-265 -350q30 -40 97 -40q131 0 151 145l22 161q7 48 -5 84z" />
    <glyph glyph-name="ugrave" unicode="&#xf9;" horiz-adv-x="496" 
d="M366 0h-25l4 31l34 169l-2 2l-3 -2q-28 -105 -80.5 -158.5t-114.5 -53.5q-133 0 -106 186l45 314h27l-45 -311q-13 -90 8.5 -126.5t73.5 -36.5q68 0 123.5 71.5t76.5 222.5l25 180h27zM219 660l80 -114h-27l-89 114h36z" />
    <glyph glyph-name="uacute" unicode="&#xfa;" horiz-adv-x="496" 
d="M366 0h-25l4 31l34 169l-2 2l-3 -2q-28 -105 -80.5 -158.5t-114.5 -53.5q-133 0 -106 186l45 314h27l-45 -311q-13 -90 8.5 -126.5t73.5 -36.5q68 0 123.5 71.5t76.5 222.5l25 180h27zM273 546l80 114h36l-89 -114h-27z" />
    <glyph glyph-name="ucircumflex" unicode="&#xfb;" horiz-adv-x="496" 
d="M366 0h-25l4 31l34 169l-2 2l-3 -2q-28 -105 -80.5 -158.5t-114.5 -53.5q-133 0 -106 186l45 314h27l-45 -311q-13 -90 8.5 -126.5t73.5 -36.5q68 0 123.5 71.5t76.5 222.5l25 180h27zM403 593l-4 -26l-101 59l-120 -59l4 28l119 62z" />
    <glyph glyph-name="udieresis" unicode="&#xfc;" horiz-adv-x="496" 
d="M366 0h-25l4 31l34 169l-2 2l-3 -2q-28 -105 -80.5 -158.5t-114.5 -53.5q-133 0 -106 186l45 314h27l-45 -311q-13 -90 8.5 -126.5t73.5 -36.5q68 0 123.5 71.5t76.5 222.5l25 180h27zM254 606l-1 -6q-3 -19 -21 -19q-11 0 -17 6.5t-4 17.5l1 6q3 20 22 20q24 0 20 -25z
M368 606l-1 -6q-3 -19 -21 -19q-11 0 -17 6.5t-4 17.5l1 6q3 20 22 20q24 0 20 -25z" />
    <glyph glyph-name="yacute" unicode="&#xfd;" horiz-adv-x="496" 
d="M434 488l-76 -546q-11 -78 -43.5 -108.5t-107.5 -30.5q-68 0 -156 24l4 28q84 -26 155 -26q60 0 85.5 23t35.5 88l14 91l34 169l-2 2l-3 -2q-28 -105 -80.5 -158.5t-114.5 -53.5q-133 0 -106 186l45 314h27l-45 -311q-13 -90 8.5 -126.5t73.5 -36.5q68 0 123.5 71.5
t76.5 222.5l25 180h27zM273 546l80 114h36l-89 -114h-27z" />
    <glyph glyph-name="thorn" unicode="&#xfe;" horiz-adv-x="484" 
d="M135 417l-34 -167l2 -2l3 2q34 127 91 188.5t119 61.5q57 0 83.5 -45t10.5 -138l-29 -167q-28 -162 -143 -162q-35 0 -79 20t-75 48l-35 -241h-27l123 868h27zM310 474q-68 0 -130.5 -95t-88.5 -275l-4 -26q28 -26 70.5 -45t74.5 -19q51 0 80.5 32t42.5 107l28 159
q14 83 -7.5 122.5t-65.5 39.5z" />
    <glyph glyph-name="ydieresis" unicode="&#xff;" horiz-adv-x="496" 
d="M434 488l-76 -546q-11 -78 -43.5 -108.5t-107.5 -30.5q-68 0 -156 24l4 28q84 -26 155 -26q60 0 85.5 23t35.5 88l14 91l34 169l-2 2l-3 -2q-28 -105 -80.5 -158.5t-114.5 -53.5q-133 0 -106 186l45 314h27l-45 -311q-13 -90 8.5 -126.5t73.5 -36.5q68 0 123.5 71.5
t76.5 222.5l25 180h27zM254 606l-1 -6q-3 -19 -21 -19q-11 0 -17 6.5t-4 17.5l1 6q3 20 22 20q24 0 20 -25zM368 606l-1 -6q-3 -19 -21 -19q-11 0 -17 6.5t-4 17.5l1 6q3 20 22 20q24 0 20 -25z" />
    <glyph glyph-name="Amacron" unicode="&#x100;" horiz-adv-x="506" 
d="M455 0h-31l-38 177h-297l-79 -177h-31l293 655h39zM288 628l-187 -424h279zM202 758h201l-4 -29h-201z" />
    <glyph glyph-name="amacron" unicode="&#x101;" horiz-adv-x="486" 
d="M243 500q79 0 146 -84l10 72h25l-68 -488h-25l4 31l33 169l-2 2l-3 -2q-29 -106 -81.5 -159t-113.5 -53q-134 0 -105 186l23 148q28 178 157 178zM244 474q-106 0 -130 -150l-24 -147q-14 -88 8.5 -125.5t75.5 -37.5q68 0 122 71.5t75 220.5l12 89q-67 79 -139 79z
M185 621h185l-4 -29h-185z" />
    <glyph glyph-name="Abreve" unicode="&#x102;" horiz-adv-x="506" 
d="M455 0h-31l-38 177h-297l-79 -177h-31l293 655h39zM288 628l-187 -424h279zM416 790l-5 -34q-4 -4 -13 -10.5t-39 -17.5t-65 -11q-33 0 -60.5 9.5t-37.5 19.5l-11 10l5 34q4 -5 12 -12.5t35.5 -20t58.5 -12.5t61 11.5t45 22.5z" />
    <glyph glyph-name="abreve" unicode="&#x103;" horiz-adv-x="486" 
d="M243 500q79 0 146 -84l10 72h25l-68 -488h-25l4 31l33 169l-2 2l-3 -2q-29 -106 -81.5 -159t-113.5 -53q-134 0 -105 186l23 148q28 178 157 178zM244 474q-106 0 -130 -150l-24 -147q-14 -88 8.5 -125.5t75.5 -37.5q68 0 122 71.5t75 220.5l12 89q-67 79 -139 79z
M388 646l-4 -34q-5 -6 -13.5 -14.5t-39 -23t-63.5 -14.5t-59 13t-35 26l-10 13l4 34q4 -6 12 -16t34.5 -26t55.5 -16q31 0 60.5 14.5t43.5 29.5z" />
    <glyph glyph-name="Aogonek" unicode="&#x104;" horiz-adv-x="506" 
d="M455 0h-8q-38 -16 -66.5 -47t-32.5 -62l-1 -7q-8 -55 51 -55q16 0 37 7l-3 -27q-26 -6 -42 -6q-37 0 -56 21t-14 56l1 8q4 37 34.5 70t67.5 45q-24 116 -37 174h-297q-13 -30 -39.5 -89t-39.5 -88h-31l293 655h39zM288 628q-124 -282 -187 -424h279q-16 70 -46 212
t-46 212z" />
    <glyph glyph-name="aogonek" unicode="&#x105;" horiz-adv-x="486" 
d="M243 500q41 0 82 -22.5t64 -61.5l10 72h25l-68 -488h-1q-37 -18 -63.5 -48.5t-30.5 -60.5l-1 -7q-8 -55 51 -55q16 0 37 7l-3 -27q-25 -6 -42 -6q-37 0 -56 21t-14 56l1 8q4 36 32.5 68t64.5 46l4 29l33 169l-2 2l-3 -2q-29 -106 -81.5 -159t-113.5 -53q-134 0 -105 186
l23 148q28 178 157 178zM244 474q-106 0 -130 -150l-24 -147q-14 -88 8.5 -125.5t75.5 -37.5q68 0 122 71.5t75 220.5l12 89q-67 79 -139 79z" />
    <glyph glyph-name="Cacute" unicode="&#x106;" horiz-adv-x="476" 
d="M297 667q65 0 147 -28l-5 -27q-85 29 -148 29q-73 0 -110.5 -40t-50.5 -146l-32 -265q-22 -175 137 -175q53 0 136 30l-2 -30q-85 -27 -136 -27q-187 0 -161 210l31 254q15 124 58.5 169.5t135.5 45.5zM295 705l77 109h35l-86 -109h-26z" />
    <glyph glyph-name="cacute" unicode="&#x107;" horiz-adv-x="399" 
d="M183 -12q-69 0 -101 45.5t-20 133.5l24 168q23 165 156 165q50 0 108 -17l-5 -26q-54 17 -105 17q-109 0 -127 -137l-23 -169q-21 -154 98 -154q43 0 105 24l-3 -28q-61 -22 -107 -22zM242 546l80 114h36l-89 -114h-27z" />
    <glyph glyph-name="Ccircumflex" unicode="&#x108;" horiz-adv-x="476" 
d="M297 667q65 0 147 -28l-5 -27q-85 29 -148 29q-73 0 -110.5 -40t-50.5 -146l-32 -265q-22 -175 137 -175q53 0 136 30l-2 -30q-85 -27 -136 -27q-187 0 -161 210l31 254q15 124 58.5 169.5t135.5 45.5zM434 748l-3 -26l-110 53l-123 -53l3 27l125 58z" />
    <glyph glyph-name="ccircumflex" unicode="&#x109;" horiz-adv-x="399" 
d="M183 -12q-69 0 -101 45.5t-20 133.5l24 168q23 165 156 165q50 0 108 -17l-5 -26q-54 17 -105 17q-109 0 -127 -137l-23 -169q-21 -154 98 -154q43 0 105 24l-3 -28q-61 -22 -107 -22zM372 593l-4 -26l-101 59l-120 -59l4 28l119 62z" />
    <glyph glyph-name="Cdotaccent" unicode="&#x10a;" horiz-adv-x="476" 
d="M297 667q65 0 147 -28l-5 -27q-85 29 -148 29q-73 0 -110.5 -40t-50.5 -146l-32 -265q-22 -175 137 -175q53 0 136 30l-2 -30q-85 -27 -136 -27q-187 0 -161 210l31 254q15 124 58.5 169.5t135.5 45.5zM337 765l-1 -8q-3 -21 -24 -21q-26 0 -23 26l1 8q3 22 25 22
q25 0 22 -27z" />
    <glyph glyph-name="cdotaccent" unicode="&#x10b;" horiz-adv-x="399" 
d="M183 -12q-69 0 -101 45.5t-20 133.5l24 168q23 165 156 165q50 0 108 -17l-5 -26q-54 17 -105 17q-109 0 -127 -137l-23 -169q-21 -154 98 -154q43 0 105 24l-3 -28q-61 -22 -107 -22zM281 610l-1 -8q-3 -21 -24 -21q-26 0 -23 26l1 8q3 22 25 22q25 0 22 -27z" />
    <glyph glyph-name="Ccaron" unicode="&#x10c;" horiz-adv-x="476" 
d="M297 667q65 0 147 -28l-5 -27q-85 29 -148 29q-73 0 -110.5 -40t-50.5 -146l-32 -265q-22 -175 137 -175q53 0 136 30l-2 -30q-85 -27 -136 -27q-187 0 -161 210l31 254q15 124 58.5 169.5t135.5 45.5zM431 783l-125 -58l-108 59l3 26l110 -53l123 53z" />
    <glyph glyph-name="ccaron" unicode="&#x10d;" horiz-adv-x="399" 
d="M183 -12q-69 0 -101 45.5t-20 133.5l24 168q23 165 156 165q50 0 108 -17l-5 -26q-54 17 -105 17q-109 0 -127 -137l-23 -169q-21 -154 98 -154q43 0 105 24l-3 -28q-61 -22 -107 -22zM368 634l-119 -63l-102 64l4 26l101 -59l120 59z" />
    <glyph glyph-name="Dcaron" unicode="&#x10e;" horiz-adv-x="571" 
d="M54 -5l82 665q107 7 153 7q118 0 173.5 -67.5t39.5 -201.5l-21 -174q-28 -236 -269 -236q-74 0 -158 7zM159 635l-76 -615q68 -6 131 -6q104 0 165.5 52t74.5 154l22 176q30 245 -189 245q-35 0 -128 -6zM433 783l-125 -58l-108 59l3 26l110 -53l123 53z" />
    <glyph glyph-name="dcaron" unicode="&#x10f;" horiz-adv-x="503" 
d="M356 0h-25l4 31l33 169l-2 2l-3 -2q-29 -106 -81.5 -159t-113.5 -53q-134 0 -105 186l23 148q28 178 157 178q37 0 76 -22t68 -58l36 263h28zM244 474q-106 0 -130 -150l-24 -147q-14 -88 8.5 -125.5t75.5 -37.5q68 0 122 71.5t75 220.5l12 89q-67 79 -139 79zM547 668
l-1 -7q0 -3 -7 -22l-28 -64h-23l26 68q-18 6 -15 25l1 6q3 21 25 21q26 0 22 -27z" />
    <glyph glyph-name="Dcroat" unicode="&#x110;" horiz-adv-x="575" 
d="M293 667q118 0 173.5 -67.5t39.5 -201.5l-21 -174q-28 -236 -269 -236q-74 0 -158 7l41 331h-83l3 26h83l38 309q92 6 153 6zM291 641q-51 0 -128 -5l-35 -284h151l-3 -26h-151l-38 -306q68 -6 131 -6q104 0 165.5 52t74.5 154l22 176q30 245 -189 245z" />
    <glyph glyph-name="dcroat" unicode="&#x111;" horiz-adv-x="491" 
d="M442 615h74l-3 -24h-75l-82 -591h-25l4 31l33 169l-2 2l-3 -2q-29 -106 -81.5 -159t-113.5 -53q-134 0 -105 186l23 148q28 178 157 178q37 0 76 -22t68 -58l23 171h-144l3 24h145l9 68h28zM244 474q-106 0 -130 -150l-24 -147q-14 -88 8.5 -125.5t75.5 -37.5
q68 0 122 71.5t75 220.5l12 89q-67 79 -139 79z" />
    <glyph glyph-name="Emacron" unicode="&#x112;" horiz-adv-x="475" 
d="M134 655h305l-3 -26h-278l-36 -283h258l-3 -26h-258l-36 -294h278l-2 -26h-305zM192 758h201l-4 -29h-201z" />
    <glyph glyph-name="emacron" unicode="&#x113;" horiz-adv-x="449" 
d="M278 500q57 0 89 -29.5t31 -80.5q-2 -83 -79.5 -139.5t-225.5 -65.5l-2 -16q-11 -86 14.5 -120t92.5 -34q61 0 137 39l-3 -30q-77 -36 -137 -36q-81 0 -112.5 43t-18.5 141l13 98q15 115 69 172.5t132 57.5zM276 474q-63 0 -111 -52.5t-61 -151.5l-8 -64q77 8 157 33
q58 29 87.5 68.5t29.5 78.5q0 42 -25.5 65t-68.5 23zM190 621h185l-4 -29h-185z" />
    <glyph glyph-name="Ebreve" unicode="&#x114;" horiz-adv-x="475" 
d="M134 655h305l-3 -26h-278l-36 -283h258l-3 -26h-258l-36 -294h278l-2 -26h-305zM406 790l-5 -34q-4 -4 -13 -10.5t-39 -17.5t-65 -11q-33 0 -60.5 9.5t-37.5 19.5l-11 10l5 34q4 -5 12 -12.5t35.5 -20t58.5 -12.5t61 11.5t45 22.5z" />
    <glyph glyph-name="ebreve" unicode="&#x115;" horiz-adv-x="449" 
d="M278 500q57 0 89 -29.5t31 -80.5q-2 -83 -79.5 -139.5t-225.5 -65.5l-2 -16q-11 -86 14.5 -120t92.5 -34q61 0 137 39l-3 -30q-77 -36 -137 -36q-81 0 -112.5 43t-18.5 141l13 98q15 115 69 172.5t132 57.5zM276 474q-63 0 -111 -52.5t-61 -151.5l-8 -64q77 8 157 33
q58 29 87.5 68.5t29.5 78.5q0 42 -25.5 65t-68.5 23zM393 646l-4 -34q-5 -6 -13.5 -14.5t-39 -23t-63.5 -14.5t-59 13t-36 26l-9 13l4 34q4 -6 12 -16t34.5 -26t55.5 -16q31 0 60.5 14.5t43.5 29.5z" />
    <glyph glyph-name="Edotaccent" unicode="&#x116;" horiz-adv-x="475" 
d="M134 655h305l-3 -26h-278l-36 -283h258l-3 -26h-258l-36 -294h278l-2 -26h-305zM312 765l-1 -8q-3 -21 -24 -21q-26 0 -23 26l1 8q3 22 25 22q25 0 22 -27z" />
    <glyph glyph-name="edotaccent" unicode="&#x117;" horiz-adv-x="449" 
d="M278 500q57 0 89 -29.5t31 -80.5q-2 -83 -79.5 -139.5t-225.5 -65.5l-2 -16q-11 -86 14.5 -120t92.5 -34q61 0 137 39l-3 -30q-77 -36 -137 -36q-81 0 -112.5 43t-18.5 141l13 98q15 115 69 172.5t132 57.5zM276 474q-63 0 -111 -52.5t-61 -151.5l-8 -64q77 8 157 33
q58 29 87.5 68.5t29.5 78.5q0 42 -25.5 65t-68.5 23zM302 610l-1 -8q-3 -21 -24 -21q-26 0 -23 26l1 8q3 22 25 22q25 0 22 -27z" />
    <glyph glyph-name="Eogonek" unicode="&#x118;" horiz-adv-x="475" 
d="M436 629h-278l-36 -283h258l-3 -26h-258l-36 -294h278l-2 -26h-80q-38 -16 -66.5 -47t-32.5 -62l-1 -7q-8 -55 51 -55q16 0 37 7l-3 -27q-25 -6 -42 -6q-37 0 -56 21t-14 56l1 8q4 34 31 65.5t62 46.5h-192l80 655h305z" />
    <glyph glyph-name="eogonek" unicode="&#x119;" horiz-adv-x="449" 
d="M278 500q57 0 89 -29.5t31 -80.5q-2 -83 -79.5 -139.5t-225.5 -65.5l-2 -16q-11 -86 14.5 -120t92.5 -34q61 0 137 39l-3 -30q-31 -14 -57 -22q-40 -15 -70 -47t-35 -64l-1 -7q-8 -55 51 -55q16 0 37 7l-3 -27q-26 -6 -42 -6q-37 0 -56 21t-14 56l1 8q4 29 24 57t48 45
q-30 -8 -60 -1.5t-53.5 22.5t-34.5 58t-3 103l13 98q15 115 69 172.5t132 57.5zM276 474q-63 0 -111 -52.5t-61 -151.5l-8 -64q77 8 157 33q58 29 87.5 68.5t29.5 78.5q0 42 -25.5 65t-68.5 23z" />
    <glyph glyph-name="Ecaron" unicode="&#x11a;" horiz-adv-x="475" 
d="M134 655h305l-3 -26h-278l-36 -283h258l-3 -26h-258l-36 -294h278l-2 -26h-305zM406 783l-125 -58l-108 59l3 26l110 -53l123 53z" />
    <glyph glyph-name="ecaron" unicode="&#x11b;" horiz-adv-x="449" 
d="M278 500q57 0 89 -29.5t31 -80.5q-2 -83 -79.5 -139.5t-225.5 -65.5l-2 -16q-11 -86 14.5 -120t92.5 -34q61 0 137 39l-3 -30q-77 -36 -137 -36q-81 0 -112.5 43t-18.5 141l13 98q15 115 69 172.5t132 57.5zM276 474q-63 0 -111 -52.5t-61 -151.5l-8 -64q77 8 157 33
q58 29 87.5 68.5t29.5 78.5q0 42 -25.5 65t-68.5 23zM389 634l-119 -63l-102 64l4 26l101 -59l120 59z" />
    <glyph glyph-name="Gcircumflex" unicode="&#x11c;" horiz-adv-x="558" 
d="M245 -12q-199 0 -174 204l34 280q13 110 60.5 152.5t147.5 42.5q69 0 165 -25l-3 -27q-99 26 -169 26q-82 0 -122 -36.5t-51 -127.5l-36 -290q-22 -173 149 -173q65 0 164 32l35 285h-135l3 26h162l-41 -328q-117 -41 -189 -41zM444 748l-3 -26l-110 53l-123 -53l3 27
l125 58z" />
    <glyph glyph-name="gcircumflex" unicode="&#x11d;" horiz-adv-x="486" 
d="M243 500q79 0 146 -84l10 72h25l-76 -546q-11 -78 -43.5 -108.5t-107.5 -30.5q-68 0 -156 24l4 28q84 -26 155 -26q60 0 85.5 23t35.5 88l14 91l33 169l-2 2l-3 -2q-29 -106 -81.5 -159t-113.5 -53q-134 0 -105 186l23 148q28 178 157 178zM244 474q-106 0 -130 -150
l-24 -147q-14 -88 8.5 -125.5t75.5 -37.5q68 0 122 71.5t75 220.5l12 89q-67 79 -139 79zM389 593l-4 -26l-101 59l-120 -59l4 28l119 62z" />
    <glyph glyph-name="Gbreve" unicode="&#x11e;" horiz-adv-x="558" 
d="M245 -12q-199 0 -174 204l34 280q13 110 60.5 152.5t147.5 42.5q69 0 165 -25l-3 -27q-99 26 -169 26q-82 0 -122 -36.5t-51 -127.5l-36 -290q-22 -173 149 -173q65 0 164 32l35 285h-135l3 26h162l-41 -328q-117 -41 -189 -41zM441 790l-5 -34q-4 -4 -13 -10.5
t-39 -17.5t-65 -11q-33 0 -60.5 9.5t-38.5 19.5l-10 10l5 34q4 -5 12 -12.5t35.5 -20t58.5 -12.5t61 11.5t44 22.5z" />
    <glyph glyph-name="gbreve" unicode="&#x11f;" horiz-adv-x="486" 
d="M243 500q79 0 146 -84l10 72h25l-76 -546q-11 -78 -43.5 -108.5t-107.5 -30.5q-68 0 -156 24l4 28q84 -26 155 -26q60 0 85.5 23t35.5 88l14 91l33 169l-2 2l-3 -2q-29 -106 -81.5 -159t-113.5 -53q-134 0 -105 186l23 148q28 178 157 178zM244 474q-106 0 -130 -150
l-24 -147q-14 -88 8.5 -125.5t75.5 -37.5q68 0 122 71.5t75 220.5l12 89q-67 79 -139 79zM389 646l-4 -34q-5 -6 -13.5 -14.5t-39 -23t-63.5 -14.5t-59 13t-36 26l-9 13l4 34q4 -6 12 -16t34.5 -26t55.5 -16q31 0 60.5 14.5t43.5 29.5z" />
    <glyph glyph-name="Gdotaccent" unicode="&#x120;" horiz-adv-x="558" 
d="M245 -12q-199 0 -174 204l34 280q13 110 60.5 152.5t147.5 42.5q69 0 165 -25l-3 -27q-99 26 -169 26q-82 0 -122 -36.5t-51 -127.5l-36 -290q-22 -173 149 -173q65 0 164 32l35 285h-135l3 26h162l-41 -328q-117 -41 -189 -41zM347 765l-1 -8q-3 -21 -24 -21
q-26 0 -23 26l1 8q3 22 25 22q25 0 22 -27z" />
    <glyph glyph-name="gdotaccent" unicode="&#x121;" horiz-adv-x="486" 
d="M243 500q79 0 146 -84l10 72h25l-76 -546q-11 -78 -43.5 -108.5t-107.5 -30.5q-68 0 -156 24l4 28q84 -26 155 -26q60 0 85.5 23t35.5 88l14 91l33 169l-2 2l-3 -2q-29 -106 -81.5 -159t-113.5 -53q-134 0 -105 186l23 148q28 178 157 178zM244 474q-106 0 -130 -150
l-24 -147q-14 -88 8.5 -125.5t75.5 -37.5q68 0 122 71.5t75 220.5l12 89q-67 79 -139 79zM298 610l-1 -8q-3 -21 -24 -21q-26 0 -23 26l1 8q3 22 25 22q25 0 22 -27z" />
    <glyph glyph-name="Gcommaaccent" unicode="&#x122;" horiz-adv-x="558" 
d="M245 -12q-199 0 -174 204l34 280q13 110 60.5 152.5t147.5 42.5q69 0 165 -25l-3 -27q-99 26 -169 26q-82 0 -122 -36.5t-51 -127.5l-36 -290q-22 -173 149 -173q65 0 164 32l35 285h-135l3 26h162l-41 -328q-117 -41 -189 -41zM270 -83l-1 -7q-1 -2 -7 -22l-28 -64h-23
l26 68q-18 6 -15 25l1 6q3 21 25 21q26 0 22 -27z" />
    <glyph glyph-name="gcommaaccent" unicode="&#x123;" horiz-adv-x="486" 
d="M248 571l1 7q1 2 7 22l28 64h23l-26 -68q18 -6 15 -25l-1 -6q-3 -21 -25 -21q-26 0 -22 27zM243 500q79 0 146 -84l10 72h25l-76 -546q-11 -78 -43.5 -108.5t-107.5 -30.5q-68 0 -156 24l4 28q84 -26 155 -26q60 0 85.5 23t35.5 88l14 91l33 169l-2 2l-3 -2
q-29 -106 -81.5 -159t-113.5 -53q-134 0 -105 186l23 148q28 178 157 178zM244 474q-106 0 -130 -150l-24 -147q-14 -88 8.5 -125.5t75.5 -37.5q68 0 122 71.5t75 220.5l12 89q-67 79 -139 79z" />
    <glyph glyph-name="Hcircumflex" unicode="&#x124;" horiz-adv-x="579" 
d="M465 326h-345l-39 -326h-27l80 655h27l-38 -303h345l38 303h27l-80 -655h-27zM456 748l-3 -26l-110 53l-123 -53l3 27l125 58z" />
    <glyph glyph-name="hcircumflex" unicode="&#x125;" horiz-adv-x="491" 
d="M134 683h27q-7 -129 -20 -219l-9 -60l-31 -165l2 -2l3 2q35 125 97.5 193t122.5 68q55 0 77 -41.5t8 -140.5l-45 -318h-27l45 323q12 85 -4.5 118t-59.5 33q-71 0 -140 -112.5t-95 -301.5l-8 -60h-27l64 457q12 86 20 226zM372 748l-3 -26l-110 53l-123 -53l3 27l125 58z
" />
    <glyph glyph-name="Hbar" unicode="&#x126;" horiz-adv-x="589" 
d="M128 562l10 81h27l-10 -81h345l10 81h27l-10 -81h50l-3 -24h-50l-67 -550h-27l40 326h-345l-40 -326h-27l67 550h-50l3 24h50zM497 538h-345l-24 -198h345z" />
    <glyph glyph-name="hbar" unicode="&#x127;" horiz-adv-x="496" 
d="M139 683h27q-1 -25 -5 -80h154l-3 -24h-153q-3 -44 -13 -115l-9 -60l-31 -165l2 -2l3 2q35 125 97.5 193t122.5 68q55 0 77 -41.5t8 -140.5l-45 -318h-27l45 323q12 85 -4.5 118t-59.5 33q-71 0 -140 -112.5t-95 -301.5l-8 -60h-27l64 457q8 54 13 122h-66l3 24h65
q1 13 2.5 39.5t2.5 40.5z" />
    <glyph glyph-name="Itilde" unicode="&#x128;" horiz-adv-x="207" 
d="M134 655h27l-80 -655h-27zM284 776l-4 -26q-36 -22 -76 -22q-15 0 -50 12.5t-49 12.5q-15 0 -33 -4.5t-29 -9.5l-11 -5l3 26q34 22 75 22q22 0 55 -12.5t44 -12.5q15 0 33.5 4.5t29.5 9.5z" />
    <glyph glyph-name="itilde" unicode="&#x129;" horiz-adv-x="207" 
d="M118 488h27l-68 -488h-27zM251 625l-3 -26q-27 -22 -67 -22q-15 0 -40.5 12.5t-38.5 12.5q-15 0 -31.5 -5t-26.5 -11l-9 -5l4 26q26 22 67 22q22 0 45 -12.5t33 -12.5q15 0 31.5 5t26.5 11z" />
    <glyph glyph-name="Imacron" unicode="&#x12a;" horiz-adv-x="207" 
d="M134 655h27l-80 -655h-27zM59 758h201l-4 -29h-201z" />
    <glyph glyph-name="imacron" unicode="&#x12b;" horiz-adv-x="207" 
d="M118 488h27l-68 -488h-27zM52 621h185l-4 -29h-185z" />
    <glyph glyph-name="Ibreve" unicode="&#x12c;" horiz-adv-x="207" 
d="M134 655h27l-80 -655h-27zM273 790l-5 -34q-4 -4 -13 -10.5t-39 -17.5t-65 -11q-33 0 -60.5 9.5t-38.5 19.5l-10 10l5 34q4 -5 12 -12.5t35.5 -20t58.5 -12.5t61 11.5t44 22.5z" />
    <glyph glyph-name="ibreve" unicode="&#x12d;" horiz-adv-x="207" 
d="M118 488h27l-68 -488h-27zM255 646l-4 -34q-5 -6 -13.5 -14.5t-39 -23t-63.5 -14.5t-59 13t-36 26l-9 13l4 34q4 -6 12 -16t34.5 -26t55.5 -16q31 0 60.5 14.5t43.5 29.5z" />
    <glyph glyph-name="Iogonek" unicode="&#x12e;" horiz-adv-x="207" 
d="M81 0h-1q-38 -19 -64.5 -49t-30.5 -60l-1 -7q-8 -55 51 -55q16 0 37 7l-3 -27q-25 -6 -42 -6q-37 0 -56 21t-14 56l1 8q4 35 32.5 67.5t63.5 45.5l80 654h27z" />
    <glyph glyph-name="iogonek" unicode="&#x12f;" horiz-adv-x="207" 
d="M145 637q25 0 22 -27l-1 -8q-3 -21 -24 -21q-26 0 -23 26l1 8q3 22 25 22zM77 0h-2q-38 -16 -65 -47t-32 -62l-1 -7q-8 -55 51 -55q16 0 37 7l-3 -27q-25 -6 -42 -6q-37 0 -56 21t-14 56l1 8q4 36 33.5 69t65.5 45l68 486h27z" />
    <glyph glyph-name="Idotaccent" unicode="&#x130;" horiz-adv-x="207" 
d="M134 655h27l-80 -655h-27zM179 765l-1 -8q-3 -21 -24 -21q-26 0 -23 26l1 8q3 22 25 22q25 0 22 -27z" />
    <glyph glyph-name="dotlessi" unicode="&#x131;" horiz-adv-x="207" 
d="M118 488h27l-68 -488h-27z" />
    <glyph glyph-name="IJ" unicode="&#x132;" horiz-adv-x="471" 
d="M134 655h27l-80 -655h-27zM425 655l-68 -553q-8 -64 -32 -89t-74 -25q-32 0 -74 11l3 28q36 -12 72 -12q35 0 53.5 19.5t24.5 68.5l68 552h27z" />
    <glyph glyph-name="ij" unicode="&#x133;" horiz-adv-x="414" 
d="M167 610l-1 -8q-3 -21 -24 -21q-26 0 -23 26l1 8q3 22 25 22q25 0 22 -27zM376 610l-1 -8q-3 -21 -24 -21q-26 0 -23 26l1 8q3 22 25 22q25 0 22 -27zM118 488h27l-68 -488h-27zM352 488l-84 -591q-7 -52 -29 -73t-64 -21q-24 0 -60 11l4 26q33 -11 58 -11q28 0 43.5 15
t20.5 51l84 593h27z" />
    <glyph glyph-name="Jcircumflex" unicode="&#x134;" horiz-adv-x="264" 
d="M218 655l-68 -553q-8 -64 -32 -89t-74 -25q-32 0 -74 11l3 28q36 -12 72 -12q35 0 53.5 19.5t24.5 68.5l68 552h27zM331 748l-3 -26l-110 53l-123 -53l3 27l125 58z" />
    <glyph glyph-name="jcircumflex" unicode="&#x135;" horiz-adv-x="207" 
d="M145 488l-84 -591q-7 -52 -29 -73t-64 -21q-24 0 -60 11l4 26q33 -11 58 -11q28 0 43.5 15t20.5 51l84 593h27zM257 593l-4 -26l-101 59l-120 -59l4 28l119 62z" />
    <glyph glyph-name="Kcommaaccent" unicode="&#x136;" horiz-adv-x="490" 
d="M134 655h27l-39 -316q182 155 358 316h36l-360 -319l303 -336h-37q-157 183 -301 333l-40 -333h-27zM253 -83l-1 -7q0 -2 -7 -22l-28 -64h-23l26 68q-18 6 -15 25l1 6q3 21 25 21q26 0 22 -27z" />
    <glyph glyph-name="kcommaaccent" unicode="&#x137;" horiz-adv-x="431" 
d="M134 683h28q-11 -156 -18 -209l-6 -46l-38 -189l2 -2l3 1q35 130 90 196t118 66q39 0 61 -22t22 -60q0 -63 -50 -118.5t-134 -72.5l123 -227h-33q-17 38 -38 79t-46.5 88.5t-38.5 72.5q91 15 140.5 67.5t49.5 108.5q0 27 -16 43t-43 16q-71 0 -136.5 -112.5t-86.5 -291.5
l-10 -71h-27l60 433q15 109 24 250zM198 -83l-1 -7q-1 -2 -7 -22l-28 -64h-23l26 68q-18 6 -15 25l1 6q3 21 25 21q26 0 22 -27z" />
    <glyph glyph-name="kgreenlandic" unicode="&#x138;" horiz-adv-x="401" 
d="M140 259l206 -259h-36q-103 138 -198 254l-35 -254h-27l68 488h27l-31 -221q126 111 245 221h38z" />
    <glyph glyph-name="Lacute" unicode="&#x139;" horiz-adv-x="437" 
d="M134 655h27l-78 -629h280l-2 -26h-307zM142 705l77 109h35l-86 -109h-26z" />
    <glyph glyph-name="lacute" unicode="&#x13a;" horiz-adv-x="207" 
d="M137 683h27q-8 -126 -22 -219l-65 -464h-27l64 457q14 94 23 226zM137 705l77 109h35l-86 -109h-26z" />
    <glyph glyph-name="Lcommaaccent" unicode="&#x13b;" horiz-adv-x="437" 
d="M134 655h27l-78 -629h280l-2 -26h-307zM226 -83l-1 -7q-1 -2 -7 -22l-28 -64h-23l26 68q-18 6 -15 25l1 6q3 21 25 21q26 0 22 -27z" />
    <glyph glyph-name="lcommaaccent" unicode="&#x13c;" horiz-adv-x="207" 
d="M137 683h27q-8 -126 -22 -219l-65 -464h-27l64 457q14 94 23 226zM79 -83l-1 -7q0 -2 -7 -22l-28 -64h-23l26 68q-18 6 -15 25l1 6q3 21 25 21q26 0 22 -27z" />
    <glyph glyph-name="Lcaron" unicode="&#x13d;" horiz-adv-x="437" 
d="M134 655h27l-78 -629h280l-2 -26h-307zM316 640l-1 -7q-1 -3 -7 -22l-28 -64h-23l26 68q-18 6 -15 25l1 6q3 21 25 21q26 0 22 -27z" />
    <glyph glyph-name="lcaron" unicode="&#x13e;" horiz-adv-x="211" 
d="M137 683h27q-8 -126 -22 -219l-65 -464h-27l64 457q14 94 23 226zM255 668l-1 -7q0 -3 -7 -22l-28 -64h-23l26 68q-18 6 -15 25l1 6q3 21 25 21q26 0 22 -27z" />
    <glyph glyph-name="Ldot" unicode="&#x13f;" horiz-adv-x="437" 
d="M134 655h27l-78 -629h280l-2 -26h-307zM327 343l-1 -8q-3 -21 -24 -21q-26 0 -23 26l1 8q3 22 25 22q25 0 22 -27z" />
    <glyph glyph-name="ldot" unicode="&#x140;" horiz-adv-x="207" 
d="M137 683h27q-8 -126 -22 -219l-65 -464h-27l64 457q14 94 23 226zM242 428l-1 -8q-3 -21 -24 -21q-26 0 -23 26l1 8q3 22 25 22q25 0 22 -27z" />
    <glyph glyph-name="Lslash" unicode="&#x141;" horiz-adv-x="441" 
d="M101 344l37 299h27l-36 -292l169 46l-3 -26l-169 -46l-39 -311h280l-2 -26h-307l40 330l-73 -20l4 26z" />
    <glyph glyph-name="lslash" unicode="&#x142;" horiz-adv-x="217" 
d="M142 683h27q-8 -126 -22 -219l-6 -46l108 32l-4 -25l-108 -32l-55 -393h-27l54 385l-109 -31l4 25l108 31l7 47q14 94 23 226z" />
    <glyph glyph-name="Nacute" unicode="&#x143;" horiz-adv-x="582" 
d="M157 622l-76 -622h-27l80 655h39q131 -298 260 -617l76 617h27l-80 -655h-35zM322 705l77 109h35l-86 -109h-26z" />
    <glyph glyph-name="nacute" unicode="&#x144;" horiz-adv-x="496" 
d="M326 500q55 0 77 -41.5t8 -140.5l-45 -318h-27l45 323q12 85 -4.5 118t-59.5 33q-71 0 -140 -112.5t-95 -301.5l-8 -60h-27l68 488h24l-12 -84l-29 -165l2 -2l3 2q35 125 97.5 193t122.5 68zM268 546l80 114h36l-89 -114h-27z" />
    <glyph glyph-name="Ncommaaccent" unicode="&#x145;" horiz-adv-x="582" 
d="M157 622l-76 -622h-27l80 655h39q131 -298 260 -617l76 617h27l-80 -655h-35zM286 -83l-1 -7q-1 -2 -7 -22l-28 -64h-23l26 68q-18 6 -15 25l1 6q3 21 25 21q26 0 22 -27z" />
    <glyph glyph-name="ncommaaccent" unicode="&#x146;" horiz-adv-x="496" 
d="M326 500q55 0 77 -41.5t8 -140.5l-45 -318h-27l45 323q12 85 -4.5 118t-59.5 33q-71 0 -140 -112.5t-95 -301.5l-8 -60h-27l68 488h24l-12 -84l-29 -165l2 -2l3 2q35 125 97.5 193t122.5 68zM240 -83l-1 -7q-1 -2 -7 -22l-28 -64h-23l26 68q-18 6 -15 25l1 6q3 21 25 21
q26 0 22 -27z" />
    <glyph glyph-name="Ncaron" unicode="&#x147;" horiz-adv-x="582" 
d="M157 622l-76 -622h-27l80 655h39q131 -298 260 -617l76 617h27l-80 -655h-35zM458 783l-125 -58l-108 59l3 26l110 -53l123 53z" />
    <glyph glyph-name="ncaron" unicode="&#x148;" horiz-adv-x="496" 
d="M326 500q55 0 77 -41.5t8 -140.5l-45 -318h-27l45 323q12 85 -4.5 118t-59.5 33q-71 0 -140 -112.5t-95 -301.5l-8 -60h-27l68 488h24l-12 -84l-29 -165l2 -2l3 2q35 125 97.5 193t122.5 68zM394 634l-119 -63l-102 64l4 26l101 -59l120 59z" />
    <glyph glyph-name="napostrophe" unicode="&#x149;" horiz-adv-x="496" 
d="M326 500q55 0 77 -41.5t8 -140.5l-45 -318h-27l45 323q12 85 -4.5 118t-59.5 33q-71 0 -140 -112.5t-95 -301.5l-8 -60h-27l68 488h24l-12 -84l-29 -165l2 -2l3 2q35 125 97.5 193t122.5 68zM109 668l-1 -7q0 -3 -7 -22l-28 -64h-23l26 68q-18 6 -15 25l1 6q3 21 25 21
q26 0 22 -27z" />
    <glyph glyph-name="Eng" unicode="&#x14a;" horiz-adv-x="582" 
d="M536 655l-85 -697q-8 -64 -32 -89t-74 -25q-32 0 -74 11l3 28q36 -12 72 -12q35 0 53.5 19.5t24.5 68.5l5 41h-8l-264 622l-76 -622h-27l80 655h39q131 -298 260 -617l76 617h27z" />
    <glyph glyph-name="eng" unicode="&#x14b;" horiz-adv-x="500" 
d="M330 500q55 0 77 -41.5t8 -140.5l-61 -421q-7 -51 -29 -72.5t-64 -21.5q-24 0 -60 11l4 26q33 -11 58 -11q28 0 43.5 15.5t20.5 50.5l61 428q12 85 -4.5 118t-59.5 33q-71 0 -140 -112.5t-95 -301.5l-8 -60h-27l68 488h24l-12 -84l-29 -165l2 -2l3 2q35 125 97.5 193
t122.5 68z" />
    <glyph glyph-name="Omacron" unicode="&#x14c;" horiz-adv-x="576" 
d="M320 667q105 0 153.5 -55t36.5 -156l-32 -262q-13 -106 -64.5 -156t-151.5 -50q-103 0 -152.5 55.5t-36.5 160.5l32 258q13 111 63.5 158t151.5 47zM317 642q-86 0 -129.5 -41t-55.5 -138l-32 -264q-11 -91 32 -138.5t131 -47.5q87 0 132 43.5t56 137.5l32 265
q22 183 -166 183zM236 758h201l-4 -29h-201z" />
    <glyph glyph-name="omacron" unicode="&#x14d;" horiz-adv-x="483" 
d="M408 317l-21 -157q-12 -88 -55.5 -130t-124.5 -42t-119 47t-25 138l22 156q13 91 54.5 131t123.5 40q79 0 118.5 -48t26.5 -135zM359 159l22 161q10 74 -22 114t-98 40q-69 0 -103.5 -34t-45.5 -110l-22 -160q-10 -77 20.5 -116.5t96.5 -39.5q131 0 152 145zM188 621h185
l-4 -29h-185z" />
    <glyph glyph-name="Obreve" unicode="&#x14e;" horiz-adv-x="576" 
d="M320 667q105 0 153.5 -55t36.5 -156l-32 -262q-13 -106 -64.5 -156t-151.5 -50q-103 0 -152.5 55.5t-36.5 160.5l32 258q13 111 63.5 158t151.5 47zM317 642q-86 0 -129.5 -41t-55.5 -138l-32 -264q-11 -91 32 -138.5t131 -47.5q87 0 132 43.5t56 137.5l32 265
q22 183 -166 183zM450 790l-5 -34q-4 -4 -13 -10.5t-39 -17.5t-65 -11q-33 0 -60.5 9.5t-37.5 19.5l-11 10l5 34q4 -5 12 -12.5t35.5 -20t58.5 -12.5t61 11.5t45 22.5z" />
    <glyph glyph-name="obreve" unicode="&#x14f;" horiz-adv-x="483" 
d="M408 317l-21 -157q-12 -88 -55.5 -130t-124.5 -42t-119 47t-25 138l22 156q13 91 54.5 131t123.5 40q79 0 118.5 -48t26.5 -135zM359 159l22 161q10 74 -22 114t-98 40q-69 0 -103.5 -34t-45.5 -110l-22 -160q-10 -77 20.5 -116.5t96.5 -39.5q131 0 152 145zM391 646
l-4 -34q-5 -6 -13.5 -14.5t-39 -23t-63.5 -14.5t-59 13t-36 26l-9 13l4 34q4 -6 12 -16t34.5 -26t55.5 -16q31 0 60.5 14.5t43.5 29.5z" />
    <glyph glyph-name="Ohungarumlaut" unicode="&#x150;" horiz-adv-x="576" 
d="M320 667q105 0 153.5 -55t36.5 -156l-32 -262q-13 -106 -64.5 -156t-151.5 -50q-103 0 -152.5 55.5t-36.5 160.5l32 258q13 111 63.5 158t151.5 47zM317 642q-86 0 -129.5 -41t-55.5 -138l-32 -264q-11 -91 32 -138.5t131 -47.5q87 0 132 43.5t56 137.5l32 265
q22 183 -166 183zM284 705h-25l59 109h32zM385 705h-25l59 109h32z" />
    <glyph glyph-name="ohungarumlaut" unicode="&#x151;" horiz-adv-x="483" 
d="M408 317l-21 -157q-12 -88 -55.5 -130t-124.5 -42t-119 47t-25 138l22 156q13 91 54.5 131t123.5 40q79 0 118.5 -48t26.5 -135zM359 159l22 161q10 74 -22 114t-98 40q-69 0 -103.5 -34t-45.5 -110l-22 -160q-10 -77 20.5 -116.5t96.5 -39.5q131 0 152 145zM222 544h-25
l62 116h32zM310 544h-25l62 116h32z" />
    <glyph glyph-name="OE" unicode="&#x152;" horiz-adv-x="765" 
d="M325 667q58 0 100 -12h304l-3 -26h-278l-36 -283h258l-3 -26h-258l-36 -294h278l-2 -26h-304q-47 -12 -97 -12q-105 0 -146.5 56t-26.5 173l31 247q14 112 64.5 157.5t154.5 45.5zM322 642q-89 0 -133.5 -40t-55.5 -133l-32 -266q-12 -99 25.5 -144.5t123.5 -45.5
q55 0 96 11l74 607q-34 11 -98 11z" />
    <glyph glyph-name="oe" unicode="&#x153;" horiz-adv-x="745" 
d="M574 500q57 0 89 -29.5t31 -80.5q-2 -83 -79.5 -139.5t-225.5 -65.5l-3 -27q-9 -79 17 -111t91 -32q61 0 137 39l-3 -30q-77 -36 -137 -36q-112 0 -131 88q-45 -88 -153 -88q-81 0 -119 47t-25 138l22 156q13 91 54.5 131t123.5 40q59 0 96.5 -29.5t46.5 -82.5
q58 112 168 112zM261 474q-69 0 -103.5 -34t-45.5 -110l-22 -160q-10 -77 20.5 -116.5t96.5 -39.5q131 0 152 145l22 161q10 74 -22 114t-98 40zM572 474q-59 0 -105 -45.5t-63 -132.5l-12 -90q77 8 157 33q58 29 87.5 68.5t29.5 78.5q0 42 -25.5 65t-68.5 23z" />
    <glyph glyph-name="Racute" unicode="&#x154;" horiz-adv-x="538" 
d="M282 667q105 0 157.5 -51t43.5 -139l-1 -10q-14 -139 -149 -176l139 -291h-31q-15 34 -133 286q-90 -12 -191 12l-36 -298h-27l81 659q99 8 147 8zM279 641q-37 0 -121 -6l-39 -313q61 -15 139 -15q176 0 196 159l1 8q10 80 -36 123.5t-140 43.5zM282 705l77 109h35
l-86 -109h-26z" />
    <glyph glyph-name="racute" unicode="&#x155;" horiz-adv-x="329" 
d="M309 500q12 0 20 -2l-4 -31q-10 3 -25 3q-61 0 -124.5 -111t-88.5 -288l-10 -71h-27l68 488h24l-12 -84l-30 -165l2 -2l3 2q35 127 92.5 194t111.5 67zM216 546l80 114h36l-89 -114h-27z" />
    <glyph glyph-name="Rcommaaccent" unicode="&#x156;" horiz-adv-x="538" 
d="M282 667q105 0 157.5 -51t43.5 -139l-1 -10q-14 -139 -149 -176l139 -291h-31q-15 34 -133 286q-90 -12 -191 12l-36 -298h-27l81 659q99 8 147 8zM279 641q-37 0 -121 -6l-39 -313q61 -15 139 -15q176 0 196 159l1 8q10 80 -36 123.5t-140 43.5zM273 -83l-1 -7
q0 -2 -7 -22l-28 -64h-23l26 68q-18 6 -15 25l1 6q3 21 25 21q26 0 22 -27z" />
    <glyph glyph-name="rcommaaccent" unicode="&#x157;" horiz-adv-x="329" 
d="M309 500q12 0 20 -2l-4 -31q-10 3 -25 3q-61 0 -124.5 -111t-88.5 -288l-10 -71h-27l68 488h24l-12 -84l-30 -165l2 -2l3 2q35 127 92.5 194t111.5 67zM82 -83l-1 -7q-1 -2 -7 -22l-28 -64h-23l26 68q-18 6 -15 25l1 6q3 21 25 21q26 0 22 -27z" />
    <glyph glyph-name="Rcaron" unicode="&#x158;" horiz-adv-x="538" 
d="M282 667q105 0 157.5 -51t43.5 -139l-1 -10q-14 -139 -149 -176l139 -291h-31q-15 34 -133 286q-90 -12 -191 12l-36 -298h-27l81 659q99 8 147 8zM279 641q-37 0 -121 -6l-39 -313q61 -15 139 -15q176 0 196 159l1 8q10 80 -36 123.5t-140 43.5zM418 783l-125 -58
l-108 59l3 26l110 -53l123 53z" />
    <glyph glyph-name="rcaron" unicode="&#x159;" horiz-adv-x="329" 
d="M309 500q12 0 20 -2l-4 -31q-10 3 -25 3q-61 0 -124.5 -111t-88.5 -288l-10 -71h-27l68 488h24l-12 -84l-30 -165l2 -2l3 2q35 127 92.5 194t111.5 67zM342 634l-119 -63l-102 64l4 26l101 -59l120 59z" />
    <glyph glyph-name="Sacute" unicode="&#x15a;" horiz-adv-x="451" 
d="M204 361l83 -32q115 -44 100 -175l-1 -9q-9 -82 -50 -119.5t-122 -37.5q-66 0 -162 35l5 28q72 -26 123 -34q26 -2 40 -2q65 0 98.5 29.5t40.5 95.5l2 18q12 109 -80 145l-97 38q-56 22 -81.5 67t-16.5 108l1 7q11 77 52 110.5t122 33.5q61 0 137 -21l-3 -27
q-63 17 -98 21q-15 1 -44 1q-124 0 -139 -116l-2 -15q-14 -108 92 -149zM241 705l77 109h35l-86 -109h-26z" />
    <glyph glyph-name="sacute" unicode="&#x15b;" horiz-adv-x="395" 
d="M216 500q49 0 106 -18l-4 -30q-41 15 -65 19q-18 3 -43 3q-96 0 -108 -73l-1 -6q-12 -74 62 -111l86 -45q85 -44 70 -131l-2 -12q-19 -108 -134 -108q-69 0 -140 34l6 29q38 -19 88 -33q21 -4 47 -4q92 0 106 86l1 6q7 40 -7.5 66.5t-53.5 46.5l-89 45q-41 21 -58 57
t-9 79l2 10q17 90 140 90zM201 546l80 114h36l-89 -114h-27z" />
    <glyph glyph-name="Scircumflex" unicode="&#x15c;" horiz-adv-x="451" 
d="M204 361l83 -32q115 -44 100 -175l-1 -9q-9 -82 -50 -119.5t-122 -37.5q-66 0 -162 35l5 28q72 -26 123 -34q26 -2 40 -2q65 0 98.5 29.5t40.5 95.5l2 18q12 109 -80 145l-97 38q-56 22 -81.5 67t-16.5 108l1 7q11 77 52 110.5t122 33.5q61 0 137 -21l-3 -27
q-63 17 -98 21q-15 1 -44 1q-124 0 -139 -116l-2 -15q-14 -108 92 -149zM380 748l-3 -26l-110 53l-123 -53l3 27l125 58z" />
    <glyph glyph-name="scircumflex" unicode="&#x15d;" horiz-adv-x="395" 
d="M216 500q49 0 106 -18l-4 -30q-41 15 -65 19q-18 3 -43 3q-96 0 -108 -73l-1 -6q-12 -74 62 -111l86 -45q85 -44 70 -131l-2 -12q-19 -108 -134 -108q-69 0 -140 34l6 29q38 -19 88 -33q21 -4 47 -4q92 0 106 86l1 6q7 40 -7.5 66.5t-53.5 46.5l-89 45q-41 21 -58 57
t-9 79l2 10q17 90 140 90zM331 593l-4 -26l-101 59l-120 -59l4 28l119 62z" />
    <glyph glyph-name="Scedilla" unicode="&#x15e;" horiz-adv-x="451" 
d="M261 667q61 0 137 -21l-3 -27q-63 17 -98 21q-15 1 -44 1q-124 0 -139 -116l-2 -15q-14 -108 92 -149l83 -32q115 -44 100 -175l-1 -9q-9 -82 -50.5 -119.5t-123.5 -37.5l-14 -31h10q37 0 55.5 -22.5t12.5 -58.5l-1 -6q-12 -67 -77 -67q-25 0 -59 10l3 23q32 -10 59 -10
q22 0 33 10t15 36l1 6q10 58 -51 58h-30l1 12l20 41q-69 8 -138 34l5 28q72 -26 123 -34q26 -2 40 -2q65 0 98.5 29.5t40.5 95.5l2 18q12 109 -80 145l-97 38q-56 22 -81.5 67t-16.5 108l1 7q11 77 52 110.5t122 33.5z" />
    <glyph glyph-name="scedilla" unicode="&#x15f;" horiz-adv-x="381" 
d="M210 500q49 0 106 -18l-4 -30q-41 15 -65 19q-18 3 -43 3q-96 0 -108 -73l-1 -6q-12 -74 62 -111l86 -45q85 -44 70 -131l-2 -12q-19 -108 -137 -108l-14 -31h10q37 0 55.5 -22.5t12.5 -58.5l-1 -6q-12 -67 -77 -67q-25 0 -59 10l3 23q32 -10 59 -10q22 0 33 10t15 36
l1 6q10 58 -51 58h-30l1 12l20 41q-60 7 -115 33l6 29q38 -19 88 -33q21 -4 47 -4q92 0 106 86l1 6q7 40 -7.5 66.5t-53.5 46.5l-89 45q-41 21 -58 57t-9 79l2 10q17 90 140 90z" />
    <glyph glyph-name="Scaron" unicode="&#x160;" horiz-adv-x="451" 
d="M204 361l83 -32q115 -44 100 -175l-1 -9q-9 -82 -50 -119.5t-122 -37.5q-66 0 -162 35l5 28q72 -26 123 -34q26 -2 40 -2q65 0 98.5 29.5t40.5 95.5l2 18q12 109 -80 145l-97 38q-56 22 -81.5 67t-16.5 108l1 7q11 77 52 110.5t122 33.5q61 0 137 -21l-3 -27
q-63 17 -98 21q-15 1 -44 1q-124 0 -139 -116l-2 -15q-14 -108 92 -149zM377 783l-125 -58l-108 59l3 26l110 -53l123 53z" />
    <glyph glyph-name="scaron" unicode="&#x161;" horiz-adv-x="395" 
d="M216 500q49 0 106 -18l-4 -30q-41 15 -65 19q-18 3 -43 3q-96 0 -108 -73l-1 -6q-12 -74 62 -111l86 -45q85 -44 70 -131l-2 -12q-19 -108 -134 -108q-69 0 -140 34l6 29q38 -19 88 -33q21 -4 47 -4q92 0 106 86l1 6q7 40 -7.5 66.5t-53.5 46.5l-89 45q-41 21 -58 57
t-9 79l2 10q17 90 140 90zM327 634l-119 -63l-102 64l4 26l101 -59l120 59z" />
    <glyph glyph-name="Tcedilla" unicode="&#x162;" horiz-adv-x="517" 
d="M518 629h-205l-77 -629h-4l-20 -43h10q37 0 55.5 -22.5t12.5 -58.5l-1 -6q-12 -67 -77 -67q-25 0 -59 10l3 23q32 -10 59 -10q22 0 33 10t15 36l1 6q10 58 -51 58h-30l1 12l25 53l77 628h-205l3 26h437z" />
    <glyph glyph-name="tcedilla" unicode="&#x163;" horiz-adv-x="335" 
d="M160 488h150l-3 -24h-150l-47 -327q-10 -72 5 -97.5t61 -25.5q38 0 86 20l-3 -26q-47 -20 -87 -20l-14 -31h10q37 0 55.5 -22.5t12.5 -58.5l-1 -6q-12 -67 -77 -67q-25 0 -59 10l3 23q32 -10 59 -10q22 0 33 10t15 36l1 6q10 58 -51 58h-30l1 12l20 41q-45 6 -61.5 40.5
t-5.5 109.5l47 325h-70l2 18l70 5l28 131h18z" />
    <glyph glyph-name="Tcaron" unicode="&#x164;" horiz-adv-x="517" 
d="M84 655h437l-3 -26h-205l-77 -629h-27l77 629h-205zM434 783l-125 -58l-108 59l3 26l110 -53l123 53z" />
    <glyph glyph-name="tcaron" unicode="&#x165;" horiz-adv-x="335" 
d="M160 488h150l-3 -24h-150l-47 -327q-10 -72 5 -97.5t61 -25.5q38 0 86 20l-3 -26q-47 -20 -87 -20q-57 0 -79 34t-10 117l47 325h-70l2 18l70 5l28 131h18zM356 668l-1 -7q-1 -3 -7 -22l-28 -64h-23l26 68q-18 6 -15 25l1 6q3 21 25 21q26 0 22 -27z" />
    <glyph glyph-name="Tbar" unicode="&#x166;" horiz-adv-x="517" 
d="M84 643h437l-3 -26h-205l-33 -265h114l-3 -26h-114l-41 -338h-27l41 338h-114l3 26h114l33 265h-205z" />
    <glyph glyph-name="tbar" unicode="&#x167;" horiz-adv-x="363" 
d="M188 488h150l-3 -24h-150l-19 -131h144l-3 -24h-144l-25 -172q-10 -72 5 -97.5t61 -25.5q38 0 86 20l-3 -26q-47 -20 -87 -20q-57 0 -79 34t-10 117l25 170h-76l3 24h76l19 131h-70l2 18l70 5l28 131h18z" />
    <glyph glyph-name="Utilde" unicode="&#x168;" horiz-adv-x="578" 
d="M532 655l-58 -464q-25 -203 -209 -203q-99 0 -149.5 53.5t-37.5 159.5l56 454h28l-57 -461q-11 -87 32 -133t131 -46q156 0 178 173l58 467h28zM465 776l-4 -26q-36 -22 -76 -22q-15 0 -50 12.5t-49 12.5q-15 0 -33 -4.5t-29 -9.5l-11 -5l3 26q34 22 75 22q22 0 55 -12.5
t44 -12.5q15 0 33.5 4.5t30.5 9.5z" />
    <glyph glyph-name="utilde" unicode="&#x169;" horiz-adv-x="496" 
d="M366 0h-25l4 31l34 169l-2 2l-3 -2q-28 -105 -80.5 -158.5t-114.5 -53.5q-133 0 -106 186l45 314h27l-45 -311q-13 -90 8.5 -126.5t73.5 -36.5q68 0 123.5 71.5t76.5 222.5l25 180h27zM399 625l-3 -26q-27 -22 -67 -22q-15 0 -40.5 12.5t-38.5 12.5q-15 0 -31.5 -5
t-26.5 -11l-9 -5l4 26q26 22 67 22q22 0 45 -12.5t33 -12.5q15 0 31.5 5t26.5 11z" />
    <glyph glyph-name="Umacron" unicode="&#x16a;" horiz-adv-x="578" 
d="M532 655l-58 -464q-25 -203 -209 -203q-99 0 -149.5 53.5t-37.5 159.5l56 454h28l-57 -461q-11 -87 32 -133t131 -46q156 0 178 173l58 467h28zM240 758h201l-4 -29h-201z" />
    <glyph glyph-name="umacron" unicode="&#x16b;" horiz-adv-x="496" 
d="M366 0h-25l4 31l34 169l-2 2l-3 -2q-28 -105 -80.5 -158.5t-114.5 -53.5q-133 0 -106 186l45 314h27l-45 -311q-13 -90 8.5 -126.5t73.5 -36.5q68 0 123.5 71.5t76.5 222.5l25 180h27zM200 621h185l-4 -29h-185z" />
    <glyph glyph-name="Ubreve" unicode="&#x16c;" horiz-adv-x="578" 
d="M532 655l-58 -464q-25 -203 -209 -203q-99 0 -149.5 53.5t-37.5 159.5l56 454h28l-57 -461q-11 -87 32 -133t131 -46q156 0 178 173l58 467h28zM454 790l-5 -34q-4 -4 -13 -10.5t-39 -17.5t-65 -11q-33 0 -60.5 9.5t-37.5 19.5l-11 10l5 34q4 -5 12 -12.5t35.5 -20
t58.5 -12.5t61 11.5t45 22.5z" />
    <glyph glyph-name="ubreve" unicode="&#x16d;" horiz-adv-x="496" 
d="M366 0h-25l4 31l34 169l-2 2l-3 -2q-28 -105 -80.5 -158.5t-114.5 -53.5q-133 0 -106 186l45 314h27l-45 -311q-13 -90 8.5 -126.5t73.5 -36.5q68 0 123.5 71.5t76.5 222.5l25 180h27zM403 646l-4 -34q-5 -6 -13.5 -14.5t-39 -23t-63.5 -14.5t-59 13t-36 26l-9 13l4 34
q4 -6 12 -16t34.5 -26t55.5 -16q31 0 60.5 14.5t43.5 29.5z" />
    <glyph glyph-name="Uring" unicode="&#x16e;" horiz-adv-x="578" 
d="M532 655l-58 -464q-25 -203 -209 -203q-99 0 -149.5 53.5t-37.5 159.5l56 454h28l-57 -461q-11 -87 32 -133t131 -46q156 0 178 173l58 467h28zM345 837q40 0 61 -19.5t21 -53.5q0 -39 -25 -64t-68 -25q-84 0 -84 77q0 37 26 61t69 24zM345 817q-33 0 -52 -18.5
t-19 -45.5t16 -42.5t44 -15.5q34 0 51.5 18t17.5 50q0 24 -15.5 39t-42.5 15z" />
    <glyph glyph-name="uring" unicode="&#x16f;" horiz-adv-x="496" 
d="M366 0h-25l4 31l34 169l-2 2l-3 -2q-28 -105 -80.5 -158.5t-114.5 -53.5q-133 0 -106 186l45 314h27l-45 -311q-13 -90 8.5 -126.5t73.5 -36.5q68 0 123.5 71.5t76.5 222.5l25 180h27zM296 706q40 0 62 -18.5t22 -53.5q0 -39 -25 -64.5t-68 -25.5q-85 0 -85 74
q0 40 25 64t69 24zM295 686q-34 0 -51.5 -17.5t-17.5 -48.5q0 -26 16 -41t46 -15q68 0 68 68q0 26 -16 40t-45 14z" />
    <glyph glyph-name="Uhungarumlaut" unicode="&#x170;" horiz-adv-x="578" 
d="M532 655l-58 -464q-25 -203 -209 -203q-99 0 -149.5 53.5t-37.5 159.5l56 454h28l-57 -461q-11 -87 32 -133t131 -46q156 0 178 173l58 467h28zM288 705h-25l59 109h32zM389 705h-25l59 109h32z" />
    <glyph glyph-name="uhungarumlaut" unicode="&#x171;" horiz-adv-x="496" 
d="M366 0h-25l4 31l34 169l-2 2l-3 -2q-28 -105 -80.5 -158.5t-114.5 -53.5q-133 0 -106 186l45 314h27l-45 -311q-13 -90 8.5 -126.5t73.5 -36.5q68 0 123.5 71.5t76.5 222.5l25 180h27zM234 544h-25l62 116h32zM322 544h-25l62 116h32z" />
    <glyph glyph-name="Uogonek" unicode="&#x172;" horiz-adv-x="578" 
d="M532 655l-58 -464q-19 -156 -130 -192q-38 -16 -65 -46.5t-32 -61.5l-1 -7q-8 -55 51 -55q16 0 37 7l-3 -27q-25 -6 -42 -6q-37 0 -56 21t-14 56l1 8q4 29 24 56.5t48 44.5q-31 -3 -60.5 0t-61.5 16t-54 35.5t-33.5 64t-4.5 96.5l56 454h28l-57 -461q-11 -87 32 -133
t131 -46q156 0 178 173l58 467h28z" />
    <glyph glyph-name="uogonek" unicode="&#x173;" horiz-adv-x="496" 
d="M366 0h-1q-37 -17 -65 -48t-32 -61l-1 -7q-8 -55 51 -55q16 0 37 7l-3 -27q-26 -6 -42 -6q-37 0 -56 21t-14 56l1 8q4 36 33.5 68.5t66.5 45.5l4 29l34 169l-2 2l-3 -2q-28 -105 -80.5 -158.5t-114.5 -53.5q-133 0 -106 186l45 314h27l-45 -311q-13 -90 8.5 -126.5
t73.5 -36.5q68 0 123.5 71.5t76.5 222.5l25 180h27z" />
    <glyph glyph-name="Wcircumflex" unicode="&#x174;" horiz-adv-x="828" 
d="M596 0h-44l-98 624l-249 -624h-44l-87 655h28q57 -373 84 -625q125 302 249 625h43q58 -332 97 -625q108 275 233 625h34zM584 748l-3 -26l-110 53l-123 -53l3 27l125 58z" />
    <glyph glyph-name="wcircumflex" unicode="&#x175;" horiz-adv-x="662" 
d="M474 0h-36l-83 457l-212 -457h-36l-49 488h28q16 -163 41 -455l3 -2l2 2q93 198 209 455h34q54 -302 79 -455l3 -2l2 2q97 252 171 455h30zM479 593l-4 -26l-101 59l-120 -59l4 28l119 62z" />
    <glyph glyph-name="Ycircumflex" unicode="&#x176;" horiz-adv-x="455" 
d="M232 225l-27 -225h-27l27 225l-141 430h30q69 -207 126 -398q121 208 224 398h35zM393 748l-3 -26l-110 53l-123 -53l3 27l125 58z" />
    <glyph glyph-name="ycircumflex" unicode="&#x177;" horiz-adv-x="496" 
d="M434 488l-76 -546q-11 -78 -43.5 -108.5t-107.5 -30.5q-68 0 -156 24l4 28q84 -26 155 -26q60 0 85.5 23t35.5 88l14 91l34 169l-2 2l-3 -2q-28 -105 -80.5 -158.5t-114.5 -53.5q-133 0 -106 186l45 314h27l-45 -311q-13 -90 8.5 -126.5t73.5 -36.5q68 0 123.5 71.5
t76.5 222.5l25 180h27zM403 593l-4 -26l-101 59l-120 -59l4 28l119 62z" />
    <glyph glyph-name="Ydieresis" unicode="&#x178;" horiz-adv-x="455" 
d="M232 225l-27 -225h-27l27 225l-141 430h30q69 -207 126 -398q121 208 224 398h35zM238 761l-1 -6q-3 -19 -21 -19q-11 0 -17 6.5t-4 17.5l1 6q3 20 22 20q24 0 20 -25zM352 761l-1 -6q-3 -19 -21 -19q-11 0 -17 6.5t-4 17.5l1 6q3 20 22 20q24 0 20 -25z" />
    <glyph glyph-name="Zacute" unicode="&#x179;" horiz-adv-x="470" 
d="M16 22l404 607h-323l3 26h359l-4 -22q-162 -232 -402 -607h328l-2 -26h-365zM270 705l77 109h35l-86 -109h-26z" />
    <glyph glyph-name="zacute" unicode="&#x17a;" horiz-adv-x="404" 
d="M376 488l-3 -22q-133 -170 -322 -439h261l-3 -27h-299l2 21l324 441h-258l4 26h294zM229 546l80 114h36l-89 -114h-27z" />
    <glyph glyph-name="Zdotaccent" unicode="&#x17b;" horiz-adv-x="470" 
d="M16 22l404 607h-323l3 26h359l-4 -22q-162 -232 -402 -607h328l-2 -26h-365zM312 765l-1 -8q-3 -21 -24 -21q-26 0 -23 26l1 8q3 22 25 22q25 0 22 -27z" />
    <glyph glyph-name="zdotaccent" unicode="&#x17c;" horiz-adv-x="404" 
d="M376 488l-3 -22q-133 -170 -322 -439h261l-3 -27h-299l2 21l324 441h-258l4 26h294zM268 610l-1 -8q-3 -21 -24 -21q-26 0 -23 26l1 8q3 22 25 22q25 0 22 -27z" />
    <glyph glyph-name="Zcaron" unicode="&#x17d;" horiz-adv-x="470" 
d="M16 22l404 607h-323l3 26h359l-4 -22q-162 -232 -402 -607h328l-2 -26h-365zM406 783l-125 -58l-108 59l3 26l110 -53l123 53z" />
    <glyph glyph-name="zcaron" unicode="&#x17e;" horiz-adv-x="404" 
d="M376 488l-3 -22q-133 -170 -322 -439h261l-3 -27h-299l2 21l324 441h-258l4 26h294zM355 634l-119 -63l-102 64l4 26l101 -59l120 59z" />
    <glyph glyph-name="longs" unicode="&#x17f;" horiz-adv-x="251" 
d="M279 695q28 0 58 -10l-3 -25q-32 10 -57 10q-39 0 -60.5 -24t-29.5 -81l-79 -565h-28l65 464h-70l2 18l71 5l10 72q10 74 39 105t82 31z" />
    <glyph glyph-name="florin" unicode="&#x192;" horiz-adv-x="286" 
d="M252 613q28 0 58 -10l-3 -25q-32 10 -57 10q-38 0 -60 -24t-30 -81l-11 -77h90l-3 -24h-90l-88 -621h-27l88 621h-71l2 18l72 5l11 72q12 76 39.5 106t79.5 30z" />
    <glyph glyph-name="AEacute" unicode="&#x1fc;" horiz-adv-x="777" 
d="M738 629h-278l-36 -283h258l-3 -26h-258l-36 -294h278l-2 -26h-305l21 178h-260q-94 -139 -122 -178h-31l455 655h322zM380 204l53 430q-135 -199 -298 -430h245zM547 705l77 109h35l-86 -109h-26z" />
    <glyph glyph-name="aeacute" unicode="&#x1fd;" horiz-adv-x="737" 
d="M566 500q57 0 89 -29.5t31 -80.5q-2 -83 -80 -139.5t-225 -65.5l-3 -23q-10 -82 14.5 -114.5t93.5 -32.5q61 0 137 39l-3 -30q-77 -36 -137 -36q-78 0 -110 40.5t-19 130.5q-30 -85 -80 -128t-106 -43q-134 0 -105 186l23 148q28 178 161 178q44 0 85.5 -27t71.5 -73
q56 100 162 100zM248 474q-110 0 -134 -150l-24 -147q-14 -88 8.5 -125.5t75.5 -37.5q64 0 116 60t77 196q8 61 26 108q-27 44 -66.5 70t-78.5 26zM564 474q-63 0 -111 -52.5t-61 -151.5l-8 -64q77 8 157 33q57 29 87 69t30 78q0 42 -25.5 65t-68.5 23zM378 546l80 114h36
l-89 -114h-27z" />
    <glyph glyph-name="Oslashacute" unicode="&#x1fe;" horiz-adv-x="576" 
d="M563 705l-75 -111q33 -56 21 -150l-31 -247q-14 -109 -64.5 -159t-152.5 -50t-149 50l-64 -88h-28l76 108q-34 53 -22 153l31 248q14 114 63 161t152 47q105 0 152 -53l63 91h28zM317 642q-86 0 -130 -41t-56 -138l-32 -267q-9 -71 14 -115l344 510q-42 51 -140 51z
M470 571l-343 -509q42 -49 135 -49q88 0 132.5 43.5t56.5 137.5l32 265q9 67 -13 112zM317 705l77 109h35l-86 -109h-26z" />
    <glyph glyph-name="oslashacute" unicode="&#x1ff;" horiz-adv-x="483" 
d="M476 538l-81 -107q23 -45 13 -114l-22 -157q-12 -88 -55 -130t-124 -42q-77 0 -115 42l-61 -81h-28l76 100q-27 45 -16 124l22 156q13 91 54.5 131t123.5 40q81 0 119 -49l66 87h28zM261 474q-68 0 -103 -34t-46 -110l-22 -160q-7 -58 8 -95l266 352q-30 47 -103 47z
M375 404l-265 -350q30 -40 97 -40q131 0 151 145l22 161q7 48 -5 84zM228 546l80 114h36l-89 -114h-27z" />
    <glyph glyph-name="Scommaaccent" unicode="&#x218;" horiz-adv-x="451" 
d="M204 361l83 -32q115 -44 100 -175l-1 -9q-9 -82 -50 -119.5t-122 -37.5q-66 0 -162 35l5 28q72 -26 123 -34q26 -2 40 -2q65 0 98.5 29.5t40.5 95.5l2 18q12 109 -80 145l-97 38q-56 22 -81.5 67t-16.5 108l1 7q11 77 52 110.5t122 33.5q61 0 137 -21l-3 -27
q-63 17 -98 21q-15 1 -44 1q-124 0 -139 -116l-2 -15q-14 -108 92 -149zM237 -83l-1 -7q0 -2 -7 -22l-28 -64h-23l26 68q-18 6 -15 25l1 6q3 21 25 21q26 0 22 -27z" />
    <glyph glyph-name="scommaaccent" unicode="&#x219;" horiz-adv-x="395" 
d="M216 500q49 0 106 -18l-4 -30q-41 15 -65 19q-18 3 -43 3q-96 0 -108 -73l-1 -6q-12 -74 62 -111l86 -45q85 -44 70 -131l-2 -12q-19 -108 -134 -108q-69 0 -140 34l6 29q38 -19 88 -33q21 -4 47 -4q92 0 106 86l1 6q7 40 -7.5 66.5t-53.5 46.5l-89 45q-41 21 -58 57
t-9 79l2 10q17 90 140 90zM210 -83l-1 -7q-1 -2 -7 -22l-28 -64h-23l26 68q-18 6 -15 25l1 6q3 21 25 21q26 0 22 -27z" />
    <glyph glyph-name="uni021A" unicode="&#x21a;" horiz-adv-x="517" 
d="M84 655h437l-3 -26h-205l-77 -629h-27l77 629h-205zM237 -83l-1 -7q0 -2 -7 -22l-28 -64h-23l26 68q-18 6 -15 25l1 6q3 21 25 21q26 0 22 -27z" />
    <glyph glyph-name="uni021B" unicode="&#x21b;" horiz-adv-x="335" 
d="M160 488h150l-3 -24h-150l-47 -327q-10 -72 5 -97.5t61 -25.5q38 0 86 20l-3 -26q-47 -20 -87 -20q-57 0 -79 34t-10 117l47 325h-70l2 18l70 5l28 131h18zM181 -83l-1 -7q0 -2 -7 -22l-28 -64h-23l26 68q-18 6 -15 25l1 6q3 21 25 21q26 0 22 -27z" />
    <glyph glyph-name="dotlessj" unicode="&#x237;" horiz-adv-x="207" 
d="M145 488l-84 -591q-7 -52 -29 -73t-64 -21q-24 0 -60 11l4 26q33 -11 58 -11q28 0 43.5 15t20.5 51l84 593h27z" />
    <glyph glyph-name="uni02BC" unicode="&#x2bc;" horiz-adv-x="120" 
d="M89 668l-1 -7q0 -3 -7 -22l-28 -64h-23l26 68q-18 6 -15 25l1 6q3 21 25 21q26 0 22 -27z" />
    <glyph glyph-name="circumflex" unicode="&#x2c6;" horiz-adv-x="285" 
d="M255 593l-4 -26l-101 59l-120 -59l4 28l119 62z" />
    <glyph glyph-name="caron" unicode="&#x2c7;" horiz-adv-x="285" 
d="M251 634l-119 -63l-102 64l4 26l101 -59l120 59z" />
    <glyph glyph-name="uni02C9" unicode="&#x2c9;" horiz-adv-x="249" 
d="M34 621h185l-4 -29h-185z" />
    <glyph glyph-name="breve" unicode="&#x2d8;" horiz-adv-x="284" 
d="M254 646l-4 -34q-5 -6 -13.5 -14.5t-39 -23t-63.5 -14.5t-59 13t-35 26l-10 13l4 34q4 -6 12 -16t34.5 -26t55.5 -16q31 0 60.5 14.5t43.5 29.5z" />
    <glyph glyph-name="dotaccent" unicode="&#x2d9;" horiz-adv-x="108" 
d="M78 610l-1 -8q-3 -21 -24 -21q-26 0 -23 26l1 8q3 22 25 22q25 0 22 -27z" />
    <glyph glyph-name="ring" unicode="&#x2da;" horiz-adv-x="238" 
d="M124 706q40 0 62 -18.5t22 -53.5q0 -39 -25 -64.5t-68 -25.5q-85 0 -85 74q0 40 25 64t69 24zM123 686q-34 0 -51.5 -17.5t-17.5 -48.5q0 -26 16 -41t46 -15q68 0 68 68q0 26 -16 40t-45 14z" />
    <glyph glyph-name="ogonek" unicode="&#x2db;" horiz-adv-x="196" 
d="M146 -164l-3 -27q-25 -6 -42 -6q-37 0 -56 21t-14 56l1 8q5 41 40.5 76t75.5 43l18 -4q-41 -14 -71.5 -46.5t-35.5 -65.5l-1 -7q-8 -55 51 -55q16 0 37 7z" />
    <glyph glyph-name="tilde" unicode="&#x2dc;" horiz-adv-x="276" 
d="M246 625l-3 -26q-27 -22 -67 -22q-15 0 -40.5 12.5t-38.5 12.5q-15 0 -31.5 -5t-25.5 -11l-10 -5l4 26q26 22 67 22q22 0 45 -12.5t33 -12.5q15 0 31.5 5t25.5 11z" />
    <glyph glyph-name="hungarumlaut" unicode="&#x2dd;" horiz-adv-x="244" 
d="M55 544h-25l62 116h32zM143 544h-25l62 116h32z" />
    <glyph glyph-name="uni0312" unicode="&#x312;" horiz-adv-x="0" 
d="M31 586l1 7q0 3 7 22l28 64h23l-26 -68q18 -6 15 -25l-1 -6q-3 -21 -25 -21q-26 0 -22 27z" />
    <glyph glyph-name="uni0313" unicode="&#x313;" horiz-adv-x="0" 
d="M89 668l-1 -7q0 -3 -7 -22l-28 -64h-23l26 68q-18 6 -15 25l1 6q3 21 25 21q26 0 22 -27z" />
    <glyph glyph-name="uni0326" unicode="&#x326;" horiz-adv-x="0" 
d="M89 -83l-1 -7q0 -2 -7 -22l-28 -64h-23l26 68q-18 6 -15 25l1 6q3 21 25 21q26 0 22 -27z" />
    <glyph glyph-name="uni037E" unicode="&#x37e;" horiz-adv-x="192" 
d="M116 446q27 0 24 -26l-1 -9q-3 -21 -26 -21q-28 0 -25 25l1 9q3 22 27 22zM60 44q28 0 24 -29l-1 -7q-1 -9 -8 -24l-29 -67h-28l27 72q-15 6 -12 26l1 7q3 22 26 22z" />
    <glyph glyph-name="tonos" unicode="&#x384;" horiz-adv-x="139" 
d="M30 544l44 139h35l-56 -139h-23z" />
    <glyph glyph-name="dieresistonos" unicode="&#x385;" horiz-adv-x="219" 
d="M101 655l43 129h35l-55 -129h-23zM74 606l-1 -6q-3 -19 -21 -19q-11 0 -17 6.5t-4 17.5l1 6q3 20 22 20q24 0 20 -25zM188 606l-1 -6q-3 -19 -21 -19q-11 0 -17 6.5t-4 17.5l1 6q3 20 22 20q24 0 20 -25z" />
    <glyph glyph-name="Alphatonos" unicode="&#x386;" horiz-adv-x="506" 
d="M455 0h-31l-38 177h-297l-79 -177h-31l293 655h39zM288 628l-187 -424h279zM124 516h-23l44 139h35z" />
    <glyph glyph-name="anoteleia" unicode="&#x387;" horiz-adv-x="191" 
d="M59 245q27 0 24 -26l-1 -9q-3 -21 -26 -21q-28 0 -25 25l1 9q3 22 27 22z" />
    <glyph glyph-name="Epsilontonos" unicode="&#x388;" horiz-adv-x="475" 
d="M134 655h305l-3 -26h-278l-36 -283h258l-3 -26h-258l-36 -294h278l-2 -26h-305zM38 516h-23l44 139h35z" />
    <glyph glyph-name="Etatonos" unicode="&#x389;" horiz-adv-x="579" 
d="M465 326h-345l-39 -326h-27l80 655h27l-38 -303h345l38 303h27l-80 -655h-27zM38 516h-23l44 139h35z" />
    <glyph glyph-name="Iotatonos" unicode="&#x38a;" horiz-adv-x="207" 
d="M134 655h27l-80 -655h-27zM38 516h-23l44 139h35z" />
    <glyph glyph-name="Omicrontonos" unicode="&#x38c;" horiz-adv-x="576" 
d="M320 667q105 0 153.5 -55t36.5 -156l-32 -262q-13 -106 -64.5 -156t-151.5 -50q-103 0 -152.5 55.5t-36.5 160.5l32 258q13 111 63.5 158t151.5 47zM317 642q-86 0 -129.5 -41t-55.5 -138l-32 -264q-11 -91 32 -138.5t131 -47.5q87 0 132 43.5t56 137.5l32 265
q22 183 -166 183zM54 516h-23l44 139h35z" />
    <glyph glyph-name="Upsilontonos" unicode="&#x38e;" horiz-adv-x="455" 
d="M-12 516h-23l44 139h35zM232 225l-27 -225h-27l27 225l-141 430h30q69 -207 126 -398q121 208 224 398h35z" />
    <glyph glyph-name="Omegatonos" unicode="&#x38f;" horiz-adv-x="576" 
d="M321 667q103 0 152.5 -54.5t36.5 -156.5l-31 -255q-8 -61 -38.5 -107t-78.5 -68h105l-2 -26h-185l2 23h9q58 0 105.5 54t55.5 124l31 258q12 92 -31 137.5t-135 45.5q-85 0 -129 -40.5t-56 -138.5l-32 -264q-8 -69 27 -122.5t92 -53.5h7l-2 -23h-185l2 26h107
q-42 24 -62 70t-13 108l32 258q14 112 65.5 158.5t150.5 46.5zM54 516h-23l44 139h35z" />
    <glyph glyph-name="iotadieresistonos" unicode="&#x390;" horiz-adv-x="207" 
d="M77 0h-27l68 488h27zM131 655l43 129h35l-55 -129h-23zM104 606l-1 -6q-3 -19 -21 -19q-11 0 -17 6.5t-4 17.5l1 6q3 20 22 20q24 0 20 -25zM218 606l-1 -6q-3 -19 -21 -19q-11 0 -17 6.5t-4 17.5l1 6q3 20 22 20q24 0 20 -25z" />
    <glyph glyph-name="Alpha" unicode="&#x391;" horiz-adv-x="506" 
d="M455 0h-31l-38 177h-297l-79 -177h-31l293 655h39zM288 628l-187 -424h279z" />
    <glyph glyph-name="Beta" unicode="&#x392;" horiz-adv-x="527" 
d="M53 -5l82 667q117 5 147 5q106 0 155 -46t38 -127l-2 -14q-16 -112 -127 -146q59 -11 90 -54t25 -106l-2 -20q-16 -166 -238 -166q-56 0 -168 7zM122 344h168q61 0 104.5 38t51.5 94l2 14q11 74 -31.5 112.5t-141.5 38.5q-47 0 -117 -4zM119 320l-37 -300q65 -6 141 -6
q197 0 210 142l1 11q7 73 -32 113t-116 40h-167z" />
    <glyph glyph-name="Gamma" unicode="&#x393;" horiz-adv-x="431" 
d="M432 629h-274l-77 -629h-27l80 655h301z" />
    <glyph glyph-name="uni0394" unicode="&#x394;" horiz-adv-x="492" 
d="M438 21l-1 -21h-454l2 20l287 635h35zM286 627q-179 -407 -271 -601h394q-61 311 -123 601z" />
    <glyph glyph-name="Epsilon" unicode="&#x395;" horiz-adv-x="475" 
d="M134 655h305l-3 -26h-278l-36 -283h258l-3 -26h-258l-36 -294h278l-2 -26h-305z" />
    <glyph glyph-name="Zeta" unicode="&#x396;" horiz-adv-x="470" 
d="M16 22l404 607h-323l3 26h359l-4 -22q-162 -232 -402 -607h328l-2 -26h-365z" />
    <glyph glyph-name="Eta" unicode="&#x397;" horiz-adv-x="579" 
d="M465 326h-345l-39 -326h-27l80 655h27l-38 -303h345l38 303h27l-80 -655h-27z" />
    <glyph glyph-name="Theta" unicode="&#x398;" horiz-adv-x="576" 
d="M320 667q105 0 153.5 -55t36.5 -156l-32 -262q-13 -106 -64.5 -156t-151.5 -50q-103 0 -152.5 55.5t-36.5 160.5l32 258q13 111 63.5 158t151.5 47zM317 642q-86 0 -129.5 -41t-55.5 -138l-32 -264q-11 -91 32 -138.5t131 -47.5q87 0 131.5 43.5t56.5 137.5l32 265
q12 92 -31 137.5t-135 45.5zM372 326h-167v26h167v-26z" />
    <glyph glyph-name="Iota" unicode="&#x399;" horiz-adv-x="207" 
d="M134 655h27l-80 -655h-27z" />
    <glyph glyph-name="Kappa" unicode="&#x39a;" horiz-adv-x="490" 
d="M134 655h27l-39 -316q182 155 358 316h36l-360 -319l303 -336h-37q-157 183 -301 333l-40 -333h-27z" />
    <glyph glyph-name="Lambda" unicode="&#x39b;" horiz-adv-x="506" 
d="M455 0h-30q-100 464 -136 628q-179 -410 -278 -628h-32l293 655h39z" />
    <glyph glyph-name="Mu" unicode="&#x39c;" horiz-adv-x="698" 
d="M577 0h-28l70 615l-280 -547h-38l-144 547l-80 -615h-28l85 655h40q87 -310 148 -558q136 254 284 558h46z" />
    <glyph glyph-name="Nu" unicode="&#x39d;" horiz-adv-x="582" 
d="M157 622l-76 -622h-27l80 655h39q131 -298 260 -617l76 617h27l-80 -655h-35z" />
    <glyph glyph-name="Xi" unicode="&#x39e;" horiz-adv-x="476" 
d="M456 625h-356l4 30h356zM350 318h-221l3 30h221zM380 0h-356l3 30h356z" />
    <glyph glyph-name="Omicron" unicode="&#x39f;" horiz-adv-x="576" 
d="M320 667q105 0 153.5 -55t36.5 -156l-32 -262q-13 -106 -64.5 -156t-151.5 -50q-103 0 -152.5 55.5t-36.5 160.5l32 258q13 111 63.5 158t151.5 47zM317 642q-86 0 -129.5 -41t-55.5 -138l-32 -264q-11 -91 32 -138.5t131 -47.5q87 0 132 43.5t56 137.5l32 265
q22 183 -166 183z" />
    <glyph glyph-name="Pi" unicode="&#x3a0;" horiz-adv-x="579" 
d="M453 0h-27l77 629h-345l-77 -629h-27l80 655h399z" />
    <glyph glyph-name="Rho" unicode="&#x3a1;" horiz-adv-x="504" 
d="M282 667q107 0 160.5 -51.5t42.5 -143.5l-1 -10q-9 -94 -67.5 -144t-161.5 -50q-59 0 -139 20l-35 -288h-27l81 659q99 8 147 8zM279 641q-37 0 -121 -6l-39 -323q72 -18 138 -18q178 0 199 167l1 8q10 82 -35.5 127t-142.5 45z" />
    <glyph glyph-name="Sigma" unicode="&#x3a3;" horiz-adv-x="458" 
d="M449 629h-321l155 -288l-3 -21l-223 -294h317l-2 -26h-353l1 21l237 312l-162 300l4 22h353z" />
    <glyph glyph-name="Tau" unicode="&#x3a4;" horiz-adv-x="517" 
d="M84 655h437l-3 -26h-205l-77 -629h-27l77 629h-205z" />
    <glyph glyph-name="Upsilon" unicode="&#x3a5;" horiz-adv-x="455" 
d="M232 225l-27 -225h-27l27 225l-141 430h30q69 -207 126 -398q121 208 224 398h35z" />
    <glyph glyph-name="Phi" unicode="&#x3a6;" horiz-adv-x="761" 
d="M441 695l-10 -86q46 8 86 8q102 0 144.5 -48.5t28.5 -158.5l-18 -145q-13 -108 -64.5 -152.5t-158.5 -44.5q-41 0 -84 8l-10 -88h-27l10 87q-51 -7 -86 -7q-101 0 -143 49t-28 161l18 145q13 109 63.5 151.5t157.5 42.5q46 0 84 -7l10 85h27zM317 594q-90 0 -135 -37
t-55 -123l-20 -167q-11 -92 25.5 -133.5t122.5 -41.5q39 0 86 7l60 488q-47 7 -84 7zM514 593q-39 0 -86 -7l-60 -487q43 -8 84 -8q91 0 136.5 38t55.5 125l20 167q11 91 -25 131.5t-125 40.5z" />
    <glyph glyph-name="Chi" unicode="&#x3a7;" horiz-adv-x="483" 
d="M264 337l163 -337h-33q-63 143 -151 312q-110 -161 -223 -312h-36l246 335l-155 320h30q79 -153 142 -295q118 159 214 295h36z" />
    <glyph glyph-name="Psi" unicode="&#x3a8;" horiz-adv-x="730" 
d="M684 655l-39 -313q-19 -156 -177 -156h-103l-22 -186h-27l22 186h-85q-83 0 -124 44.5t-31 131.5l36 293h27l-37 -295q-10 -74 24 -111.5t103 -37.5h90l55 444h27l-55 -444h103q130 0 146 130l40 314h27z" />
    <glyph glyph-name="uni03A9" unicode="&#x3a9;" horiz-adv-x="576" 
d="M321 667q103 0 152.5 -54.5t36.5 -156.5l-31 -255q-8 -61 -38.5 -107t-78.5 -68h105l-2 -26h-185l2 23h9q58 0 105.5 54t55.5 124l31 258q12 92 -31 137.5t-135 45.5q-85 0 -129 -40.5t-56 -138.5l-32 -264q-8 -69 27 -122.5t92 -53.5h7l-2 -23h-185l2 26h107
q-42 24 -62 70t-13 108l32 258q14 112 65.5 158.5t150.5 46.5z" />
    <glyph glyph-name="Iotadieresis" unicode="&#x3aa;" horiz-adv-x="207" 
d="M134 655h27l-80 -655h-27zM121 761l-1 -6q-3 -19 -21 -19q-11 0 -17 6.5t-4 17.5l1 6q3 20 22 20q24 0 20 -25zM235 761l-1 -6q-3 -19 -21 -19q-11 0 -17 6.5t-4 17.5l1 6q3 20 22 20q24 0 20 -25z" />
    <glyph glyph-name="Upsilondieresis" unicode="&#x3ab;" horiz-adv-x="455" 
d="M239 761l-1 -6q-3 -19 -21 -19q-11 0 -17 6.5t-4 17.5l1 6q3 20 22 20q24 0 20 -25zM353 761l-1 -6q-3 -19 -21 -19q-11 0 -17 6.5t-4 17.5l1 6q3 20 22 20q24 0 20 -25zM232 225l-27 -225h-27l27 225l-141 430h30q69 -207 126 -398q121 208 224 398h35z" />
    <glyph glyph-name="alphatonos" unicode="&#x3ac;" horiz-adv-x="476" 
d="M243 500q79 0 146 -84l10 72h25l-9 -65l-18 -97l-19 -171l-22 -155h-25l4 31l33 169l-2 2l-3 -2q-29 -106 -81.5 -159t-113.5 -53q-134 0 -105 186l23 148q28 178 157 178zM244 474q-106 0 -130 -150l-24 -147q-14 -88 8.5 -125.5t75.5 -37.5q68 0 122 71.5t75 220.5
l12 89q-67 79 -139 79zM259 544l44 139h35l-56 -139h-23z" />
    <glyph glyph-name="epsilontonos" unicode="&#x3ad;" horiz-adv-x="377" 
d="M214 500q52 0 114 -20l-5 -26q-60 20 -112 20q-87 0 -100 -80l-1 -6q-8 -51 20 -90t79 -39h72l-4 -25h-73q-61 0 -97.5 -25.5t-41.5 -71.5l-1 -9q-6 -55 20.5 -84.5t82.5 -29.5q44 0 106 20l-2 -26q-63 -20 -107 -20q-67 0 -100 37t-27 101l1 9q5 46 38 77t83 39
q-42 14 -63 55t-11 91l1 5q20 98 128 98zM211 544l44 139h35l-56 -139h-23z" />
    <glyph glyph-name="etatonos" unicode="&#x3ae;" horiz-adv-x="496" 
d="M326 500q55 0 77 -41.5t8 -140.5l-72 -503h-27l72 508q12 85 -4.5 118t-59.5 33q-71 0 -140 -112.5t-95 -301.5l-8 -60h-27l68 488h24l-12 -84l-30 -165l2 -2l3 2q35 125 98 193t123 68zM255 544l44 139h35l-56 -139h-23z" />
    <glyph glyph-name="iotatonos" unicode="&#x3af;" horiz-adv-x="207" 
d="M77 0h-27l68 488h27zM127 544l44 139h35l-56 -139h-23z" />
    <glyph glyph-name="upsilondieresistonos" unicode="&#x3b0;" horiz-adv-x="490" 
d="M428 488l-48 -337q-11 -80 -55 -121.5t-112 -41.5q-74 0 -113.5 47t-27.5 129l46 324h27l-46 -328q-10 -67 22.5 -106.5t92.5 -39.5q56 0 92.5 35t46.5 102l48 337h27zM272 655l43 129h35l-55 -129h-23zM245 606l-1 -6q-3 -19 -21 -19q-11 0 -17 6.5t-4 17.5l1 6
q3 20 22 20q24 0 20 -25zM359 606l-1 -6q-3 -19 -21 -19q-11 0 -17 6.5t-4 17.5l1 6q3 20 22 20q24 0 20 -25z" />
    <glyph glyph-name="alpha" unicode="&#x3b1;" horiz-adv-x="476" 
d="M243 500q79 0 146 -84l10 72h25l-9 -65l-18 -97l-19 -171l-22 -155h-25l4 31l33 169l-2 2l-3 -2q-29 -106 -81.5 -159t-113.5 -53q-134 0 -105 186l23 148q28 178 157 178zM244 474q-106 0 -130 -150l-24 -147q-14 -88 8.5 -125.5t75.5 -37.5q68 0 122 71.5t75 220.5
l12 89q-67 79 -139 79z" />
    <glyph glyph-name="beta" unicode="&#x3b2;" horiz-adv-x="463" 
d="M273 695q64 0 100.5 -43t27.5 -115l-3 -25q-6 -49 -29.5 -83.5t-56.5 -45.5q45 -8 69.5 -49t16.5 -103l-9 -67q-24 -176 -156 -176q-39 0 -80.5 18.5t-68.5 46.5q-10 -58 -49 -238h-27q36 149 53 267l66 466q11 80 46 113.5t100 33.5zM271 669q-52 0 -80 -27.5t-37 -92.5
l-66 -470q27 -28 69.5 -46.5t77.5 -18.5q49 0 83 38t45 120l6 45q19 150 -99 150h-51l3 23h41q93 0 108 127l2 17q7 65 -21 100t-81 35z" />
    <glyph glyph-name="gamma" unicode="&#x3b3;" horiz-adv-x="422" 
d="M184 0l-27 -185h-27l27 185l-109 488h28q72 -324 97 -452l1 -1l2 2q89 176 221 451h33z" />
    <glyph glyph-name="delta" unicode="&#x3b4;" horiz-adv-x="479" 
d="M449 687l-3 -24q-76 -8 -164 -8h-31q70 -33 115.5 -123t31.5 -192l-27 -195q-22 -157 -158 -157q-83 0 -124.5 48.5t-28.5 139.5l14 102q13 95 45.5 132.5t89.5 37.5q46 0 88.5 -32.5t71.5 -91.5l3 23q13 100 -37 191t-146 124l2 18h108q63 0 150 7zM210 422
q-46 0 -72.5 -32t-37.5 -115l-15 -108q-10 -75 25.5 -114t103.5 -39q111 0 129 128l21 148q-22 49 -63 90.5t-91 41.5z" />
    <glyph glyph-name="epsilon" unicode="&#x3b5;" horiz-adv-x="377" 
d="M214 500q52 0 114 -20l-5 -26q-60 20 -112 20q-87 0 -100 -80l-1 -6q-8 -51 20 -90t79 -39h72l-4 -25h-73q-61 0 -97.5 -25.5t-41.5 -71.5l-1 -9q-6 -55 20.5 -84.5t82.5 -29.5q44 0 106 20l-2 -26q-63 -20 -107 -20q-67 0 -100 37t-27 101l1 9q5 46 38 77t83 39
q-42 14 -63 55t-11 91l1 5q20 98 128 98z" />
    <glyph glyph-name="zeta" unicode="&#x3b6;" horiz-adv-x="412" 
d="M416 661l-86 -99q-217 -251 -236 -388q-11 -78 21 -113t108 -35q75 0 94 -16t11 -70q-5 -40 -13 -70h-27q8 33 13 71q5 37 -8.5 48t-66.5 11h-17q-167 0 -142 179q11 74 65.5 166.5t177.5 229.5l74 82h-124q-82 0 -143 -13l3 26q74 13 174 13h125z" />
    <glyph glyph-name="eta" unicode="&#x3b7;" horiz-adv-x="496" 
d="M326 500q55 0 77 -41.5t8 -140.5l-72 -503h-27l72 508q12 85 -4.5 118t-59.5 33q-71 0 -140 -112.5t-95 -301.5l-8 -60h-27l68 488h24l-12 -84l-30 -165l2 -2l3 2q35 125 98 193t123 68z" />
    <glyph glyph-name="theta" unicode="&#x3b8;" horiz-adv-x="507" 
d="M303 695q78 0 118 -47.5t27 -133.5l-49 -354q-12 -88 -55.5 -130t-124.5 -42t-119 47.5t-26 136.5l49 354q12 90 55.5 129.5t124.5 39.5zM301 669q-68 0 -104.5 -34t-46.5 -110l-22 -156h271l21 146q10 75 -22 114.5t-97 39.5zM125 345l-24 -175q-10 -77 21 -116.5
t97 -39.5q132 0 152 145l26 186h-272z" />
    <glyph glyph-name="iota" unicode="&#x3b9;" horiz-adv-x="207" 
d="M77 0h-27l68 488h27z" />
    <glyph glyph-name="kappa" unicode="&#x3ba;" horiz-adv-x="401" 
d="M140 259l206 -259h-36q-103 138 -198 254l-35 -254h-27l68 488h27l-31 -221q126 111 245 221h38z" />
    <glyph glyph-name="lambda" unicode="&#x3bb;" horiz-adv-x="421" 
d="M181 683h27q65 -261 94 -394l64 -289h-26q-33 157 -105 467l-2 2l-3 -2q-80 -173 -223 -467h-27l234 488h15q-21 99 -48 195z" />
    <glyph glyph-name="uni03BC" unicode="&#x3bc;" horiz-adv-x="490" 
d="M366 0h-25l4 31l34 169l-2 2l-3 -2q-28 -105 -80.5 -158.5t-114.5 -53.5q-74 0 -97 62q-7 -52 -47 -235h-27q36 147 53 268l57 405h27l-45 -311q-13 -90 8.5 -126.5t73.5 -36.5q68 0 123.5 71.5t76.5 222.5l25 180h27z" />
    <glyph glyph-name="nu" unicode="&#x3bd;" horiz-adv-x="422" 
d="M187 0h-33l-106 488h26q68 -304 97 -456l2 -2l3 2q117 225 224 456h30z" />
    <glyph glyph-name="xi" unicode="&#x3be;" horiz-adv-x="385" 
d="M402 658h-19q-99 0 -161 -44.5t-71 -117.5l-2 -15q-6 -48 22.5 -79.5t78.5 -31.5h55l-4 -25h-63q-115 0 -135 -145l-4 -29q-11 -78 22 -112t110 -34q64 0 81.5 -15.5t9.5 -65.5q-9 -56 -14 -74h-24q5 18 14 74q5 34 -8 45t-61 11h-8q-173 0 -150 167l7 50q17 121 125 143
q-41 12 -64 46t-17 77l2 15q9 61 54.5 104t114.5 57h-30q-74 0 -156 -15l3 25q84 14 217 14h78z" />
    <glyph glyph-name="omicron" unicode="&#x3bf;" horiz-adv-x="483" 
d="M408 317l-21 -157q-12 -88 -55.5 -130t-124.5 -42t-119 47t-25 138l22 156q13 91 54.5 131t123.5 40q79 0 118.5 -48t26.5 -135zM359 159l22 161q10 74 -22 114t-98 40q-69 0 -103.5 -34t-45.5 -110l-22 -160q-10 -77 20.5 -116.5t96.5 -39.5q131 0 152 145z" />
    <glyph glyph-name="pi" unicode="&#x3c0;" horiz-adv-x="545" 
d="M521 462h-70l-52 -372q-6 -45 2 -60.5t32 -15.5q22 0 44 8l-3 -26q-24 -8 -44 -8q-37 0 -51 23.5t-6 82.5l51 368h-263l-64 -462h-27l64 462h-3q-34 0 -67 -10l4 26q32 10 77 10h380z" />
    <glyph glyph-name="rho" unicode="&#x3c1;" horiz-adv-x="481" 
d="M263 500q78 0 116.5 -49.5t23.5 -147.5l-23 -153q-25 -162 -145 -162q-36 0 -80.5 20t-75.5 48q-10 -62 -49 -241h-27q39 161 53 267l34 244q13 92 54.5 133t118.5 41zM261 474q-64 0 -98 -33.5t-45 -111.5l-36 -250q28 -26 71.5 -45.5t76.5 -19.5q52 0 82.5 32t41.5 107
l22 153q24 168 -115 168z" />
    <glyph glyph-name="sigma1" unicode="&#x3c2;" horiz-adv-x="403" 
d="M249 500q40 0 98 -17l-5 -26q-54 17 -95 17q-118 0 -138 -143l-21 -158q-20 -147 118 -147q73 0 91.5 -16t10.5 -70q-3 -25 -13 -70h-27q8 33 13 71q5 37 -7 48t-64 11h-18q-71 0 -106.5 44t-24.5 128l21 157q12 91 54 131t113 40z" />
    <glyph glyph-name="sigma" unicode="&#x3c3;" horiz-adv-x="483" 
d="M263 500q38 0 68 -11h147l-3 -24h-106q52 -48 39 -148l-21 -157q-12 -88 -55.5 -130t-124.5 -42t-119 47t-25 138l22 156q13 91 54.5 131t123.5 40zM261 474q-69 0 -103.5 -34t-45.5 -110l-22 -160q-10 -77 20.5 -116.5t96.5 -39.5q131 0 152 145l22 161q10 74 -22 114
t-98 40z" />
    <glyph glyph-name="tau" unicode="&#x3c4;" horiz-adv-x="428" 
d="M407 462h-155l-64 -462h-28l64 462h-155l4 26h338z" />
    <glyph glyph-name="upsilon" unicode="&#x3c5;" horiz-adv-x="490" 
d="M428 488l-48 -337q-11 -80 -55 -121.5t-112 -41.5q-74 0 -113.5 47t-27.5 129l46 324h27l-46 -328q-10 -67 22.5 -106.5t92.5 -39.5q56 0 92.5 35t46.5 102l48 337h27z" />
    <glyph glyph-name="phi" unicode="&#x3c6;" horiz-adv-x="697" 
d="M480 500q76 0 115 -48t26 -136l-24 -164q-24 -164 -176 -164q-46 0 -94 17l-27 -190h-27l27 187q-60 -14 -94 -14q-71 0 -106.5 53t-23.5 149q15 121 67 298h27q-22 -73 -31 -107t-20 -87t-17 -110q-9 -85 21.5 -127.5t84.5 -42.5q45 0 95 13l66 463q72 10 111 10z
M478 474q-41 0 -86 -6l-62 -440q42 -14 92 -14q128 0 148 136l24 166q12 78 -20.5 118t-95.5 40z" />
    <glyph glyph-name="chi" unicode="&#x3c7;" horiz-adv-x="385" 
d="M204 253l126 -253h-33q-61 134 -109 234l-2 2l-3 -2q-68 -96 -172 -234h-36l195 253l-115 235h30q18 -40 53.5 -113t48.5 -101l2 -2l3 2q72 95 157 214h36z" />
    <glyph glyph-name="psi" unicode="&#x3c8;" horiz-adv-x="720" 
d="M658 488l-46 -325q-12 -84 -59.5 -129.5t-121.5 -45.5q-44 0 -96 15l-28 -188h-27l28 188q-55 -15 -98 -15q-74 0 -111 49t-27 135q13 106 66 316h27q-55 -221 -66 -325q-7 -70 24.5 -109.5t87.5 -39.5q54 0 100 14l64 460h27l-64 -460q41 -14 96 -14q57 0 99.5 37.5
t51.5 106.5l46 330h27z" />
    <glyph glyph-name="omega" unicode="&#x3c9;" horiz-adv-x="731" 
d="M669 488l-48 -339q-11 -79 -50.5 -120t-101.5 -41q-50 0 -87.5 39t-38.5 98q-19 -60 -66 -98.5t-96 -38.5q-58 0 -88.5 47t-19.5 140q14 117 65 313h27q-47 -181 -65 -313q-11 -82 13.5 -121.5t73.5 -39.5q47 0 93 46t55 107l41 292h27l-42 -296q-9 -63 26.5 -106
t83.5 -43q104 0 124 140l47 334h27z" />
    <glyph glyph-name="iotadieresis" unicode="&#x3ca;" horiz-adv-x="207" 
d="M77 0h-27l68 488h27zM104 606l-1 -6q-3 -19 -21 -19q-11 0 -17 6.5t-4 17.5l1 6q3 20 22 20q24 0 20 -25zM218 606l-1 -6q-3 -19 -21 -19q-11 0 -17 6.5t-4 17.5l1 6q3 20 22 20q24 0 20 -25z" />
    <glyph glyph-name="upsilondieresis" unicode="&#x3cb;" horiz-adv-x="490" 
d="M428 488l-48 -337q-11 -80 -55 -121.5t-112 -41.5q-74 0 -113.5 47t-27.5 129l46 324h27l-46 -328q-10 -67 22.5 -106.5t92.5 -39.5q56 0 92.5 35t46.5 102l48 337h27zM245 606l-1 -6q-3 -19 -21 -19q-11 0 -17 6.5t-4 17.5l1 6q3 20 22 20q24 0 20 -25zM359 606l-1 -6
q-3 -19 -21 -19q-11 0 -17 6.5t-4 17.5l1 6q3 20 22 20q24 0 20 -25z" />
    <glyph glyph-name="omicrontonos" unicode="&#x3cc;" horiz-adv-x="483" 
d="M252 544l44 139h35l-56 -139h-23zM408 317l-21 -157q-12 -88 -55.5 -130t-124.5 -42t-119 47t-25 138l22 156q13 91 54.5 131t123.5 40q79 0 118.5 -48t26.5 -135zM359 159l22 161q10 74 -22 114t-98 40q-69 0 -103.5 -34t-45.5 -110l-22 -160q-10 -77 20.5 -116.5
t96.5 -39.5q131 0 152 145z" />
    <glyph glyph-name="upsilontonos" unicode="&#x3cd;" horiz-adv-x="490" 
d="M428 488l-48 -337q-11 -80 -55 -121.5t-112 -41.5q-74 0 -113.5 47t-27.5 129l46 324h27l-46 -328q-10 -67 22.5 -106.5t92.5 -39.5q56 0 92.5 35t46.5 102l48 337h27zM268 544l44 139h35l-56 -139h-23z" />
    <glyph glyph-name="omegatonos" unicode="&#x3ce;" horiz-adv-x="731" 
d="M669 488l-48 -339q-11 -79 -50.5 -120t-101.5 -41q-50 0 -87.5 39t-38.5 98q-19 -60 -66 -98.5t-96 -38.5q-58 0 -88.5 47t-19.5 140q14 117 65 313h27q-47 -181 -65 -313q-11 -82 13.5 -121.5t73.5 -39.5q47 0 93 46t55 107l41 292h27l-42 -296q-9 -63 26.5 -106
t83.5 -43q104 0 124 140l47 334h27zM387 544l44 139h35l-56 -139h-23z" />
    <glyph glyph-name="uni0401" unicode="&#x401;" horiz-adv-x="475" 
d="M134 655h305l-3 -26h-278l-36 -283h258l-3 -26h-258l-36 -294h278l-2 -26h-305zM254 761l-1 -6q-3 -19 -21 -19q-11 0 -17 6.5t-4 17.5l1 6q3 20 22 20q24 0 20 -25zM368 761l-1 -6q-3 -19 -21 -19q-11 0 -17 6.5t-4 17.5l1 6q3 20 22 20q24 0 20 -25z" />
    <glyph glyph-name="uni0402" unicode="&#x402;" horiz-adv-x="702" 
d="M518 629h-206l-30 -241q105 39 182 39q91 0 135.5 -52.5t30.5 -158.5l-15 -114q-8 -64 -32 -89t-74 -25q-32 0 -74 11l3 28q36 -12 72 -12q35 0 53 19.5t25 68.5l15 116q12 92 -26.5 137t-117.5 45q-90 0 -179 -38l-44 -363h-27l77 629h-205l3 26h437z" />
    <glyph glyph-name="uni0403" unicode="&#x403;" horiz-adv-x="431" 
d="M432 629h-274l-77 -629h-27l80 655h301zM254 705l77 109h35l-86 -109h-26z" />
    <glyph glyph-name="uni0404" unicode="&#x404;" horiz-adv-x="481" 
d="M297 667q65 0 147 -28l-5 -27q-85 29 -148 29q-73 0 -110.5 -40t-50.5 -146l-12 -103h264l-3 -26h-265l-16 -136q-21 -175 137 -175q53 0 136 30l-2 -30q-85 -27 -137 -27q-186 0 -160 210l31 254q15 124 58.5 169.5t135.5 45.5z" />
    <glyph glyph-name="uni0405" unicode="&#x405;" horiz-adv-x="451" 
d="M204 361l83 -32q115 -44 100 -175l-1 -9q-9 -82 -50 -119.5t-122 -37.5q-66 0 -162 35l5 28q72 -26 123 -34q26 -2 40 -2q65 0 98.5 29.5t40.5 95.5l2 18q12 109 -80 145l-97 38q-56 22 -81.5 67t-16.5 108l1 7q11 77 52 110.5t122 33.5q61 0 137 -21l-3 -27
q-63 17 -98 21q-15 1 -44 1q-124 0 -139 -116l-2 -15q-14 -108 92 -149z" />
    <glyph glyph-name="uni0406" unicode="&#x406;" horiz-adv-x="207" 
d="M134 655h27l-80 -655h-27z" />
    <glyph glyph-name="uni0407" unicode="&#x407;" horiz-adv-x="207" 
d="M134 655h27l-80 -655h-27zM121 761l-1 -6q-3 -19 -21 -19q-11 0 -17 6.5t-4 17.5l1 6q3 20 22 20q24 0 20 -25zM235 761l-1 -6q-3 -19 -21 -19q-11 0 -17 6.5t-4 17.5l1 6q3 20 22 20q24 0 20 -25z" />
    <glyph glyph-name="uni0408" unicode="&#x408;" horiz-adv-x="264" 
d="M218 655l-68 -553q-8 -64 -32 -89t-74 -25q-32 0 -74 11l3 28q36 -12 72 -12q35 0 53.5 19.5t24.5 68.5l68 552h27z" />
    <glyph glyph-name="uni0409" unicode="&#x409;" horiz-adv-x="861" 
d="M338 667q71 0 168 -25l-35 -285q68 10 122 10q111 0 164.5 -47t44.5 -135l-1 -10q-19 -187 -237 -187q-78 0 -164 9l76 624q-78 20 -138 20q-91 0 -136 -39.5t-58 -134.5l-41 -307q-13 -97 -37 -134.5t-63 -37.5q-21 0 -38 5l2 25q22 -4 36 -4q27 0 44.5 30.5t28.5 114.5
l41 306q15 110 66 156t155 46zM589 341q-33 0 -120 -9l-38 -309q59 -8 132 -8q193 0 210 159l1 9q8 77 -37.5 117.5t-147.5 40.5z" />
    <glyph glyph-name="uni040A" unicode="&#x40a;" horiz-adv-x="887" 
d="M534 655l-37 -301q68 10 122 10q111 0 164 -46.5t45 -132.5l-1 -10q-19 -187 -237 -187q-80 0 -165 9l40 329h-345l-39 -326h-27l80 655h27l-38 -303h345l38 303h28zM615 338q-34 0 -121 -9l-38 -306q59 -8 133 -8q193 0 210 159l1 9q8 75 -38 115t-147 40z" />
    <glyph glyph-name="uni040B" unicode="&#x40b;" horiz-adv-x="701" 
d="M518 629h-206l-30 -241q105 39 182 39q90 0 134 -52.5t32 -157.5l-26 -217h-27l25 211q22 190 -143 190q-90 0 -179 -38l-44 -363h-27l77 629h-205l3 26h437z" />
    <glyph glyph-name="uni040C" unicode="&#x40c;" horiz-adv-x="490" 
d="M269 344l185 -344h-34q-81 163 -172 326h-128l-39 -326h-27l80 655h27l-38 -303h121q67 87 224 303h33zM262 705l77 109h35l-86 -109h-26z" />
    <glyph glyph-name="uni040E" unicode="&#x40e;" horiz-adv-x="472" 
d="M96 0l120 212l-152 443h30q85 -247 139 -412q29 49 231 412h32l-369 -655h-31zM399 790l-5 -34q-4 -4 -13 -10.5t-39 -17.5t-65 -11q-33 0 -60.5 9.5t-38.5 19.5l-10 10l5 34q4 -5 12 -12.5t35.5 -20t58.5 -12.5t61 11.5t44 22.5z" />
    <glyph glyph-name="uni040F" unicode="&#x40f;" horiz-adv-x="579" 
d="M453 0h-185l-17 -130h-26l17 130h-188l80 655h27l-78 -629h345l78 629h27z" />
    <glyph glyph-name="uni0410" unicode="&#x410;" horiz-adv-x="506" 
d="M455 0h-31l-38 177h-297l-79 -177h-31l293 655h39zM288 628l-187 -424h279z" />
    <glyph glyph-name="uni0411" unicode="&#x411;" horiz-adv-x="515" 
d="M433 629h-274l-34 -272q68 10 122 10q111 0 164.5 -47t44.5 -135l-1 -10q-19 -187 -237 -187q-78 0 -164 9l81 658h301zM243 341q-34 0 -121 -9l-38 -309q59 -8 133 -8q193 0 210 159l1 9q8 77 -37.5 117.5t-147.5 40.5z" />
    <glyph glyph-name="uni0412" unicode="&#x412;" horiz-adv-x="527" 
d="M53 -5l82 667q117 5 147 5q106 0 155 -46t38 -127l-2 -14q-16 -112 -127 -146q59 -11 90 -54t25 -106l-2 -20q-16 -166 -238 -166q-56 0 -168 7zM122 344h168q61 0 104.5 38t51.5 94l2 14q11 74 -31.5 112.5t-141.5 38.5q-47 0 -117 -4zM119 320l-37 -300q65 -6 141 -6
q197 0 210 142l1 11q7 73 -32 113t-116 40h-167z" />
    <glyph glyph-name="uni0413" unicode="&#x413;" horiz-adv-x="431" 
d="M432 629h-274l-77 -629h-27l80 655h301z" />
    <glyph glyph-name="uni0414" unicode="&#x414;" horiz-adv-x="571" 
d="M54 -5l82 665q107 7 153 7q118 0 173.5 -67.5t39.5 -201.5l-21 -174q-28 -236 -269 -236q-74 0 -158 7zM159 635l-76 -615q68 -6 131 -6q104 0 165.5 52t74.5 154l22 176q30 245 -189 245q-35 0 -128 -6z" />
    <glyph glyph-name="uni0415" unicode="&#x415;" horiz-adv-x="475" 
d="M134 655h305l-3 -26h-278l-36 -283h258l-3 -26h-258l-36 -294h278l-2 -26h-305z" />
    <glyph glyph-name="uni0416" unicode="&#x416;" horiz-adv-x="777" 
d="M584 338l127 -338h-32q-53 159 -120 326h-154l-39 -326h-27l39 326h-154q-92 -162 -198 -326h-32l209 338l-120 317h28q59 -150 114 -303h156l38 303h27l-38 -303h154q122 191 190 303h30z" />
    <glyph glyph-name="uni0417" unicode="&#x417;" horiz-adv-x="465" 
d="M234 667q95 0 141.5 -48t35.5 -129l-1 -7q-8 -57 -41 -95.5t-82 -50.5q50 -15 79.5 -59.5t22.5 -105.5l-1 -9q-19 -175 -205 -175q-83 0 -165 33l6 28q81 -35 161 -35q159 0 177 150l1 8q9 69 -33.5 111t-118.5 42h-83l3 26h83q147 0 169 134l1 6q11 71 -29 110.5
t-127 39.5q-50 0 -130 -20v27q85 19 136 19z" />
    <glyph glyph-name="uni0418" unicode="&#x418;" horiz-adv-x="580" 
d="M454 0h-27l75 618l-411 -618h-37l80 655h27l-76 -619q166 241 412 619h37z" />
    <glyph glyph-name="uni0419" unicode="&#x419;" horiz-adv-x="580" 
d="M454 0h-27l75 618l-411 -618h-37l80 655h27l-76 -619q166 241 412 619h37zM463 790l-5 -34q-4 -4 -13 -10.5t-39 -17.5t-65 -11q-33 0 -60.5 9.5t-38.5 19.5l-10 10l5 34q4 -5 12 -12.5t35.5 -20t58.5 -12.5t61 11.5t44 22.5z" />
    <glyph glyph-name="uni041A" unicode="&#x41a;" horiz-adv-x="490" 
d="M269 344l185 -344h-34q-81 163 -172 326h-128l-39 -326h-27l80 655h27l-38 -303h121q67 87 224 303h33z" />
    <glyph glyph-name="uni041B" unicode="&#x41b;" horiz-adv-x="554" 
d="M338 667q71 0 168 -25l-78 -642h-27l75 621q-78 20 -138 20q-91 0 -136 -39.5t-58 -134.5l-41 -307q-13 -97 -37 -134.5t-63 -37.5q-21 0 -38 5l2 25q22 -4 36 -4q27 0 44.5 30.5t28.5 114.5l41 306q15 110 66 156t155 46z" />
    <glyph glyph-name="uni041C" unicode="&#x41c;" horiz-adv-x="698" 
d="M577 0h-28l70 615l-280 -547h-38l-144 547l-80 -615h-28l85 655h40q87 -310 148 -558q136 254 284 558h46z" />
    <glyph glyph-name="uni041D" unicode="&#x41d;" horiz-adv-x="579" 
d="M465 326h-345l-39 -326h-27l80 655h27l-38 -303h345l38 303h27l-80 -655h-27z" />
    <glyph glyph-name="uni041E" unicode="&#x41e;" horiz-adv-x="576" 
d="M320 667q105 0 153.5 -55t36.5 -156l-32 -262q-13 -106 -64.5 -156t-151.5 -50q-103 0 -152.5 55.5t-36.5 160.5l32 258q13 111 63.5 158t151.5 47zM317 642q-86 0 -129.5 -41t-55.5 -138l-32 -264q-11 -91 32 -138.5t131 -47.5q87 0 132 43.5t56 137.5l32 265
q22 183 -166 183z" />
    <glyph glyph-name="uni041F" unicode="&#x41f;" horiz-adv-x="579" 
d="M453 0h-27l77 629h-345l-77 -629h-27l80 655h399z" />
    <glyph glyph-name="uni0420" unicode="&#x420;" horiz-adv-x="504" 
d="M282 667q107 0 160.5 -51.5t42.5 -143.5l-1 -10q-9 -94 -67.5 -144t-161.5 -50q-59 0 -139 20l-35 -288h-27l81 659q99 8 147 8zM279 641q-37 0 -121 -6l-39 -323q72 -18 138 -18q178 0 199 167l1 8q10 82 -35.5 127t-142.5 45z" />
    <glyph glyph-name="uni0421" unicode="&#x421;" horiz-adv-x="476" 
d="M297 667q65 0 147 -28l-5 -27q-85 29 -148 29q-73 0 -110.5 -40t-50.5 -146l-32 -265q-22 -175 137 -175q53 0 136 30l-2 -30q-85 -27 -136 -27q-187 0 -161 210l31 254q15 124 58.5 169.5t135.5 45.5z" />
    <glyph glyph-name="uni0422" unicode="&#x422;" horiz-adv-x="517" 
d="M84 655h437l-3 -26h-205l-77 -629h-27l77 629h-205z" />
    <glyph glyph-name="uni0423" unicode="&#x423;" horiz-adv-x="472" 
d="M96 0l120 212l-152 443h30q85 -247 139 -412q29 49 231 412h32l-369 -655h-31z" />
    <glyph glyph-name="uni0424" unicode="&#x424;" horiz-adv-x="760" 
d="M440 695l-7 -55q51 7 86 7q100 0 143 -53t28 -172l-26 -215q-13 -106 -65 -152.5t-158 -46.5q-41 0 -84 8l-7 -58h-27l7 57q-51 -7 -85 -7q-98 0 -141 54t-28 172l27 215q13 108 64.5 153t156.5 45q35 0 82 -7l7 55h27zM322 622q-90 0 -135 -38.5t-55 -126.5l-31 -237
q-10 -99 28 -143t119 -44q43 0 85 6l71 576q-47 7 -82 7zM517 622q-39 0 -86 -7l-71 -575q47 -7 84 -7q89 0 134 37.5t57 128.5l30 237q24 186 -148 186z" />
    <glyph glyph-name="uni0425" unicode="&#x425;" horiz-adv-x="483" 
d="M264 337l163 -337h-33q-63 143 -151 312q-110 -161 -223 -312h-36l246 335l-155 320h30q79 -153 142 -295q118 159 214 295h36z" />
    <glyph glyph-name="uni0426" unicode="&#x426;" horiz-adv-x="571" 
d="M447 26h60l-19 -156h-26l17 130h-425l80 655h27l-78 -629h337l78 629h27z" />
    <glyph glyph-name="uni0427" unicode="&#x427;" horiz-adv-x="559" 
d="M433 0h-27l31 256q-110 -28 -167 -28q-94 0 -140 51t-34 151l28 225h27l-28 -226q-11 -87 28.5 -131t120.5 -44q76 0 168 27l46 374h27z" />
    <glyph glyph-name="uni0428" unicode="&#x428;" horiz-adv-x="755" 
d="M629 0h-575l80 655h27l-78 -629h247l78 629h27l-78 -629h247l78 629h27z" />
    <glyph glyph-name="uni0429" unicode="&#x429;" horiz-adv-x="755" 
d="M631 26h60l-19 -156h-26l17 130h-609l80 655h27l-78 -629h247l78 629h27l-78 -629h247l78 629h27z" />
    <glyph glyph-name="uni042A" unicode="&#x42a;" horiz-adv-x="634" 
d="M281 655l-37 -298q68 10 122 10q111 0 164.5 -47t44.5 -135l-1 -10q-19 -187 -237 -187q-79 0 -164 9l78 632h-180l3 26h207zM362 341q-34 0 -121 -9l-38 -309q59 -8 133 -8q193 0 210 159l1 9q8 77 -37.5 117.5t-147.5 40.5z" />
    <glyph glyph-name="uni042B" unicode="&#x42b;" horiz-adv-x="704" 
d="M162 655l-37 -298q68 10 122 10q111 0 164.5 -47t44.5 -135l-1 -10q-19 -187 -237 -187q-78 0 -164 9l81 658h27zM578 0h-27l80 655h27zM243 341q-34 0 -121 -9l-38 -309q59 -8 133 -8q193 0 210 159l1 9q8 77 -37.5 117.5t-147.5 40.5z" />
    <glyph glyph-name="uni042C" unicode="&#x42c;" horiz-adv-x="515" 
d="M162 655l-37 -298q68 10 122 10q111 0 164.5 -47t44.5 -135l-1 -10q-19 -187 -237 -187q-78 0 -164 9l81 658h27zM243 341q-34 0 -121 -9l-38 -309q59 -8 133 -8q193 0 210 159l1 9q8 77 -37.5 117.5t-147.5 40.5z" />
    <glyph glyph-name="uni042D" unicode="&#x42d;" horiz-adv-x="487" 
d="M264 667q90 0 129.5 -49.5t26.5 -157.5l-34 -277q-13 -108 -54.5 -151.5t-120.5 -43.5q-73 0 -162 33l6 28q87 -35 158 -35q65 0 100 37.5t47 132.5l17 143h-264l3 25h264l13 106q12 100 -20 141.5t-114 41.5q-52 0 -135 -22v27q82 21 140 21z" />
    <glyph glyph-name="uni042E" unicode="&#x42e;" horiz-adv-x="772" 
d="M529 667q204 0 176 -223l-31 -247q-14 -115 -60.5 -162t-141.5 -47q-200 0 -173 213l16 125h-195l-39 -326h-27l80 655h27l-38 -303h195l14 112q15 116 59.5 159.5t137.5 43.5zM526 642q-80 0 -118.5 -38.5t-50.5 -140.5l-32 -267q-23 -183 148 -183q81 0 121.5 39.5
t52.5 141.5l32 265q23 183 -153 183z" />
    <glyph glyph-name="uni042F" unicode="&#x42f;" horiz-adv-x="535" 
d="M333 667q45 0 156 -13l-80 -654h-27l35 290q-81 -13 -126 -13q-44 0 -82 11q-124 -202 -172 -288h-33l180 297q-55 24 -80 73.5t-17 114.5l1 8q21 174 245 174zM327 641q-97 0 -150 -39t-62 -107l-2 -16q-10 -80 38.5 -128.5t142.5 -48.5q60 0 126 13l38 315
q-88 11 -131 11z" />
    <glyph glyph-name="uni0430" unicode="&#x430;" horiz-adv-x="486" 
d="M243 500q79 0 146 -84l10 72h25l-68 -488h-25l4 31l33 169l-2 2l-3 -2q-29 -106 -81.5 -159t-113.5 -53q-134 0 -105 186l23 148q28 178 157 178zM244 474q-106 0 -130 -150l-24 -147q-14 -88 8.5 -125.5t75.5 -37.5q68 0 122 71.5t75 220.5l12 89q-67 79 -139 79z" />
    <glyph glyph-name="uni0431" unicode="&#x431;" horiz-adv-x="491" 
d="M425 696l-4 -26q-136 0 -198.5 -39.5t-74.5 -128.5l-10 -74l-35 -178l2 -2l3 2q29 113 86.5 175.5t118.5 62.5q58 0 84 -45t11 -138l-22 -150q-12 -81 -57.5 -124t-112.5 -43q-167 0 -142 179l46 333q15 105 84 151.5t221 44.5zM308 462q-67 0 -123.5 -84t-83.5 -226
q-11 -70 19 -104.5t94 -34.5q56 0 95.5 36.5t50.5 108.5l21 142q14 82 -7.5 122t-65.5 40z" />
    <glyph glyph-name="uni0432" unicode="&#x432;" horiz-adv-x="486" 
d="M272 695q63 0 98.5 -40.5t27.5 -104.5l-2 -16q-12 -96 -85 -125q108 -21 88 -166l-13 -96q-21 -159 -168 -159q-79 0 -118.5 47.5t-26.5 135.5l52 363q13 90 47 125.5t100 35.5zM267 670q-50 0 -78 -31t-38 -105l-31 -226q33 38 70 62.5t64 35t51 22t40 34.5t23 63l2 12
q10 63 -18 98t-85 35zM290 388q-38 0 -86.5 -32.5t-88.5 -80.5l-16 -113q-10 -71 23 -109.5t98 -38.5q121 0 138 124l14 103q9 71 -14.5 109t-67.5 38z" />
    <glyph glyph-name="uni0433" unicode="&#x433;" horiz-adv-x="394" 
d="M228 500q67 0 97.5 -31t24.5 -86l-1 -9q-8 -73 -106 -113l-111 -46q-68 -29 -77 -89l-2 -13q-8 -47 21 -72.5t92 -25.5q50 0 120 24l-6 -30q-68 -21 -120 -21q-73 0 -108.5 34t-25.5 96l2 13q6 39 27.5 64.5t65.5 43.5l101 41q52 21 74 43.5t25 52.5l1 9q5 45 -19 66.5
t-84 21.5q-45 0 -117 -18v29q82 16 126 16z" />
    <glyph glyph-name="uni0434" unicode="&#x434;" horiz-adv-x="464" 
d="M165 669l3 25q46 -12 79 -26t63 -34.5t47 -46t30 -62.5t12 -83t-7 -107l-23 -167q-12 -89 -57 -134.5t-113 -45.5q-76 0 -116 50t-28 140l16 122q12 89 52 137.5t98 48.5q52 0 89.5 -50.5t53.5 -116.5l5 43q16 139 -33 207.5t-171 99.5zM221 460q-99 0 -123 -171
l-16 -113q-10 -74 23 -118t94 -44q57 0 94 37.5t48 111.5l17 118q-12 61 -51 120t-86 59z" />
    <glyph glyph-name="uni0435" unicode="&#x435;" horiz-adv-x="449" 
d="M278 500q57 0 89 -29.5t31 -80.5q-2 -83 -79.5 -139.5t-225.5 -65.5l-2 -16q-11 -86 14.5 -120t92.5 -34q61 0 137 39l-3 -30q-77 -36 -137 -36q-81 0 -112.5 43t-18.5 141l13 98q15 115 69 172.5t132 57.5zM276 474q-63 0 -111 -52.5t-61 -151.5l-8 -64q77 8 157 33
q58 29 87.5 68.5t29.5 78.5q0 42 -25.5 65t-68.5 23z" />
    <glyph glyph-name="uni0436" unicode="&#x436;" horiz-adv-x="599" 
d="M329 683h27q-6 -118 -20 -219l-26 -191h88q75 95 159 215h33l-168 -227l117 -261h-31q-59 143 -111 249h-91l-34 -249h-27l34 249h-88q-110 -158 -178 -249h-33l189 261l-104 227h29q50 -106 97 -215h92l26 184q12 79 20 226z" />
    <glyph glyph-name="uni0437" unicode="&#x437;" horiz-adv-x="403" 
d="M220 500q66 0 97.5 -39t20.5 -105l-6 -36q-17 -104 -106 -129q42 -13 61 -55.5t8 -111.5l-10 -64q-14 -90 -48.5 -123.5t-106.5 -33.5q-65 0 -155 28l4 28q86 -30 153 -30q59 0 86.5 26.5t39.5 102.5l10 67q12 78 -14 115.5t-81 37.5h-88l3 26h81q56 0 92.5 32t44.5 86
l5 33q18 119 -96 119q-38 0 -115 -15l2 27q68 14 118 14z" />
    <glyph glyph-name="uni0438" unicode="&#x438;" horiz-adv-x="496" 
d="M366 0h-25l4 31l34 169l-2 2l-3 -2q-28 -105 -80.5 -158.5t-114.5 -53.5q-133 0 -106 186l45 314h27l-45 -311q-13 -90 8.5 -126.5t73.5 -36.5q68 0 123.5 71.5t76.5 222.5l25 180h27z" />
    <glyph glyph-name="uni0439" unicode="&#x439;" horiz-adv-x="496" 
d="M400 646l-4 -34q-5 -6 -13.5 -14.5t-39 -23t-63.5 -14.5t-59 13t-35 26l-10 13l4 34q4 -6 12 -16t34.5 -26t55.5 -16q31 0 60.5 14.5t43.5 29.5zM366 0h-25l4 31l34 169l-2 2l-3 -2q-28 -105 -80.5 -158.5t-114.5 -53.5q-133 0 -106 186l45 314h27l-45 -311
q-13 -90 8.5 -126.5t73.5 -36.5q68 0 123.5 71.5t76.5 222.5l25 180h27z" />
    <glyph glyph-name="uni043A" unicode="&#x43a;" horiz-adv-x="418" 
d="M134 683h27q-7 -129 -20 -219l-26 -191h89q90 112 166 215h34l-178 -227l127 -261h-33q-50 120 -120 248h-89l-34 -248h-27l64 457q12 86 20 226z" />
    <glyph glyph-name="uni043B" unicode="&#x43b;" horiz-adv-x="481" 
d="M288 500q55 0 131 -16l-68 -484h-27l64 462q-51 11 -105 11q-74 0 -111 -38t-52 -138l-28 -189q-10 -69 -30.5 -94.5t-59.5 -25.5q-19 0 -34 5l4 25q20 -4 31 -4q25 0 38.5 17.5t21.5 69.5l29 193q18 118 62 162t134 44z" />
    <glyph glyph-name="uni043C" unicode="&#x43c;" horiz-adv-x="594" 
d="M469 0h-27l59 449l-212 -381h-33l-117 381l-67 -449h-27l73 488h36q49 -149 119 -392l1 -3l1 2q113 197 217 393h40z" />
    <glyph glyph-name="uni043D" unicode="&#x43d;" horiz-adv-x="496" 
d="M366 0h-27l33 238h-262l-33 -238h-27l68 488h27l-31 -224h262l31 224h27z" />
    <glyph glyph-name="uni043E" unicode="&#x43e;" horiz-adv-x="483" 
d="M408 317l-21 -157q-12 -88 -55.5 -130t-124.5 -42t-119 47t-25 138l22 156q13 91 54.5 131t123.5 40q79 0 118.5 -48t26.5 -135zM359 159l22 161q10 74 -22 114t-98 40q-69 0 -103.5 -34t-45.5 -110l-22 -160q-10 -77 20.5 -116.5t96.5 -39.5q131 0 152 145z" />
    <glyph glyph-name="uni043F" unicode="&#x43f;" horiz-adv-x="496" 
d="M326 500q55 0 77 -41.5t8 -140.5l-45 -318h-27l45 323q12 85 -4.5 118t-59.5 33q-71 0 -140 -112.5t-95 -301.5l-8 -60h-27l68 488h24l-12 -84l-29 -165l2 -2l3 2q35 125 97.5 193t122.5 68z" />
    <glyph glyph-name="uni0440" unicode="&#x440;" horiz-adv-x="482" 
d="M316 500q58 0 84 -45t10 -138l-29 -167q-29 -162 -143 -162q-35 0 -79 20t-75 48q-10 -62 -49 -241h-27q36 149 53 267l57 406h22l-10 -74l-29 -164l2 -2l3 2q34 127 91 188.5t119 61.5zM310 474q-68 0 -130.5 -95t-88.5 -275l-4 -26q28 -26 70.5 -45t74.5 -19
q50 0 80 31.5t43 107.5l28 159q14 83 -7.5 122.5t-65.5 39.5z" />
    <glyph glyph-name="uni0441" unicode="&#x441;" horiz-adv-x="399" 
d="M183 -12q-69 0 -101 45.5t-20 133.5l24 168q23 165 156 165q50 0 108 -17l-5 -26q-54 17 -105 17q-109 0 -127 -137l-23 -169q-21 -154 98 -154q43 0 105 24l-3 -28q-61 -22 -107 -22z" />
    <glyph glyph-name="uni0442" unicode="&#x442;" horiz-adv-x="774" 
d="M605 500q55 0 77 -41t8 -141l-45 -318h-27l45 323q12 85 -4.5 118t-59.5 33q-69 0 -137 -113t-93 -301l-8 -60h-27l45 323q12 84 -5 117.5t-58 33.5q-70 0 -137.5 -112.5t-93.5 -301.5l-8 -60h-27l68 488h24l-12 -84l-30 -165l2 -2l3 2q35 125 96.5 193t120.5 68
q89 0 89 -108l-26 -153l2 -2l3 2q35 125 96 193t119 68z" />
    <glyph glyph-name="uni0443" unicode="&#x443;" horiz-adv-x="496" 
d="M434 488l-76 -546q-11 -78 -43.5 -108.5t-107.5 -30.5q-68 0 -156 24l4 28q84 -26 155 -26q60 0 85.5 23t35.5 88l14 91l34 169l-2 2l-3 -2q-28 -105 -80.5 -158.5t-114.5 -53.5q-133 0 -106 186l45 314h27l-45 -311q-13 -90 8.5 -126.5t73.5 -36.5q68 0 123.5 71.5
t76.5 222.5l25 180h27z" />
    <glyph glyph-name="uni0444" unicode="&#x444;" horiz-adv-x="683" 
d="M379 455l-34 -163l2 -2l3 2q47 208 172 208q107 0 81 -187l-21 -147q-25 -178 -133 -178q-71 0 -126 69l-34 -242h-28l31 216l34 163l-2 2l-3 -2q-47 -206 -170 -206q-110 0 -83 186l21 148q26 178 135 178q68 0 124 -70l36 253h28zM225 474q-85 0 -108 -150l-22 -147
q-13 -92 3.5 -127.5t60.5 -35.5q129 0 171 292l14 99q-56 69 -119 69zM514 474q-57 0 -103.5 -68t-69.5 -226l-14 -97q55 -69 121 -69q83 0 106 150l22 146q13 91 -3.5 127.5t-58.5 36.5z" />
    <glyph glyph-name="uni0445" unicode="&#x445;" horiz-adv-x="385" 
d="M204 253l126 -253h-33q-61 134 -109 234l-2 2l-3 -2q-68 -96 -172 -234h-36l195 253l-115 235h30q18 -40 53.5 -113t48.5 -101l2 -2l3 2q72 95 157 214h36z" />
    <glyph glyph-name="uni0446" unicode="&#x446;" horiz-adv-x="501" 
d="M369 25h40l-20 -145h-26l17 120h-39l4 31l34 169l-2 2l-3 -2q-28 -105 -80.5 -158.5t-114.5 -53.5q-133 0 -106 186l45 314h27l-45 -311q-13 -90 8.5 -126.5t73.5 -36.5q68 0 123.5 71.5t76.5 222.5l25 180h27z" />
    <glyph glyph-name="uni0447" unicode="&#x447;" horiz-adv-x="481" 
d="M352 0h-25l23 171l30 149l-2 2l-3 -2q-58 -192 -195 -192q-129 0 -103 181l26 179h27l-26 -176q-13 -88 9.5 -123t74.5 -35q69 0 123.5 69.5t72.5 208.5l8 56h27z" />
    <glyph glyph-name="uni0448" unicode="&#x448;" horiz-adv-x="763" 
d="M633 0h-25l4 31l34 169l-2 2l-3 -2q-28 -104 -80 -158t-110 -54q-89 0 -102 106l18 105l-2 2l-3 -2q-28 -103 -81 -157t-108 -54q-127 0 -100 186l45 314h27l-45 -311q-13 -90 8 -126.5t68 -36.5q62 0 117.5 74.5t74.5 203.5l28 196h27l-44 -311q-13 -90 7.5 -126.5
t67.5 -36.5q65 0 119.5 72t75.5 222l25 180h27z" />
    <glyph glyph-name="uni0449" unicode="&#x449;" horiz-adv-x="768" 
d="M637 25h39l-20 -145h-26l17 120h-39l4 31l34 169l-2 2l-3 -2q-28 -104 -80 -158t-110 -54q-89 0 -102 106l18 105l-2 2l-3 -2q-28 -103 -81 -157t-108 -54q-127 0 -100 186l45 314h27l-45 -311q-13 -90 8 -126.5t68 -36.5q62 0 117.5 74.5t74.5 203.5l28 196h27l-44 -311
q-13 -90 7.5 -126.5t67.5 -36.5q65 0 119.5 72t75.5 222l25 180h27z" />
    <glyph glyph-name="uni044A" unicode="&#x44a;" horiz-adv-x="556" 
d="M218 365l-27 -146l2 -2l3 2q72 159 188 159q57 0 84.5 -45.5t12.5 -140.5l-5 -32q-12 -81 -61 -126.5t-117 -45.5q-75 0 -111.5 43t-24.5 125l42 306h-140l4 26h167zM377 352q-57 0 -115.5 -63.5t-74.5 -153.5q-5 -59 24.5 -90t87.5 -31q55 0 97 37.5t54 111.5l4 24
q27 165 -77 165z" />
    <glyph glyph-name="uni044B" unicode="&#x44b;" horiz-adv-x="651" 
d="M128 365l-27 -146l2 -2l3 2q72 159 188 159q57 0 84.5 -45.5t12.5 -140.5l-5 -32q-12 -81 -61 -126.5t-117 -45.5q-75 0 -111.5 43t-24.5 125l46 332h27zM521 0h-28l68 488h28zM287 352q-57 0 -115.5 -63.5t-74.5 -153.5q-5 -59 24.5 -90t87.5 -31q55 0 97 37.5t54 111.5
l4 24q27 165 -77 165z" />
    <glyph glyph-name="uni044C" unicode="&#x44c;" horiz-adv-x="459" 
d="M128 365l-27 -146l2 -2l3 2q72 159 188 159q57 0 84.5 -45.5t12.5 -140.5l-5 -32q-12 -81 -61 -126.5t-117 -45.5q-75 0 -111.5 43t-24.5 125l46 332h27zM287 352q-57 0 -115.5 -63.5t-74.5 -153.5q-5 -59 24.5 -90t87.5 -31q55 0 97 37.5t54 111.5l4 24q27 165 -77 165z
" />
    <glyph glyph-name="uni044D" unicode="&#x44d;" horiz-adv-x="396" 
d="M200 500q72 0 102.5 -45.5t15.5 -150.5l-22 -161q-12 -85 -43.5 -120t-90.5 -35q-63 0 -132 27l6 27q73 -28 127 -28q44 0 70 27.5t35 95.5l14 102h-204l3 24h204l7 48q12 89 -12 126t-81 37q-38 0 -105 -13l2 27q64 12 104 12z" />
    <glyph glyph-name="uni044E" unicode="&#x44e;" horiz-adv-x="651" 
d="M137 683h27q-8 -126 -22 -219l-28 -201h153l8 61q13 93 53 134.5t116 41.5q74 0 109.5 -48.5t22.5 -140.5l-20 -146q-12 -89 -53.5 -133t-116.5 -44q-73 0 -108.5 48.5t-22.5 141.5l8 61h-153l-33 -239h-27l64 457q14 94 23 226zM442 474q-63 0 -95.5 -34t-43.5 -110
l-22 -160q-10 -76 19 -116t86 -40q62 0 96.5 35t44.5 110l22 161q10 75 -17.5 114.5t-89.5 39.5z" />
    <glyph glyph-name="uni044F" unicode="&#x44f;" horiz-adv-x="466" 
d="M406 500l-70 -500h-27l27 194q-133 0 -157 4q-58 -78 -138 -198h-36l147 207q-46 16 -66.5 56.5t-12.5 96.5l1 7q9 63 58.5 98t127.5 35h146zM339 220l36 254h-113q-71 0 -112 -30t-49 -81l-1 -5q-8 -64 23.5 -101t97.5 -37h118z" />
    <glyph glyph-name="uni0451" unicode="&#x451;" horiz-adv-x="449" 
d="M278 500q57 0 89 -29.5t31 -80.5q-2 -83 -79.5 -139.5t-225.5 -65.5l-2 -16q-11 -86 14.5 -120t92.5 -34q61 0 137 39l-3 -30q-77 -36 -137 -36q-81 0 -112.5 43t-18.5 141l13 98q15 115 69 172.5t132 57.5zM276 474q-63 0 -111 -52.5t-61 -151.5l-8 -64q77 8 157 33
q58 29 87.5 68.5t29.5 78.5q0 42 -25.5 65t-68.5 23zM244 606l-1 -6q-3 -19 -21 -19q-11 0 -17 6.5t-4 17.5l1 6q3 20 22 20q24 0 20 -25zM358 606l-1 -6q-3 -19 -21 -19q-11 0 -17 6.5t-4 17.5l1 6q3 20 22 20q24 0 20 -25z" />
    <glyph glyph-name="uni0452" unicode="&#x452;" horiz-adv-x="496" 
d="M139 683h27q-1 -25 -5 -80h154l-3 -24h-153q-3 -44 -13 -115l-9 -60l-31 -165l2 -2l3 2q35 125 97.5 193t122.5 68q55 0 77 -41.5t8 -140.5l-60 -421q-7 -52 -29 -73t-64 -21q-24 0 -60 11l4 26q33 -11 58 -11q28 0 43.5 15t20.5 51l60 428q12 85 -4.5 118t-59.5 33
q-71 0 -140 -112.5t-95 -301.5l-8 -60h-27l64 457q8 54 13 122h-66l3 24h65q1 13 2.5 39.5t2.5 40.5z" />
    <glyph glyph-name="uni0453" unicode="&#x453;" horiz-adv-x="394" 
d="M228 500q67 0 97.5 -31t24.5 -86l-1 -9q-8 -73 -106 -113l-111 -46q-68 -29 -77 -89l-2 -13q-8 -47 21 -72.5t92 -25.5q50 0 120 24l-6 -30q-68 -21 -120 -21q-73 0 -108.5 34t-25.5 96l2 13q6 39 27.5 64.5t65.5 43.5l101 41q52 21 74 43.5t25 52.5l1 9q5 45 -19 66.5
t-84 21.5q-45 0 -117 -18v29q82 16 126 16zM205 546l80 114h36l-89 -114h-27z" />
    <glyph glyph-name="uni0454" unicode="&#x454;" horiz-adv-x="404" 
d="M242 500q50 0 108 -17l-5 -26q-54 17 -105 17q-109 0 -127 -137l-10 -74h204l-3 -24h-204l-10 -71q-21 -154 98 -154q43 0 105 24l-3 -28q-61 -22 -107 -22q-69 0 -101 45.5t-20 133.5l24 168q23 165 156 165z" />
    <glyph glyph-name="uni0455" unicode="&#x455;" horiz-adv-x="395" 
d="M216 500q49 0 106 -18l-4 -30q-41 15 -65 19q-18 3 -43 3q-96 0 -108 -73l-1 -6q-12 -74 62 -111l86 -45q85 -44 70 -131l-2 -12q-19 -108 -134 -108q-69 0 -140 34l6 29q38 -19 88 -33q21 -4 47 -4q92 0 106 86l1 6q7 40 -7.5 66.5t-53.5 46.5l-89 45q-41 21 -58 57
t-9 79l2 10q17 90 140 90z" />
    <glyph glyph-name="uni0456" unicode="&#x456;" horiz-adv-x="207" 
d="M167 610l-1 -8q-3 -21 -24 -21q-26 0 -23 26l1 8q3 22 25 22q25 0 22 -27zM118 488h27l-68 -488h-27z" />
    <glyph glyph-name="uni0457" unicode="&#x457;" horiz-adv-x="207" 
d="M118 488h27l-68 -488h-27zM106 606l-1 -6q-3 -19 -21 -19q-11 0 -17 6.5t-4 17.5l1 6q3 20 22 20q24 0 20 -25zM220 606l-1 -6q-3 -19 -21 -19q-11 0 -17 6.5t-4 17.5l1 6q3 20 22 20q24 0 20 -25z" />
    <glyph glyph-name="uni0458" unicode="&#x458;" horiz-adv-x="207" 
d="M169 610l-1 -8q-3 -21 -24 -21q-26 0 -23 26l1 8q3 22 25 22q25 0 22 -27zM145 488l-84 -591q-7 -52 -29 -73t-64 -21q-24 0 -60 11l4 26q33 -11 58 -11q28 0 43.5 15t20.5 51l84 593h27z" />
    <glyph glyph-name="uni0459" unicode="&#x459;" horiz-adv-x="740" 
d="M288 500q55 0 131 -16l-17 -119l-27 -146l2 -2l3 2q72 159 188 159q57 0 84.5 -45.5t12.5 -140.5l-5 -32q-12 -81 -61 -126.5t-117 -45.5q-75 0 -111.5 43t-24.5 125l42 306q-51 11 -105 11q-74 0 -111 -38t-52 -138l-28 -189q-10 -69 -31 -94.5t-59 -25.5q-19 0 -34 5
l4 25q20 -4 31 -4q25 0 38.5 17.5t21.5 69.5l29 193q18 118 62 162t134 44zM561 352q-57 0 -115.5 -63.5t-74.5 -153.5q-5 -59 24.5 -90t87.5 -31q55 0 97 37.5t54 111.5l4 24q27 165 -77 165z" />
    <glyph glyph-name="uni045A" unicode="&#x45a;" horiz-adv-x="745" 
d="M407 365l-27 -146l2 -2l3 2q72 159 188 159q57 0 84.5 -45.5t12.5 -140.5l-5 -32q-12 -81 -61 -126.5t-117 -45.5q-74 0 -111 43t-25 125l12 83h-252l-33 -239h-28l68 488h28l-32 -225h251l32 225h27zM566 352q-57 0 -115.5 -63.5t-74.5 -153.5q-5 -59 24.5 -90t87.5 -31
q55 0 97 37.5t54 111.5l4 24q27 165 -77 165z" />
    <glyph glyph-name="uni045B" unicode="&#x45b;" horiz-adv-x="496" 
d="M139 683h27q-1 -25 -5 -80h154l-3 -24h-153q-3 -44 -13 -115l-9 -60l-31 -165l2 -2l3 2q35 125 97.5 193t122.5 68q55 0 77 -41.5t8 -140.5l-45 -318h-27l45 323q12 85 -4.5 118t-59.5 33q-71 0 -140 -112.5t-95 -301.5l-8 -60h-27l64 457q8 54 13 122h-66l3 24h65z" />
    <glyph glyph-name="uni045C" unicode="&#x45c;" horiz-adv-x="413" 
d="M226 261l127 -261h-33q-50 120 -120 248h-89l-34 -248h-27l68 488h27l-30 -215h89q90 112 166 215h34zM209 546l80 114h36l-89 -114h-27z" />
    <glyph glyph-name="uni045E" unicode="&#x45e;" horiz-adv-x="496" 
d="M434 488l-76 -546q-11 -78 -43.5 -108.5t-107.5 -30.5q-68 0 -156 24l4 28q84 -26 155 -26q60 0 85.5 23t35.5 88l14 91l34 169l-2 2l-3 -2q-28 -105 -80.5 -158.5t-114.5 -53.5q-133 0 -106 186l45 314h27l-45 -311q-13 -90 8.5 -126.5t73.5 -36.5q68 0 123.5 71.5
t76.5 222.5l25 180h27zM403 646l-4 -34q-5 -6 -13.5 -14.5t-39 -23t-63.5 -14.5t-59 13t-36 26l-9 13l4 34q4 -6 12 -16t34.5 -26t55.5 -16q31 0 60.5 14.5t43.5 29.5z" />
    <glyph glyph-name="uni045F" unicode="&#x45f;" horiz-adv-x="490" 
d="M360 0h-138l-17 -120h-26l17 120h-146l68 488h28l-65 -465h255l65 465h27z" />
    <glyph glyph-name="uni0462" unicode="&#x462;" horiz-adv-x="669" 
d="M518 629h-205l-34 -272q68 10 122 10q111 0 164.5 -47t44.5 -135l-1 -10q-19 -187 -237 -187q-78 0 -164 9l78 632h-205l3 26h437zM397 341q-34 0 -121 -9l-38 -309q59 -8 133 -8q193 0 210 159l1 9q8 77 -37.5 117.5t-147.5 40.5z" />
    <glyph glyph-name="uni0463" unicode="&#x463;" horiz-adv-x="466" 
d="M155 558h148l-3 -24h-148l-24 -169l-27 -146l2 -2l3 2q72 159 188 159q57 0 84.5 -45.5t12.5 -140.5l-5 -32q-12 -81 -61 -126.5t-117 -45.5q-75 0 -111.5 43t-24.5 125l53 378h-70l3 24h70l11 77h27zM287 352q-57 0 -115.5 -63.5t-74.5 -153.5q-5 -59 24.5 -90t87.5 -31
q55 0 97 37.5t54 111.5l4 24q27 165 -77 165z" />
    <glyph glyph-name="uni0472" unicode="&#x472;" horiz-adv-x="576" 
d="M320 667q105 0 153.5 -55t36.5 -156l-32 -262q-13 -106 -64.5 -156t-151.5 -50q-103 0 -152.5 55.5t-36.5 160.5l32 258q13 111 63.5 158t151.5 47zM317 642q-86 0 -129.5 -41t-55.5 -138l-13 -111h351l13 107q12 92 -31 137.5t-135 45.5zM115 326l-15 -127
q-11 -91 32 -138.5t131 -47.5q87 0 131.5 43.5t56.5 137.5l16 132h-352z" />
    <glyph glyph-name="uni0473" unicode="&#x473;" horiz-adv-x="483" 
d="M263 500q79 0 118.5 -48t26.5 -135l-21 -157q-12 -88 -55.5 -130t-124.5 -42t-119 47t-25 138l22 156q13 91 54.5 131t123.5 40zM261 474q-69 0 -103.5 -34t-45.5 -110l-9 -67h270l8 57q10 74 -22 114t-98 40zM99 239l-9 -69q-10 -77 20.5 -116.5t96.5 -39.5
q131 0 152 145l11 80h-271z" />
    <glyph glyph-name="uni0474" unicode="&#x474;" horiz-adv-x="525" 
d="M561 667q25 0 58 -10l-3 -25q-38 9 -50 9q-27 0 -43 -18t-46 -84l-238 -539h-40l-135 655h29q74 -333 127 -625q128 273 225 511q30 74 55.5 100t60.5 26z" />
    <glyph glyph-name="uni0475" unicode="&#x475;" horiz-adv-x="445" 
d="M457 500q15 0 45 -8l-4 -25q-28 7 -40 7q-22 0 -37.5 -18.5t-53.5 -94.5l-179 -361h-33l-107 488h28q51 -226 96 -456l2 -2l3 2q22 43 167 340q41 83 62 105.5t51 22.5z" />
    <glyph glyph-name="uni0490" unicode="&#x490;" horiz-adv-x="431" 
d="M432 629h-274l-77 -629h-27l80 655h275l16 130h26z" />
    <glyph glyph-name="uni0491" unicode="&#x491;" horiz-adv-x="361" 
d="M351 464h-208l-65 -464h-28l68 488h210l17 121h26z" />
    <glyph glyph-name="uni0492" unicode="&#x492;" horiz-adv-x="436" 
d="M437 629h-274l-36 -282h163l-2 -26h-163l-39 -321h-27l39 321h-65l2 26h65l39 308h301z" />
    <glyph glyph-name="uni0493" unicode="&#x493;" horiz-adv-x="366" 
d="M356 464h-208l-27 -191h147l-4 -24h-147l-34 -249h-28l34 249h-69l4 24h69l30 215h236z" />
    <glyph glyph-name="uni0496" unicode="&#x496;" horiz-adv-x="777" 
d="M584 338l117 -312h56l-19 -156h-26l17 130h-50q-53 159 -120 326h-154l-39 -326h-27l39 326h-154q-92 -162 -198 -326h-32l209 338l-120 317h28q59 -150 114 -303h156l38 303h27l-38 -303h154q122 191 190 303h30z" />
    <glyph glyph-name="uni0497" unicode="&#x497;" horiz-adv-x="599" 
d="M329 683h27q-6 -118 -20 -219l-26 -191h88q75 95 159 215h33l-168 -227l106 -236h48l-20 -145h-26l17 120h-39q-59 143 -111 249h-91l-34 -249h-27l34 249h-88q-110 -158 -178 -249h-33l189 261l-104 227h29q50 -106 97 -215h92l26 184q12 79 20 226z" />
    <glyph glyph-name="uni0498" unicode="&#x498;" horiz-adv-x="465" 
d="M234 667q95 0 141.5 -48t35.5 -129l-1 -7q-8 -57 -41 -95.5t-82 -50.5q50 -15 79.5 -59.5t22.5 -105.5l-1 -9q-19 -172 -198 -175l-14 -31h10q37 0 55.5 -22.5t12.5 -58.5l-1 -6q-12 -67 -77 -67q-25 0 -59 10l3 23q32 -10 59 -10q22 0 33 10t15 36l1 6q10 58 -51 58h-30
l1 12l19 41q-80 4 -149 32l6 28q81 -35 161 -35q159 0 177 150l1 8q9 69 -33.5 111t-118.5 42h-83l3 26h83q147 0 169 134l1 6q11 71 -29 110.5t-127 39.5q-50 0 -130 -20v27q85 19 136 19z" />
    <glyph glyph-name="uni0499" unicode="&#x499;" horiz-adv-x="353" 
d="M145 500q78 0 115 -33.5t30 -93.5l-1 -9q-10 -87 -103 -116q42 -14 63 -47.5t14 -80.5l-1 -7q-18 -122 -143 -125l-14 -31h10q37 0 55.5 -22.5t12.5 -58.5l-1 -6q-12 -67 -77 -67q-25 0 -59 10l3 23q32 -10 59 -10q22 0 33 10t15 36l1 6q10 58 -51 58h-30l1 12l19 41
q-57 4 -126 31l3 27q79 -33 142 -33q106 0 120 102l1 7q7 50 -22 81t-85 31h-83l3 26h91q48 0 82 29t40 73l1 7q8 51 -23 77.5t-99 26.5q-38 0 -92 -9l2 26q57 9 94 9z" />
    <glyph glyph-name="uni049A" unicode="&#x49a;" horiz-adv-x="490" 
d="M269 344l171 -318h56l-19 -156h-26l17 130h-48q-81 163 -172 326h-128l-39 -326h-27l80 655h27l-38 -303h121q67 87 224 303h33z" />
    <glyph glyph-name="uni049B" unicode="&#x49b;" horiz-adv-x="413" 
d="M226 261l115 -236h48l-20 -145h-26l17 120h-40q-50 120 -120 248h-89l-34 -248h-27l68 488h27l-30 -215h89q90 112 166 215h34z" />
    <glyph glyph-name="uni049C" unicode="&#x49c;" horiz-adv-x="490" 
d="M269 344l185 -344h-34q-81 163 -172 326h-40l-28 -226h-25l28 226h-63l-39 -326h-27l80 655h27l-38 -303h63l18 148h25l-18 -148h33q67 87 224 303h33z" />
    <glyph glyph-name="uni049D" unicode="&#x49d;" horiz-adv-x="413" 
d="M226 261l127 -261h-33q-50 120 -120 248h-21l-19 -138h-24l19 138h-44l-34 -248h-27l68 488h27l-30 -215h44l19 137h24l-19 -137h21q90 112 166 215h34z" />
    <glyph glyph-name="uni04A0" unicode="&#x4a0;" horiz-adv-x="610" 
d="M389 344l185 -344h-34q-81 163 -172 326h-128l-39 -326h-27l77 629h-180l3 26h207l-38 -303h121q67 87 224 303h33z" />
    <glyph glyph-name="uni04A1" unicode="&#x4a1;" horiz-adv-x="503" 
d="M316 261l127 -261h-33q-50 120 -120 248h-89l-34 -248h-27l64 462h-140l4 26h167l-30 -215h89q90 112 166 215h34z" />
    <glyph glyph-name="uni04A2" unicode="&#x4a2;" horiz-adv-x="579" 
d="M455 26h60l-19 -156h-26l17 130h-61l39 326h-345l-39 -326h-27l80 655h27l-38 -303h345l38 303h27z" />
    <glyph glyph-name="uni04A3" unicode="&#x4a3;" horiz-adv-x="501" 
d="M369 25h37l-20 -145h-26l17 120h-38l33 238h-262l-33 -238h-27l68 488h27l-31 -224h262l31 224h27z" />
    <glyph glyph-name="uni04AA" unicode="&#x4aa;" horiz-adv-x="476" 
d="M297 667q65 0 147 -28l-5 -27q-85 29 -148 29q-73 0 -110.5 -40t-50.5 -146l-32 -265q-22 -175 137 -175q53 0 136 30l-2 -30q-48 -14 -52 -15q-38 -16 -66.5 -47t-32.5 -62l-1 -7q-8 -55 51 -55q16 0 37 7l-3 -27q-26 -6 -42 -6q-37 0 -56 21t-14 56l1 8q4 29 24 57
t49 45q-20 -2 -31 -2q-187 0 -161 210l31 254q15 124 58.5 169.5t135.5 45.5z" />
    <glyph glyph-name="uni04AB" unicode="&#x4ab;" horiz-adv-x="399" 
d="M242 500q50 0 108 -17l-5 -26q-54 17 -105 17q-109 0 -127 -137l-23 -169q-21 -154 98 -154q43 0 105 24l-3 -28q-11 -4 -33 -10q-38 -16 -65.5 -46.5t-32.5 -62.5l-1 -7q-8 -55 51 -55q16 0 37 7l-3 -27q-25 -6 -42 -6q-37 0 -56 21t-14 56l1 8q4 29 24 56.5t48 44.5
q-7 -1 -21 -1q-69 0 -101 45.5t-20 133.5l24 168q23 165 156 165z" />
    <glyph glyph-name="uni04AE" unicode="&#x4ae;" horiz-adv-x="455" 
d="M232 225l-27 -225h-27l27 225l-141 430h30q69 -207 126 -398q121 208 224 398h35z" />
    <glyph glyph-name="uni04AF" unicode="&#x4af;" horiz-adv-x="422" 
d="M184 0l-27 -185h-27l27 185l-109 488h26q55 -244 97 -452l2 -2l3 2q134 258 224 452h30z" />
    <glyph glyph-name="uni04B0" unicode="&#x4b0;" horiz-adv-x="455" 
d="M247 251h102l-3 -26h-114l-27 -225h-27l27 225h-114l3 26h102l-132 404h30q69 -207 126 -398q121 208 224 398h35z" />
    <glyph glyph-name="uni04B1" unicode="&#x4b1;" horiz-adv-x="422" 
d="M196 24h86l-3 -24h-95l-27 -185h-27l27 185h-95l3 24h87l-104 464h26q55 -244 97 -452l2 -2l3 2q134 258 224 452h30z" />
    <glyph glyph-name="uni04B2" unicode="&#x4b2;" horiz-adv-x="483" 
d="M264 337l150 -311h53l-19 -156h-26l17 130h-45q-63 143 -151 312q-110 -161 -223 -312h-36l246 335l-155 320h30q79 -153 142 -295q118 159 214 295h36z" />
    <glyph glyph-name="uni04B3" unicode="&#x4b3;" horiz-adv-x="385" 
d="M204 253l114 -228h46l-20 -145h-26l17 120h-38q-61 134 -109 234l-2 2l-3 -2q-68 -96 -172 -234h-36l195 253l-115 235h30q18 -40 53.5 -113t48.5 -101l2 -2l3 2q72 95 157 214h36z" />
    <glyph glyph-name="uni04B8" unicode="&#x4b8;" horiz-adv-x="559" 
d="M433 0h-27l31 256q-100 -26 -155 -28l-16 -128h-25l16 128q-88 4 -130.5 55t-30.5 147l28 225h27l-28 -226q-10 -83 26 -127t111 -48l30 246h25l-30 -246q71 3 155 27l46 374h27z" />
    <glyph glyph-name="uni04B9" unicode="&#x4b9;" horiz-adv-x="457" 
d="M395 488l-67 -488h-25l23 171l30 149l-2 2l-3 -2q-47 -157 -151 -187l-10 -73h-24l10 69q-7 -1 -20 -1q-129 0 -103 181l26 179h27l-26 -176q-13 -88 9.5 -123t74.5 -35l15 1l29 205h24l-28 -200q57 18 98.5 86t57.5 186l8 56h27z" />
    <glyph glyph-name="uni04BA" unicode="&#x4ba;" horiz-adv-x="546" 
d="M161 655l-34 -267q105 39 182 39q90 0 134 -52.5t32 -157.5l-26 -217h-27l25 211q22 190 -143 190q-90 0 -179 -38l-44 -363h-27l80 655h27z" />
    <glyph glyph-name="uni04BB" unicode="&#x4bb;" horiz-adv-x="486" 
d="M134 683h27q-7 -129 -20 -219l-9 -68l-34 -181l2 -2l3 2q35 105 92.5 160t117.5 55q55 0 78 -42.5t9 -143.5l-34 -244h-27l34 249q12 87 -5 121t-60 34q-71 0 -136.5 -92t-86.5 -252l-8 -60h-27l64 457q12 86 20 226z" />
    <glyph glyph-name="uni04C0" unicode="&#x4c0;" horiz-adv-x="207" 
d="M134 655h27l-80 -655h-27z" />
    <glyph glyph-name="uni04CB" unicode="&#x4cb;" horiz-adv-x="559" 
d="M436 26h59l-19 -156h-26l17 130h-61l31 256q-110 -28 -167 -28q-94 0 -140 51t-34 151l28 225h27l-28 -226q-11 -87 28.5 -131t120.5 -44q76 0 168 27l46 374h27z" />
    <glyph glyph-name="uni04CC" unicode="&#x4cc;" horiz-adv-x="486" 
d="M356 25h38l-20 -145h-26l17 120h-38l23 171l30 149l-2 2l-3 -2q-58 -192 -195 -192q-129 0 -103 181l26 179h27l-26 -176q-13 -88 9.5 -123t74.5 -35q69 0 123.5 69.5t72.5 208.5l8 56h27z" />
    <glyph glyph-name="uni04CF" unicode="&#x4cf;" horiz-adv-x="207" 
d="M118 488h27l-68 -488h-27z" />
    <glyph glyph-name="uni04D8" unicode="&#x4d8;" horiz-adv-x="566" 
d="M337 667q98 0 138 -48t25 -164l-33 -263q-13 -108 -64 -156t-145 -48q-97 0 -147.5 57t-37.5 161l18 146h369l13 109q12 102 -20 141t-120 39q-70 0 -152 -21l2 27q90 20 154 20zM115 326l-15 -122q-12 -91 31.5 -140.5t126.5 -49.5q82 0 126.5 39.5t55.5 131.5l17 141
h-342z" />
    <glyph glyph-name="uni04D9" unicode="&#x4d9;" horiz-adv-x="477" 
d="M248 500q88 0 126.5 -46t26.5 -132l-21 -152q-25 -182 -172 -182q-82 0 -119.5 48.5t-24.5 140.5l12 86h290l10 67q16 144 -132 144q-51 0 -128 -15l2 27q79 14 130 14zM100 239l-10 -69q-10 -74 20 -115.5t96 -41.5q64 0 99.5 37.5t46.5 115.5l11 73h-263z" />
    <glyph glyph-name="uni04E2" unicode="&#x4e2;" horiz-adv-x="580" 
d="M454 0h-27l75 618l-411 -618h-37l80 655h27l-76 -619q166 241 412 619h37zM249 758h201l-4 -29h-201z" />
    <glyph glyph-name="uni04E3" unicode="&#x4e3;" horiz-adv-x="496" 
d="M197 621h185l-4 -29h-185zM366 0h-25l4 31l34 169l-2 2l-3 -2q-28 -105 -80.5 -158.5t-114.5 -53.5q-133 0 -106 186l45 314h27l-45 -311q-13 -90 8.5 -126.5t73.5 -36.5q68 0 123.5 71.5t76.5 222.5l25 180h27z" />
    <glyph glyph-name="uni04E8" unicode="&#x4e8;" horiz-adv-x="576" 
d="M320 667q105 0 153.5 -55t36.5 -156l-32 -262q-13 -106 -64.5 -156t-151.5 -50q-103 0 -152.5 55.5t-36.5 160.5l32 258q13 111 63.5 158t151.5 47zM317 642q-86 0 -129.5 -41t-55.5 -138l-13 -111h351l13 107q12 92 -31 137.5t-135 45.5zM115 326l-15 -127
q-11 -91 32 -138.5t131 -47.5q87 0 131.5 43.5t56.5 137.5l16 132h-352z" />
    <glyph glyph-name="uni04E9" unicode="&#x4e9;" horiz-adv-x="483" 
d="M263 500q79 0 118.5 -48t26.5 -135l-21 -157q-12 -88 -55.5 -130t-124.5 -42t-119 47t-25 138l22 156q13 91 54.5 131t123.5 40zM261 474q-69 0 -103.5 -34t-45.5 -110l-9 -67h270l8 57q10 74 -22 114t-98 40zM99 239l-9 -69q-10 -77 20.5 -116.5t96.5 -39.5
q131 0 152 145l11 80h-271z" />
    <glyph glyph-name="uni04EE" unicode="&#x4ee;" horiz-adv-x="472" 
d="M96 0l120 212l-152 443h30q85 -247 139 -412q29 49 231 412h32l-369 -655h-31zM185 758h201l-4 -29h-201z" />
    <glyph glyph-name="uni04EF" unicode="&#x4ef;" horiz-adv-x="496" 
d="M201 621h185l-4 -29h-185zM434 488l-76 -546q-11 -78 -43.5 -108.5t-107.5 -30.5q-68 0 -156 24l4 28q84 -26 155 -26q60 0 85.5 23t35.5 88l14 91l34 169l-2 2l-3 -2q-28 -105 -80.5 -158.5t-114.5 -53.5q-133 0 -106 186l45 314h27l-45 -311q-13 -90 8.5 -126.5
t73.5 -36.5q68 0 123.5 71.5t76.5 222.5l25 180h27z" />
    <glyph glyph-name="Wgrave" unicode="&#x1e80;" horiz-adv-x="828" 
d="M596 0h-44l-98 624l-249 -624h-44l-87 655h28q57 -373 84 -625q125 302 249 625h43q58 -332 97 -625q108 275 233 625h34zM393 814l77 -109h-26l-86 109h35z" />
    <glyph glyph-name="wgrave" unicode="&#x1e81;" horiz-adv-x="662" 
d="M474 0h-36l-83 457l-212 -457h-36l-49 488h28q16 -163 41 -455l3 -2l2 2q93 198 209 455h34q54 -302 79 -455l3 -2l2 2q97 252 171 455h30zM295 660l80 -114h-27l-89 114h36z" />
    <glyph glyph-name="Wacute" unicode="&#x1e82;" horiz-adv-x="828" 
d="M596 0h-44l-98 624l-249 -624h-44l-87 655h28q57 -373 84 -625q125 302 249 625h43q58 -332 97 -625q108 275 233 625h34zM445 705l77 109h35l-86 -109h-26z" />
    <glyph glyph-name="wacute" unicode="&#x1e83;" horiz-adv-x="662" 
d="M474 0h-36l-83 457l-212 -457h-36l-49 488h28q16 -163 41 -455l3 -2l2 2q93 198 209 455h34q54 -302 79 -455l3 -2l2 2q97 252 171 455h30zM349 546l80 114h36l-89 -114h-27z" />
    <glyph glyph-name="Wdieresis" unicode="&#x1e84;" horiz-adv-x="828" 
d="M596 0h-44l-98 624l-249 -624h-44l-87 655h28q57 -373 84 -625q125 302 249 625h43q58 -332 97 -625q108 275 233 625h34zM429 761l-1 -6q-3 -19 -21 -19q-11 0 -17 6.5t-4 17.5l1 6q3 20 22 20q24 0 20 -25zM543 761l-1 -6q-3 -19 -21 -19q-11 0 -17 6.5t-4 17.5l1 6
q3 20 22 20q24 0 20 -25z" />
    <glyph glyph-name="wdieresis" unicode="&#x1e85;" horiz-adv-x="662" 
d="M474 0h-36l-83 457l-212 -457h-36l-49 488h28q16 -163 41 -455l3 -2l2 2q93 198 209 455h34q54 -302 79 -455l3 -2l2 2q97 252 171 455h30zM330 606l-1 -6q-3 -19 -21 -19q-11 0 -17 6.5t-4 17.5l1 6q3 20 22 20q24 0 20 -25zM444 606l-1 -6q-3 -19 -21 -19
q-11 0 -17 6.5t-4 17.5l1 6q3 20 22 20q24 0 20 -25z" />
    <glyph glyph-name="Ygrave" unicode="&#x1ef2;" horiz-adv-x="455" 
d="M232 225l-27 -225h-27l27 225l-141 430h30q69 -207 126 -398q121 208 224 398h35zM202 814l77 -109h-26l-86 109h35z" />
    <glyph glyph-name="ygrave" unicode="&#x1ef3;" horiz-adv-x="496" 
d="M434 488l-76 -546q-11 -78 -43.5 -108.5t-107.5 -30.5q-68 0 -156 24l4 28q84 -26 155 -26q60 0 85.5 23t35.5 88l14 91l34 169l-2 2l-3 -2q-28 -105 -80.5 -158.5t-114.5 -53.5q-133 0 -106 186l45 314h27l-45 -311q-13 -90 8.5 -126.5t73.5 -36.5q68 0 123.5 71.5
t76.5 222.5l25 180h27zM219 660l80 -114h-27l-89 114h36z" />
    <glyph glyph-name="uni2007" unicode="&#x2007;" horiz-adv-x="510" 
 />
    <glyph glyph-name="uni2008" unicode="&#x2008;" horiz-adv-x="223" 
 />
    <glyph glyph-name="uni200B" unicode="&#x200b;" horiz-adv-x="0" 
 />
    <glyph glyph-name="endash" unicode="&#x2013;" horiz-adv-x="610" 
d="M529 283h-450l4 26h450z" />
    <glyph glyph-name="emdash" unicode="&#x2014;" horiz-adv-x="710" 
d="M629 283h-550l4 26h550z" />
    <glyph glyph-name="afii00208" unicode="&#x2015;" horiz-adv-x="610" 
d="M529 283h-450l4 26h450z" />
    <glyph glyph-name="quoteleft" unicode="&#x2018;" horiz-adv-x="191" 
d="M172 688l-17 -46q15 -6 12 -26l-1 -7q-3 -22 -26 -22q-28 0 -24 29l1 7q1 9 8 24l19 41h28z" />
    <glyph glyph-name="quoteright" unicode="&#x2019;" horiz-adv-x="191" 
d="M149 688q28 0 24 -29l-1 -7q-1 -9 -8 -24l-19 -41h-28l17 46q-15 6 -12 26l1 7q3 22 26 22z" />
    <glyph glyph-name="quotesinglbase" unicode="&#x201a;" horiz-adv-x="191" 
d="M59 44q28 0 24 -29l-1 -7q-1 -9 -8 -24l-19 -41h-28l17 46q-15 6 -12 26l1 7q3 22 26 22z" />
    <glyph glyph-name="quotedblleft" unicode="&#x201c;" horiz-adv-x="281" 
d="M172 688l-17 -46q15 -6 12 -26l-1 -7q-3 -22 -26 -22q-28 0 -24 29l1 7q1 9 8 24l19 41h28zM262 688l-17 -46q15 -6 12 -26l-1 -7q-3 -22 -26 -22q-28 0 -24 29l1 7q1 9 8 24l19 41h28z" />
    <glyph glyph-name="quotedblright" unicode="&#x201d;" horiz-adv-x="281" 
d="M149 688q28 0 24 -29l-1 -7q-1 -9 -8 -24l-19 -41h-28l17 46q-15 6 -12 26l1 7q3 22 26 22zM239 688q28 0 24 -29l-1 -7q-1 -9 -8 -24l-19 -41h-28l17 46q-15 6 -12 26l1 7q3 22 26 22z" />
    <glyph glyph-name="quotedblbase" unicode="&#x201e;" horiz-adv-x="281" 
d="M59 44q28 0 24 -29l-1 -7q-1 -9 -8 -24l-19 -41h-28l17 46q-15 6 -12 26l1 7q3 22 26 22zM149 44q28 0 24 -29l-1 -7q-1 -9 -8 -24l-19 -41h-28l17 46q-15 6 -12 26l1 7q3 22 26 22z" />
    <glyph glyph-name="dagger" unicode="&#x2020;" horiz-adv-x="420" 
d="M252 488h166l-4 -27h-166l-64 -461h-28l64 461h-166l4 27h166l24 167h28z" />
    <glyph glyph-name="daggerdbl" unicode="&#x2021;" horiz-adv-x="440" 
d="M262 488h166l-4 -27h-166l-27 -197h166l-4 -27h-166l-33 -237h-28l33 237h-166l4 27h166l27 197h-166l4 27h166l24 167h28z" />
    <glyph glyph-name="bullet" unicode="&#x2022;" horiz-adv-x="212" 
d="M106 311q18 0 27 -10t7 -25l-3 -23q-3 -28 -36 -28q-19 0 -28 10t-7 24l3 23q5 29 37 29z" />
    <glyph glyph-name="ellipsis" unicode="&#x2026;" horiz-adv-x="433" 
d="M177 44q27 0 24 -26l-1 -9q-3 -21 -26 -21q-28 0 -25 25l1 9q3 22 27 22zM56 44q27 0 24 -26l-1 -9q-3 -21 -26 -21q-28 0 -25 25l1 9q3 22 27 22zM298 44q27 0 24 -26l-1 -9q-3 -21 -26 -21q-28 0 -25 25l1 9q3 22 27 22z" />
    <glyph glyph-name="perthousand" unicode="&#x2030;" horiz-adv-x="1252" 
d="M244 625q69 0 103 -41t24 -117l-7 -50q-20 -142 -158 -142q-70 0 -103 41.5t-23 117.5l7 49q10 74 48.5 108t108.5 34zM247 0h-31l419 613h32zM242 599q-58 0 -89 -28.5t-40 -89.5l-7 -49q-9 -62 18 -96.5t85 -34.5t88.5 28t39.5 91l7 49q9 64 -17.5 97t-84.5 33z
M674 338q69 0 103 -41t24 -117l-7 -50q-20 -142 -158 -142q-70 0 -103 41.5t-23 117.5l7 49q10 74 48.5 108t108.5 34zM1060 338q69 0 103 -41t24 -117l-7 -50q-20 -142 -158 -142q-70 0 -103 41.5t-23 117.5l7 49q10 74 48.5 108t108.5 34zM672 312q-58 0 -89 -28.5
t-40 -89.5l-7 -49q-9 -62 18 -96.5t85 -34.5t88.5 28t39.5 91l7 49q9 64 -17.5 97t-84.5 33zM1058 312q-58 0 -89 -28.5t-40 -89.5l-7 -49q-9 -62 18 -96.5t85 -34.5t88.5 28t39.5 91l7 49q9 64 -17.5 97t-84.5 33z" />
    <glyph glyph-name="guilsinglleft" unicode="&#x2039;" horiz-adv-x="285" 
d="M109 268l68 -170h-26l-74 170l123 170h26z" />
    <glyph glyph-name="guilsinglright" unicode="&#x203a;" horiz-adv-x="285" 
d="M202 268l-122 -170h-26l116 170l-69 170h26z" />
    <glyph glyph-name="fraction" unicode="&#x2044;" horiz-adv-x="380" 
d="M10 0h-26l389 601h26z" />
    <glyph glyph-name="uni2070" unicode="&#x2070;" 
d="M258 760q63 0 95 -39t22 -109l-20 -149q-9 -67 -46 -103.5t-96 -36.5q-64 0 -95 38.5t-22 108.5l20 152q9 69 46 103.5t96 34.5zM257 735q-99 0 -114 -113l-21 -160q-8 -53 16.5 -84t75.5 -31q47 0 77 29.5t37 85.5l21 159q7 55 -17.5 84.5t-74.5 29.5z" />
    <glyph glyph-name="uni2074" unicode="&#x2074;" 
d="M107 445h179l1 7l23 165h26l-24 -172h56l-3 -24h-56l-13 -90h-27l13 90h-200l-6 16l142 315h26z" />
    <glyph glyph-name="uni2075" unicode="&#x2075;" 
d="M349 729h-184l-29 -190q59 59 127 59q105 0 88 -125l-3 -19q-17 -131 -135 -131q-49 0 -121 22l3 25q79 -23 120 -23q47 0 72.5 26t33.5 81l3 21q7 53 -9 76t-57 23q-67 0 -133 -71h-18l35 251h210z" />
    <glyph glyph-name="uni2076" unicode="&#x2076;" 
d="M267 760q42 0 103 -21l-3 -25q-54 21 -105 21q-45 0 -77 -37t-44 -108l-8 -51q68 64 131 64q50 0 75.5 -33.5t16.5 -91.5l-4 -27q-19 -128 -131 -128q-66 0 -100 42.5t-23 114.5l18 117q13 81 51.5 122t99.5 41zM259 578q-29 0 -66.5 -19t-63.5 -45l-5 -40
q-8 -61 19.5 -94t77.5 -33q42 0 70 26t34 76l4 33q12 96 -70 96z" />
    <glyph glyph-name="uni2077" unicode="&#x2077;" 
d="M387 730l-214 -399h-29l213 396h-219l3 24h249z" />
    <glyph glyph-name="uni2078" unicode="&#x2078;" 
d="M261 760q57 0 86.5 -31.5t19.5 -80.5l-2 -10q-12 -63 -78 -81q81 -27 73 -108l-1 -11q-17 -115 -145 -115q-64 0 -99 33t-29 85l1 9q5 44 32.5 73t74.5 37q-66 24 -58 95l1 8q13 97 124 97zM258 737q-42 0 -67 -20.5t-28 -54.5l-1 -10q-4 -37 17.5 -61.5t63.5 -24.5
q82 0 97 75l2 10q8 38 -16 62t-68 24zM237 544q-56 0 -88.5 -25.5t-36.5 -67.5l-1 -11q-4 -43 24 -68t82 -25q107 0 116 93l1 10q5 42 -22 68t-75 26z" />
    <glyph glyph-name="uni2079" unicode="&#x2079;" 
d="M260 759q60 0 92 -36.5t23 -103.5l-19 -142q-12 -87 -41 -120.5t-88 -33.5q-54 0 -119 19l4 25q74 -19 118 -19q43 0 66 27t32 97l8 59q-64 -52 -125 -52q-48 0 -76 35.5t-19 95.5l4 28q17 121 140 121zM257 734q-98 0 -110 -94l-4 -32q-7 -52 13.5 -78t61.5 -26
q25 0 60.5 16t61.5 36l9 67q7 52 -18 81.5t-74 29.5z" />
    <glyph glyph-name="uni207A" unicode="&#x207a;" 
d="M249 557h112l-3 -24h-112l-16 -116h-25l16 116h-112l3 24h112l17 116h25z" />
    <glyph glyph-name="uni207B" unicode="&#x207b;" 
d="M358 533h-248l3 24h248z" />
    <glyph glyph-name="uni207C" unicode="&#x207c;" 
d="M366 599h-247l3 23h247zM348 468h-247l3 24h247z" />
    <glyph glyph-name="uni207D" unicode="&#x207d;" 
d="M334 793l-3 -23q-61 7 -83.5 -16.5t-33.5 -103.5l-28 -190q-12 -80 3 -104t79 -29l-3 -23q-72 0 -95.5 31.5t-9.5 125.5l26 179q15 103 46 133.5t102 19.5z" />
    <glyph glyph-name="uni207E" unicode="&#x207e;" 
d="M206 770l3 23q72 0 95.5 -31.5t9.5 -125.5l-26 -179q-15 -103 -46 -133.5t-102 -19.5l3 23q61 -7 83.5 16.5t33.5 103.5l28 190q12 80 -3 104t-79 29z" />
    <glyph glyph-name="uni2080" unicode="&#x2080;" 
d="M190 279q63 0 95 -39t22 -109l-20 -149q-9 -67 -46 -103.5t-96 -36.5q-64 0 -95 38.5t-22 108.5l20 152q9 69 46 103.5t96 34.5zM189 254q-99 0 -114 -113l-21 -160q-8 -53 16.5 -84t75.5 -31q47 0 77 29.5t37 85.5l21 159q7 55 -17.5 84.5t-74.5 29.5z" />
    <glyph glyph-name="uni2081" unicode="&#x2081;" 
d="M166 -126h94l-3 -24h-225l3 24h104l52 369l-113 -46l-5 25l125 49h24z" />
    <glyph glyph-name="uni2082" unicode="&#x2082;" 
d="M202 279q47 0 73.5 -30.5t17.5 -82.5l-1 -6q-11 -64 -81 -135l-147 -151h195l-3 -24h-230l3 21l177 184q54 55 61 107l1 7q6 43 -13 64.5t-59 21.5q-42 0 -98 -15l3 25q59 14 101 14z" />
    <glyph glyph-name="uni2083" unicode="&#x2083;" 
d="M186 279q53 0 77.5 -27t17.5 -80l-1 -7q-5 -33 -25 -59.5t-52 -38.5q31 -10 47 -38.5t11 -66.5l-1 -7q-15 -113 -126 -113q-40 0 -104 16l4 24q57 -17 103 -17q84 0 97 92l1 7q6 40 -16 66t-64 26h-77l3 22h77q40 0 66 24.5t30 62.5l1 10q9 81 -72 81q-39 0 -98 -16l3 25
q60 14 98 14z" />
    <glyph glyph-name="uni2084" unicode="&#x2084;" 
d="M38 -36h179l1 7l23 165h26l-24 -172h56l-3 -24h-56l-13 -90h-27l13 90h-200l-6 16l142 315h26z" />
    <glyph glyph-name="uni2085" unicode="&#x2085;" 
d="M280 248h-184l-29 -190q59 59 127 59q105 0 88 -125l-3 -19q-17 -131 -135 -131q-49 0 -121 22l3 25q79 -23 120 -23q47 0 72.5 26t33.5 81l3 21q7 53 -9 76t-57 23q-67 0 -133 -71h-18l35 251h210z" />
    <glyph glyph-name="uni2086" unicode="&#x2086;" 
d="M198 279q42 0 103 -21l-3 -25q-54 21 -105 21q-45 0 -77 -37t-44 -108l-8 -51q68 64 131 64q50 0 75.5 -33.5t16.5 -91.5l-4 -27q-19 -128 -131 -128q-66 0 -100 42.5t-23 114.5l18 117q13 81 51.5 122t99.5 41zM190 97q-29 0 -66.5 -19t-63.5 -45l-5 -40
q-8 -61 19.5 -94t77.5 -33q42 0 70 26t34 76l4 33q12 96 -70 96z" />
    <glyph glyph-name="uni2087" unicode="&#x2087;" 
d="M318 249l-214 -399h-29l213 396h-219l3 24h249z" />
    <glyph glyph-name="uni2088" unicode="&#x2088;" 
d="M192 279q57 0 86.5 -31.5t19.5 -80.5l-2 -10q-12 -63 -78 -81q81 -27 73 -108l-1 -11q-17 -115 -145 -115q-64 0 -99 33t-29 85l1 9q5 44 32.5 73t74.5 37q-66 24 -58 95l1 8q13 97 124 97zM189 256q-42 0 -67 -20.5t-28 -54.5l-1 -10q-4 -37 17.5 -61.5t63.5 -24.5
q82 0 97 75l2 10q8 38 -16 62t-68 24zM168 63q-56 0 -88.5 -25.5t-36.5 -67.5l-1 -11q-4 -43 24 -68t82 -25q107 0 116 93l1 10q5 42 -22 68t-75 26z" />
    <glyph glyph-name="uni2089" unicode="&#x2089;" 
d="M191 278q60 0 92 -36.5t23 -103.5l-19 -142q-12 -87 -41 -120.5t-88 -33.5q-54 0 -119 19l4 25q74 -19 118 -19q43 0 66 27t32 97l8 59q-64 -52 -125 -52q-48 0 -76 35.5t-19 95.5l4 28q17 121 140 121zM188 253q-98 0 -110 -94l-4 -32q-7 -52 13.5 -78t61.5 -26
q25 0 60.5 16t61.5 36l9 67q7 52 -18 81.5t-74 29.5z" />
    <glyph glyph-name="uni208A" unicode="&#x208a;" 
d="M180 76h112l-3 -24h-112l-16 -116h-25l16 116h-112l3 24h112l17 116h25z" />
    <glyph glyph-name="uni208B" unicode="&#x208b;" 
d="M289 52h-248l3 24h248z" />
    <glyph glyph-name="uni208C" unicode="&#x208c;" 
d="M297 118h-247l3 23h247zM279 -13h-247l3 24h247z" />
    <glyph glyph-name="uni208D" unicode="&#x208d;" 
d="M265 312l-3 -23q-61 7 -83.5 -16.5t-33.5 -103.5l-28 -190q-12 -80 3 -104t79 -29l-3 -23q-72 0 -95.5 31.5t-9.5 125.5l26 179q15 103 46 133.5t102 19.5z" />
    <glyph glyph-name="uni208E" unicode="&#x208e;" 
d="M137 289l3 23q72 0 95.5 -31.5t9.5 -125.5l-26 -179q-15 -103 -46 -133.5t-102 -19.5l3 23q61 -7 83.5 16.5t33.5 103.5l28 190q12 80 -3 104t-79 29z" />
    <glyph glyph-name="Euro" unicode="&#x20ac;" horiz-adv-x="431" 
d="M289 613q64 0 143 -27l-5 -27q-82 28 -144 28q-66 0 -101 -40t-49 -147l-3 -24h214l-11 -26h-207l-15 -106h215l-12 -26h-206l-4 -28q-12 -89 22 -132t105 -43q54 0 132 28l-2 -30q-79 -25 -133 -25q-86 0 -125.5 52.5t-24.5 157.5l3 20h-66l12 26h57l15 106h-65l11 26
h58l3 21q18 125 58.5 170.5t124.5 45.5z" />
    <glyph glyph-name="uni2116" unicode="&#x2116;" horiz-adv-x="1065" 
d="M157 622l-76 -622h-27l80 655h39q131 -298 260 -617l76 617h27l-80 -655h-35zM1009 478l-12 -86q-13 -92 -55.5 -134.5t-123.5 -42.5q-167 0 -140 190l12 86q14 94 55 135t123 41q79 0 116.5 -48.5t24.5 -140.5zM968 386l14 101q10 75 -20 114.5t-96 39.5
q-68 0 -102.5 -34t-45.5 -110l-14 -100q-11 -78 18.5 -117t95.5 -39t103 35t47 110zM625 23h323l-3 -24h-323z" />
    <glyph glyph-name="trademark" unicode="&#x2122;" horiz-adv-x="783" 
d="M379 657h-117l-43 -307h-27l43 307h-118l3 26h262zM727 350h-29l40 297l-151 -266h-24l-76 266l-47 -297h-29l56 333h36q40 -135 76 -271q70 120 150 271h39z" />
    <glyph glyph-name="Omega" unicode="&#x2126;" horiz-adv-x="576" 
d="M321 667q103 0 152.5 -54.5t36.5 -156.5l-31 -255q-8 -61 -38.5 -107t-78.5 -68h105l-2 -26h-185l2 23h9q58 0 105.5 54t55.5 124l31 258q12 92 -31 137.5t-135 45.5q-85 0 -129 -40.5t-56 -138.5l-32 -264q-8 -69 27 -122.5t92 -53.5h7l-2 -23h-185l2 26h107
q-42 24 -62 70t-13 108l32 258q14 112 65.5 158.5t150.5 46.5z" />
    <glyph glyph-name="estimated" unicode="&#x212e;" horiz-adv-x="955" 
d="M481 703q165 0 284 -106.5t119 -269.5h-657v-218q30 -45 104.5 -71t150.5 -26q75 0 147.5 25.5t112.5 72.5h58q-118 -137 -319 -137q-172 0 -287 102.5t-115 259.5q0 156 117.5 262t284.5 106zM482 664q-172 0 -255 -101v-196h509v195q-94 102 -254 102z" />
    <glyph glyph-name="onethird" unicode="&#x2153;" horiz-adv-x="1030" 
d="M212 205h94l-3 -24h-225l3 24h104l52 369l-113 -46l-5 25l125 49h24zM330 0h-26l389 601h26zM838 429q53 0 77.5 -27t17.5 -80l-1 -7q-5 -33 -25 -59.5t-52 -38.5q31 -10 47 -38.5t11 -66.5l-1 -7q-15 -113 -126 -113q-40 0 -104 16l4 24q57 -17 103 -17q84 0 97 92l1 7
q6 40 -16 66t-64 26h-77l3 22h77q40 0 66 24.5t30 62.5l1 10q9 81 -72 81q-39 0 -98 -16l3 25q60 14 98 14z" />
    <glyph glyph-name="twothirds" unicode="&#x2154;" horiz-adv-x="1030" 
d="M246 610q47 0 73.5 -30.5t17.5 -82.5l-1 -6q-11 -64 -81 -135l-147 -151h195l-3 -24h-230l3 21l177 184q54 55 61 107l1 7q6 43 -13 64.5t-59 21.5q-42 0 -98 -15l3 25q60 14 101 14zM326 0h-26l389 601h26zM838 429q53 0 77.5 -27t17.5 -80l-1 -7q-5 -33 -25 -59.5
t-52 -38.5q31 -10 47 -38.5t11 -66.5l-1 -7q-15 -113 -126 -113q-40 0 -104 16l4 24q57 -17 103 -17q84 0 97 92l1 7q6 40 -16 66t-64 26h-77l3 22h77q40 0 66 24.5t30 62.5l1 10q9 81 -72 81q-39 0 -98 -16l3 25q60 14 98 14z" />
    <glyph glyph-name="arrowleft" unicode="&#x2190;" horiz-adv-x="900" 
d="M411 627l-281 -290h369v-30h-369l281 -290l-22 -22l-316 327l316 327zM678 307h-125v30h125v-30zM827 307h-95v30h95v-30z" />
    <glyph glyph-name="arrowup" unicode="&#x2191;" horiz-adv-x="900" 
d="M776 380l-21 -23l-289 281v-369h-32v369l-289 -281l-21 23l326 315zM466 90h-32v125h32v-125zM466 -59h-32v95h32v-95z" />
    <glyph glyph-name="arrowright" unicode="&#x2192;" horiz-adv-x="900" 
d="M827 322l-316 -327l-22 22l281 290h-369v30h369l-281 290l22 22zM168 307h-95v30h95v-30zM347 307h-125v30h125v-30z" />
    <glyph glyph-name="arrowdown" unicode="&#x2193;" horiz-adv-x="900" 
d="M466 588h-32v95h32v-95zM466 409h-32v125h32v-125zM466 -14l289 281l21 -23l-326 -315l-326 315l21 23l289 -281v369h32v-369z" />
    <glyph glyph-name="arrowboth" unicode="&#x2194;" horiz-adv-x="1289" 
d="M411 627l-281 -290h299v-30h-299l281 -290l-22 -22l-316 327l316 327zM1216 322l-316 -327l-22 22l281 290h-299v30h299l-281 290l22 22zM563 307h-80v30h80v-30zM672 307h-55v30h55v-30zM806 307h-80v30h80v-30z" />
    <glyph glyph-name="arrowupdn" unicode="&#x2195;" horiz-adv-x="900" 
d="M776 506l-21 -23l-289 281v-299h-32v299l-289 -281l-21 23l326 315zM466 331h-32v80h32v-80zM466 222h-32v55h32v-55zM466 88h-32v80h32v-80zM776 -7l-326 -315l-326 315l21 23l289 -281v299h32v-299l289 281z" />
    <glyph glyph-name="uni2196" unicode="&#x2196;" horiz-adv-x="900" 
d="M636 575l-404 -6l261 -261l-21 -21l-260 261l-6 -404h-32l7 455l455 7v-31zM620 181l-21 -21l-89 89l21 21zM725 76l-21 -21l-67 67l21 21z" />
    <glyph glyph-name="uni2197" unicode="&#x2197;" horiz-adv-x="900" 
d="M718 599l7 -455h-32l-6 404l-260 -261l-21 21l261 261l-404 6v31zM389 249l-89 -89l-21 21l89 89zM262 122l-67 -67l-21 21l67 67z" />
    <glyph glyph-name="uni2198" unicode="&#x2198;" horiz-adv-x="900" 
d="M262 549l-21 -21l-67 67l21 21zM718 72l-455 -7v31l404 6l-261 261l21 21l260 -261l6 404h32zM389 422l-21 -21l-89 89l21 21z" />
    <glyph glyph-name="uni2199" unicode="&#x2199;" horiz-adv-x="900" 
d="M725 595l-67 -67l-21 21l67 67zM212 123l260 261l21 -21l-261 -261l404 -6v-31l-455 7l-7 455h32zM620 490l-89 -89l-21 21l89 89z" />
    <glyph glyph-name="partialdiff" unicode="&#x2202;" horiz-adv-x="461" 
d="M164 670l3 25q132 0 191 -93.5t33 -276.5l-25 -177q-23 -160 -167 -160q-76 0 -116 50t-28 140l12 93q21 168 146 168q51 0 90 -37t60 -87l5 37q20 148 -32 233t-172 85zM217 413q-52 0 -81.5 -33.5t-41.5 -119.5l-12 -84q-10 -74 23 -118t94 -44q121 0 139 129l20 138
q-19 48 -58.5 90t-82.5 42z" />
    <glyph glyph-name="Delta" unicode="&#x2206;" horiz-adv-x="492" 
d="M438 21l-1 -21h-454l2 20l287 635h35zM286 627q-179 -407 -271 -601h394q-61 311 -123 601z" />
    <glyph glyph-name="product" unicode="&#x220f;" horiz-adv-x="555" 
d="M603 629h-90l-115 -814h-27l115 814h-321l-115 -814h-27l115 814h-90l4 26h555z" />
    <glyph glyph-name="summation" unicode="&#x2211;" horiz-adv-x="399" 
d="M427 628h-326l142 -380l-4 -27l-245 -379h322l-4 -27h-358l4 23l257 401l-147 393l4 23h359z" />
    <glyph glyph-name="minus" unicode="&#x2212;" 
d="M364 294h-327l3 26h327z" />
    <glyph glyph-name="uni2219" unicode="&#x2219;" horiz-adv-x="191" 
d="M59 245q27 0 24 -26l-1 -9q-3 -21 -26 -21q-28 0 -25 25l1 9q3 22 27 22z" />
    <glyph glyph-name="radical" unicode="&#x221a;" horiz-adv-x="475" 
d="M606 653h-91l-322 -653h-35l-100 488h32q51 -249 89 -456q113 225 317 651h114z" />
    <glyph glyph-name="infinity" unicode="&#x221e;" horiz-adv-x="517" 
d="M382 432q62 0 92.5 -36t18.5 -100l-2 -12q-11 -66 -44 -94.5t-91 -28.5q-32 0 -61.5 17t-42.5 46q-39 -63 -114 -63q-65 0 -94 37.5t-17 99.5l2 12q11 65 43.5 93.5t90.5 28.5q33 0 61.5 -17t41.5 -46q39 63 116 63zM162 406q-48 0 -73 -22.5t-34 -75.5l-3 -18
q-13 -103 88 -103q91 0 107 97l3 18q8 47 -17 75.5t-71 28.5zM380 406q-94 0 -107 -97l-3 -18q-8 -47 16.5 -75.5t70.5 -28.5q48 0 73.5 22.5t34.5 75.5l3 18q8 49 -15 76t-73 27z" />
    <glyph glyph-name="integral" unicode="&#x222b;" horiz-adv-x="295" 
d="M291 695q28 0 58 -10l-3 -25q-32 10 -57 10q-39 0 -60.5 -24t-29.5 -81l-94 -668q-7 -52 -29 -73t-65 -21q-30 0 -59 9l4 27q30 -10 58 -10q55 0 64 66l94 666q11 76 38.5 105t80.5 29z" />
    <glyph glyph-name="approxequal" unicode="&#x2248;" 
d="M378 403l-4 -29q-47 -24 -98 -24q-33 0 -67 17t-65 17q-16 0 -40 -6t-40 -12l-16 -5l4 29q48 24 99 24q33 0 67 -17t64 -17q16 0 40 6t40 12zM357 256l-4 -29q-47 -24 -98 -24q-33 0 -66.5 17t-64.5 17q-16 0 -40 -5.5t-40 -11.5l-16 -6l4 29q47 24 98 24q34 0 67 -17
t64 -17q16 0 40 5.5t40 11.5z" />
    <glyph glyph-name="notequal" unicode="&#x2260;" 
d="M294 409h86l-4 -24h-100l-127 -165h204l-3 -25h-220l-55 -73h-28l55 73h-77l3 25h93l127 165h-197l4 24h211l63 82h28z" />
    <glyph glyph-name="lessequal" unicode="&#x2264;" 
d="M387 435l-329 -144l289 -146l-4 -27l-313 159l4 30l358 158zM328 0h-336l3 24h336z" />
    <glyph glyph-name="greaterequal" unicode="&#x2265;" 
d="M370 306l-4 -30l-358 -158l5 30l329 144l-289 146l4 27zM328 0h-336l3 24h336z" />
    <glyph glyph-name="dotmath" unicode="&#x22c5;" horiz-adv-x="191" 
d="M59 245q27 0 24 -26l-1 -9q-3 -21 -26 -21q-28 0 -25 25l1 9q3 22 27 22z" />
    <glyph glyph-name="uni25AF" unicode="&#x25af;" horiz-adv-x="496" 
d="M50 0v655h396v-655h-396zM76 26h344v603h-344v-603z" />
    <glyph glyph-name="lozenge" unicode="&#x25ca;" horiz-adv-x="517" 
d="M515 342l-278 -342h-33l-186 342l278 341h34zM52 342l170 -317l261 318l-171 319z" />
    <glyph glyph-name="uniFB00" unicode="&#xfb00;" horiz-adv-x="550" 
d="M533 695q28 0 58 -10l-3 -25q-32 10 -57 10q-39 0 -60.5 -24t-29.5 -81l-11 -77h90l-3 -24h-90l-81 -567q-7 -52 -29 -73t-65 -21q-30 0 -59 9l4 27q30 -10 58 -10q55 0 64 66l80 569h-238l-68 -487q-7 -52 -29 -73t-65 -21q-30 0 -59 9l4 27q30 -10 58 -10q55 0 64 66
l67 489h-70l2 18l71 5l8 59q11 84 46.5 116.5t114.5 32.5q61 0 150 -28q27 28 78 28zM301 670q-64 0 -91.5 -26t-36.5 -92l-9 -64h238l10 71q7 54 26 87q-84 24 -137 24z" />
    <glyph glyph-name="fi" unicode="&#xfb01;" horiz-adv-x="504" 
d="M311 695q47 0 121 -18l-3 -25q-74 18 -122 18q-58 0 -85.5 -26.5t-36.5 -91.5l-9 -64h266l-68 -488h-27l65 464h-239l-80 -567q-7 -52 -29 -73t-65 -21q-30 0 -59 9l4 27q30 -10 58 -10q55 0 64 66l79 569h-70l2 18l71 5l8 59q11 83 46.5 116t108.5 33z" />
    <glyph glyph-name="fl" unicode="&#xfb02;" horiz-adv-x="504" 
d="M311 695q62 0 132 -17l18 1q-5 -92 -22 -215l-65 -464h-27l64 457q13 91 22 198q-66 15 -126 15q-58 0 -85.5 -26.5t-36.5 -91.5l-9 -64h90l-3 -24h-90l-80 -567q-7 -52 -29 -73t-65 -21q-30 0 -59 9l4 27q30 -10 58 -10q55 0 64 66l79 569h-70l2 18l71 5l8 59
q11 83 46.5 116t108.5 33z" />
    <glyph glyph-name="uniFB03" unicode="&#xfb03;" horiz-adv-x="736" 
d="M565 695q47 0 121 -18l-3 -25q-74 18 -122 18q-58 0 -85.5 -26.5t-36.5 -91.5l-9 -64h266l-68 -488h-27l65 464h-239l-80 -567q-7 -52 -29 -73t-65 -21q-30 0 -59 9l4 27q30 -10 58 -10q55 0 64 66l79 569h-238l-68 -487q-7 -52 -29 -73t-65 -21q-30 0 -59 9l4 27
q30 -10 58 -10q55 0 64 66l67 489h-70l2 18l71 5l8 59q11 84 46.5 116.5t114.5 32.5q68 0 155 -30q34 30 105 30zM301 670q-64 0 -91.5 -26t-36.5 -92l-9 -64h238l8 58q9 66 32 99q-85 25 -141 25z" />
    <glyph glyph-name="uniFB04" unicode="&#xfb04;" horiz-adv-x="757" 
d="M564 695q62 0 132 -17l18 1q-5 -92 -22 -215l-65 -464h-27l64 457q13 91 22 198q-66 15 -126 15q-58 0 -85.5 -26.5t-36.5 -91.5l-9 -64h90l-3 -24h-90l-80 -567q-7 -52 -29 -73t-65 -21q-30 0 -59 9l4 27q30 -10 58 -10q55 0 64 66l79 569h-237l-68 -487q-7 -52 -29 -73
t-65 -21q-30 0 -59 9l4 27q30 -10 58 -10q55 0 64 66l67 489h-70l2 18l71 5l8 59q11 84 46.5 116.5t114.5 32.5q67 0 154 -30q36 30 105 30zM301 670q-64 0 -91.5 -26t-36.5 -92l-9 -64h237l8 58q9 66 32 99q-84 25 -140 25z" />
    <glyph glyph-name="uniFB06" unicode="&#xfb06;" horiz-adv-x="716" 
d="M388 695q43 0 86 -18.5t68 -45.5l18 1l-19 -144h150l-3 -24h-150l-47 -327q-10 -72 5 -97.5t61 -25.5q38 0 86 20l-3 -26q-47 -20 -87 -20q-57 0 -79 34t-10 117l47 325h-70l2 18l70 5l23 114q-20 30 -62 50t-85 20q-62 0 -84.5 -37.5t-6.5 -91.5l18 -60l-4 -30
q-41 15 -65 19q-18 3 -43 3q-96 0 -108 -73l-1 -6q-12 -74 62 -111l86 -45q85 -44 70 -131l-2 -12q-19 -108 -134 -108q-69 0 -140 34l6 29q38 -19 88 -33q21 -4 47 -4q92 0 106 86l1 6q7 41 -7.5 67t-53.5 46l-89 45q-41 21 -58 57t-9 79l2 10q18 90 140 90q34 0 81 -11
l-15 42q-23 68 5.5 116t106.5 48z" />
    <glyph glyph-name="uniFEFF" unicode="&#xfeff;" horiz-adv-x="0" 
 />
    <glyph glyph-name="i.latn_TRK" horiz-adv-x="207" 
d="M167 610l-1 -8q-3 -21 -24 -21q-26 0 -23 26l1 8q3 22 25 22q25 0 22 -27zM118 488h27l-68 -488h-27z" />
    <glyph glyph-name="Ldot.latn_CAT" horiz-adv-x="437" 
d="M134 655h27l-78 -629h280l-2 -26h-307zM330 343l-1 -8q-3 -21 -24 -21q-26 0 -23 26l1 8q3 22 25 22q25 0 22 -27z" />
    <glyph glyph-name="ldot.latn_CAT" horiz-adv-x="207" 
d="M137 683h27q-8 -126 -22 -219l-65 -464h-27l64 457q14 94 23 226zM245 428l-1 -8q-3 -21 -24 -21q-26 0 -23 26l1 8q3 22 25 22q25 0 22 -27z" />
    <glyph glyph-name="parenleft.numr" 
d="M313 643l-3 -23q-61 7 -83.5 -16.5t-33.5 -103.5l-28 -190q-12 -80 3 -104t79 -29l-3 -23q-72 0 -95.5 31.5t-9.5 125.5l26 179q15 103 46 133.5t102 19.5z" />
    <glyph glyph-name="parenright.numr" 
d="M185 620l3 23q72 0 95.5 -31.5t9.5 -125.5l-26 -179q-15 -103 -46 -133.5t-102 -19.5l3 23q61 -7 83.5 16.5t33.5 103.5l28 190q12 80 -3 104t-79 29z" />
    <glyph glyph-name="plus.numr" 
d="M228 407h112l-3 -24h-112l-16 -116h-25l16 116h-112l3 24h112l17 116h25z" />
    <glyph glyph-name="zero.numr" 
d="M237 610q63 0 95 -39t22 -109l-20 -149q-9 -67 -46 -103.5t-96 -36.5q-64 0 -95 38.5t-22 108.5l20 152q9 69 46 103.5t96 34.5zM236 585q-99 0 -114 -113l-21 -160q-8 -53 16.5 -84t75.5 -31q47 0 77 29.5t37 85.5l21 159q7 55 -17.5 84.5t-74.5 29.5z" />
    <glyph glyph-name="one.numr" 
d="M212 205h94l-3 -24h-225l3 24h104l52 369l-113 -46l-5 25l125 49h24z" />
    <glyph glyph-name="two.numr" 
d="M249 610q47 0 73.5 -30.5t17.5 -82.5l-1 -6q-11 -64 -81 -135l-147 -151h195l-3 -24h-230l3 21l177 184q54 55 61 107l1 7q6 43 -13 64.5t-59 21.5q-42 0 -98 -15l3 25q60 14 101 14z" />
    <glyph glyph-name="three.numr" 
d="M234 610q53 0 77.5 -27t17.5 -80l-1 -7q-5 -33 -25 -59.5t-52 -38.5q31 -10 47 -38.5t11 -66.5l-1 -7q-15 -113 -126 -113q-40 0 -104 16l4 24q57 -17 103 -17q84 0 97 92l1 7q6 40 -16 66t-64 26h-77l3 22h77q40 0 66 24.5t30 62.5l1 10q9 81 -72 81q-39 0 -98 -16l3 25
q60 14 98 14z" />
    <glyph glyph-name="four.numr" 
d="M85 295h179l1 7l23 165h26l-24 -172h56l-3 -24h-56l-13 -90h-27l13 90h-200l-6 16l142 315h26z" />
    <glyph glyph-name="five.numr" 
d="M327 579h-184l-29 -190q59 59 127 59q105 0 88 -125l-3 -19q-17 -131 -135 -131q-49 0 -121 22l3 25q79 -23 120 -23q47 0 72.5 26t33.5 81l3 21q7 53 -9 76t-57 23q-67 0 -133 -71h-18l35 251h210z" />
    <glyph glyph-name="six.numr" 
d="M246 610q42 0 103 -21l-3 -25q-54 21 -105 21q-45 0 -77 -37t-44 -108l-8 -51q68 64 131 64q50 0 75.5 -33.5t16.5 -91.5l-4 -27q-19 -128 -131 -128q-66 0 -100 42.5t-23 114.5l18 117q13 81 51.5 122t99.5 41zM238 428q-29 0 -66.5 -19t-63.5 -45l-5 -40
q-8 -61 19.5 -94t77.5 -33q42 0 70 26t34 76l4 33q12 96 -70 96z" />
    <glyph glyph-name="seven.numr" 
d="M366 580l-214 -399h-29l213 396h-219l3 24h249z" />
    <glyph glyph-name="eight.numr" 
d="M240 610q57 0 86.5 -31.5t19.5 -80.5l-2 -10q-12 -63 -78 -81q81 -27 73 -108l-1 -11q-17 -115 -145 -115q-64 0 -99 33t-29 85l1 9q5 44 32.5 73t74.5 37q-66 24 -58 95l1 8q13 97 124 97zM237 587q-42 0 -67 -20.5t-28 -54.5l-1 -10q-4 -37 17.5 -61.5t63.5 -24.5
q82 0 97 75l2 10q8 38 -16 62t-68 24zM216 394q-56 0 -88.5 -25.5t-36.5 -67.5l-1 -11q-4 -43 24 -68t82 -25q107 0 116 93l1 10q5 42 -22 68t-75 26z" />
    <glyph glyph-name="nine.numr" 
d="M239 609q60 0 92 -36.5t23 -103.5l-19 -142q-12 -87 -41 -120.5t-88 -33.5q-54 0 -119 19l4 25q74 -19 118 -19q43 0 66 27t32 97l8 59q-64 -52 -125 -52q-48 0 -76 35.5t-19 95.5l4 28q17 121 140 121zM236 584q-98 0 -110 -94l-4 -32q-7 -52 13.5 -78t61.5 -26
q25 0 60.5 16t61.5 36l9 67q7 52 -18 81.5t-74 29.5z" />
    <glyph glyph-name="equal.numr" 
d="M345 449h-247l3 23h247zM327 318h-247l3 24h247z" />
    <glyph glyph-name="minus.numr" 
d="M337 383h-248l3 24h248z" />
    <glyph glyph-name="parenleft.dnom" 
d="M288 462l-3 -23q-61 7 -83.5 -16.5t-33.5 -103.5l-28 -190q-12 -80 3 -104t79 -29l-3 -23q-72 0 -95.5 31.5t-9.5 125.5l26 179q15 103 46 133.5t102 19.5z" />
    <glyph glyph-name="parenright.dnom" 
d="M160 439l3 23q72 0 95.5 -31.5t9.5 -125.5l-26 -179q-15 -103 -46 -133.5t-102 -19.5l3 23q61 -7 83.5 16.5t33.5 103.5l28 190q12 80 -3 104t-79 29z" />
    <glyph glyph-name="plus.dnom" 
d="M203 226h112l-3 -24h-112l-16 -116h-25l16 116h-112l3 24h112l17 116h25z" />
    <glyph glyph-name="zero.dnom" 
d="M212 429q63 0 95 -39t22 -109l-20 -149q-9 -67 -46 -103.5t-96 -36.5q-64 0 -95 38.5t-22 108.5l20 152q9 69 46 103.5t96 34.5zM211 404q-99 0 -114 -113l-21 -160q-8 -53 16.5 -84t75.5 -31q47 0 77 29.5t37 85.5l21 159q7 55 -17.5 84.5t-74.5 29.5z" />
    <glyph glyph-name="one.dnom" 
d="M187 24h94l-3 -24h-225l3 24h104l52 369l-113 -46l-5 25l125 49h24z" />
    <glyph glyph-name="two.dnom" 
d="M223 429q47 0 73.5 -30.5t17.5 -82.5l-1 -6q-11 -64 -81 -135l-147 -151h195l-3 -24h-230l3 21l177 184q54 55 61 107l1 7q6 43 -13 64.5t-59 21.5q-42 0 -98 -15l3 25q59 14 101 14z" />
    <glyph glyph-name="three.dnom" 
d="M208 429q53 0 77.5 -27t17.5 -80l-1 -7q-5 -33 -25 -59.5t-52 -38.5q31 -10 47 -38.5t11 -66.5l-1 -7q-15 -113 -126 -113q-40 0 -104 16l4 24q57 -17 103 -17q84 0 97 92l1 7q6 40 -16 66t-64 26h-77l3 22h77q40 0 66 24.5t30 62.5l1 10q9 81 -72 81q-39 0 -98 -16l3 25
q59 14 98 14z" />
    <glyph glyph-name="four.dnom" 
d="M60 114h179l1 7l23 165h26l-24 -172h56l-3 -24h-56l-13 -90h-27l13 90h-200l-6 16l142 315h26z" />
    <glyph glyph-name="five.dnom" 
d="M302 398h-184l-29 -190q59 59 127 59q105 0 88 -125l-3 -19q-17 -131 -135 -131q-49 0 -121 22l3 25q79 -23 120 -23q47 0 72.5 26t33.5 81l3 21q7 53 -9 76t-57 23q-67 0 -133 -71h-18l35 251h210z" />
    <glyph glyph-name="six.dnom" 
d="M220 429q42 0 103 -21l-3 -25q-54 21 -105 21q-45 0 -77 -37t-44 -108l-8 -51q68 64 131 64q50 0 75.5 -33.5t16.5 -91.5l-4 -27q-19 -128 -131 -128q-66 0 -100 42.5t-23 114.5l18 117q13 81 51.5 122t99.5 41zM212 247q-29 0 -66.5 -19t-63.5 -45l-5 -40
q-8 -61 19.5 -94t77.5 -33q42 0 70 26t34 76l4 33q12 96 -70 96z" />
    <glyph glyph-name="seven.dnom" 
d="M340 399l-214 -399h-29l213 396h-219l3 24h249z" />
    <glyph glyph-name="eight.dnom" 
d="M214 429q57 0 86.5 -31.5t19.5 -80.5l-2 -10q-12 -63 -78 -81q81 -27 73 -108l-1 -11q-17 -115 -145 -115q-64 0 -99 33t-29 85l1 9q5 44 32.5 73t74.5 37q-66 24 -58 95l1 8q13 97 124 97zM211 406q-42 0 -67 -20.5t-28 -54.5l-1 -10q-4 -37 17.5 -61.5t63.5 -24.5
q82 0 97 75l2 10q8 38 -16 62t-68 24zM190 213q-56 0 -88.5 -25.5t-36.5 -67.5l-1 -11q-4 -43 24 -68t82 -25q107 0 116 93l1 10q5 42 -22 68t-75 26z" />
    <glyph glyph-name="nine.dnom" 
d="M213 428q60 0 92 -36.5t23 -103.5l-19 -142q-12 -87 -41 -120.5t-88 -33.5q-54 0 -119 19l4 25q74 -19 118 -19q43 0 66 27t32 97l8 59q-64 -52 -125 -52q-48 0 -76 35.5t-19 95.5l4 28q17 121 140 121zM210 403q-98 0 -110 -94l-4 -32q-7 -52 13.5 -78t61.5 -26
q25 0 60.5 16t61.5 36l9 67q7 52 -18 81.5t-74 29.5z" />
    <glyph glyph-name="equal.dnom" 
d="M320 268h-247l3 23h247zM302 137h-247l3 24h247z" />
    <glyph glyph-name="minus.dnom" 
d="M312 202h-248l3 24h248z" />
    <glyph glyph-name="space.frac" horiz-adv-x="60" 
 />
    <glyph glyph-name="quotedbl.osf" horiz-adv-x="283" 
d="M108 429h-28l35 254h28zM243 429h-28l35 254h28z" />
    <glyph glyph-name="numbersign.osf" horiz-adv-x="525" 
d="M430 408h92l-4 -24h-92l-34 -245h92l-3 -24h-92l-16 -115h-28l16 115h-245l-16 -115h-28l16 115h-92l3 24h92l34 245h-92l4 24h92l16 115h28l-16 -115h245l16 115h28zM153 384l-34 -245h245l34 245h-245z" />
    <glyph glyph-name="dollar.osf" horiz-adv-x="386" 
d="M258 605l-12 -85q40 -4 86 -16l-4 -27q-30 10 -82 19q-24 2 -49 2q-51 0 -74 -17.5t-31 -62.5l-3 -17q-14 -81 77 -116l81 -31q48 -19 67 -49.5t14 -84.5l-1 -11q-6 -64 -42 -92.5t-114 -28.5l-12 -82h-27l12 85q-56 9 -107 28l3 27q42 -16 105 -30q13 -2 38 -2
q58 0 85 22t32 69l2 20q4 44 -11.5 67.5t-60.5 40.5l-78 30q-109 42 -88 148l2 10q12 58 43 80t110 22l12 82h27z" />
    <glyph glyph-name="percent.osf" horiz-adv-x="866" 
d="M244 625q69 0 103 -41t24 -117l-7 -50q-20 -142 -158 -142q-70 0 -103 41.5t-23 117.5l7 49q10 74 48.5 108t108.5 34zM247 0h-31l419 613h32zM242 599q-58 0 -89 -28.5t-40 -89.5l-7 -49q-9 -62 18 -96.5t85 -34.5t88.5 28t39.5 91l7 49q9 64 -17.5 97t-84.5 33z
M674 338q69 0 103 -41t24 -117l-7 -50q-20 -142 -158 -142q-70 0 -103 41.5t-23 117.5l7 49q10 74 48.5 108t108.5 34zM672 312q-58 0 -89 -28.5t-40 -89.5l-7 -49q-9 -62 18 -96.5t85 -34.5t88.5 28t39.5 91l7 49q9 64 -17.5 97t-84.5 33z" />
    <glyph glyph-name="quotesingle.osf" horiz-adv-x="148" 
d="M108 429h-28l35 254h28z" />
    <glyph glyph-name="plus.osf" 
d="M211 280h151l-4 -26h-151l-23 -168h-25l23 168h-151l4 26h151l23 168h25z" />
    <glyph glyph-name="zero.osf" horiz-adv-x="493" 
d="M267 523q86 0 127.5 -51t27.5 -150l-19 -141q-26 -193 -189 -193q-82 0 -124 52t-29 148l20 142q15 103 60.5 148t125.5 45zM265 497q-67 0 -106 -39t-51 -126l-20 -146q-12 -85 24 -128.5t103 -43.5q138 0 161 167l20 144q12 86 -23.5 129t-107.5 43z" />
    <glyph glyph-name="one.osf" horiz-adv-x="281" 
d="M151 0h-27l67 481h-1l-152 -67l-7 27l166 70h25z" />
    <glyph glyph-name="two.osf" horiz-adv-x="403" 
d="M212 523q74 0 109 -38t24 -101l-1 -6q-8 -46 -35 -86t-87 -92l-202 -174h281l-3 -26h-323l2 21l242 209q85 73 98 148l1 6q9 54 -19.5 84t-89.5 30q-68 0 -146 -28l3 28q82 25 146 25z" />
    <glyph glyph-name="three.osf" horiz-adv-x="379" 
d="M193 523q147 0 131 -146l-1 -9q-5 -49 -37 -90t-76 -58q45 -17 68 -57.5t16 -90.5l-2 -13q-14 -90 -95 -141.5t-216 -51.5l3 27q121 0 194.5 43.5t86.5 122.5l2 13q9 60 -23 98t-86 38h-105l4 24h103q48 0 88.5 38.5t47.5 97.5l1 8q16 122 -106 122q-55 0 -125 -17l3 27
q75 15 124 15z" />
    <glyph glyph-name="four.osf" 
d="M279 26h69l-3 -26h-69l-17 -115h-28l17 115h-313l3 21l384 490h25zM-26 26h278l61 433z" />
    <glyph glyph-name="five.osf" horiz-adv-x="431" 
d="M369 484h-251l-40 -286q38 43 87 67t94 24q134 0 106 -185l-2 -13q-17 -112 -96 -166t-239 -59l3 26q151 7 220 54t85 144l3 17q28 156 -83 156q-98 0 -193 -110h-17l50 358h277z" />
    <glyph glyph-name="six.osf" horiz-adv-x="480" 
d="M293 613q59 0 124 -21l-4 -26q-70 21 -124 21q-63 0 -108.5 -52t-61.5 -166l-11 -78q94 98 181 98q67 0 99.5 -45t21.5 -133l-4 -31q-24 -192 -184 -192q-84 0 -126.5 54t-29.5 145l26 188q17 124 70 181t131 57zM284 363q-78 0 -180 -100l-11 -81q-11 -80 25.5 -124
t103.5 -44q135 0 156 161l5 39q20 149 -99 149z" />
    <glyph glyph-name="seven.osf" horiz-adv-x="399" 
d="M397 488l-329 -601h-33l331 597v1h-323l4 26h353z" />
    <glyph glyph-name="eight.osf" horiz-adv-x="470" 
d="M271 613q73 0 112 -43.5t29 -113.5l-1 -7q-7 -46 -37.5 -81t-77.5 -48q55 -16 81.5 -59.5t18.5 -99.5l-2 -13q-12 -77 -62 -118.5t-129 -41.5q-86 0 -132 50t-33 131l2 12q19 117 142 146q-41 20 -60.5 57t-14.5 80l1 9q8 66 50 103t113 37zM268 588q-117 0 -133 -116
l-1 -7q-8 -51 26.5 -92t85.5 -41q55 0 92 32t46 87l1 6q10 59 -22.5 95t-94.5 36zM232 310q-67 0 -112 -37t-53 -93l-2 -14q-10 -73 28 -112.5t112 -39.5q67 0 109.5 36t52.5 99l2 13q10 63 -29.5 105.5t-107.5 42.5z" />
    <glyph glyph-name="nine.osf" horiz-adv-x="485" 
d="M258 523q84 0 125.5 -52.5t28.5 -146.5l-32 -221q-19 -131 -61.5 -180.5t-118.5 -49.5q-67 0 -146 27l4 27q97 -28 146 -28q61 0 96.5 43.5t51.5 155.5l14 102q-40 -42 -91 -70t-92 -28q-66 0 -99.5 46t-19.5 137l8 52q15 101 60 143.5t126 42.5zM256 497
q-65 0 -104 -36.5t-52 -120.5l-9 -59q-23 -153 97 -153q39 0 88.5 28.5t93.5 71.5l15 101q12 80 -24.5 124t-104.5 44z" />
    <glyph glyph-name="less.osf" 
d="M383 406l-329 -144l289 -146l-4 -27l-313 159l4 30l358 158z" />
    <glyph glyph-name="equal.osf" 
d="M371 346h-325l3 24h325zM344 156h-325l4 25h325z" />
    <glyph glyph-name="greater.osf" 
d="M365 278l-4 -30l-358 -158l5 30l329 144l-289 146l4 27z" />
    <glyph glyph-name="asciitilde.osf" 
d="M361 283l-4 -29q-47 -24 -98 -24q-33 0 -67 17t-65 17q-16 0 -40 -6t-40 -12l-16 -5l4 29q46 24 97 24q34 0 68 -17t65 -17q16 0 40 6t40 12z" />
    <glyph glyph-name="cent.osf" horiz-adv-x="384" 
d="M103 337l-23 -169q-21 -154 98 -154q43 0 105 24l-3 -28q-56 -20 -100 -22l-11 -76h-26l11 77q-59 6 -86 51.5t-16 126.5l24 168q24 162 150 165l10 76h26l-10 -77q42 -3 88 -16l-5 -26q-54 17 -105 17q-109 0 -127 -137z" />
    <glyph glyph-name="sterling.osf" horiz-adv-x="387" 
d="M252 523q46 0 98 -16l-3 -26q-53 16 -96 16q-53 0 -79.5 -25.5t-33.5 -87.5l-9 -86h125l-3 -26h-125l-17 -121q-12 -82 -52 -125h287l-2 -26h-317l2 22q46 49 55 126l16 124h-70l3 26h70l10 85q10 77 43.5 108.5t97.5 31.5z" />
    <glyph glyph-name="currency.osf" horiz-adv-x="480" 
d="M465 443l-77 -67q13 -34 7 -81l-9 -62q-7 -50 -31 -83l54 -62l-19 -17l-51 59q-42 -39 -117 -39t-111 46l-76 -65l-15 18l78 68q-18 38 -11 92l9 62q6 43 23 74l-50 59l19 17l47 -55q41 47 124 47t118 -56l73 63zM257 428q-117 0 -135 -118l-9 -62q-9 -61 21 -96t91 -35
q119 0 135 118l9 62q9 61 -21.5 96t-90.5 35z" />
    <glyph glyph-name="yen.osf" horiz-adv-x="388" 
d="M203 198h101l-3 -24h-109l-7 -63h109l-3 -25h-109l-10 -86h-27l10 86h-108l3 25h108l7 63h-108l3 24h99l-113 313h29q65 -175 106 -305q103 166 180 305h33z" />
    <glyph glyph-name="section.osf" horiz-adv-x="480" 
d="M283 695q42 0 116 -19l-6 -26q-53 13 -77 17q-20 2 -36 2q-52 0 -77 -19.5t-32 -66.5l-1 -6q-8 -47 8.5 -76t59.5 -48l103 -44q87 -38 74 -127l-2 -14q-15 -96 -155 -121q103 -43 86 -146l-2 -12q-18 -107 -138 -107q-47 0 -122 21l6 27q45 -13 84 -20q20 -2 35 -2
q50 0 75.5 19.5t33.5 68.5l1 6q7 46 -8.5 74t-59.5 47l-103 44q-46 20 -63.5 52t-9.5 83l2 13q16 96 148 116q-98 44 -80 147l2 12q9 54 41.5 79.5t96.5 25.5zM328 386l-72 31q-67 -5 -107 -33.5t-48 -73.5l-2 -11q-13 -76 60 -109l67 -29q144 19 161 111l2 12q6 38 -8 61.5
t-53 40.5z" />
    <glyph glyph-name="logicalnot.osf" 
d="M339 86h-25l23 168h-309l4 26h334z" />
    <glyph glyph-name="degree.osf" horiz-adv-x="401" 
d="M250 695q74 0 109 -44t25 -126l-5 -38q-21 -160 -166 -160q-73 0 -108.5 44.5t-24.5 126.5l5 38q21 159 165 159zM249 670q-62 0 -94.5 -31.5t-42.5 -102.5l-5 -38q-9 -74 19.5 -110t88.5 -36t94 31.5t43 103.5l5 38q10 72 -18.5 108.5t-89.5 36.5z" />
    <glyph glyph-name="plusminus.osf" 
d="M211 280h151l-4 -26h-151l-23 -168h-25l23 168h-151l4 26h151l23 168h25zM323 0h-327l3 26h327z" />
    <glyph glyph-name="mu.osf" horiz-adv-x="496" 
d="M366 0h-25l4 31l34 169l-2 2l-3 -2q-28 -105 -80.5 -158.5t-114.5 -53.5q-74 0 -97 62q-7 -52 -47 -235h-27q36 147 53 268l57 405h27l-45 -311q-13 -90 8.5 -126.5t73.5 -36.5q68 0 123.5 71.5t76.5 222.5l25 180h27z" />
    <glyph glyph-name="multiply.osf" 
d="M351 387l-137 -121l101 -119l-19 -17l-103 119l-135 -119l-16 18l136 119l-102 119l19 17l103 -118l137 120z" />
    <glyph glyph-name="divide.osf" 
d="M221 449q26 0 23 -26l-1 -9q-3 -21 -27 -21q-27 0 -24 25l1 9q3 22 28 22zM359 254h-327l3 26h327zM178 141q26 0 23 -26l-1 -9q-3 -21 -27 -21q-27 0 -24 25l1 9q3 22 28 22z" />
    <glyph glyph-name="florin.osf" horiz-adv-x="311" 
d="M265 613q30 0 60 -10l-3 -25q-32 10 -59 10q-37 0 -58.5 -24t-29.5 -81l-11 -77h90l-3 -24h-90l-81 -567h-27l81 567h-71l2 18l72 5l11 72q12 77 39.5 106.5t77.5 29.5z" />
    <glyph glyph-name="dagger.osf" horiz-adv-x="418" 
d="M233 357h160l-4 -27h-160l-46 -330h-28l46 330h-160l4 27h160l23 167h28z" />
    <glyph glyph-name="daggerdbl.osf" horiz-adv-x="438" 
d="M245 377h160l-3 -27h-160l-18 -123h160l-3 -27h-160l-28 -200h-28l28 200h-160l3 27h160l18 123h-160l3 27h160l21 147h28z" />
    <glyph glyph-name="perthousand.osf" horiz-adv-x="1252" 
d="M244 625q69 0 103 -41t24 -117l-7 -50q-20 -142 -158 -142q-70 0 -103 41.5t-23 117.5l7 49q10 74 48.5 108t108.5 34zM247 0h-31l419 613h32zM242 599q-58 0 -89 -28.5t-40 -89.5l-7 -49q-9 -62 18 -96.5t85 -34.5t88.5 28t39.5 91l7 49q9 64 -17.5 97t-84.5 33z
M674 338q69 0 103 -41t24 -117l-7 -50q-20 -142 -158 -142q-70 0 -103 41.5t-23 117.5l7 49q10 74 48.5 108t108.5 34zM1060 338q69 0 103 -41t24 -117l-7 -50q-20 -142 -158 -142q-70 0 -103 41.5t-23 117.5l7 49q10 74 48.5 108t108.5 34zM672 312q-58 0 -89 -28.5
t-40 -89.5l-7 -49q-9 -62 18 -96.5t85 -34.5t88.5 28t39.5 91l7 49q9 64 -17.5 97t-84.5 33zM1058 312q-58 0 -89 -28.5t-40 -89.5l-7 -49q-9 -62 18 -96.5t85 -34.5t88.5 28t39.5 91l7 49q9 64 -17.5 97t-84.5 33z" />
    <glyph glyph-name="Euro.osf" horiz-adv-x="374" 
d="M240 523q53 0 125 -22l-5 -24q-63 21 -122 21q-60 0 -90 -30t-39 -105l-5 -42h216l-12 -26h-207l-9 -78h215l-12 -26h-206l-5 -41q-17 -136 117 -136q42 0 107 18l-1 -27q-72 -17 -108 -17q-81 0 -116.5 41t-24.5 129l4 33h-65l11 26h57l9 78h-65l12 26h56l5 43
q10 86 48 122.5t110 36.5z" />
    <glyph glyph-name="Omega.osf" horiz-adv-x="576" 
d="M321 667q103 0 152.5 -54.5t36.5 -156.5l-31 -255q-8 -61 -38.5 -107t-78.5 -68h105l-2 -26h-185l2 23h9q58 0 105.5 54t55.5 124l31 258q12 92 -31 137.5t-135 45.5q-85 0 -129 -40.5t-56 -138.5l-32 -264q-8 -69 27 -122.5t92 -53.5h7l-2 -23h-185l2 26h107
q-42 24 -62 70t-13 108l32 258q14 112 65.5 158.5t150.5 46.5z" />
    <glyph glyph-name="partialdiff.osf" horiz-adv-x="461" 
d="M164 670l3 25q132 0 191 -93.5t33 -276.5l-25 -177q-23 -160 -167 -160q-76 0 -116 50t-28 140l12 93q21 168 146 168q51 0 90 -37t60 -87l5 37q20 148 -32 233t-172 85zM217 413q-52 0 -81.5 -33.5t-41.5 -119.5l-12 -84q-10 -74 23 -118t94 -44q121 0 139 129l20 138
q-19 48 -58.5 90t-82.5 42z" />
    <glyph glyph-name="Delta.osf" horiz-adv-x="492" 
d="M438 21l-1 -21h-454l2 20l287 635h35zM286 627q-179 -407 -271 -601h394q-61 311 -123 601z" />
    <glyph glyph-name="product.osf" horiz-adv-x="555" 
d="M603 629h-90l-115 -814h-27l115 814h-321l-115 -814h-27l115 814h-90l4 26h555z" />
    <glyph glyph-name="summation.osf" horiz-adv-x="399" 
d="M427 628h-326l142 -380l-4 -27l-245 -379h322l-4 -27h-358l4 23l257 401l-147 393l4 23h359z" />
    <glyph glyph-name="minus.osf" 
d="M358 254h-327l4 26h327z" />
    <glyph glyph-name="radical.osf" horiz-adv-x="475" 
d="M606 653h-91l-322 -653h-35l-100 488h32q51 -249 89 -456q113 225 317 651h114z" />
    <glyph glyph-name="infinity.osf" horiz-adv-x="517" 
d="M376 392q62 0 92.5 -36t18.5 -100l-2 -12q-11 -66 -44 -94.5t-91 -28.5q-32 0 -61.5 17t-42.5 46q-39 -63 -114 -63q-65 0 -94 37.5t-17 99.5l2 12q11 65 43.5 93.5t90.5 28.5q33 0 61.5 -17t41.5 -46q39 63 116 63zM156 366q-48 0 -73 -22.5t-34 -75.5l-3 -18
q-13 -103 88 -103q91 0 107 97l3 18q8 47 -17 75.5t-71 28.5zM374 366q-94 0 -107 -97l-3 -18q-8 -47 16.5 -75.5t70.5 -28.5q48 0 73.5 22.5t34.5 75.5l3 18q8 49 -15 76t-73 27z" />
    <glyph glyph-name="integral.osf" horiz-adv-x="295" 
d="M291 695q28 0 58 -10l-3 -25q-32 10 -57 10q-39 0 -60.5 -24t-29.5 -81l-94 -668q-7 -52 -29 -73t-65 -21q-30 0 -59 9l4 27q30 -10 58 -10q55 0 64 66l94 666q11 76 38.5 105t80.5 29z" />
    <glyph glyph-name="approxequal.osf" 
d="M373 363l-4 -29q-47 -24 -98 -24q-33 0 -67 17t-65 17q-16 0 -40 -6t-40 -12l-16 -5l4 29q48 24 99 24q34 0 67 -17t64 -17q16 0 40 6t40 12zM352 216l-4 -29q-47 -24 -98 -24q-33 0 -66.5 17t-64.5 17q-16 0 -40 -5.5t-40 -11.5l-16 -6l4 29q47 24 98 24q33 0 66.5 -17
t64.5 -17q16 0 40 5.5t40 11.5z" />
    <glyph glyph-name="notequal.osf" 
d="M287 370h85l-3 -24h-100l-126 -165h203l-4 -25h-219l-55 -73h-26l55 73h-80l4 25h96l126 165h-199l3 24h214l63 82h26z" />
    <glyph glyph-name="lessequal.osf" 
d="M382 395l-329 -144l289 -146l-4 -27l-313 159l4 30l358 158zM328 0h-336l3 24h336z" />
    <glyph glyph-name="greaterequal.osf" 
d="M364 266l-4 -30l-358 -158l5 30l329 144l-289 146l4 27zM328 0h-336l3 24h336z" />
    <glyph glyph-name="lozenge.osf" horiz-adv-x="517" 
d="M515 342l-278 -342h-33l-186 342l278 341h34zM52 342l170 -317l261 318l-171 319z" />
    <glyph glyph-name="quotedbl.tf" horiz-adv-x="560" 
d="M113 429h-28l35 254h28zM248 429h-28l35 254h28z" />
    <glyph glyph-name="numbersign.tf" horiz-adv-x="560" 
d="M554 518h-92l-52 -369h92l-3 -24h-92l-17 -125h-28l17 125h-245l-17 -125h-28l17 125h-92l3 24h92l52 369h-92l4 24h92l17 125h28l-17 -125h245l17 125h28l-17 -125h92zM189 518l-52 -369h245l52 369h-245z" />
    <glyph glyph-name="dollar.tf" horiz-adv-x="560" 
d="M359 748l-12 -83q60 -7 101 -19l-3 -27q-63 17 -98 21q-15 1 -44 1q-124 0 -139 -116l-2 -15q-14 -108 92 -149l83 -32q115 -44 100 -175l-1 -9q-9 -84 -51.5 -120.5t-132.5 -36.5l-12 -82h-27l12 85q-63 10 -123 32l5 28q72 -26 123 -34q26 -2 40 -2q65 0 98.5 29.5
t40.5 95.5l2 18q12 109 -80 145l-97 38q-56 22 -81.5 67t-16.5 108l1 7q11 79 52.5 111.5t130.5 32.5l12 81h27z" />
    <glyph glyph-name="percent.tf" horiz-adv-x="843" 
d="M250 667q69 0 103 -41t24 -117l-7 -50q-20 -142 -158 -142q-70 0 -103 41.5t-23 117.5l7 49q10 74 48.5 108t108.5 34zM223 0h-29l449 655h30zM248 641q-58 0 -89 -28.5t-40 -89.5l-7 -49q-9 -62 18 -96.5t85 -34.5t88.5 28t39.5 91l7 49q9 64 -17.5 97t-84.5 33z
M651 338q69 0 103 -41t24 -117l-7 -50q-20 -142 -158 -142q-70 0 -103 41.5t-23 117.5l7 49q10 74 48.5 108t108.5 34zM649 312q-58 0 -89 -28.5t-40 -89.5l-7 -49q-9 -62 18 -96.5t85 -34.5t88.5 28t39.5 91l7 49q9 64 -17.5 97t-84.5 33z" />
    <glyph glyph-name="quotesingle.tf" horiz-adv-x="560" 
d="M108 429h-28l35 254h28z" />
    <glyph glyph-name="plus.tf" horiz-adv-x="560" 
d="M299 340h151l-3 -26h-151l-24 -168h-25l24 168h-151l3 26h151l24 168h25z" />
    </font>
</defs>
</svg>
