<?xml version="1.0" standalone="no"?>
<!DOCTYPE svg PUBLIC "-//W3C//DTD SVG 1.1//EN" "http://www.w3.org/Graphics/SVG/1.1/DTD/svg11.dtd" >
<svg xmlns="http://www.w3.org/2000/svg" xmlns:xlink="http://www.w3.org/1999/xlink" version="1.1">
<metadata>
Created by FontForge 20190801 at Mon Mar 17 19:16:09 2014
 By www-data
(c) 2014, Copyright by Botio Nikoltchev. All rights reserved.
</metadata>
<defs>
<font id="RopaSansProExtraLightItalic" horiz-adv-x="560" >
  <font-face 
    font-family="RopaSansProExtraLightItalic"
    font-weight="300"
    font-style="italic"
    font-stretch="normal"
    units-per-em="1000"
    panose-1="2 11 4 4 2 1 1 1 1 2"
    ascent="800"
    descent="-200"
    x-height="488"
    cap-height="655"
    bbox="-99 -325 1219 848"
    underline-thickness="50"
    underline-position="-100"
    slope="-7"
    unicode-range="U+000D-FEFF"
  />
<missing-glyph horiz-adv-x="493" 
d="M46 0v655h401v-655h-401zM81 35h331v585h-331v-585z" />
    <glyph glyph-name="f_f" unicode="ff" horiz-adv-x="551" 
d="M535 695q29 0 62 -10l-4 -35q-33 10 -61 10q-37 0 -57.5 -23t-27.5 -77l-11 -72h90l-4 -34h-90l-77 -541q-8 -60 -33 -85t-73 -25q-35 0 -65 10l5 37q31 -11 61 -11q28 0 43.5 16t21.5 55l76 544h-223l-64 -461q-8 -60 -33 -85t-72 -25q-36 0 -66 10l5 37q31 -11 61 -11
q28 0 43.5 16t21.5 55l64 464h-71l3 25l72 7l8 57q11 83 47.5 116.5t113.5 33.5q68 0 149 -28q30 30 85 30zM299 658q-58 0 -83.5 -24t-33.5 -86l-9 -60h223l9 67q5 44 23 80q-78 23 -129 23z" />
    <glyph glyph-name="f_f_i" unicode="ffi" horiz-adv-x="732" 
d="M560 695q48 0 120 -18l-5 -36q-73 19 -118 19q-53 0 -78.5 -25t-33.5 -85l-9 -62h264l-68 -488h-40l63 454h-223l-76 -541q-9 -60 -33.5 -85t-72.5 -25q-35 0 -65 10l5 37q31 -11 61 -11q55 0 64 71l76 544h-223l-64 -461q-8 -60 -33 -85t-72 -25q-36 0 -66 10l5 37
q31 -11 61 -11q28 0 43.5 16t21.5 55l64 464h-71l3 25l72 7l8 57q11 83 47.5 116.5t113.5 33.5q72 0 153 -29q37 31 106 31zM299 658q-58 0 -83.5 -24t-33.5 -86l-9 -60h223l7 56q9 60 28 90q-78 24 -132 24z" />
    <glyph glyph-name="f_f_j" unicode="ffj" horiz-adv-x="732" 
d="M560 695q48 0 120 -18l-5 -36q-73 19 -118 19q-53 0 -78.5 -25t-33.5 -85l-9 -62h264l-82 -579q-8 -58 -32 -82t-72 -24q-30 0 -66 12l1 7l5 29q31 -12 61 -12q27 0 42 15t21 51l76 549h-222l-65 -457q-9 -63 -33.5 -88.5t-72.5 -25.5q-35 0 -65 10l5 37q31 -11 61 -11
q28 0 43.5 17t21.5 59l64 459h-223l-64 -461q-8 -60 -33 -85t-72 -25q-36 0 -66 10l5 37q31 -11 61 -11q28 0 43.5 16t21.5 55l64 464h-71l3 25l72 7l8 57q11 83 47.5 116.5t113.5 33.5q72 0 153 -29q37 31 106 31zM299 658q-58 0 -83.5 -24t-33.5 -86l-9 -60h223l7 56
q9 60 28 90q-78 24 -132 24z" />
    <glyph glyph-name="f_f_l" unicode="ffl" horiz-adv-x="756" 
d="M559 695q61 0 129 -17l29 1q-4 -98 -21 -215l-65 -464h-40l64 457q13 85 21 187q-67 16 -120 16t-78 -24.5t-34 -85.5l-9 -62h90l-4 -34h-90l-76 -541q-8 -60 -33 -85t-73 -25q-35 0 -65 10l5 37q31 -11 61 -11q28 0 43.5 16t21.5 55l75 544h-222l-64 -461
q-8 -60 -33 -85t-72 -25q-36 0 -66 10l5 37q31 -11 61 -11q28 0 43.5 16t21.5 55l64 464h-71l3 25l72 7l8 57q11 83 47.5 116.5t113.5 33.5q72 0 153 -29q37 31 105 31zM299 658q-58 0 -83.5 -24t-33.5 -86l-9 -60h222l8 56q7 59 28 90q-78 24 -132 24z" />
    <glyph glyph-name="f_i" unicode="fi" horiz-adv-x="505" 
d="M309 695q47 0 119 -18l-4 -36q-74 19 -119 19q-53 0 -78 -24.5t-34 -85.5l-8 -62h263l-68 -488h-40l63 454h-223l-76 -541q-8 -60 -33 -85t-72 -25q-36 0 -66 10l5 37q31 -11 61 -11q28 0 43.5 16t21.5 55l75 544h-71l4 25l72 7l8 58q11 82 47.5 116.5t109.5 34.5z" />
    <glyph glyph-name="f_j" unicode="fj" horiz-adv-x="494" 
d="M298 695q47 0 119 -18l-4 -36q-74 19 -119 19q-53 0 -78 -24.5t-34 -85.5l-8 -62h263l-82 -579q-8 -58 -32 -82t-72 -24q-31 0 -65 12l1 7l4 29q31 -12 62 -12q27 0 42 15t20 51l77 549h-223l-64 -457q-9 -63 -33.5 -88.5t-72.5 -25.5q-36 0 -66 10l5 37q31 -11 61 -11
q28 0 43.5 17t22.5 59l63 459h-71l4 25l72 7l8 58q11 82 47.5 116.5t109.5 34.5z" />
    <glyph glyph-name="f_l" unicode="fl" horiz-adv-x="507" 
d="M310 695q63 0 128 -18l29 2q-4 -98 -21 -215l-65 -464h-40l64 457q14 93 20 186q-63 17 -119 17q-53 0 -78 -24.5t-34 -85.5l-8 -62h90l-5 -34h-90l-76 -541q-8 -60 -33 -85t-72 -25q-36 0 -66 10l5 37q31 -11 61 -11q28 0 43.5 16t21.5 55l75 544h-71l4 25l72 7l8 58
q11 82 47.5 116.5t109.5 34.5z" />
    <glyph glyph-name=".notdef" horiz-adv-x="493" 
d="M46 0v655h401v-655h-401zM81 35h331v585h-331v-585z" />
    <glyph glyph-name=".null" horiz-adv-x="0" 
 />
    <glyph glyph-name=".null" horiz-adv-x="0" 
 />
    <glyph glyph-name="uni000D" unicode="&#xd;" horiz-adv-x="242" 
 />
    <glyph glyph-name="space" unicode=" " horiz-adv-x="242" 
 />
    <glyph glyph-name="exclam" unicode="!" horiz-adv-x="192" 
d="M103 200h-38l65 495h45zM63 58q34 0 31 -31l-2 -13q-5 -26 -33 -26q-17 0 -25.5 8t-6.5 22l2 12q3 28 34 28z" />
    <glyph glyph-name="quotedbl" unicode="&#x22;" horiz-adv-x="290" 
d="M118 429h-41l35 254h41zM254 429h-41l35 254h41z" />
    <glyph glyph-name="numbersign" unicode="#" horiz-adv-x="532" 
d="M448 488h89l-4 -34h-90l-42 -295h90l-5 -34h-89l-17 -125h-41l17 125h-225l-17 -125h-41l17 125h-89l5 34h89l42 295h-90l5 34h89l18 125h41l-18 -125h225l18 125h41zM178 454l-42 -295h225l42 295h-225z" />
    <glyph glyph-name="dollar" unicode="$" horiz-adv-x="445" 
d="M302 695l-11 -83q58 -7 107 -21l-5 -38q-61 18 -108 23q-13 1 -34 1q-62 0 -94 -24.5t-40 -76.5l-1 -12q-14 -92 85 -128l77 -28q121 -43 106 -166l-1 -9q-8 -71 -51.5 -107t-128.5 -38l-12 -82h-38l12 85q-62 8 -123 31l6 39q69 -26 122 -34q24 -2 36 -2q123 0 137 106
l1 17q10 89 -79 122l-87 33q-120 44 -102 168l1 7q11 69 53 102t123 34l11 81h38z" />
    <glyph glyph-name="percent" unicode="%" horiz-adv-x="865" 
d="M244 625q71 0 105.5 -41.5t24.5 -117.5l-6 -46q-21 -145 -162 -145q-72 0 -106 43t-23 119l6 44q11 75 50 109.5t111 34.5zM253 0h-44l419 613h46zM241 588q-53 0 -81.5 -26t-37.5 -84l-6 -45q-8 -57 16 -89t78 -32q53 0 81.5 26t36.5 85l6 45q16 120 -93 120zM674 338
q71 0 105.5 -41.5t24.5 -117.5l-6 -46q-21 -145 -162 -145q-72 0 -106 43t-23 119l6 44q11 75 50 109.5t111 34.5zM671 301q-53 0 -81.5 -26t-37.5 -84l-6 -45q-8 -57 16 -89t78 -32q53 0 81.5 26t36.5 85l6 45q16 120 -93 120z" />
    <glyph glyph-name="ampersand" unicode="&#x26;" horiz-adv-x="532" 
d="M286 667q51 0 119 -14l-7 -36q-61 14 -115 14q-65 0 -98.5 -29t-42.5 -95l-2 -22q-7 -54 27 -94t91 -40h155l12 89h38l-12 -89h72l-4 -35h-73l-42 -301q-108 -27 -179 -27q-111 0 -159 48t-35 136l3 21q8 55 47 93t108 53q-49 19 -72 61t-15 97l3 22q20 148 181 148z
M408 316h-166q-69 0 -114.5 -36t-53.5 -91l-4 -24q-9 -67 30.5 -103.5t130.5 -36.5q71 0 139 17z" />
    <glyph glyph-name="quotesingle" unicode="'" horiz-adv-x="154" 
d="M118 429h-41l35 254h41z" />
    <glyph glyph-name="parenleft" unicode="(" horiz-adv-x="218" 
d="M303 712l-4 -35q-76 10 -104 -12t-38 -96l-67 -472q-10 -73 11 -95.5t98 -23.5l-4 -35q-97 0 -126.5 33t-16.5 130l64 458q14 99 53.5 130.5t133.5 17.5z" />
    <glyph glyph-name="parenright" unicode=")" horiz-adv-x="218" 
d="M30 677l4 35q97 0 126.5 -33t16.5 -130l-64 -458q-14 -99 -53.5 -130.5t-133.5 -17.5l5 35q76 -10 103.5 12t37.5 96l66 472q10 73 -10.5 95.5t-97.5 23.5z" />
    <glyph glyph-name="asterisk" unicode="*" horiz-adv-x="421" 
d="M265 566l117 51l14 -38l-122 -39l81 -95l-33 -26l-70 106l-70 -106l-33 26l82 95l-123 39l14 38l117 -52l-7 130h40z" />
    <glyph glyph-name="plus" unicode="+" horiz-adv-x="398" 
d="M222 324h148l-5 -36h-148l-24 -165h-36l24 165h-149l5 36h148l23 164h37z" />
    <glyph glyph-name="comma" unicode="," horiz-adv-x="198" 
d="M64 58q36 0 31 -35l-2 -11q-1 -12 -9 -29l-37 -83h-35l34 89q-21 8 -16 32l1 12q4 25 33 25z" />
    <glyph glyph-name="hyphen" unicode="-" horiz-adv-x="350" 
d="M272 279h-197l5 34h197z" />
    <glyph glyph-name="period" unicode="." horiz-adv-x="198" 
d="M64 58q34 0 31 -31l-2 -13q-5 -26 -33 -26q-18 0 -26 8t-6 22l2 12q3 28 34 28z" />
    <glyph glyph-name="slash" unicode="/" horiz-adv-x="252" 
d="M0 0h-38l300 683h38z" />
    <glyph glyph-name="zero" unicode="0" horiz-adv-x="502" 
d="M287 613q86 0 128.5 -51.5t28.5 -151.5l-33 -227q-26 -195 -193 -195q-84 0 -126.5 52.5t-28.5 149.5l33 228q15 104 62.5 149.5t128.5 45.5zM284 577q-62 0 -99 -36.5t-49 -119.5l-33 -235q-12 -79 21 -120.5t96 -41.5q129 0 151 157l34 234q12 80 -21.5 121t-99.5 41z
" />
    <glyph glyph-name="one" unicode="1" horiz-adv-x="276" 
d="M149 0h-40l79 559h-2l-150 -64l-6 37l167 69h36z" />
    <glyph glyph-name="two" unicode="2" horiz-adv-x="395" 
d="M217 613q79 0 115.5 -39.5t25.5 -109.5l-2 -10q-7 -46 -32.5 -88.5t-87.5 -108.5l-210 -221h275l-4 -36h-327l4 30l252 268q79 84 90 156l2 9q19 115 -106 115q-64 0 -145 -30l5 39q85 26 145 26z" />
    <glyph glyph-name="three" unicode="3" horiz-adv-x="381" 
d="M204 613q74 0 110 -38t27 -111l-1 -9q-5 -49 -35.5 -88.5t-74.5 -56.5q44 -16 66.5 -56.5t15.5 -90.5l-2 -12q-23 -163 -175 -163q-65 0 -143 26l4 37q82 -28 141 -28q113 0 133 126l2 15q8 58 -22 93.5t-83 35.5h-101l5 34h100q49 0 86 36t44 93l1 8q14 115 -102 115
q-55 0 -129 -18l5 37q75 15 128 15z" />
    <glyph glyph-name="four" unicode="4" horiz-adv-x="407" 
d="M309 165h60l-4 -36h-60l-18 -129h-40l18 129h-293l4 30l354 442h41zM22 165h247l3 20l50 357z" />
    <glyph glyph-name="five" unicode="5" horiz-adv-x="441" 
d="M389 567h-245l-39 -266q37 38 83 59.5t87 21.5q137 0 111 -186l-2 -16q-13 -96 -61 -144t-127 -48q-71 0 -159 28l5 38q95 -30 156 -30q58 0 97 39t49 116l2 18q11 81 -9.5 115t-68.5 34q-92 0 -180 -100h-28l50 358h284z" />
    <glyph glyph-name="six" unicode="6" horiz-adv-x="479" 
d="M294 613q57 0 126 -21l-5 -37q-72 22 -125 22q-134 0 -162 -209l-10 -70q89 91 171 91q68 0 102 -45t22 -134l-5 -32q-24 -190 -186 -190q-85 0 -129 54t-30 153l25 178q33 240 206 240zM280 352q-74 0 -168 -92l-11 -76q-10 -76 23.5 -118t96.5 -42q126 0 145 149l6 40
q9 70 -15.5 104.5t-76.5 34.5z" />
    <glyph glyph-name="seven" unicode="7" horiz-adv-x="373" 
d="M390 568l-303 -568h-46l305 562v1h-291l6 37h334z" />
    <glyph glyph-name="eight" unicode="8" horiz-adv-x="460" 
d="M267 613q74 0 114.5 -44t30.5 -116l-1 -6q-7 -44 -35.5 -78.5t-72.5 -48.5q51 -17 76.5 -59.5t17.5 -97.5l-2 -14q-11 -77 -62 -119t-133 -42q-87 0 -134.5 50t-34.5 131l2 12q18 117 137 146q-38 19 -57 56t-14 81l1 9q9 68 53 104t114 36zM264 579q-108 0 -124 -109
l-1 -7q-7 -52 23.5 -89t80.5 -37q53 0 86 29t42 83l1 6q10 57 -20 90.5t-88 33.5zM228 305q-63 0 -105 -35t-50 -90l-2 -12q-10 -68 26 -106t105 -38q64 0 103.5 33.5t48.5 92.5l2 15q10 60 -26.5 100t-101.5 40z" />
    <glyph glyph-name="nine" unicode="9" horiz-adv-x="475" 
d="M266 612q85 0 127.5 -53t28.5 -147l-28 -198q-17 -124 -61.5 -175t-128.5 -51q-66 0 -142 26l5 38q88 -28 141 -28q60 0 94.5 40.5t50.5 146.5l13 91q-40 -40 -88 -65.5t-87 -25.5q-67 0 -100 47.5t-19 136.5l4 32q15 98 61 141.5t129 43.5zM263 576q-62 0 -98 -34
t-48 -111l-6 -39q-11 -72 14 -108t76 -36q74 0 170 92l12 79q11 75 -22.5 116t-97.5 41z" />
    <glyph glyph-name="colon" unicode=":" horiz-adv-x="198" 
d="M105 370q34 0 31 -31l-2 -13q-5 -26 -33 -26q-17 0 -25.5 8t-6.5 22l2 12q3 28 34 28zM73 141q34 0 31 -31l-2 -13q-5 -26 -33 -26q-17 0 -25.5 8t-6.5 22l2 12q3 28 34 28z" />
    <glyph glyph-name="semicolon" unicode=";" horiz-adv-x="199" 
d="M64 58q36 0 31 -35l-2 -11q-1 -12 -9 -29l-37 -83h-35l34 89q-21 8 -16 32l1 12q4 25 33 25zM117 453q34 0 31 -31l-2 -13q-5 -26 -33 -26q-17 0 -25.5 8t-6.5 22l2 12q3 28 34 28z" />
    <glyph glyph-name="less" unicode="&#x3c;" horiz-adv-x="398" 
d="M389 439l-320 -137l282 -139l-6 -40l-318 159l5 40l364 159z" />
    <glyph glyph-name="equal" unicode="=" horiz-adv-x="398" 
d="M378 377h-332l5 35h332zM352 192h-332l5 35h331z" />
    <glyph glyph-name="greater" unicode="&#x3e;" horiz-adv-x="398" 
d="M373 322l-5 -40l-364 -159l7 42l320 137l-282 139l6 40z" />
    <glyph glyph-name="question" unicode="?" horiz-adv-x="395" 
d="M230 695q151 0 134 -149l-1 -10q-9 -73 -83 -146l-55 -55q-27 -27 -37.5 -49t-15.5 -61l-3 -25h-38l3 26q5 45 19.5 74t48.5 63l61 60q53 53 60 115l1 9q14 113 -101 113q-60 0 -137 -28l5 39q83 24 139 24zM132 58q34 0 31 -31l-2 -13q-5 -26 -33 -26q-18 0 -26 8t-6 22
l2 12q3 28 34 28z" />
    <glyph glyph-name="at" unicode="@" horiz-adv-x="953" 
d="M476 695q398 0 398 -377v-50q0 -127 -44.5 -190t-126.5 -63q-47 0 -82.5 29.5t-42.5 77.5l19 96l-2 2l-3 -2q-29 -104 -79 -153.5t-112 -49.5q-127 0 -105 184l13 111q11 90 53 133.5t105 43.5q40 0 78 -23.5t64 -55.5l7 67h38l-43 -329q2 -41 28 -68t64 -27
q132 0 132 217v50q0 340 -359 340q-165 0 -257 -97t-92 -273v-100q0 -167 88.5 -251.5t255.5 -84.5h135v-37h-135q-193 0 -288 95.5t-95 277.5v100q0 192 101 299.5t287 107.5zM471 450q-103 0 -120 -140l-14 -106q-11 -83 8.5 -117.5t66.5 -34.5q63 0 112.5 64.5
t71.5 200.5l7 60q-59 73 -132 73z" />
    <glyph glyph-name="A" unicode="A" horiz-adv-x="512" 
d="M462 0h-45q-22 114 -34 171h-284q-50 -114 -76 -171h-44l290 655h54zM290 616q-57 -135 -175 -407h260q-56 272 -85 407z" />
    <glyph glyph-name="B" unicode="B" horiz-adv-x="527" 
d="M50 -5l82 667q115 5 151 5q106 0 156.5 -46t39.5 -125l-2 -13q-14 -113 -125 -148q58 -12 89 -55t24 -105l-2 -19q-18 -168 -239 -168q-63 0 -174 7zM132 349h153q60 0 101.5 36t49.5 92l2 13q10 69 -30 104.5t-134 35.5q-57 0 -108 -3zM128 315l-35 -284q64 -6 132 -6
q184 0 199 135l1 11q8 69 -29.5 106.5t-114.5 37.5h-153z" />
    <glyph glyph-name="C" unicode="C" horiz-adv-x="476" 
d="M298 667q69 0 148 -27l-7 -39q-81 29 -146 29q-69 0 -105 -38t-48 -134l-32 -267q-20 -165 128 -165q54 0 139 32l-3 -41q-80 -29 -140 -29q-189 0 -163 212l31 254q15 120 60 166.5t138 46.5z" />
    <glyph glyph-name="D" unicode="D" horiz-adv-x="571" 
d="M51 -5l82 665q105 7 157 7q120 0 176 -69t40 -201l-21 -172q-29 -237 -272 -237q-73 0 -162 7zM168 626l-74 -595q64 -6 122 -6q98 0 157.5 50t71.5 147l22 175q27 234 -180 234q-21 0 -67.5 -2.5t-51.5 -2.5z" />
    <glyph glyph-name="E" unicode="E" horiz-adv-x="477" 
d="M131 655h314l-5 -37h-274l-33 -266h254l-5 -38h-254l-34 -277h274l-3 -37h-314z" />
    <glyph glyph-name="F" unicode="F" horiz-adv-x="457" 
d="M440 618h-274l-33 -266h208l-5 -38h-208l-37 -314h-40l80 655h314z" />
    <glyph glyph-name="G" unicode="G" horiz-adv-x="557" 
d="M246 -12q-203 0 -178 208l33 274q13 109 62 153t150 44q75 0 169 -26l-5 -38q-91 27 -170 27q-78 0 -116.5 -34.5t-48.5 -119.5l-35 -288q-22 -163 141 -163q66 0 154 30l33 269h-133l4 38h173l-41 -329q-112 -45 -192 -45z" />
    <glyph glyph-name="H" unicode="H" horiz-adv-x="579" 
d="M455 320h-326l-38 -320h-40l80 655h40l-37 -298h326l37 298h40l-80 -655h-40z" />
    <glyph glyph-name="I" unicode="I" horiz-adv-x="213" 
d="M131 655h40l-80 -655h-40z" />
    <glyph glyph-name="J" unicode="J" horiz-adv-x="269" 
d="M227 655l-67 -545q-9 -68 -35 -95t-79 -27q-40 0 -78 12l4 38q37 -13 73 -13q34 0 51.5 18.5t23.5 66.5l67 545h40z" />
    <glyph glyph-name="K" unicode="K" horiz-adv-x="498" 
d="M131 655h40l-39 -313q184 162 339 313h51l-343 -319l287 -336h-53q-143 181 -282 331l-40 -331h-40z" />
    <glyph glyph-name="L" unicode="L" horiz-adv-x="440" 
d="M131 655h40l-77 -618h276l-3 -37h-316z" />
    <glyph glyph-name="M" unicode="M" horiz-adv-x="698" 
d="M581 0h-41l68 597l-261 -529h-53l-130 529l-77 -597h-41l85 655h58q84 -320 134 -547q130 249 267 547h66z" />
    <glyph glyph-name="N" unicode="N" horiz-adv-x="582" 
d="M165 607l-74 -607h-40l80 655h58q125 -300 237 -603l74 603h40l-80 -655h-55z" />
    <glyph glyph-name="O" unicode="O" horiz-adv-x="576" 
d="M322 667q105 0 154.5 -55.5t37.5 -157.5l-32 -259q-13 -105 -66 -156t-155 -51q-104 0 -154 56t-37 161l32 256q13 110 65 158t155 48zM318 631q-82 0 -124 -39t-53 -129l-32 -264q-10 -86 30 -130.5t123 -44.5q82 0 125 41t54 128l32 266q11 86 -29 129t-126 43z" />
    <glyph glyph-name="P" unicode="P" horiz-adv-x="505" 
d="M282 667q110 0 164 -52t43 -145l-2 -10q-10 -93 -68.5 -142.5t-162.5 -49.5q-51 0 -130 18l-35 -286h-40l81 660q129 7 150 7zM279 631q-45 0 -113 -5l-37 -306q67 -16 128 -16q168 0 189 156l1 9q10 77 -33 119.5t-135 42.5z" />
    <glyph glyph-name="Q" unicode="Q" horiz-adv-x="576" 
d="M322 667q105 0 154.5 -56t37.5 -157l-32 -259q-18 -144 -111 -186l113 -39l-3 -36h-14l-149 60q-26 -6 -57 -6q-104 0 -154 56t-37 161l32 256q13 110 65 158t155 48zM318 631q-82 0 -124 -39t-53 -129l-32 -264q-10 -86 30.5 -130.5t122.5 -44.5t125 41t54 128l32 266
q11 86 -29 129t-126 43z" />
    <glyph glyph-name="R" unicode="R" horiz-adv-x="538" 
d="M284 667q106 0 159.5 -52t43.5 -138l-1 -12q-7 -66 -46.5 -111t-102.5 -62l139 -292h-46q-54 127 -131 286q-81 -10 -172 11l-36 -297h-40l81 660q96 7 152 7zM280 631q-43 0 -113 -5l-37 -296q59 -13 128 -13q167 0 187 149l1 7q10 76 -33.5 117t-132.5 41z" />
    <glyph glyph-name="S" unicode="S" horiz-adv-x="452" 
d="M208 367l83 -32q118 -48 102 -180l-2 -10q-10 -82 -52.5 -119.5t-125.5 -37.5q-74 0 -166 37l6 40q70 -27 124 -37q30 -2 41 -2q62 0 94 28t39 89l2 16q13 103 -77 139l-95 38q-59 23 -84.5 70.5t-14.5 111.5l1 8q12 74 54.5 107.5t125.5 33.5q62 0 140 -21l-5 -39
q-72 18 -100 22q-15 1 -42 1q-119 0 -133 -107l-2 -14q-14 -103 87 -142z" />
    <glyph glyph-name="T" unicode="T" horiz-adv-x="519" 
d="M82 655h443l-5 -37h-201l-76 -618h-40l76 618h-202z" />
    <glyph glyph-name="U" unicode="U" horiz-adv-x="578" 
d="M535 655l-57 -462q-13 -104 -66 -154.5t-148 -50.5q-101 0 -151.5 54.5t-37.5 159.5l56 453h41l-57 -460q-11 -82 29.5 -125.5t123.5 -43.5q147 0 169 163l57 466h41z" />
    <glyph glyph-name="V" unicode="V" horiz-adv-x="514" 
d="M248 0h-56l-130 655h42q79 -386 118 -614q148 317 270 614h47z" />
    <glyph glyph-name="W" unicode="W" horiz-adv-x="832" 
d="M606 0h-60l-91 609l-239 -609h-60l-83 655h41q50 -345 77 -611q118 289 238 611h59q56 -337 90 -611q112 290 223 611h47z" />
    <glyph glyph-name="X" unicode="X" horiz-adv-x="491" 
d="M277 337l160 -337h-48q-56 130 -143 302q-104 -155 -213 -302h-50l243 336l-152 319h45q74 -149 134 -285q124 169 204 285h50z" />
    <glyph glyph-name="Y" unicode="Y" horiz-adv-x="463" 
d="M242 225l-27 -225h-40l27 225l-140 430h44q68 -208 119 -385q101 173 214 385h49z" />
    <glyph glyph-name="Z" unicode="Z" horiz-adv-x="472" 
d="M15 32l393 586h-315l5 37h366l-5 -32q-168 -237 -392 -586h320l-3 -37h-372z" />
    <glyph glyph-name="bracketleft" unicode="[" horiz-adv-x="229" 
d="M307 677h-130l-99 -699h130l-5 -35h-170l108 769h170z" />
    <glyph glyph-name="backslash" unicode="\" horiz-adv-x="289" 
d="M261 0h-38l-205 683h38z" />
    <glyph glyph-name="bracketright" unicode="]" horiz-adv-x="229" 
d="M99 -57h-169l5 35h129l99 699h-130l4 35h170z" />
    <glyph glyph-name="asciicircum" unicode="^" horiz-adv-x="471" 
d="M411 404h-38l-86 243l-154 -243h-40l179 279h36z" />
    <glyph glyph-name="underscore" unicode="_" horiz-adv-x="610" 
d="M467 -185h-457l5 35h457z" />
    <glyph glyph-name="grave" unicode="`" horiz-adv-x="190" 
d="M78 666l82 -120h-37l-93 120h48z" />
    <glyph glyph-name="a" unicode="a" horiz-adv-x="484" 
d="M239 500q77 0 141 -79l9 67h37l-68 -488h-37l5 39l35 159l-2 2l-3 -2q-30 -105 -81.5 -157.5t-111.5 -52.5q-62 0 -91 44.5t-14 139.5l23 151q28 177 158 177zM242 463q-98 0 -120 -139l-24 -147q-14 -83 6.5 -117.5t68.5 -34.5q64 0 115 71t71 204l13 90q-61 73 -130 73
z" />
    <glyph glyph-name="b" unicode="b" horiz-adv-x="479" 
d="M125 683h41q-8 -136 -17 -200l-6 -42l-41 -190l2 -2l3 2q34 125 89 187t115 62t87 -46.5t11 -140.5l-26 -153q-29 -172 -172 -172q-172 0 -147 183l38 268q14 98 23 244zM303 463q-63 0 -118.5 -89t-80.5 -224q-9 -64 19 -95.5t86 -31.5q112 0 135 136l25 149
q13 79 -6 117t-60 38z" />
    <glyph glyph-name="c" unicode="c" horiz-adv-x="398" 
d="M184 -12q-71 0 -104.5 46t-21.5 134l24 164q24 168 162 168q48 0 109 -17l-6 -37q-61 18 -105 18q-48 0 -79.5 -32t-40.5 -97l-23 -166q-20 -144 92 -144q48 0 108 26l-5 -39q-59 -24 -110 -24z" />
    <glyph glyph-name="d" unicode="d" horiz-adv-x="484" 
d="M358 0h-37l5 39l35 159l-2 2l-3 -2q-30 -105 -81.5 -157.5t-111.5 -52.5q-62 0 -91 44.5t-14 139.5l23 152q28 176 158 176q76 0 138 -75l35 258h41zM242 463q-98 0 -120 -139l-24 -147q-14 -83 6.5 -117.5t68.5 -34.5q64 0 115.5 70.5t70.5 203.5l12 91q-61 73 -129 73z
" />
    <glyph glyph-name="e" unicode="e" horiz-adv-x="446" 
d="M275 500q59 0 92.5 -30.5t32.5 -83.5q-2 -81 -77.5 -138t-221.5 -66l-2 -15q-10 -78 13.5 -110t85.5 -32t138 39l-6 -40q-77 -36 -138 -36q-82 0 -113.5 45t-18.5 143l12 94q16 114 70.5 172t132.5 58zM272 464q-58 0 -102.5 -50t-56.5 -144l-8 -59q76 8 146 31
q53 29 80.5 66t27.5 74q0 39 -23.5 60.5t-63.5 21.5z" />
    <glyph glyph-name="f" unicode="f" horiz-adv-x="285" 
d="M283 695q28 0 63 -10l-5 -35q-33 10 -60 10q-37 0 -57.5 -22.5t-28.5 -77.5l-10 -72h90l-5 -34h-90l-76 -541q-8 -60 -33 -85t-72 -25q-36 0 -66 10l5 37q33 -11 61 -11t43.5 16.5t21.5 54.5l76 544h-72l4 25l72 7l11 70q11 77 41.5 108t86.5 31z" />
    <glyph glyph-name="g" unicode="g" horiz-adv-x="484" 
d="M240 500q77 0 141 -79l9 67h37l-75 -541q-11 -80 -46 -112t-113 -32q-72 0 -153 24l5 38q83 -25 151 -25q57 0 81.5 22t33.5 82l14 86l37 168l-2 2l-3 -2q-30 -105 -81.5 -157.5t-111.5 -52.5q-62 0 -91 44.5t-14 139.5l23 151q28 177 158 177zM243 463q-98 0 -120 -139
l-24 -147q-25 -152 74 -152q66 0 117 72.5t71 206.5l12 86q-61 73 -130 73z" />
    <glyph glyph-name="h" unicode="h" horiz-adv-x="489" 
d="M130 683h40q-5 -109 -18 -208l-8 -53l-38 -183l2 -2l3 2q36 126 96 193.5t120 67.5q57 0 79 -41.5t8 -140.5l-45 -318h-40l46 322q11 78 -4 109t-54 31q-67 0 -132.5 -111t-90.5 -290l-8 -61h-40l64 457q12 93 20 226z" />
    <glyph glyph-name="i" unicode="i" horiz-adv-x="211" 
d="M114 488h40l-68 -488h-40zM175 618l-1 -13q-4 -25 -32 -25q-33 0 -30 31l2 12q4 27 33 27q33 0 28 -32z" />
    <glyph glyph-name="j" unicode="j" horiz-adv-x="211" 
d="M154 488l-83 -579q-7 -58 -32 -82t-73 -24q-26 0 -65 11l5 37q29 -11 61 -11q29 0 44 14.5t20 50.5l83 583h40zM175 618l-1 -13q-4 -25 -32 -25q-33 0 -30 31l2 12q4 27 33 27q33 0 28 -32z" />
    <glyph glyph-name="k" unicode="k" horiz-adv-x="435" 
d="M130 683h41q-8 -139 -17 -200l-5 -42l-44 -202l2 -2l3 1q34 126 87.5 194t117.5 68q40 0 63 -23.5t23 -64.5q0 -62 -47.5 -116t-128.5 -73l120 -223h-47q-16 36 -120 238q89 14 136.5 64t47.5 106q0 26 -15 41.5t-40 15.5q-66 0 -128 -111t-83 -278l-10 -76h-40l61 439
q17 120 23 244z" />
    <glyph glyph-name="l" unicode="l" horiz-adv-x="211" 
d="M132 683h40q-7 -127 -21 -219l-65 -464h-40l64 457q15 109 22 226z" />
    <glyph glyph-name="m" unicode="m" horiz-adv-x="766" 
d="M599 500q57 0 79.5 -41.5t8.5 -140.5l-46 -318h-40l46 321q12 79 -3 110t-54 31q-65 0 -129.5 -111t-89.5 -295l-7 -56h-40l46 321q11 79 -4 110t-53 31q-66 0 -130 -111t-89 -295l-8 -56h-40l68 488h37l-12 -83l-34 -166l3 -2l3 2q35 125 94 193t117 68q92 0 92 -108
l-30 -153l2 -2l3 2q35 125 94 193t116 68z" />
    <glyph glyph-name="n" unicode="n" horiz-adv-x="493" 
d="M327 500q57 0 79 -41.5t8 -140.5l-45 -318h-40l46 322q11 78 -4 109t-54 31q-68 0 -133 -111.5t-91 -297.5l-7 -53h-40l68 488h37l-12 -83l-33 -166l2 -2l3 2q36 126 96 193.5t120 67.5z" />
    <glyph glyph-name="o" unicode="o" horiz-adv-x="480" 
d="M410 317l-20 -153q-24 -176 -183 -176q-84 0 -122.5 47.5t-25.5 137.5l21 153q13 90 56.5 132t125.5 42q81 0 121 -48.5t27 -134.5zM348 159l22 161q10 69 -20 106.5t-91 37.5q-63 0 -96 -32t-43 -103l-22 -160q-10 -71 19 -108t90 -37q122 0 141 135z" />
    <glyph glyph-name="p" unicode="p" horiz-adv-x="481" 
d="M316 500q60 0 87 -46.5t10 -140.5l-29 -163q-28 -162 -146 -162q-33 0 -74.5 18.5t-71.5 45.5q-9 -58 -48 -237h-40q35 138 53 270l57 403h35l-10 -70l-32 -167l2 -2l3 2q34 125 88.5 187t115.5 62zM307 463q-64 0 -123.5 -93.5t-83.5 -258.5l-4 -28q26 -24 65 -41
t67 -17q48 0 76.5 30t40.5 100l28 153q13 79 -6.5 117t-59.5 38z" />
    <glyph glyph-name="q" unicode="q" horiz-adv-x="485" 
d="M239 500q77 0 141 -79l9 67h38l-95 -673h-41l31 215l39 168l-2 2l-3 -2q-30 -105 -81.5 -157.5t-111.5 -52.5q-62 0 -91 44.5t-14 139.5l23 151q28 177 158 177zM242 463q-98 0 -120 -139l-24 -147q-14 -83 6.5 -117.5t68.5 -34.5q64 0 115.5 70.5t70.5 203.5l13 91
q-61 73 -130 73z" />
    <glyph glyph-name="r" unicode="r" horiz-adv-x="328" 
d="M312 500q11 0 19 -2l-7 -48q-11 3 -25 3q-60 0 -120 -108.5t-84 -279.5l-9 -65h-40l68 488h37l-12 -83l-34 -166l3 -2l3 2q35 127 90.5 194t110.5 67z" />
    <glyph glyph-name="s" unicode="s" horiz-adv-x="393" 
d="M216 500q49 0 110 -18l-6 -41q-39 14 -69 21q-22 2 -41 2q-89 0 -101 -68l-1 -6q-11 -67 57 -101l86 -44q86 -44 71 -132l-2 -13q-8 -54 -44 -83t-96 -29q-72 0 -142 35l8 40q40 -21 89 -35q21 -4 46 -4q86 0 100 81l1 6q12 69 -56 104l-87 43q-42 21 -60 57t-10 80l2 12
q19 93 145 93z" />
    <glyph glyph-name="t" unicode="t" horiz-adv-x="336" 
d="M169 488h145l-4 -34h-146l-45 -318q-9 -64 5 -87.5t57 -23.5q40 0 87 20l-5 -37q-45 -20 -88 -20q-61 0 -84.5 34.5t-11.5 116.5l45 315h-70l3 25l72 7l32 132h26z" />
    <glyph glyph-name="u" unicode="u" horiz-adv-x="494" 
d="M369 0h-38l4 30l37 168l-2 2l-3 -2q-30 -105 -81 -157.5t-112 -52.5q-132 0 -106 184l46 316h40l-45 -311q-12 -84 7 -118t66 -34q66 0 118.5 75t71.5 212l25 176h40z" />
    <glyph glyph-name="v" unicode="v" horiz-adv-x="424" 
d="M197 0h-50l-101 488h39q57 -273 88 -448l2 -2l3 2q111 219 213 448h44z" />
    <glyph glyph-name="w" unicode="w" horiz-adv-x="666" 
d="M482 0h-52l-74 447l-201 -447h-52l-47 488h41q20 -199 35 -446l3 -2l2 2q94 205 197 446h52q44 -261 70 -446l2 -2l3 2q73 192 162 446h43z" />
    <glyph glyph-name="x" unicode="x" horiz-adv-x="393" 
d="M217 253l124 -253h-47q-54 122 -102 224l-2 2l-3 -2q-72 -103 -163 -224h-51l193 253l-113 235h44q72 -152 95 -205l2 -2l3 2q87 116 148 205h51z" />
    <glyph glyph-name="y" unicode="y" horiz-adv-x="494" 
d="M437 488l-76 -541q-11 -80 -45.5 -112t-112.5 -32q-73 0 -154 24l6 38q81 -25 151 -25q57 0 81.5 22t33.5 82l13 86l38 168l-2 2l-3 -2q-30 -105 -81 -157.5t-112 -52.5q-132 0 -106 184l46 316h40l-45 -311q-12 -84 7 -118t66 -34q66 0 118.5 75t71.5 212l25 176h40z
" />
    <glyph glyph-name="z" unicode="z" horiz-adv-x="403" 
d="M379 488l-4 -32q-138 -171 -310 -418h252l-5 -38h-305l4 31l310 420h-247l5 37h300z" />
    <glyph glyph-name="braceleft" unicode="{" horiz-adv-x="239" 
d="M324 712l-5 -35q-76 10 -103.5 -12t-38.5 -99l-16 -122q-14 -96 -75 -115q29 -10 39 -37t3 -78l-16 -115q-10 -73 11.5 -97t97.5 -24l-5 -34q-97 0 -126.5 33t-16.5 130l15 107q13 97 -51 97h-25l4 36h25q66 0 80 97l17 119q14 101 53 132t133 17z" />
    <glyph glyph-name="bar" unicode="|" horiz-adv-x="204" 
d="M74 -69h-41l112 800h40z" />
    <glyph glyph-name="braceright" unicode="}" horiz-adv-x="239" 
d="M30 677l4 34q97 0 126.5 -33t16.5 -130l-14 -104q-13 -97 51 -97h25l-5 -36h-25q-65 0 -79 -97l-18 -122q-14 -101 -53 -132t-133 -17l5 35q76 -10 103.5 12t38.5 99l17 125q14 96 75 115q-29 10 -39 37t-3 78l15 112q10 73 -11 97t-97 24z" />
    <glyph glyph-name="asciitilde" unicode="~" horiz-adv-x="398" 
d="M371 329l-6 -38q-47 -25 -99 -25q-34 0 -69.5 16t-67.5 16q-16 0 -40.5 -6t-40.5 -12l-16 -5l5 38q46 25 99 25q34 0 70 -16.5t67 -16.5q16 0 40.5 6t40.5 12z" />
    <glyph glyph-name="uni00A0" unicode="&#xa0;" horiz-adv-x="242" 
 />
    <glyph glyph-name="exclamdown" unicode="&#xa1;" horiz-adv-x="192" 
d="M119 453q-34 0 -31 31l2 13q5 26 33 26q17 0 25.5 -8t6.5 -22l-2 -12q-3 -28 -34 -28zM79 311h38l-65 -495h-45z" />
    <glyph glyph-name="cent" unicode="&#xa2;" horiz-adv-x="385" 
d="M113 335l-23 -166q-20 -144 92 -144q48 0 108 26l-5 -39q-49 -20 -96 -23l-11 -77h-37l11 77q-125 16 -103 179l24 164q22 162 151 168l10 76h37l-10 -77q46 -5 83 -16l-6 -37q-61 18 -105 18q-48 0 -79.5 -32t-40.5 -97z" />
    <glyph glyph-name="sterling" unicode="&#xa3;" horiz-adv-x="381" 
d="M258 613q53 0 102 -17l-5 -36q-51 17 -97 17q-50 0 -75 -23.5t-32 -81.5l-14 -114h118l-4 -36h-119l-21 -154q-7 -51 -18 -79.5t-35 -51.5h282l-4 -37h-324l3 31q47 48 56 123l21 168h-70l4 36h70l15 112q11 77 46 110t101 33z" />
    <glyph glyph-name="currency" unicode="&#xa4;" horiz-adv-x="478" 
d="M468 479l-75 -65q12 -35 6 -82l-8 -52q-7 -48 -31 -85l54 -62l-29 -26l-51 60q-44 -36 -114 -36q-71 0 -107 41l-74 -64l-23 26l76 67q-17 39 -10 92l7 53q8 46 25 76l-50 59l29 26l47 -55q44 42 120 42q79 0 114 -50l71 62zM256 457q-111 0 -128 -113l-8 -53
q-8 -57 19.5 -90t84.5 -33q112 0 129 113l7 53q9 57 -19 90t-85 33z" />
    <glyph glyph-name="yen" unicode="&#xa5;" horiz-adv-x="396" 
d="M222 248h96l-4 -34h-106l-10 -66h106l-5 -35h-105l-16 -113h-40l16 113h-105l4 35h105l10 66h-105l5 34h94l-115 353h44q60 -194 101 -341q86 145 197 341h49z" />
    <glyph glyph-name="brokenbar" unicode="&#xa6;" horiz-adv-x="204" 
d="M138 396h-41l47 336h41zM73 -69h-41l47 336h41z" />
    <glyph glyph-name="section" unicode="&#xa7;" horiz-adv-x="466" 
d="M277 695q43 0 117 -19l-7 -38q-61 16 -78 19q-20 2 -36 2q-48 0 -71 -18.5t-30 -61.5l-1 -7q-6 -42 8.5 -69t53.5 -44l102 -44q89 -39 77 -131l-2 -15q-7 -45 -44.5 -76t-104.5 -44q95 -45 80 -144l-2 -13q-17 -110 -145 -110q-47 0 -122 21l8 38q43 -14 83 -21
q20 -2 35 -2q48 0 72 19t31 63l1 6q13 80 -61 111l-102 44q-91 40 -76 138l2 13q7 46 43.5 76.5t98.5 40.5q-92 45 -75 145l2 13q17 108 143 108zM315 382l-63 27q-63 -4 -102 -31t-47 -71l-2 -10q-12 -71 57 -103l58 -25q139 15 155 105l2 11q10 68 -58 97z" />
    <glyph glyph-name="dieresis" unicode="&#xa8;" horiz-adv-x="247" 
d="M90 615l-2 -11q-3 -24 -29 -24q-15 0 -22.5 8t-5.5 21l2 11q3 25 30 25q31 0 27 -30zM217 615l-2 -11q-3 -24 -29 -24q-14 0 -22 8t-6 21l2 11q3 25 30 25q14 0 21.5 -7.5t5.5 -22.5z" />
    <glyph glyph-name="copyright" unicode="&#xa9;" horiz-adv-x="646" 
d="M355 616q125 0 181.5 -57t43.5 -166l-29 -205q-15 -106 -75 -154.5t-183 -48.5q-126 0 -182 59t-41 164l28 205q15 108 75 155.5t182 47.5zM353 581q-103 0 -153.5 -39.5t-62.5 -121.5l-32 -225q-11 -82 38 -128.5t153 -46.5q101 0 153 40t64 121l31 226q11 82 -38.5 128
t-152.5 46zM349 481q36 0 81 -13l-6 -35q-39 13 -73 13q-41 0 -62 -20t-27 -67l-13 -99q-14 -96 64 -96q39 0 79 16l-3 -36q-43 -16 -81 -16q-57 0 -83 33t-16 99l14 99q9 66 39 94t87 28z" />
    <glyph glyph-name="ordfeminine" unicode="&#xaa;" horiz-adv-x="461" 
d="M247 667q37 0 74.5 -22t65.5 -56l10 66h37l-59 -430h-38l5 37l33 152l-2 2l-3 -2q-29 -100 -81 -150.5t-108 -50.5q-132 0 -104 185l16 93q28 176 154 176zM252 630q-93 0 -118 -139l-16 -89q-14 -82 6 -117t68 -35q64 0 114 71t70 204l5 32q-62 73 -129 73zM344 0h-316
l5 35h315z" />
    <glyph glyph-name="guillemotleft" unicode="&#xab;" horiz-adv-x="414" 
d="M121 268l68 -170h-40l-74 170l123 170h40zM242 268l68 -170h-40l-74 170l123 170h40z" />
    <glyph glyph-name="logicalnot" unicode="&#xac;" horiz-adv-x="398" 
d="M345 123h-36l24 165h-304l5 35h340z" />
    <glyph glyph-name="uni00AD" unicode="&#xad;" horiz-adv-x="350" 
d="M272 279h-197l5 34h197z" />
    <glyph glyph-name="registered" unicode="&#xae;" horiz-adv-x="534" 
d="M310 695q95 0 140.5 -51.5t32.5 -142.5l-5 -34q-14 -92 -58 -131t-139 -39q-94 0 -139 51.5t-32 142.5l5 34q14 93 57.5 131.5t137.5 38.5zM309 665q-79 0 -115.5 -30t-45.5 -101l-7 -52q-10 -74 27.5 -114.5t113.5 -40.5q78 0 115.5 29.5t48.5 102.5l7 53
q9 73 -28.5 113t-115.5 40zM309 611q39 0 59 -20t15 -53l-1 -7q-7 -43 -53 -56l42 -91h-35q-14 37 -38 85q-26 0 -44 3l-12 -88h-31l32 223q36 4 66 4zM307 583q-16 0 -38 -2l-11 -82q19 -3 38 -3q50 0 56 37l1 5q4 21 -8 33t-38 12z" />
    <glyph glyph-name="macron" unicode="&#xaf;" horiz-adv-x="257" 
d="M35 634h192l-5 -39h-192z" />
    <glyph glyph-name="degree" unicode="&#xb0;" horiz-adv-x="399" 
d="M248 695q76 0 112 -45t25 -127l-4 -34q-12 -83 -53 -121t-114 -38q-74 0 -111 45t-26 127l5 34q11 81 51 120t115 39zM246 660q-57 0 -87.5 -29t-39.5 -96l-4 -34q-9 -67 17.5 -101.5t82.5 -34.5q110 0 127 125l4 34q9 68 -17 102t-83 34z" />
    <glyph glyph-name="plusminus" unicode="&#xb1;" horiz-adv-x="398" 
d="M222 324h148l-5 -36h-148l-24 -165h-36l24 165h-149l5 36h148l23 164h37zM326 0h-334l4 36h334z" />
    <glyph glyph-name="twosuperior" unicode="&#xb2;" horiz-adv-x="400" 
d="M264 760q53 0 80.5 -30.5t18.5 -82.5l-1 -7q-9 -63 -81 -135l-140 -141h188l-4 -33h-236l4 29l176 182q50 50 57 99l1 8q11 78 -71 78q-46 0 -98 -16l4 34q57 15 102 15z" />
    <glyph glyph-name="threesuperior" unicode="&#xb3;" horiz-adv-x="400" 
d="M251 760q55 0 81 -28t19 -81l-1 -7q-5 -32 -25 -58t-51 -38q32 -11 47.5 -39t10.5 -65l-1 -7q-16 -114 -132 -114q-43 0 -104 16l5 33q58 -18 102 -18q79 0 91 85l1 7q6 39 -15 63t-62 24h-72l4 30h73q39 0 63 22t28 59l1 9q9 76 -69 76q-40 0 -96 -15l4 32q59 14 98 14z
" />
    <glyph glyph-name="acute" unicode="&#xb4;" horiz-adv-x="190" 
d="M30 546l82 120h48l-93 -120h-37z" />
    <glyph glyph-name="mu" unicode="&#xb5;" horiz-adv-x="493" 
d="M368 0h-38l4 30l37 168l-2 2l-3 -2q-30 -104 -81 -157t-111 -53q-64 0 -86 51q-11 -72 -45 -224h-40q33 133 55 281l55 392h40l-45 -311q-12 -84 7 -118t66 -34q66 0 118.5 75t71.5 212l25 176h40z" />
    <glyph glyph-name="paragraph" unicode="&#xb6;" horiz-adv-x="546" 
d="M181 -185h-40l70 494h-56q-121 0 -101 143l16 116q8 61 40 88t96 27h97zM392 -185h-40l122 868h40zM258 646h-55q-47 0 -68 -19.5t-28 -73.5l-14 -100q-7 -60 9 -83.5t60 -23.5h53z" />
    <glyph glyph-name="periodcentered" unicode="&#xb7;" horiz-adv-x="198" 
d="M61 259q34 0 31 -31l-2 -13q-5 -26 -33 -26q-17 0 -25.5 8t-6.5 22l2 12q3 28 34 28z" />
    <glyph glyph-name="cedilla" unicode="&#xb8;" horiz-adv-x="202" 
d="M98 -43h8q34 0 52 -21.5t13 -56.5l-1 -7q-12 -69 -81 -69q-25 0 -59 10l4 30q30 -10 56 -10q20 0 30.5 9.5t14.5 31.5l1 6q9 52 -47 52h-29l1 14l29 63h31z" />
    <glyph glyph-name="onesuperior" unicode="&#xb9;" horiz-adv-x="400" 
d="M242 364h90l-4 -33h-231l4 33h102l49 350l-111 -45l-5 34l127 49h33z" />
    <glyph glyph-name="ordmasculine" unicode="&#xba;" horiz-adv-x="485" 
d="M432 479l-12 -87q-13 -91 -56 -134t-125 -43q-84 0 -121 48t-24 141l12 87q14 93 55.5 134.5t125.5 41.5q82 0 120 -48.5t25 -139.5zM378 386l14 102q10 69 -18.5 106t-89.5 37q-62 0 -94.5 -32t-42.5 -103l-15 -100q-10 -72 18 -108.5t89 -36.5q120 0 139 135zM44 34
h327l-5 -35h-327z" />
    <glyph glyph-name="guillemotright" unicode="&#xbb;" horiz-adv-x="414" 
d="M214 268l-122 -170h-40l116 170l-69 170h40zM335 268l-122 -170h-40l116 170l-69 170h40z" />
    <glyph glyph-name="onequarter" unicode="&#xbc;" horiz-adv-x="964" 
d="M222 214h90l-4 -33h-231l4 33h102l49 350l-111 -45l-5 34l127 49h33zM296 0h-39l389 601h39zM634 123h163l1 7l22 156h37l-23 -163h56l-4 -33h-56l-13 -90h-38l13 90h-194l-8 22l143 309h37z" />
    <glyph glyph-name="onehalf" unicode="&#xbd;" horiz-adv-x="929" 
d="M222 214h90l-4 -33h-231l4 33h102l49 350l-111 -45l-5 34l127 49h33zM297 0h-39l389 601h39zM747 429q53 0 80.5 -30.5t18.5 -82.5l-1 -7q-9 -63 -81 -135l-140 -141h188l-4 -33h-236l4 29l176 182q50 50 57 99l1 8q11 78 -71 78q-46 0 -98 -16l4 34q57 15 102 15z" />
    <glyph glyph-name="threequarters" unicode="&#xbe;" horiz-adv-x="1140" 
d="M225 610q55 0 81 -28t19 -81l-1 -7q-5 -32 -25 -58t-51 -38q32 -11 47.5 -39t10.5 -65l-1 -7q-16 -114 -132 -114q-43 0 -104 16l5 33q58 -18 102 -18q79 0 91 85l1 7q6 39 -15 63t-62 24h-72l4 30h73q39 0 63 22t28 59l1 9q9 76 -69 76q-40 0 -96 -15l4 32q59 14 98 14z
M333 0h-39l389 601h39zM674 123h163l1 7l22 156h37l-23 -163h56l-4 -33h-56l-13 -90h-38l13 90h-194l-8 22l143 309h37z" />
    <glyph glyph-name="questiondown" unicode="&#xbf;" horiz-adv-x="395" 
d="M252 440q-34 0 -31 31l2 13q5 26 33 26q18 0 26 -8t6 -22l-2 -12q-3 -28 -34 -28zM154 -197q-151 0 -134 149l1 10q9 73 83 146l55 55q27 27 37.5 49t15.5 61l3 25h38l-3 -26q-5 -45 -19.5 -74t-48.5 -63l-61 -60q-53 -53 -60 -115l-1 -9q-14 -113 101 -113q60 0 137 28
l-5 -39q-83 -24 -139 -24z" />
    <glyph glyph-name="Agrave" unicode="&#xc0;" horiz-adv-x="512" 
d="M462 0h-45q-22 114 -34 171h-284q-50 -114 -76 -171h-44l290 655h54zM290 616q-57 -135 -175 -407h260q-56 272 -85 407zM243 817l72 -111h-36l-83 111h47z" />
    <glyph glyph-name="Aacute" unicode="&#xc1;" horiz-adv-x="512" 
d="M462 0h-45q-22 114 -34 171h-284q-50 -114 -76 -171h-44l290 655h54zM290 616q-57 -135 -175 -407h260q-56 272 -85 407zM279 706l77 111h47l-88 -111h-36z" />
    <glyph glyph-name="Acircumflex" unicode="&#xc2;" horiz-adv-x="512" 
d="M462 0h-45q-22 114 -34 171h-284q-50 -114 -76 -171h-44l290 655h54zM290 616q-57 -135 -175 -407h260q-56 272 -85 407zM428 755l-3 -35l-116 52l-128 -52l4 36l130 58z" />
    <glyph glyph-name="Atilde" unicode="&#xc3;" horiz-adv-x="512" 
d="M462 0h-45q-22 114 -34 171h-284q-50 -114 -76 -171h-44l290 655h54zM290 616q-57 -135 -175 -407h260q-56 272 -85 407zM436 784l-5 -36q-36 -24 -78 -24q-17 0 -52.5 12.5t-50.5 12.5t-33.5 -5t-30.5 -10l-11 -5l4 35q35 24 77 24q23 0 57 -12.5t46 -12.5q15 0 34 5.5
t31 10.5z" />
    <glyph glyph-name="Adieresis" unicode="&#xc4;" horiz-adv-x="512" 
d="M462 0h-45q-22 114 -34 171h-284q-50 -114 -76 -171h-44l290 655h54zM290 616q-57 -135 -175 -407h260q-56 272 -85 407zM269 765l-2 -11q-3 -24 -28 -24q-15 0 -23 8t-6 21l2 11q3 25 29 25q33 0 28 -30zM396 765l-2 -11q-3 -24 -28 -24q-15 0 -23 8t-6 21l2 11
q3 25 29 25q32 0 28 -30z" />
    <glyph glyph-name="Aring" unicode="&#xc5;" horiz-adv-x="512" 
d="M310 798q42 0 65 -20.5t23 -56.5q0 -34 -18.5 -58t-51.5 -31l134 -632h-45q-6 28 -17 85t-17 86h-284q-13 -29 -38 -86t-38 -85h-44l281 635q-50 16 -50 74q0 39 27 64t73 25zM309 771q-32 0 -49.5 -16.5t-17.5 -44.5q0 -25 15 -39.5t43 -14.5q65 0 65 64q0 23 -15 37
t-41 14zM375 209l-84 407q-58 -135 -176 -407h260z" />
    <glyph glyph-name="AE" unicode="&#xc6;" horiz-adv-x="773" 
d="M736 618h-274l-33 -266h254l-5 -38h-254l-34 -277h274l-3 -37h-314l20 172h-245q-102 -153 -115 -172h-45l440 655h339zM372 209l51 416q-108 -165 -277 -416h226z" />
    <glyph glyph-name="Ccedilla" unicode="&#xc7;" horiz-adv-x="476" 
d="M299 667q68 0 147 -27l-6 -39q-81 29 -147 29q-69 0 -104.5 -38t-47.5 -134l-33 -267q-20 -165 129 -165q52 0 139 32l-4 -41q-71 -24 -123 -28l-14 -32h8q35 0 53 -22t12 -56l-1 -7q-10 -69 -81 -69q-25 0 -59 10l4 30q32 -10 56 -10q20 0 30.5 9.5t14.5 31.5l1 6
q9 52 -47 52h-29l1 14l20 42q-173 8 -149 212l31 254q15 120 60.5 166.5t138.5 46.5z" />
    <glyph glyph-name="Egrave" unicode="&#xc8;" horiz-adv-x="477" 
d="M131 655h314l-5 -37h-274l-33 -266h254l-5 -38h-254l-34 -277h274l-3 -37h-314zM231 817l72 -111h-36l-83 111h47z" />
    <glyph glyph-name="Eacute" unicode="&#xc9;" horiz-adv-x="477" 
d="M131 655h314l-5 -37h-274l-33 -266h254l-5 -38h-254l-34 -277h274l-3 -37h-314zM267 706l77 111h47l-88 -111h-36z" />
    <glyph glyph-name="Ecircumflex" unicode="&#xca;" horiz-adv-x="477" 
d="M131 655h314l-5 -37h-274l-33 -266h254l-5 -38h-254l-34 -277h274l-3 -37h-314zM416 755l-3 -35l-116 52l-128 -52l4 36l130 58z" />
    <glyph glyph-name="Edieresis" unicode="&#xcb;" horiz-adv-x="477" 
d="M131 655h314l-5 -37h-274l-33 -266h254l-5 -38h-254l-34 -277h274l-3 -37h-314zM257 765l-2 -11q-3 -24 -28 -24q-15 0 -23 8t-6 21l2 11q3 25 29 25q33 0 28 -30zM384 765l-2 -11q-3 -24 -28 -24q-15 0 -23 8t-6 21l2 11q3 25 29 25q32 0 28 -30z" />
    <glyph glyph-name="Igrave" unicode="&#xcc;" horiz-adv-x="213" 
d="M131 655h40l-80 -655h-40zM99 817l72 -111h-36l-83 111h47z" />
    <glyph glyph-name="Iacute" unicode="&#xcd;" horiz-adv-x="213" 
d="M131 655h40l-80 -655h-40zM135 706l77 111h47l-88 -111h-36z" />
    <glyph glyph-name="Icircumflex" unicode="&#xce;" horiz-adv-x="213" 
d="M131 655h40l-80 -655h-40zM284 755l-3 -35l-116 52l-128 -52l4 36l130 58z" />
    <glyph glyph-name="Idieresis" unicode="&#xcf;" horiz-adv-x="213" 
d="M131 655h40l-80 -655h-40zM125 765l-2 -11q-3 -24 -28 -24q-15 0 -23 8t-6 21l2 11q3 25 29 25q33 0 28 -30zM252 765l-2 -11q-3 -24 -28 -24q-15 0 -23 8t-6 21l2 11q3 25 29 25q32 0 28 -30z" />
    <glyph glyph-name="Eth" unicode="&#xd0;" horiz-adv-x="575" 
d="M293 667q119 0 175.5 -69t40.5 -201l-21 -172q-29 -237 -272 -237q-73 0 -162 7l40 326h-80l5 36h79l38 304q90 6 157 6zM291 631q-47 0 -119 -5l-34 -269h148l-5 -36h-147l-36 -290q64 -6 122 -6q98 0 157 50t72 147l22 175q27 234 -180 234z" />
    <glyph glyph-name="Ntilde" unicode="&#xd1;" horiz-adv-x="582" 
d="M165 607l-74 -607h-40l80 655h58q125 -300 237 -603l74 603h40l-80 -655h-55zM477 784l-5 -36q-36 -24 -78 -24q-17 0 -52.5 12.5t-50.5 12.5t-33.5 -5t-29.5 -10l-12 -5l4 35q35 24 77 24q23 0 57 -12.5t46 -12.5q15 0 34 5.5t31 10.5z" />
    <glyph glyph-name="Ograve" unicode="&#xd2;" horiz-adv-x="576" 
d="M322 667q105 0 154.5 -55.5t37.5 -157.5l-32 -259q-13 -105 -66 -156t-155 -51q-104 0 -154 56t-37 161l32 256q13 110 65 158t155 48zM318 631q-82 0 -124 -39t-53 -129l-32 -264q-10 -86 30 -130.5t123 -44.5q82 0 125 41t54 128l32 266q11 86 -29 129t-126 43z
M273 817l72 -111h-36l-83 111h47z" />
    <glyph glyph-name="Oacute" unicode="&#xd3;" horiz-adv-x="576" 
d="M322 667q105 0 154.5 -55.5t37.5 -157.5l-32 -259q-13 -105 -66 -156t-155 -51q-104 0 -154 56t-37 161l32 256q13 110 65 158t155 48zM318 631q-82 0 -124 -39t-53 -129l-32 -264q-10 -86 30 -130.5t123 -44.5q82 0 125 41t54 128l32 266q11 86 -29 129t-126 43z
M309 706l77 111h47l-88 -111h-36z" />
    <glyph glyph-name="Ocircumflex" unicode="&#xd4;" horiz-adv-x="576" 
d="M322 667q105 0 154.5 -55.5t37.5 -157.5l-32 -259q-13 -105 -66 -156t-155 -51q-104 0 -154 56t-37 161l32 256q13 110 65 158t155 48zM318 631q-82 0 -124 -39t-53 -129l-32 -264q-10 -86 30 -130.5t123 -44.5q82 0 125 41t54 128l32 266q11 86 -29 129t-126 43z
M458 755l-3 -35l-116 52l-128 -52l4 36l130 58z" />
    <glyph glyph-name="Otilde" unicode="&#xd5;" horiz-adv-x="576" 
d="M322 667q105 0 154.5 -55.5t37.5 -157.5l-32 -259q-13 -105 -66 -156t-155 -51q-104 0 -154 56t-37 161l32 256q13 110 65 158t155 48zM318 631q-82 0 -124 -39t-53 -129l-32 -264q-10 -86 30 -130.5t123 -44.5q82 0 125 41t54 128l32 266q11 86 -29 129t-126 43z
M466 784l-5 -36q-36 -24 -78 -24q-17 0 -52.5 12.5t-50.5 12.5t-33.5 -5t-30.5 -10l-11 -5l4 35q35 24 77 24q23 0 57 -12.5t46 -12.5q15 0 34 5.5t31 10.5z" />
    <glyph glyph-name="Odieresis" unicode="&#xd6;" horiz-adv-x="576" 
d="M322 667q105 0 154.5 -55.5t37.5 -157.5l-32 -259q-13 -105 -66 -156t-155 -51q-104 0 -154 56t-37 161l32 256q13 110 65 158t155 48zM318 631q-82 0 -124 -39t-53 -129l-32 -264q-10 -86 30 -130.5t123 -44.5q82 0 125 41t54 128l32 266q11 86 -29 129t-126 43z
M299 765l-2 -11q-3 -24 -28 -24q-15 0 -23 8t-6 21l2 11q3 25 29 25q33 0 28 -30zM426 765l-2 -11q-3 -24 -28 -24q-15 0 -23 8t-6 21l2 11q3 25 29 25q32 0 28 -30z" />
    <glyph glyph-name="multiply" unicode="&#xd7;" horiz-adv-x="398" 
d="M360 423l-133 -118l99 -116l-30 -25l-100 116l-132 -116l-21 25l132 116l-100 117l29 25l100 -116l134 117z" />
    <glyph glyph-name="Oslash" unicode="&#xd8;" horiz-adv-x="576" 
d="M572 705l-80 -115q32 -56 20 -145l-31 -248q-13 -108 -65.5 -158.5t-155.5 -50.5q-98 0 -145 46l-61 -84h-42l79 112q-33 54 -21 148l31 249q14 112 65 160t155 48q100 0 149 -49l60 87h42zM318 631q-81 0 -123.5 -39t-53.5 -129l-32 -267q-7 -59 11 -97l328 485
q-39 47 -130 47zM464 552l-328 -483q39 -45 126 -45q82 0 125 41t54 128l32 266q7 54 -9 93z" />
    <glyph glyph-name="Ugrave" unicode="&#xd9;" horiz-adv-x="578" 
d="M535 655l-57 -462q-13 -104 -66 -154.5t-148 -50.5q-101 0 -151.5 54.5t-37.5 159.5l56 453h41l-57 -460q-11 -82 29.5 -125.5t123.5 -43.5q147 0 169 163l57 466h41zM277 817l72 -111h-36l-83 111h47z" />
    <glyph glyph-name="Uacute" unicode="&#xda;" horiz-adv-x="578" 
d="M535 655l-57 -462q-13 -104 -66 -154.5t-148 -50.5q-101 0 -151.5 54.5t-37.5 159.5l56 453h41l-57 -460q-11 -82 29.5 -125.5t123.5 -43.5q147 0 169 163l57 466h41zM313 706l77 111h47l-88 -111h-36z" />
    <glyph glyph-name="Ucircumflex" unicode="&#xdb;" horiz-adv-x="578" 
d="M535 655l-57 -462q-13 -104 -66 -154.5t-148 -50.5q-101 0 -151.5 54.5t-37.5 159.5l56 453h41l-57 -460q-11 -82 29.5 -125.5t123.5 -43.5q147 0 169 163l57 466h41zM462 755l-3 -35l-116 52l-128 -52l4 36l130 58z" />
    <glyph glyph-name="Udieresis" unicode="&#xdc;" horiz-adv-x="578" 
d="M535 655l-57 -462q-13 -104 -66 -154.5t-148 -50.5q-101 0 -151.5 54.5t-37.5 159.5l56 453h41l-57 -460q-11 -82 29.5 -125.5t123.5 -43.5q147 0 169 163l57 466h41zM303 765l-2 -11q-3 -24 -28 -24q-15 0 -23 8t-6 21l2 11q3 25 29 25q33 0 28 -30zM430 765l-2 -11
q-3 -24 -28 -24q-15 0 -23 8t-6 21l2 11q3 25 29 25q32 0 28 -30z" />
    <glyph glyph-name="Yacute" unicode="&#xdd;" horiz-adv-x="463" 
d="M242 225l-27 -225h-40l27 225l-140 430h44q68 -208 119 -385q101 173 214 385h49zM253 706l77 111h47l-88 -111h-36z" />
    <glyph glyph-name="Thorn" unicode="&#xde;" horiz-adv-x="496" 
d="M174 655l-16 -121q53 5 112 5q109 0 162 -52t42 -145l-1 -12q-24 -191 -232 -191q-52 0 -131 18l-19 -157h-40l83 655h40zM265 502q-59 0 -113 -4l-38 -307q75 -16 127 -16q169 0 191 158l1 9q10 76 -33 118t-135 42z" />
    <glyph glyph-name="germandbls" unicode="&#xdf;" horiz-adv-x="489" 
d="M286 695q69 0 107 -37.5t31 -93.5l-2 -14q-4 -31 -21 -54.5t-34.5 -35.5t-34 -30t-19.5 -39l-2 -18q-5 -39 26 -65l43 -33q37 -29 49 -62t5 -83l-3 -18q-8 -64 -36.5 -94t-80.5 -30q-53 0 -119 28l8 37q52 -21 82 -27q14 -2 30 -2q63 0 77 89l3 19q11 72 -41 111l-44 34
q-47 36 -40 93l4 22q4 30 21 52.5t34.5 33.5t34 30.5t19.5 44.5l1 9q5 42 -22 69.5t-79 27.5q-53 0 -80 -29t-38 -106l-73 -524h-40l63 454h-70l3 25l72 7l4 29q14 101 51.5 140.5t110.5 39.5z" />
    <glyph glyph-name="agrave" unicode="&#xe0;" horiz-adv-x="484" 
d="M239 500q77 0 141 -79l9 67h37l-68 -488h-37l5 39l35 159l-2 2l-3 -2q-30 -105 -81.5 -157.5t-111.5 -52.5q-62 0 -91 44.5t-14 139.5l23 151q28 177 158 177zM242 463q-98 0 -120 -139l-24 -147q-14 -83 6.5 -117.5t68.5 -34.5q64 0 115 71t71 204l13 90q-61 73 -130 73
zM205 666l82 -120h-37l-93 120h48z" />
    <glyph glyph-name="aacute" unicode="&#xe1;" horiz-adv-x="484" 
d="M239 500q77 0 141 -79l9 67h37l-68 -488h-37l5 39l35 159l-2 2l-3 -2q-30 -105 -81.5 -157.5t-111.5 -52.5q-62 0 -91 44.5t-14 139.5l23 151q28 177 158 177zM242 463q-98 0 -120 -139l-24 -147q-14 -83 6.5 -117.5t68.5 -34.5q64 0 115 71t71 204l13 90q-61 73 -130 73
zM250 546l82 120h48l-93 -120h-37z" />
    <glyph glyph-name="acircumflex" unicode="&#xe2;" horiz-adv-x="484" 
d="M239 500q77 0 141 -79l9 67h37l-68 -488h-37l5 39l35 159l-2 2l-3 -2q-30 -105 -81.5 -157.5t-111.5 -52.5q-62 0 -91 44.5t-14 139.5l23 151q28 177 158 177zM242 463q-98 0 -120 -139l-24 -147q-14 -83 6.5 -117.5t68.5 -34.5q64 0 115 71t71 204l13 90q-61 73 -130 73
zM392 597l-5 -35l-105 61l-125 -61l5 38l124 64z" />
    <glyph glyph-name="atilde" unicode="&#xe3;" horiz-adv-x="484" 
d="M239 500q77 0 141 -79l9 67h37l-68 -488h-37l5 39l35 159l-2 2l-3 -2q-30 -105 -81.5 -157.5t-111.5 -52.5q-62 0 -91 44.5t-14 139.5l23 151q28 177 158 177zM242 463q-98 0 -120 -139l-24 -147q-14 -83 6.5 -117.5t68.5 -34.5q64 0 115 71t71 204l13 90q-61 73 -130 73
zM389 638l-5 -36q-29 -23 -70 -23q-17 0 -43.5 12.5t-40.5 12.5q-15 0 -32.5 -5.5t-27.5 -10.5l-10 -6l5 35q29 25 71 25q23 0 47 -12.5t36 -12.5q15 0 32.5 5.5t27.5 10.5z" />
    <glyph glyph-name="adieresis" unicode="&#xe4;" horiz-adv-x="484" 
d="M239 500q77 0 141 -79l9 67h37l-68 -488h-37l5 39l35 159l-2 2l-3 -2q-30 -105 -81.5 -157.5t-111.5 -52.5q-62 0 -91 44.5t-14 139.5l23 151q28 177 158 177zM242 463q-98 0 -120 -139l-24 -147q-14 -83 6.5 -117.5t68.5 -34.5q64 0 115 71t71 204l13 90q-61 73 -130 73
zM239 615l-2 -11q-3 -24 -29 -24q-14 0 -22 8t-6 21l2 11q3 25 30 25q32 0 27 -30zM366 615l-2 -11q-3 -24 -29 -24q-15 0 -22.5 8t-5.5 21l2 11q3 25 30 25q31 0 27 -30z" />
    <glyph glyph-name="aring" unicode="&#xe5;" horiz-adv-x="484" 
d="M239 500q77 0 141 -79l9 67h37l-68 -488h-37l5 39l35 159l-2 2l-3 -2q-30 -105 -81.5 -157.5t-111.5 -52.5q-62 0 -91 44.5t-14 139.5l23 151q28 177 158 177zM242 463q-98 0 -120 -139l-24 -147q-14 -83 6.5 -117.5t68.5 -34.5q64 0 115 71t71 204l13 90q-61 73 -130 73
zM281 710q42 0 65.5 -20t23.5 -56q0 -41 -26.5 -67t-72.5 -26q-42 0 -66 19.5t-24 57.5q0 42 26.5 67t73.5 25zM280 683q-66 0 -66 -62q0 -24 15.5 -38.5t43.5 -14.5q65 0 65 64q0 24 -15 37.5t-43 13.5z" />
    <glyph glyph-name="ae" unicode="&#xe6;" horiz-adv-x="729" 
d="M557 500q60 0 93 -30.5t32 -83.5q-2 -82 -77.5 -138.5t-221.5 -65.5l-2 -20q-10 -75 13.5 -106t85.5 -31q63 0 139 39l-6 -40q-77 -36 -138 -36q-77 0 -109.5 39t-22.5 124q-31 -81 -78.5 -122t-101.5 -41q-64 0 -92 46.5t-14 137.5l24 152q28 176 161 176q43 0 84.5 -27
t69.5 -71q56 98 161 98zM555 464q-58 0 -102.5 -50t-56.5 -144l-8 -59q76 8 146 31q53 29 80.5 66t27.5 74q0 39 -23.5 60.5t-63.5 21.5zM247 463q-102 0 -125 -139l-24 -147q-24 -152 75 -152q61 0 112 63.5t72 181.5q6 54 25 104q-24 41 -61 65t-74 24z" />
    <glyph glyph-name="ccedilla" unicode="&#xe7;" horiz-adv-x="398" 
d="M243 500q47 0 110 -17l-7 -37q-59 18 -104 18q-102 0 -121 -129l-22 -166q-20 -144 91 -144q49 0 108 26l-4 -39q-58 -22 -106 -24l-13 -31h8q35 0 53 -22t12 -56l-1 -7q-11 -69 -81 -69q-25 0 -59 10l4 30q32 -10 56 -10q20 0 30.5 9.5t14.5 31.5l1 6q9 52 -47 52h-29
l1 14l21 44q-59 8 -85.5 53t-15.5 125l23 164q24 168 162 168z" />
    <glyph glyph-name="egrave" unicode="&#xe8;" horiz-adv-x="446" 
d="M275 500q59 0 92.5 -30.5t32.5 -83.5q-2 -81 -77.5 -138t-221.5 -66l-2 -15q-10 -78 13.5 -110t85.5 -32t138 39l-6 -40q-77 -36 -138 -36q-82 0 -113.5 45t-18.5 143l12 94q16 114 70.5 172t132.5 58zM272 464q-58 0 -102.5 -50t-56.5 -144l-8 -59q76 8 146 31
q53 29 80.5 66t27.5 74q0 39 -23.5 60.5t-63.5 21.5zM209 666l82 -120h-37l-93 120h48z" />
    <glyph glyph-name="eacute" unicode="&#xe9;" horiz-adv-x="446" 
d="M275 500q59 0 92.5 -30.5t32.5 -83.5q-2 -81 -77.5 -138t-221.5 -66l-2 -15q-10 -78 13.5 -110t85.5 -32t138 39l-6 -40q-77 -36 -138 -36q-82 0 -113.5 45t-18.5 143l12 94q16 114 70.5 172t132.5 58zM272 464q-58 0 -102.5 -50t-56.5 -144l-8 -59q76 8 146 31
q53 29 80.5 66t27.5 74q0 39 -23.5 60.5t-63.5 21.5zM254 546l82 120h48l-93 -120h-37z" />
    <glyph glyph-name="ecircumflex" unicode="&#xea;" horiz-adv-x="446" 
d="M275 500q59 0 92.5 -30.5t32.5 -83.5q-2 -81 -77.5 -138t-221.5 -66l-2 -15q-10 -78 13.5 -110t85.5 -32t138 39l-6 -40q-77 -36 -138 -36q-82 0 -113.5 45t-18.5 143l12 94q16 114 70.5 172t132.5 58zM272 464q-58 0 -102.5 -50t-56.5 -144l-8 -59q76 8 146 31
q53 29 80.5 66t27.5 74q0 39 -23.5 60.5t-63.5 21.5zM396 597l-5 -35l-105 61l-125 -61l5 38l124 64z" />
    <glyph glyph-name="edieresis" unicode="&#xeb;" horiz-adv-x="446" 
d="M275 500q59 0 92.5 -30.5t32.5 -83.5q-2 -81 -77.5 -138t-221.5 -66l-2 -15q-10 -78 13.5 -110t85.5 -32t138 39l-6 -40q-77 -36 -138 -36q-82 0 -113.5 45t-18.5 143l12 94q16 114 70.5 172t132.5 58zM272 464q-58 0 -102.5 -50t-56.5 -144l-8 -59q76 8 146 31
q53 29 80.5 66t27.5 74q0 39 -23.5 60.5t-63.5 21.5zM243 615l-2 -11q-3 -24 -29 -24q-14 0 -22 8t-6 21l2 11q3 25 30 25q32 0 27 -30zM370 615l-2 -11q-3 -24 -29 -24q-15 0 -22.5 8t-5.5 21l2 11q3 25 30 25q14 0 21.5 -7.5t5.5 -22.5z" />
    <glyph glyph-name="igrave" unicode="&#xec;" horiz-adv-x="211" 
d="M114 488h40l-68 -488h-40zM77 666l82 -120h-37l-93 120h48z" />
    <glyph glyph-name="iacute" unicode="&#xed;" horiz-adv-x="211" 
d="M114 488h40l-68 -488h-40zM122 546l82 120h48l-93 -120h-37z" />
    <glyph glyph-name="icircumflex" unicode="&#xee;" horiz-adv-x="211" 
d="M114 488h40l-68 -488h-40zM264 597l-5 -35l-105 61l-125 -61l5 38l124 64z" />
    <glyph glyph-name="idieresis" unicode="&#xef;" horiz-adv-x="211" 
d="M114 488h40l-68 -488h-40zM111 615l-2 -11q-3 -24 -29 -24q-14 0 -22 8t-6 21l2 11q3 25 30 25q32 0 27 -30zM238 615l-2 -11q-3 -24 -29 -24q-15 0 -22.5 8t-5.5 21l2 11q3 25 30 25q31 0 27 -30z" />
    <glyph glyph-name="eth" unicode="&#xf0;" horiz-adv-x="494" 
d="M178 661l4 34q135 0 196 -93l88 24l-4 -29l-69 -20q42 -91 21 -250l-25 -175q-23 -164 -171 -164q-79 0 -119.5 49t-28.5 139l13 97q21 166 146 166q48 0 85.5 -33t59.5 -81l4 35q18 127 -23 205l-133 -37l5 31l110 31q-52 71 -159 71zM235 402q-46 0 -73.5 -31
t-38.5 -110l-13 -90q-10 -68 21 -107.5t88 -39.5q112 0 129 120l20 137q-19 46 -56.5 83.5t-76.5 37.5z" />
    <glyph glyph-name="ntilde" unicode="&#xf1;" horiz-adv-x="493" 
d="M327 500q57 0 79 -41.5t8 -140.5l-45 -318h-40l46 322q11 78 -4 109t-54 31q-68 0 -133 -111.5t-91 -297.5l-7 -53h-40l68 488h37l-12 -83l-33 -166l2 -2l3 2q36 126 96 193.5t120 67.5zM400 638l-5 -36q-29 -23 -70 -23q-17 0 -43.5 12.5t-40.5 12.5q-15 0 -32.5 -5.5
t-27.5 -10.5l-10 -6l5 35q29 25 71 25q23 0 47 -12.5t36 -12.5q15 0 32.5 5.5t27.5 10.5z" />
    <glyph glyph-name="ograve" unicode="&#xf2;" horiz-adv-x="480" 
d="M410 317l-20 -153q-24 -176 -183 -176q-84 0 -122.5 47.5t-25.5 137.5l21 153q13 90 56.5 132t125.5 42q81 0 121 -48.5t27 -134.5zM348 159l22 161q10 69 -20 106.5t-91 37.5q-63 0 -96 -32t-43 -103l-22 -160q-10 -71 19 -108t90 -37q122 0 141 135zM206 666l82 -120
h-37l-93 120h48z" />
    <glyph glyph-name="oacute" unicode="&#xf3;" horiz-adv-x="480" 
d="M410 317l-20 -153q-24 -176 -183 -176q-84 0 -122.5 47.5t-25.5 137.5l21 153q13 90 56.5 132t125.5 42q81 0 121 -48.5t27 -134.5zM348 159l22 161q10 69 -20 106.5t-91 37.5q-63 0 -96 -32t-43 -103l-22 -160q-10 -71 19 -108t90 -37q122 0 141 135zM251 546l82 120h48
l-93 -120h-37z" />
    <glyph glyph-name="ocircumflex" unicode="&#xf4;" horiz-adv-x="480" 
d="M410 317l-20 -153q-24 -176 -183 -176q-84 0 -122.5 47.5t-25.5 137.5l21 153q13 90 56.5 132t125.5 42q81 0 121 -48.5t27 -134.5zM348 159l22 161q10 69 -20 106.5t-91 37.5q-63 0 -96 -32t-43 -103l-22 -160q-10 -71 19 -108t90 -37q122 0 141 135zM393 597l-5 -35
l-105 61l-125 -61l5 38l124 64z" />
    <glyph glyph-name="otilde" unicode="&#xf5;" horiz-adv-x="480" 
d="M410 317l-20 -153q-24 -176 -183 -176q-84 0 -122.5 47.5t-25.5 137.5l21 153q13 90 56.5 132t125.5 42q81 0 121 -48.5t27 -134.5zM348 159l22 161q10 69 -20 106.5t-91 37.5q-63 0 -96 -32t-43 -103l-22 -160q-10 -71 19 -108t90 -37q122 0 141 135zM390 638l-5 -36
q-29 -23 -70 -23q-17 0 -43.5 12.5t-40.5 12.5q-15 0 -32.5 -5.5t-27.5 -10.5l-10 -6l5 35q29 25 71 25q23 0 47 -12.5t36 -12.5q15 0 32.5 5.5t27.5 10.5z" />
    <glyph glyph-name="odieresis" unicode="&#xf6;" horiz-adv-x="480" 
d="M410 317l-20 -153q-24 -176 -183 -176q-84 0 -122.5 47.5t-25.5 137.5l21 153q13 90 56.5 132t125.5 42q81 0 121 -48.5t27 -134.5zM348 159l22 161q10 69 -20 106.5t-91 37.5q-63 0 -96 -32t-43 -103l-22 -160q-10 -71 19 -108t90 -37q122 0 141 135zM240 615l-2 -11
q-3 -24 -29 -24q-15 0 -22.5 8t-5.5 21l2 11q3 25 30 25q31 0 27 -30zM367 615l-2 -11q-3 -24 -29 -24q-14 0 -22 8t-6 21l2 11q3 25 30 25q14 0 21.5 -7.5t5.5 -22.5z" />
    <glyph glyph-name="divide" unicode="&#xf7;" horiz-adv-x="398" 
d="M225 489q31 0 28 -30l-1 -11q-5 -26 -34 -26q-31 0 -28 29l2 11q3 27 33 27zM365 288h-333l5 35h333zM184 189q32 0 27 -30l-1 -11q-5 -26 -34 -26q-31 0 -28 29l2 11q5 27 34 27z" />
    <glyph glyph-name="oslash" unicode="&#xf8;" horiz-adv-x="481" 
d="M484 538l-86 -112q22 -45 12 -109l-21 -153q-24 -176 -182 -176q-76 0 -115 39l-60 -78h-41l81 106q-23 46 -13 118l21 153q13 90 56.5 132t125.5 42q77 0 117 -45l64 83h41zM259 464q-63 0 -96 -32t-43 -103l-22 -159q-6 -46 6 -77l250 327q-29 44 -95 44zM365 387
l-248 -325q29 -38 90 -38t95.5 32.5t44.5 102.5l22 158q6 39 -4 70z" />
    <glyph glyph-name="ugrave" unicode="&#xf9;" horiz-adv-x="494" 
d="M369 0h-38l4 30l37 168l-2 2l-3 -2q-30 -105 -81 -157.5t-112 -52.5q-132 0 -106 184l46 316h40l-45 -311q-12 -84 7 -118t66 -34q66 0 118.5 75t71.5 212l25 176h40zM219 666l82 -120h-37l-93 120h48z" />
    <glyph glyph-name="uacute" unicode="&#xfa;" horiz-adv-x="494" 
d="M369 0h-38l4 30l37 168l-2 2l-3 -2q-30 -105 -81 -157.5t-112 -52.5q-132 0 -106 184l46 316h40l-45 -311q-12 -84 7 -118t66 -34q66 0 118.5 75t71.5 212l25 176h40zM264 546l82 120h48l-93 -120h-37z" />
    <glyph glyph-name="ucircumflex" unicode="&#xfb;" horiz-adv-x="494" 
d="M369 0h-38l4 30l37 168l-2 2l-3 -2q-30 -105 -81 -157.5t-112 -52.5q-132 0 -106 184l46 316h40l-45 -311q-12 -84 7 -118t66 -34q66 0 118.5 75t71.5 212l25 176h40zM406 597l-5 -35l-105 61l-125 -61l5 38l124 64z" />
    <glyph glyph-name="udieresis" unicode="&#xfc;" horiz-adv-x="494" 
d="M369 0h-38l4 30l37 168l-2 2l-3 -2q-30 -105 -81 -157.5t-112 -52.5q-132 0 -106 184l46 316h40l-45 -311q-12 -84 7 -118t66 -34q66 0 118.5 75t71.5 212l25 176h40zM253 615l-2 -11q-3 -24 -29 -24q-14 0 -22 8t-6 21l2 11q3 25 30 25q32 0 27 -30zM380 615l-2 -11
q-3 -24 -29 -24q-15 0 -22.5 8t-5.5 21l2 11q3 25 30 25q31 0 27 -30z" />
    <glyph glyph-name="yacute" unicode="&#xfd;" horiz-adv-x="494" 
d="M437 488l-76 -541q-11 -80 -45.5 -112t-112.5 -32q-73 0 -154 24l6 38q81 -25 151 -25q57 0 81.5 22t33.5 82l13 86l38 168l-2 2l-3 -2q-30 -105 -81 -157.5t-112 -52.5q-132 0 -106 184l46 316h40l-45 -311q-12 -84 7 -118t66 -34q66 0 118.5 75t71.5 212l25 176h40z
M265 546l82 120h48l-93 -120h-37z" />
    <glyph glyph-name="thorn" unicode="&#xfe;" horiz-adv-x="482" 
d="M145 426l-39 -175l2 -2l3 2q34 125 89 187t116 62q59 0 86.5 -46.5t10.5 -140.5l-29 -163q-28 -162 -146 -162q-33 0 -75 18.5t-71 45.5l-34 -237h-40l123 868h40zM307 463q-64 0 -123.5 -93.5t-83.5 -257.5l-4 -29q26 -24 65 -41t67 -17q48 0 76.5 30t40.5 100l28 153
q13 79 -6.5 117t-59.5 38z" />
    <glyph glyph-name="ydieresis" unicode="&#xff;" horiz-adv-x="494" 
d="M437 488l-76 -541q-11 -80 -45.5 -112t-112.5 -32q-73 0 -154 24l6 38q81 -25 151 -25q57 0 81.5 22t33.5 82l13 86l38 168l-2 2l-3 -2q-30 -105 -81 -157.5t-112 -52.5q-132 0 -106 184l46 316h40l-45 -311q-12 -84 7 -118t66 -34q66 0 118.5 75t71.5 212l25 176h40z
M254 615l-2 -11q-3 -24 -29 -24q-15 0 -22.5 8t-5.5 21l2 11q3 25 30 25q31 0 27 -30zM381 615l-2 -11q-3 -24 -29 -24q-14 0 -22 8t-6 21l2 11q3 25 30 25q14 0 21.5 -7.5t5.5 -22.5z" />
    <glyph glyph-name="Amacron" unicode="&#x100;" horiz-adv-x="512" 
d="M462 0h-45q-22 114 -34 171h-284q-50 -114 -76 -171h-44l290 655h54zM290 616q-57 -135 -175 -407h260q-56 272 -85 407zM203 764h209l-5 -39h-209z" />
    <glyph glyph-name="amacron" unicode="&#x101;" horiz-adv-x="484" 
d="M239 500q77 0 141 -79l9 67h37l-68 -488h-37l5 39l35 159l-2 2l-3 -2q-30 -105 -81.5 -157.5t-111.5 -52.5q-62 0 -91 44.5t-14 139.5l23 151q28 177 158 177zM242 463q-98 0 -120 -139l-24 -147q-14 -83 6.5 -117.5t68.5 -34.5q64 0 115 71t71 204l13 90q-61 73 -130 73
zM181 634h192l-5 -39h-192z" />
    <glyph glyph-name="Abreve" unicode="&#x102;" horiz-adv-x="512" 
d="M462 0h-45q-22 114 -34 171h-284q-50 -114 -76 -171h-44l290 655h54zM290 616q-57 -135 -175 -407h260q-56 272 -85 407zM426 799l-6 -44q-5 -5 -15 -11.5t-42 -18t-66 -11.5q-33 0 -62 10t-41 20l-12 11l6 44q5 -5 14 -13t38 -21t60 -13t62.5 12t47.5 24z" />
    <glyph glyph-name="abreve" unicode="&#x103;" horiz-adv-x="484" 
d="M239 500q77 0 141 -79l9 67h37l-68 -488h-37l5 39l35 159l-2 2l-3 -2q-30 -105 -81.5 -157.5t-111.5 -52.5q-62 0 -91 44.5t-14 139.5l23 151q28 177 158 177zM242 463q-98 0 -120 -139l-24 -147q-14 -83 6.5 -117.5t68.5 -34.5q64 0 115 71t71 204l13 90q-61 73 -130 73
zM393 655l-6 -45q-5 -6 -14 -15t-40.5 -23.5t-66.5 -14.5q-34 0 -61 13.5t-37 27.5l-10 13l6 44q2 -2 4.5 -6.5t13 -14.5t21.5 -18t29.5 -14.5t37.5 -6.5q32 0 62.5 15t45.5 30z" />
    <glyph glyph-name="Aogonek" unicode="&#x104;" horiz-adv-x="512" 
d="M462 0h-12q-36 -16 -61.5 -45t-30.5 -59l-1 -8q-6 -51 48 -51q12 0 36 6l-4 -34q-26 -6 -43 -6q-40 0 -59.5 21t-14.5 57l1 9q4 35 32 67t64 46q-6 28 -17 84t-17 84h-284q-13 -29 -38 -86t-38 -85h-44l290 655h54zM290 616q-57 -135 -175 -407h260q-56 272 -85 407z" />
    <glyph glyph-name="aogonek" unicode="&#x105;" horiz-adv-x="484" 
d="M239 500q40 0 79 -21t62 -58l9 67h37l-68 -488h-4q-35 -17 -59.5 -46t-28.5 -58l-1 -8q-7 -51 47 -51q13 0 37 6l-5 -34q-26 -6 -43 -6q-39 0 -59 21.5t-15 56.5l1 9q4 35 31 66t62 46l5 37l35 159l-2 2l-3 -2q-30 -105 -81.5 -157.5t-111.5 -52.5q-62 0 -91 44.5
t-14 139.5l23 151q28 177 158 177zM242 463q-98 0 -120 -139l-24 -147q-14 -83 6.5 -117.5t68.5 -34.5q64 0 115 71t71 204l13 90q-61 73 -130 73z" />
    <glyph glyph-name="Cacute" unicode="&#x106;" horiz-adv-x="476" 
d="M298 667q69 0 148 -27l-7 -39q-81 29 -146 29q-69 0 -105 -38t-48 -134l-32 -267q-20 -165 128 -165q54 0 139 32l-3 -41q-80 -29 -140 -29q-189 0 -163 212l31 254q15 120 60 166.5t138 46.5zM290 706l77 111h47l-88 -111h-36z" />
    <glyph glyph-name="cacute" unicode="&#x107;" horiz-adv-x="398" 
d="M184 -12q-71 0 -104.5 46t-21.5 134l24 164q24 168 162 168q48 0 109 -17l-6 -37q-61 18 -105 18q-48 0 -79.5 -32t-40.5 -97l-23 -166q-20 -144 92 -144q48 0 108 26l-5 -39q-59 -24 -110 -24zM234 546l82 120h48l-93 -120h-37z" />
    <glyph glyph-name="Ccircumflex" unicode="&#x108;" horiz-adv-x="476" 
d="M298 667q69 0 148 -27l-7 -39q-81 29 -146 29q-69 0 -105 -38t-48 -134l-32 -267q-20 -165 128 -165q54 0 139 32l-3 -41q-80 -29 -140 -29q-189 0 -163 212l31 254q15 120 60 166.5t138 46.5zM439 755l-3 -35l-116 52l-128 -52l4 36l130 58z" />
    <glyph glyph-name="ccircumflex" unicode="&#x109;" horiz-adv-x="398" 
d="M184 -12q-71 0 -104.5 46t-21.5 134l24 164q24 168 162 168q48 0 109 -17l-6 -37q-61 18 -105 18q-48 0 -79.5 -32t-40.5 -97l-23 -166q-20 -144 92 -144q48 0 108 26l-5 -39q-59 -24 -110 -24zM376 597l-5 -35l-105 61l-125 -61l5 38l124 64z" />
    <glyph glyph-name="Cdotaccent" unicode="&#x10a;" horiz-adv-x="476" 
d="M298 667q69 0 148 -27l-7 -39q-81 29 -146 29q-69 0 -105 -38t-48 -134l-32 -267q-20 -165 128 -165q54 0 139 32l-3 -41q-80 -29 -140 -29q-189 0 -163 212l31 254q15 120 60 166.5t138 46.5zM344 768l-1 -12q-3 -26 -31 -26q-34 0 -31 31l2 13q4 26 32 26q32 0 29 -32z
" />
    <glyph glyph-name="cdotaccent" unicode="&#x10b;" horiz-adv-x="398" 
d="M184 -12q-71 0 -104.5 46t-21.5 134l24 164q24 168 162 168q48 0 109 -17l-6 -37q-61 18 -105 18q-48 0 -79.5 -32t-40.5 -97l-23 -166q-20 -144 92 -144q48 0 108 26l-5 -39q-59 -24 -110 -24zM287 618l-1 -13q-4 -25 -32 -25q-33 0 -30 31l2 12q4 27 33 27q33 0 28 -32
z" />
    <glyph glyph-name="Ccaron" unicode="&#x10c;" horiz-adv-x="476" 
d="M298 667q69 0 148 -27l-7 -39q-81 29 -146 29q-69 0 -105 -38t-48 -134l-32 -267q-20 -165 128 -165q54 0 139 32l-3 -41q-80 -29 -140 -29q-189 0 -163 212l31 254q15 120 60 166.5t138 46.5zM436 781l-130 -59l-114 60l4 35l116 -52l128 52z" />
    <glyph glyph-name="ccaron" unicode="&#x10d;" horiz-adv-x="398" 
d="M184 -12q-71 0 -104.5 46t-21.5 134l24 164q24 168 162 168q48 0 109 -17l-6 -37q-61 18 -105 18q-48 0 -79.5 -32t-40.5 -97l-23 -166q-20 -144 92 -144q48 0 108 26l-5 -39q-59 -24 -110 -24zM371 630l-124 -65l-106 67l5 36l105 -61l125 61z" />
    <glyph glyph-name="Dcaron" unicode="&#x10e;" horiz-adv-x="571" 
d="M51 -5l82 665q105 7 157 7q120 0 176 -69t40 -201l-21 -172q-29 -237 -272 -237q-73 0 -162 7zM168 626l-74 -595q64 -6 122 -6q98 0 157.5 50t71.5 147l22 175q27 234 -180 234q-21 0 -67.5 -2.5t-51.5 -2.5zM437 781l-130 -59l-114 60l4 35l116 -52l128 52z" />
    <glyph glyph-name="dcaron" unicode="&#x10f;" horiz-adv-x="511" 
d="M358 0h-37l5 39l35 159l-2 2l-3 -2q-30 -105 -81.5 -157.5t-111.5 -52.5q-62 0 -91 44.5t-14 139.5l23 152q28 176 158 176q76 0 138 -75l35 258h41zM242 463q-98 0 -120 -139l-24 -147q-14 -83 6.5 -117.5t68.5 -34.5q64 0 115.5 70.5t70.5 203.5l12 91q-61 73 -129 73z
M557 664l-2 -10q-1 -8 -8 -27l-28 -63h-30l26 68q-20 7 -17 29l1 9q4 25 30 25q32 0 28 -31z" />
    <glyph glyph-name="Dcroat" unicode="&#x110;" horiz-adv-x="575" 
d="M293 667q119 0 175.5 -69t40.5 -201l-21 -172q-29 -237 -272 -237q-73 0 -162 7l40 326h-80l5 36h79l38 304q90 6 157 6zM291 631q-47 0 -119 -5l-34 -269h148l-5 -36h-147l-36 -290q64 -6 122 -6q98 0 157 50t72 147l22 175q27 234 -180 234z" />
    <glyph glyph-name="dcroat" unicode="&#x111;" horiz-adv-x="489" 
d="M444 617h74l-5 -35h-74l-81 -582h-37l5 39l35 159l-2 2l-3 -2q-30 -105 -81.5 -157.5t-111.5 -52.5q-62 0 -91 44.5t-14 139.5l23 152q28 176 158 176q76 0 138 -75l22 157h-139l4 35h139l9 66h41zM242 463q-98 0 -120 -139l-24 -147q-14 -83 6.5 -117.5t68.5 -34.5
q64 0 115.5 70.5t70.5 203.5l12 91q-61 73 -129 73z" />
    <glyph glyph-name="Emacron" unicode="&#x112;" horiz-adv-x="477" 
d="M131 655h314l-5 -37h-274l-33 -266h254l-5 -38h-254l-34 -277h274l-3 -37h-314zM191 764h209l-5 -39h-209z" />
    <glyph glyph-name="emacron" unicode="&#x113;" horiz-adv-x="446" 
d="M275 500q59 0 92.5 -30.5t32.5 -83.5q-2 -81 -77.5 -138t-221.5 -66l-2 -15q-10 -78 13.5 -110t85.5 -32t138 39l-6 -40q-77 -36 -138 -36q-82 0 -113.5 45t-18.5 143l12 94q16 114 70.5 172t132.5 58zM272 464q-58 0 -102.5 -50t-56.5 -144l-8 -59q76 8 146 31
q53 29 80.5 66t27.5 74q0 39 -23.5 60.5t-63.5 21.5zM185 634h192l-5 -39h-192z" />
    <glyph glyph-name="Ebreve" unicode="&#x114;" horiz-adv-x="477" 
d="M131 655h314l-5 -37h-274l-33 -266h254l-5 -38h-254l-34 -277h274l-3 -37h-314zM414 799l-6 -44q-5 -5 -15 -11.5t-42 -18t-66 -11.5q-33 0 -62 10t-41 20l-12 11l6 44q5 -5 14 -13t38 -21t60 -13t62.5 12t47.5 24z" />
    <glyph glyph-name="ebreve" unicode="&#x115;" horiz-adv-x="446" 
d="M275 500q59 0 92.5 -30.5t32.5 -83.5q-2 -81 -77.5 -138t-221.5 -66l-2 -15q-10 -78 13.5 -110t85.5 -32t138 39l-6 -40q-77 -36 -138 -36q-82 0 -113.5 45t-18.5 143l12 94q16 114 70.5 172t132.5 58zM272 464q-58 0 -102.5 -50t-56.5 -144l-8 -59q76 8 146 31
q53 29 80.5 66t27.5 74q0 39 -23.5 60.5t-63.5 21.5zM397 655l-6 -45q-5 -6 -14 -15t-40.5 -23.5t-66.5 -14.5q-34 0 -61 13.5t-37 27.5l-10 13l6 44q2 -2 4.5 -6.5t13 -14.5t21.5 -18t29.5 -14.5t37.5 -6.5q32 0 62.5 15t45.5 30z" />
    <glyph glyph-name="Edotaccent" unicode="&#x116;" horiz-adv-x="477" 
d="M131 655h314l-5 -37h-274l-33 -266h254l-5 -38h-254l-34 -277h274l-3 -37h-314zM321 768l-1 -12q-3 -26 -31 -26q-34 0 -31 31l2 13q4 26 32 26q32 0 29 -32z" />
    <glyph glyph-name="edotaccent" unicode="&#x117;" horiz-adv-x="446" 
d="M275 500q59 0 92.5 -30.5t32.5 -83.5q-2 -81 -77.5 -138t-221.5 -66l-2 -15q-10 -78 13.5 -110t85.5 -32t138 39l-6 -40q-77 -36 -138 -36q-82 0 -113.5 45t-18.5 143l12 94q16 114 70.5 172t132.5 58zM272 464q-58 0 -102.5 -50t-56.5 -144l-8 -59q76 8 146 31
q53 29 80.5 66t27.5 74q0 39 -23.5 60.5t-63.5 21.5zM307 618l-1 -13q-4 -25 -32 -25q-33 0 -30 31l2 12q4 27 33 27q33 0 28 -32z" />
    <glyph glyph-name="Eogonek" unicode="&#x118;" horiz-adv-x="477" 
d="M440 618h-274l-33 -266h254l-5 -38h-254l-34 -277h274l-3 -37h-77q-36 -16 -61.5 -45t-30.5 -59l-1 -8q-6 -51 48 -51q12 0 36 6l-4 -34q-26 -6 -43 -6q-40 0 -59.5 21t-14.5 57l1 9q4 33 29 64t59 46h-196l80 655h314z" />
    <glyph glyph-name="eogonek" unicode="&#x119;" horiz-adv-x="446" 
d="M274 500q60 0 93 -30.5t32 -83.5q-1 -81 -76.5 -138t-222.5 -66l-1 -15q-10 -78 13.5 -110t85.5 -32t138 39l-6 -40q-20 -10 -53 -21q-39 -14 -67 -44.5t-33 -62.5l-1 -8q-8 -51 48 -51q12 0 36 6l-4 -34q-27 -6 -44 -6q-39 0 -59 21.5t-15 56.5l1 9q4 28 23 55t46 45
q-76 -10 -119.5 31.5t-28.5 154.5l12 94q16 114 70 172t132 58zM272 464q-58 0 -102.5 -50t-56.5 -144l-8 -59q76 8 146 31q53 29 80.5 66t27.5 74q0 39 -23.5 60.5t-63.5 21.5z" />
    <glyph glyph-name="Ecaron" unicode="&#x11a;" horiz-adv-x="477" 
d="M131 655h314l-5 -37h-274l-33 -266h254l-5 -38h-254l-34 -277h274l-3 -37h-314zM413 781l-130 -59l-114 60l4 35l116 -52l128 52z" />
    <glyph glyph-name="ecaron" unicode="&#x11b;" horiz-adv-x="446" 
d="M275 500q59 0 92.5 -30.5t32.5 -83.5q-2 -81 -77.5 -138t-221.5 -66l-2 -15q-10 -78 13.5 -110t85.5 -32t138 39l-6 -40q-77 -36 -138 -36q-82 0 -113.5 45t-18.5 143l12 94q16 114 70.5 172t132.5 58zM272 464q-58 0 -102.5 -50t-56.5 -144l-8 -59q76 8 146 31
q53 29 80.5 66t27.5 74q0 39 -23.5 60.5t-63.5 21.5zM391 630l-124 -65l-106 67l5 36l105 -61l125 61z" />
    <glyph glyph-name="Gcircumflex" unicode="&#x11c;" horiz-adv-x="557" 
d="M246 -12q-203 0 -178 208l33 274q13 109 62 153t150 44q75 0 169 -26l-5 -38q-91 27 -170 27q-78 0 -116.5 -34.5t-48.5 -119.5l-35 -288q-22 -163 141 -163q66 0 154 30l33 269h-133l4 38h173l-41 -329q-112 -45 -192 -45zM449 755l-3 -35l-116 52l-128 -52l4 36l130 58
z" />
    <glyph glyph-name="gcircumflex" unicode="&#x11d;" horiz-adv-x="484" 
d="M240 500q77 0 141 -79l9 67h37l-75 -541q-11 -80 -46 -112t-113 -32q-72 0 -153 24l5 38q83 -25 151 -25q57 0 81.5 22t33.5 82l14 86l37 168l-2 2l-3 -2q-30 -105 -81.5 -157.5t-111.5 -52.5q-62 0 -91 44.5t-14 139.5l23 151q28 177 158 177zM243 463q-98 0 -120 -139
l-24 -147q-25 -152 74 -152q66 0 117 72.5t71 206.5l12 86q-61 73 -130 73zM392 597l-5 -35l-105 61l-125 -61l5 38l124 64z" />
    <glyph glyph-name="Gbreve" unicode="&#x11e;" horiz-adv-x="557" 
d="M246 -12q-203 0 -178 208l33 274q13 109 62 153t150 44q75 0 169 -26l-5 -38q-91 27 -170 27q-78 0 -116.5 -34.5t-48.5 -119.5l-35 -288q-22 -163 141 -163q66 0 154 30l33 269h-133l4 38h173l-41 -329q-112 -45 -192 -45zM447 799l-6 -44q-5 -5 -15 -11.5t-42 -18
t-66 -11.5q-33 0 -62 10t-41 20l-12 11l6 44q5 -5 14 -13t38 -21t60 -13t62.5 12t47.5 24z" />
    <glyph glyph-name="gbreve" unicode="&#x11f;" horiz-adv-x="484" 
d="M240 500q77 0 141 -79l9 67h37l-75 -541q-11 -80 -46 -112t-113 -32q-72 0 -153 24l5 38q83 -25 151 -25q57 0 81.5 22t33.5 82l14 86l37 168l-2 2l-3 -2q-30 -105 -81.5 -157.5t-111.5 -52.5q-62 0 -91 44.5t-14 139.5l23 151q28 177 158 177zM243 463q-98 0 -120 -139
l-24 -147q-25 -152 74 -152q66 0 117 72.5t71 206.5l12 86q-61 73 -130 73zM393 655l-6 -45q-5 -6 -14 -15t-40.5 -23.5t-66.5 -14.5q-34 0 -61 13.5t-37 27.5l-10 13l6 44q2 -2 4.5 -6.5t13 -14.5t21.5 -18t29.5 -14.5t37.5 -6.5q32 0 62.5 15t45.5 30z" />
    <glyph glyph-name="Gdotaccent" unicode="&#x120;" horiz-adv-x="557" 
d="M246 -12q-203 0 -178 208l33 274q13 109 62 153t150 44q75 0 169 -26l-5 -38q-91 27 -170 27q-78 0 -116.5 -34.5t-48.5 -119.5l-35 -288q-22 -163 141 -163q66 0 154 30l33 269h-133l4 38h173l-41 -329q-112 -45 -192 -45zM354 768l-1 -12q-3 -26 -31 -26q-34 0 -31 31
l2 13q4 26 32 26q32 0 29 -32z" />
    <glyph glyph-name="gdotaccent" unicode="&#x121;" horiz-adv-x="484" 
d="M240 500q77 0 141 -79l9 67h37l-75 -541q-11 -80 -46 -112t-113 -32q-72 0 -153 24l5 38q83 -25 151 -25q57 0 81.5 22t33.5 82l14 86l37 168l-2 2l-3 -2q-30 -105 -81.5 -157.5t-111.5 -52.5q-62 0 -91 44.5t-14 139.5l23 151q28 177 158 177zM243 463q-98 0 -120 -139
l-24 -147q-25 -152 74 -152q66 0 117 72.5t71 206.5l12 86q-61 73 -130 73zM303 618l-1 -13q-4 -25 -32 -25q-33 0 -30 31l2 12q4 27 33 27q33 0 28 -32z" />
    <glyph glyph-name="Gcommaaccent" unicode="&#x122;" horiz-adv-x="557" 
d="M246 -12q-203 0 -178 208l33 274q13 109 62 153t150 44q75 0 169 -26l-5 -38q-91 27 -170 27q-78 0 -116.5 -34.5t-48.5 -119.5l-35 -288q-22 -163 141 -163q66 0 154 30l33 269h-133l4 38h173l-41 -329q-112 -45 -192 -45zM279 -87l-2 -10q-1 -9 -8 -27l-28 -63h-30
l26 68q-20 7 -17 29l1 9q4 25 30 25q32 0 28 -31z" />
    <glyph glyph-name="gcommaaccent" unicode="&#x123;" horiz-adv-x="484" 
d="M241 575l2 10q1 9 8 27l28 63h30l-26 -68q20 -7 17 -29l-1 -9q-4 -25 -30 -25q-32 0 -28 31zM240 500q77 0 141 -79l9 67h37l-75 -541q-11 -80 -46 -112t-113 -32q-72 0 -153 24l5 38q83 -25 151 -25q57 0 81.5 22t33.5 82l14 86l37 168l-2 2l-3 -2
q-30 -105 -81.5 -157.5t-111.5 -52.5q-62 0 -91 44.5t-14 139.5l23 151q28 177 158 177zM243 463q-98 0 -120 -139l-24 -147q-25 -152 74 -152q66 0 117 72.5t71 206.5l12 86q-61 73 -130 73z" />
    <glyph glyph-name="Hcircumflex" unicode="&#x124;" horiz-adv-x="579" 
d="M455 320h-326l-38 -320h-40l80 655h40l-37 -298h326l37 298h40l-80 -655h-40zM461 755l-3 -35l-116 52l-128 -52l4 36l130 58z" />
    <glyph glyph-name="hcircumflex" unicode="&#x125;" horiz-adv-x="489" 
d="M130 683h40q-5 -109 -18 -208l-8 -53l-38 -183l2 -2l3 2q36 126 96 193.5t120 67.5q57 0 79 -41.5t8 -140.5l-45 -318h-40l46 322q11 78 -4 109t-54 31q-67 0 -132.5 -111t-90.5 -290l-8 -61h-40l64 457q12 93 20 226zM379 755l-3 -35l-116 52l-128 -52l4 36l130 58z" />
    <glyph glyph-name="Hbar" unicode="&#x126;" horiz-adv-x="589" 
d="M127 568l10 78h40l-10 -78h326l10 78h40l-10 -78h50l-5 -35h-50l-68 -542h-40l40 320h-326l-40 -320h-40l68 542h-50l5 35h50zM488 533h-326l-23 -185h326z" />
    <glyph glyph-name="hbar" unicode="&#x127;" horiz-adv-x="494" 
d="M135 683h40q0 -12 -1.5 -37.5t-2.5 -38.5h147l-4 -34h-146q-3 -37 -11 -98l-8 -53l-38 -183l2 -2l3 2q36 126 96 193.5t120 67.5q57 0 79 -41.5t8 -140.5l-45 -318h-40l46 322q11 78 -4 109t-54 31q-67 0 -132.5 -111t-90.5 -290l-8 -61h-40l64 457q2 11 13 116h-67l5 34
h64q1 13 2.5 38t2.5 38z" />
    <glyph glyph-name="Itilde" unicode="&#x128;" horiz-adv-x="213" 
d="M131 655h40l-80 -655h-40zM292 784l-5 -36q-36 -24 -78 -24q-17 0 -52.5 12.5t-50.5 12.5t-33.5 -5t-30.5 -10l-11 -5l4 35q35 24 77 24q23 0 57 -12.5t46 -12.5q15 0 34 5.5t31 10.5z" />
    <glyph glyph-name="itilde" unicode="&#x129;" horiz-adv-x="211" 
d="M114 488h40l-68 -488h-40zM261 638l-5 -36q-29 -23 -70 -23q-17 0 -43.5 12.5t-40.5 12.5q-15 0 -32.5 -5.5t-27.5 -10.5l-10 -6l5 35q29 25 71 25q23 0 47 -12.5t36 -12.5q15 0 32.5 5.5t27.5 10.5z" />
    <glyph glyph-name="Imacron" unicode="&#x12a;" horiz-adv-x="213" 
d="M131 655h40l-80 -655h-40zM59 764h209l-5 -39h-209z" />
    <glyph glyph-name="imacron" unicode="&#x12b;" horiz-adv-x="211" 
d="M114 488h40l-68 -488h-40zM53 634h192l-5 -39h-192z" />
    <glyph glyph-name="Ibreve" unicode="&#x12c;" horiz-adv-x="213" 
d="M131 655h40l-80 -655h-40zM282 799l-6 -44q-5 -5 -15 -11.5t-42 -18t-66 -11.5q-33 0 -62 10t-41 20l-12 11l6 44q5 -5 14 -13t38 -21t60 -13t62.5 12t47.5 24z" />
    <glyph glyph-name="ibreve" unicode="&#x12d;" horiz-adv-x="211" 
d="M114 488h40l-68 -488h-40zM265 655l-6 -45q-5 -6 -14 -15t-40.5 -23.5t-66.5 -14.5q-34 0 -61 13.5t-37 27.5l-10 13l6 44q2 -2 4.5 -6.5t13 -14.5t21.5 -18t29.5 -14.5t37.5 -6.5q32 0 62.5 15t45.5 30z" />
    <glyph glyph-name="Iogonek" unicode="&#x12e;" horiz-adv-x="213" 
d="M91 0h-5q-36 -18 -60 -46.5t-29 -57.5l-1 -8q-8 -51 48 -51q12 0 36 6l-4 -34q-27 -6 -44 -6q-39 0 -59 21.5t-15 56.5l1 9q4 34 31 65.5t61 46.5l80 653h40z" />
    <glyph glyph-name="iogonek" unicode="&#x12f;" horiz-adv-x="211" 
d="M150 650q33 0 28 -32l-1 -13q-4 -25 -32 -25q-33 0 -30 31l2 12q4 27 33 27zM86 0h-6q-35 -15 -60 -44.5t-30 -59.5l-1 -8q-7 -51 48 -51q12 0 36 6l-4 -34q-27 -6 -44 -6q-39 0 -59 21.5t-15 56.5l1 9q4 35 31.5 66.5t62.5 45.5l68 486h40z" />
    <glyph glyph-name="Idotaccent" unicode="&#x130;" horiz-adv-x="213" 
d="M131 655h40l-80 -655h-40zM189 768l-1 -12q-3 -26 -31 -26q-34 0 -31 31l2 13q4 26 32 26q32 0 29 -32z" />
    <glyph glyph-name="dotlessi" unicode="&#x131;" horiz-adv-x="211" 
d="M114 488h40l-68 -488h-40z" />
    <glyph glyph-name="IJ" unicode="&#x132;" horiz-adv-x="482" 
d="M131 655h40l-80 -655h-40zM440 655l-67 -545q-9 -68 -35 -95t-79 -27q-40 0 -78 12l4 38q37 -13 73 -13q34 0 51.5 18.5t23.5 66.5l67 545h40z" />
    <glyph glyph-name="ij" unicode="&#x133;" horiz-adv-x="422" 
d="M178 618l-1 -13q-4 -25 -32 -25q-33 0 -30 31l2 12q4 27 33 27q33 0 28 -32zM389 618l-1 -13q-4 -25 -32 -25q-33 0 -30 31l2 12q4 27 33 27q33 0 28 -32zM114 488h40l-68 -488h-40zM365 488l-83 -579q-7 -58 -32 -82t-73 -24q-27 0 -65 11l5 37q29 -11 61 -11
q29 0 44 14.5t20 50.5l83 583h40z" />
    <glyph glyph-name="Jcircumflex" unicode="&#x134;" horiz-adv-x="269" 
d="M227 655l-67 -545q-9 -68 -35 -95t-79 -27q-40 0 -78 12l4 38q37 -13 73 -13q34 0 51.5 18.5t23.5 66.5l67 545h40zM338 755l-3 -35l-116 52l-128 -52l4 36l130 58z" />
    <glyph glyph-name="jcircumflex" unicode="&#x135;" horiz-adv-x="211" 
d="M154 488l-83 -579q-7 -58 -32 -82t-73 -24q-26 0 -65 11l5 37q29 -11 61 -11q29 0 44 14.5t20 50.5l83 583h40zM264 597l-5 -35l-105 61l-125 -61l5 38l124 64z" />
    <glyph glyph-name="Kcommaaccent" unicode="&#x136;" horiz-adv-x="498" 
d="M131 655h40l-39 -313q184 162 339 313h51l-343 -319l287 -336h-53q-143 181 -282 331l-40 -331h-40zM261 -87l-2 -10q-1 -9 -8 -27l-28 -63h-30l26 68q-20 7 -17 29l1 9q4 25 30 25q32 0 28 -31z" />
    <glyph glyph-name="kcommaaccent" unicode="&#x137;" horiz-adv-x="435" 
d="M130 683h41q-8 -139 -17 -200l-5 -42l-44 -202l2 -2l3 1q34 126 87.5 194t117.5 68q40 0 63 -23.5t23 -64.5q0 -62 -47.5 -116t-128.5 -73l120 -223h-47q-16 36 -120 238q89 14 136.5 64t47.5 106q0 26 -15 41.5t-40 15.5q-66 0 -128 -111t-83 -278l-10 -76h-40l61 439
q17 120 23 244zM209 -87l-2 -10q-1 -9 -8 -27l-28 -63h-30l26 68q-20 7 -17 29l1 9q4 25 30 25q32 0 28 -31z" />
    <glyph glyph-name="kgreenlandic" unicode="&#x138;" horiz-adv-x="407" 
d="M163 258l192 -258h-51q-57 85 -183 252l-35 -252h-40l68 488h40l-31 -223q80 74 233 223h51z" />
    <glyph glyph-name="Lacute" unicode="&#x139;" horiz-adv-x="440" 
d="M131 655h40l-77 -618h276l-3 -37h-316zM140 706l77 111h47l-88 -111h-36z" />
    <glyph glyph-name="lacute" unicode="&#x13a;" horiz-adv-x="211" 
d="M132 683h40q-7 -127 -21 -219l-65 -464h-40l64 457q15 109 22 226zM133 706l77 111h47l-88 -111h-36z" />
    <glyph glyph-name="Lcommaaccent" unicode="&#x13b;" horiz-adv-x="440" 
d="M131 655h40l-77 -618h276l-3 -37h-316zM236 -87l-2 -10q-1 -9 -8 -27l-28 -63h-30l26 68q-20 7 -17 29l1 9q4 25 30 25q32 0 28 -31z" />
    <glyph glyph-name="lcommaaccent" unicode="&#x13c;" horiz-adv-x="211" 
d="M132 683h40q-7 -127 -21 -219l-65 -464h-40l64 457q15 109 22 226zM86 -87l-2 -10q-1 -9 -8 -27l-28 -63h-30l26 68q-20 7 -17 29l1 9q4 25 30 25q32 0 28 -31z" />
    <glyph glyph-name="Lcaron" unicode="&#x13d;" horiz-adv-x="440" 
d="M131 655h40l-77 -618h276l-3 -37h-316zM326 636l-2 -10q-1 -8 -8 -27l-28 -63h-30l26 68q-20 7 -17 29l1 9q4 25 30 25q32 0 28 -31z" />
    <glyph glyph-name="lcaron" unicode="&#x13e;" horiz-adv-x="226" 
d="M132 683h40q-7 -127 -21 -219l-65 -464h-40l64 457q15 109 22 226zM271 664l-2 -10q-1 -8 -8 -27l-28 -63h-30l26 68q-20 7 -17 29l1 9q4 25 30 25q32 0 28 -31z" />
    <glyph glyph-name="Ldot" unicode="&#x13f;" horiz-adv-x="440" 
d="M131 655h40l-77 -618h276l-3 -37h-316zM339 349l-1 -12q-3 -26 -31 -26q-34 0 -31 31l2 13q4 26 32 26q32 0 29 -32z" />
    <glyph glyph-name="ldot" unicode="&#x140;" horiz-adv-x="211" 
d="M132 683h40q-7 -127 -21 -219l-65 -464h-40l64 457q15 109 22 226zM257 433l-1 -13q-4 -25 -32 -25q-33 0 -30 31l2 12q4 27 33 27q33 0 28 -32z" />
    <glyph glyph-name="Lslash" unicode="&#x141;" horiz-adv-x="444" 
d="M99 348l38 298h40l-37 -287l162 44l-5 -37l-162 -44l-37 -294h275l-3 -37h-316l40 320l-73 -20l6 37z" />
    <glyph glyph-name="lslash" unicode="&#x142;" horiz-adv-x="221" 
d="M137 683h40q-7 -112 -21 -219l-6 -39l105 31l-5 -35l-105 -31l-54 -390h-40l52 378l-105 -30l5 35l105 30l7 44q15 109 22 226z" />
    <glyph glyph-name="Nacute" unicode="&#x143;" horiz-adv-x="582" 
d="M165 607l-74 -607h-40l80 655h58q125 -300 237 -603l74 603h40l-80 -655h-55zM320 706l77 111h47l-88 -111h-36z" />
    <glyph glyph-name="nacute" unicode="&#x144;" horiz-adv-x="493" 
d="M327 500q57 0 79 -41.5t8 -140.5l-45 -318h-40l46 322q11 78 -4 109t-54 31q-68 0 -133 -111.5t-91 -297.5l-7 -53h-40l68 488h37l-12 -83l-33 -166l2 -2l3 2q36 126 96 193.5t120 67.5zM261 546l82 120h48l-93 -120h-37z" />
    <glyph glyph-name="Ncommaaccent" unicode="&#x145;" horiz-adv-x="582" 
d="M165 607l-74 -607h-40l80 655h58q125 -300 237 -603l74 603h40l-80 -655h-55zM291 -87l-2 -10q-1 -9 -8 -27l-28 -63h-30l26 68q-20 7 -17 29l1 9q4 25 30 25q32 0 28 -31z" />
    <glyph glyph-name="ncommaaccent" unicode="&#x146;" horiz-adv-x="493" 
d="M327 500q57 0 79 -41.5t8 -140.5l-45 -318h-40l46 322q11 78 -4 109t-54 31q-68 0 -133 -111.5t-91 -297.5l-7 -53h-40l68 488h37l-12 -83l-33 -166l2 -2l3 2q36 126 96 193.5t120 67.5zM243 -87l-2 -10q-1 -9 -8 -27l-28 -63h-30l26 68q-20 7 -17 29l1 9q4 25 30 25
q32 0 28 -31z" />
    <glyph glyph-name="Ncaron" unicode="&#x147;" horiz-adv-x="582" 
d="M165 607l-74 -607h-40l80 655h58q125 -300 237 -603l74 603h40l-80 -655h-55zM466 781l-130 -59l-114 60l4 35l116 -52l128 52z" />
    <glyph glyph-name="ncaron" unicode="&#x148;" horiz-adv-x="493" 
d="M327 500q57 0 79 -41.5t8 -140.5l-45 -318h-40l46 322q11 78 -4 109t-54 31q-68 0 -133 -111.5t-91 -297.5l-7 -53h-40l68 488h37l-12 -83l-33 -166l2 -2l3 2q36 126 96 193.5t120 67.5zM398 630l-124 -65l-106 67l5 36l105 -61l125 61z" />
    <glyph glyph-name="napostrophe" unicode="&#x149;" horiz-adv-x="493" 
d="M327 500q57 0 79 -41.5t8 -140.5l-45 -318h-40l46 322q11 78 -4 109t-54 31q-68 0 -133 -111.5t-91 -297.5l-7 -53h-40l68 488h37l-12 -83l-33 -166l2 -2l3 2q36 126 96 193.5t120 67.5zM112 664l-2 -10q-1 -8 -8 -27l-28 -63h-30l26 68q-20 7 -17 29l1 9q4 25 30 25
q32 0 28 -31z" />
    <glyph glyph-name="Eng" unicode="&#x14a;" horiz-adv-x="582" 
d="M540 655l-84 -689q-9 -68 -35 -95t-79 -27q-40 0 -78 12l4 38q37 -13 73 -13q34 0 51.5 19t23.5 66l4 34h-15l-240 607l-74 -607h-40l80 655h58q125 -300 237 -603l74 603h40z" />
    <glyph glyph-name="eng" unicode="&#x14b;" horiz-adv-x="496" 
d="M330 500q57 0 79 -41.5t8 -140.5l-59 -409q-8 -57 -33 -81.5t-73 -24.5q-24 0 -65 11l6 37q29 -11 61 -11q28 0 43 14.5t21 50.5l60 417q11 78 -4 109t-54 31q-68 0 -133 -111.5t-91 -297.5l-7 -53h-40l68 488h37l-12 -83l-33 -166l2 -2l3 2q36 126 96 193.5t120 67.5z
" />
    <glyph glyph-name="Omacron" unicode="&#x14c;" horiz-adv-x="576" 
d="M322 667q105 0 154.5 -55.5t37.5 -157.5l-32 -259q-13 -105 -66 -156t-155 -51q-104 0 -154 56t-37 161l32 256q13 110 65 158t155 48zM318 631q-82 0 -124 -39t-53 -129l-32 -264q-10 -86 30 -130.5t123 -44.5q82 0 125 41t54 128l32 266q11 86 -29 129t-126 43z
M233 764h209l-5 -39h-209z" />
    <glyph glyph-name="omacron" unicode="&#x14d;" horiz-adv-x="480" 
d="M410 317l-20 -153q-24 -176 -183 -176q-84 0 -122.5 47.5t-25.5 137.5l21 153q13 90 56.5 132t125.5 42q81 0 121 -48.5t27 -134.5zM348 159l22 161q10 69 -20 106.5t-91 37.5q-63 0 -96 -32t-43 -103l-22 -160q-10 -71 19 -108t90 -37q122 0 141 135zM182 634h192
l-5 -39h-192z" />
    <glyph glyph-name="Obreve" unicode="&#x14e;" horiz-adv-x="576" 
d="M322 667q105 0 154.5 -55.5t37.5 -157.5l-32 -259q-13 -105 -66 -156t-155 -51q-104 0 -154 56t-37 161l32 256q13 110 65 158t155 48zM318 631q-82 0 -124 -39t-53 -129l-32 -264q-10 -86 30 -130.5t123 -44.5q82 0 125 41t54 128l32 266q11 86 -29 129t-126 43z
M456 799l-6 -44q-5 -5 -15 -11.5t-42 -18t-66 -11.5q-33 0 -62 10t-41 20l-12 11l6 44q5 -5 14 -13t38 -21t60 -13t62.5 12t47.5 24z" />
    <glyph glyph-name="obreve" unicode="&#x14f;" horiz-adv-x="480" 
d="M410 317l-20 -153q-24 -176 -183 -176q-84 0 -122.5 47.5t-25.5 137.5l21 153q13 90 56.5 132t125.5 42q81 0 121 -48.5t27 -134.5zM348 159l22 161q10 69 -20 106.5t-91 37.5q-63 0 -96 -32t-43 -103l-22 -160q-10 -71 19 -108t90 -37q122 0 141 135zM394 655l-6 -45
q-5 -6 -14 -15t-40.5 -23.5t-66.5 -14.5q-34 0 -61 13.5t-37 27.5l-10 13l6 44q2 -2 4.5 -6.5t13 -14.5t21.5 -18t29.5 -14.5t37.5 -6.5q32 0 62.5 15t45.5 30z" />
    <glyph glyph-name="Ohungarumlaut" unicode="&#x150;" horiz-adv-x="576" 
d="M322 667q105 0 154.5 -55.5t37.5 -157.5l-32 -259q-13 -105 -66 -156t-155 -51q-104 0 -154 56t-37 161l32 256q13 110 65 158t155 48zM318 631q-82 0 -124 -39t-53 -129l-32 -264q-10 -86 30 -130.5t123 -44.5q82 0 125 41t54 128l32 266q11 86 -29 129t-126 43z
M282 706h-36l62 111h43zM392 706h-36l62 111h43z" />
    <glyph glyph-name="ohungarumlaut" unicode="&#x151;" horiz-adv-x="480" 
d="M410 317l-20 -153q-24 -176 -183 -176q-84 0 -122.5 47.5t-25.5 137.5l21 153q13 90 56.5 132t125.5 42q81 0 121 -48.5t27 -134.5zM348 159l22 161q10 69 -20 106.5t-91 37.5q-63 0 -96 -32t-43 -103l-22 -160q-10 -71 19 -108t90 -37q122 0 141 135zM221 544h-36
l67 122h43zM321 544h-36l67 122h43z" />
    <glyph glyph-name="OE" unicode="&#x152;" horiz-adv-x="766" 
d="M324 667q56 0 98 -12h312l-4 -37h-274l-34 -266h254l-4 -38h-254l-34 -277h274l-4 -37h-313q-43 -12 -94 -12q-105 0 -147.5 57t-27.5 171l32 247q14 110 65.5 157t154.5 47zM321 631q-82 0 -124.5 -38t-53.5 -124l-33 -266q-22 -179 141 -179q49 0 92 12l71 583
q-36 12 -93 12z" />
    <glyph glyph-name="oe" unicode="&#x153;" horiz-adv-x="736" 
d="M564 500q60 0 93 -30.5t32 -83.5q-1 -81 -76.5 -138t-221.5 -66l-3 -25q-9 -72 15.5 -102t84.5 -30q64 0 138 38l-6 -40q-75 -35 -134 -35q-108 0 -131 83q-47 -83 -149 -83q-83 0 -121.5 47.5t-25.5 137.5l21 154q13 90 55.5 131.5t125.5 41.5q57 0 93.5 -27.5
t47.5 -77.5q27 51 69.5 78t92.5 27zM259 464q-64 0 -96.5 -32t-42.5 -103l-22 -160q-10 -72 19 -108.5t90 -36.5q122 0 140 135l23 162q10 69 -20 106t-91 37zM562 464q-54 0 -97 -44.5t-59 -128.5l-11 -80q76 8 146 31q53 29 80.5 66t27.5 74q0 39 -23.5 60.5t-63.5 21.5z
" />
    <glyph glyph-name="Racute" unicode="&#x154;" horiz-adv-x="538" 
d="M284 667q106 0 159.5 -52t43.5 -138l-1 -12q-7 -66 -46.5 -111t-102.5 -62l139 -292h-46q-54 127 -131 286q-81 -10 -172 11l-36 -297h-40l81 660q96 7 152 7zM280 631q-43 0 -113 -5l-37 -296q59 -13 128 -13q167 0 187 149l1 7q10 76 -33.5 117t-132.5 41zM277 706
l77 111h47l-88 -111h-36z" />
    <glyph glyph-name="racute" unicode="&#x155;" horiz-adv-x="328" 
d="M312 500q11 0 19 -2l-7 -48q-11 3 -25 3q-60 0 -120 -108.5t-84 -279.5l-9 -65h-40l68 488h37l-12 -83l-34 -166l3 -2l3 2q35 127 90.5 194t110.5 67zM208 546l82 120h48l-93 -120h-37z" />
    <glyph glyph-name="Rcommaaccent" unicode="&#x156;" horiz-adv-x="538" 
d="M284 667q106 0 159.5 -52t43.5 -138l-1 -12q-7 -66 -46.5 -111t-102.5 -62l139 -292h-46q-54 127 -131 286q-81 -10 -172 11l-36 -297h-40l81 660q96 7 152 7zM280 631q-43 0 -113 -5l-37 -296q59 -13 128 -13q167 0 187 149l1 7q10 76 -33.5 117t-132.5 41zM279 -87
l-2 -10q-1 -9 -8 -27l-28 -63h-30l26 68q-20 7 -17 29l1 9q4 25 30 25q32 0 28 -31z" />
    <glyph glyph-name="rcommaaccent" unicode="&#x157;" horiz-adv-x="328" 
d="M312 500q11 0 19 -2l-7 -48q-11 3 -25 3q-60 0 -120 -108.5t-84 -279.5l-9 -65h-40l68 488h37l-12 -83l-34 -166l3 -2l3 2q35 127 90.5 194t110.5 67zM89 -87l-2 -10q-1 -9 -8 -27l-28 -63h-30l26 68q-20 7 -17 29l1 9q4 25 30 25q32 0 28 -31z" />
    <glyph glyph-name="Rcaron" unicode="&#x158;" horiz-adv-x="538" 
d="M284 667q106 0 159.5 -52t43.5 -138l-1 -12q-7 -66 -46.5 -111t-102.5 -62l139 -292h-46q-54 127 -131 286q-81 -10 -172 11l-36 -297h-40l81 660q96 7 152 7zM280 631q-43 0 -113 -5l-37 -296q59 -13 128 -13q167 0 187 149l1 7q10 76 -33.5 117t-132.5 41zM423 781
l-130 -59l-114 60l4 35l116 -52l128 52z" />
    <glyph glyph-name="rcaron" unicode="&#x159;" horiz-adv-x="328" 
d="M312 500q11 0 19 -2l-7 -48q-11 3 -25 3q-60 0 -120 -108.5t-84 -279.5l-9 -65h-40l68 488h37l-12 -83l-34 -166l3 -2l3 2q35 127 90.5 194t110.5 67zM345 630l-124 -65l-106 67l5 36l105 -61l125 61z" />
    <glyph glyph-name="Sacute" unicode="&#x15a;" horiz-adv-x="452" 
d="M208 367l83 -32q118 -48 102 -180l-2 -10q-10 -82 -52.5 -119.5t-125.5 -37.5q-74 0 -166 37l6 40q70 -27 124 -37q30 -2 41 -2q62 0 94 28t39 89l2 16q13 103 -77 139l-95 38q-59 23 -84.5 70.5t-14.5 111.5l1 8q12 74 54.5 107.5t125.5 33.5q62 0 140 -21l-5 -39
q-72 18 -100 22q-15 1 -42 1q-119 0 -133 -107l-2 -14q-14 -103 87 -142zM238 706l77 111h47l-88 -111h-36z" />
    <glyph glyph-name="sacute" unicode="&#x15b;" horiz-adv-x="393" 
d="M216 500q49 0 110 -18l-6 -41q-39 14 -69 21q-22 2 -41 2q-89 0 -101 -68l-1 -6q-11 -67 57 -101l86 -44q86 -44 71 -132l-2 -13q-8 -54 -44 -83t-96 -29q-72 0 -142 35l8 40q40 -21 89 -35q21 -4 46 -4q86 0 100 81l1 6q12 69 -56 104l-87 43q-42 21 -60 57t-10 80l2 12
q19 93 145 93zM194 546l82 120h48l-93 -120h-37z" />
    <glyph glyph-name="Scircumflex" unicode="&#x15c;" horiz-adv-x="452" 
d="M208 367l83 -32q118 -48 102 -180l-2 -10q-10 -82 -52.5 -119.5t-125.5 -37.5q-74 0 -166 37l6 40q70 -27 124 -37q30 -2 41 -2q62 0 94 28t39 89l2 16q13 103 -77 139l-95 38q-59 23 -84.5 70.5t-14.5 111.5l1 8q12 74 54.5 107.5t125.5 33.5q62 0 140 -21l-5 -39
q-72 18 -100 22q-15 1 -42 1q-119 0 -133 -107l-2 -14q-14 -103 87 -142zM387 755l-3 -35l-116 52l-128 -52l4 36l130 58z" />
    <glyph glyph-name="scircumflex" unicode="&#x15d;" horiz-adv-x="393" 
d="M216 500q49 0 110 -18l-6 -41q-39 14 -69 21q-22 2 -41 2q-89 0 -101 -68l-1 -6q-11 -67 57 -101l86 -44q86 -44 71 -132l-2 -13q-8 -54 -44 -83t-96 -29q-72 0 -142 35l8 40q40 -21 89 -35q21 -4 46 -4q86 0 100 81l1 6q12 69 -56 104l-87 43q-42 21 -60 57t-10 80l2 12
q19 93 145 93zM336 597l-5 -35l-105 61l-125 -61l5 38l124 64z" />
    <glyph glyph-name="Scedilla" unicode="&#x15e;" horiz-adv-x="452" 
d="M263 667q62 0 140 -21l-5 -39q-72 18 -100 22q-15 1 -42 1q-119 0 -133 -107l-2 -14q-14 -103 87 -142l83 -32q118 -48 102 -180l-2 -10q-9 -80 -51 -117.5t-124 -39.5l-14 -31h9q34 0 52 -21.5t13 -56.5l-1 -7q-12 -69 -81 -69q-25 0 -59 10l4 30q30 -10 56 -10
q20 0 30.5 9.5t14.5 31.5l1 6q9 52 -47 52h-30l2 14l20 43q-73 8 -139 36l6 40q70 -27 124 -37q30 -2 41 -2q62 0 94 28t39 89l2 16q13 103 -77 139l-95 38q-59 23 -84.5 70.5t-14.5 111.5l1 8q12 74 54.5 107.5t125.5 33.5z" />
    <glyph glyph-name="scedilla" unicode="&#x15f;" horiz-adv-x="378" 
d="M209 500q49 0 110 -18l-6 -41q-39 14 -69 21q-22 2 -41 2q-89 0 -101 -68l-1 -6q-11 -67 57 -101l86 -44q86 -44 71 -132l-2 -13q-17 -111 -139 -112l-14 -31h8q35 0 53 -21.5t13 -56.5l-1 -7q-12 -69 -81 -69q-25 0 -59 10l4 30q30 -10 56 -10q20 0 30.5 9.5t14.5 31.5
l1 6q9 52 -48 52h-29l2 14l20 44q-61 7 -113 33l8 40q40 -21 89 -35q21 -4 46 -4q86 0 100 81l1 6q12 69 -56 104l-87 43q-42 21 -60 57t-10 80l2 12q19 93 145 93z" />
    <glyph glyph-name="Scaron" unicode="&#x160;" horiz-adv-x="452" 
d="M208 367l83 -32q118 -48 102 -180l-2 -10q-10 -82 -52.5 -119.5t-125.5 -37.5q-74 0 -166 37l6 40q70 -27 124 -37q30 -2 41 -2q62 0 94 28t39 89l2 16q13 103 -77 139l-95 38q-59 23 -84.5 70.5t-14.5 111.5l1 8q12 74 54.5 107.5t125.5 33.5q62 0 140 -21l-5 -39
q-72 18 -100 22q-15 1 -42 1q-119 0 -133 -107l-2 -14q-14 -103 87 -142zM384 781l-130 -59l-114 60l4 35l116 -52l128 52z" />
    <glyph glyph-name="scaron" unicode="&#x161;" horiz-adv-x="393" 
d="M216 500q49 0 110 -18l-6 -41q-39 14 -69 21q-22 2 -41 2q-89 0 -101 -68l-1 -6q-11 -67 57 -101l86 -44q86 -44 71 -132l-2 -13q-8 -54 -44 -83t-96 -29q-72 0 -142 35l8 40q40 -21 89 -35q21 -4 46 -4q86 0 100 81l1 6q12 69 -56 104l-87 43q-42 21 -60 57t-10 80l2 12
q19 93 145 93zM331 630l-124 -65l-106 67l5 36l105 -61l125 61z" />
    <glyph glyph-name="Tcedilla" unicode="&#x162;" horiz-adv-x="519" 
d="M520 618h-201l-76 -618h-12l-19 -43h8q35 0 53 -21.5t13 -56.5l-1 -7q-12 -69 -81 -69q-25 0 -59 10l3 30q32 -10 56 -10q21 0 31 9t14 32l1 6q9 52 -47 52h-29l2 14l28 61l75 611h-202l5 37h443z" />
    <glyph glyph-name="tcedilla" unicode="&#x163;" horiz-adv-x="336" 
d="M169 488h145l-4 -34h-146l-45 -318q-9 -64 5 -87.5t57 -23.5q40 0 87 20l-5 -37q-50 -20 -87 -20l-14 -31h8q35 0 53 -22t12 -56l-1 -7q-11 -69 -81 -69q-25 0 -59 10l4 30q32 -10 56 -10q21 0 31 9t14 32l1 6q9 52 -47 52h-29l1 14l21 44q-44 7 -61 42t-6 107l45 315
h-70l3 25l72 7l32 132h26z" />
    <glyph glyph-name="Tcaron" unicode="&#x164;" horiz-adv-x="519" 
d="M82 655h443l-5 -37h-201l-76 -618h-40l76 618h-202zM439 781l-130 -59l-114 60l4 35l116 -52l128 52z" />
    <glyph glyph-name="tcaron" unicode="&#x165;" horiz-adv-x="336" 
d="M169 488h145l-4 -34h-146l-45 -318q-9 -64 5 -87.5t57 -23.5q40 0 87 20l-5 -37q-45 -20 -88 -20q-61 0 -84.5 34.5t-11.5 116.5l45 315h-70l3 25l72 7l32 132h26zM365 664l-2 -10q-1 -8 -8 -27l-28 -63h-30l26 68q-20 7 -17 29l1 9q4 25 30 25q32 0 28 -31z" />
    <glyph glyph-name="Tbar" unicode="&#x166;" horiz-adv-x="519" 
d="M82 646h443l-5 -38h-201l-32 -252h111l-4 -37h-111l-40 -328h-40l40 328h-111l5 37h110l32 252h-202z" />
    <glyph glyph-name="tbar" unicode="&#x167;" horiz-adv-x="362" 
d="M195 488h146l-5 -34h-145l-18 -121h141l-4 -34h-141l-24 -163q-9 -64 5.5 -87.5t56.5 -23.5t87 20l-4 -37q-45 -20 -88 -20q-61 0 -85 34.5t-12 116.5l24 160h-75l5 34h74l18 121h-70l3 25l72 7l32 132h25z" />
    <glyph glyph-name="Utilde" unicode="&#x168;" horiz-adv-x="578" 
d="M535 655l-57 -462q-13 -104 -66 -154.5t-148 -50.5q-101 0 -151.5 54.5t-37.5 159.5l56 453h41l-57 -460q-11 -82 29.5 -125.5t123.5 -43.5q147 0 169 163l57 466h41zM470 784l-5 -36q-36 -24 -78 -24q-17 0 -52.5 12.5t-50.5 12.5t-33.5 -5t-30.5 -10l-11 -5l4 35
q35 24 77 24q23 0 57 -12.5t46 -12.5q15 0 34 5.5t31 10.5z" />
    <glyph glyph-name="utilde" unicode="&#x169;" horiz-adv-x="494" 
d="M369 0h-38l4 30l37 168l-2 2l-3 -2q-30 -105 -81 -157.5t-112 -52.5q-132 0 -106 184l46 316h40l-45 -311q-12 -84 7 -118t66 -34q66 0 118.5 75t71.5 212l25 176h40zM403 638l-5 -36q-29 -23 -70 -23q-17 0 -43.5 12.5t-40.5 12.5q-15 0 -32.5 -5.5t-27.5 -10.5l-10 -6
l5 35q29 25 71 25q23 0 47 -12.5t36 -12.5q15 0 32.5 5.5t27.5 10.5z" />
    <glyph glyph-name="Umacron" unicode="&#x16a;" horiz-adv-x="578" 
d="M535 655l-57 -462q-13 -104 -66 -154.5t-148 -50.5q-101 0 -151.5 54.5t-37.5 159.5l56 453h41l-57 -460q-11 -82 29.5 -125.5t123.5 -43.5q147 0 169 163l57 466h41zM237 764h209l-5 -39h-209z" />
    <glyph glyph-name="umacron" unicode="&#x16b;" horiz-adv-x="494" 
d="M369 0h-38l4 30l37 168l-2 2l-3 -2q-30 -105 -81 -157.5t-112 -52.5q-132 0 -106 184l46 316h40l-45 -311q-12 -84 7 -118t66 -34q66 0 118.5 75t71.5 212l25 176h40zM195 634h192l-5 -39h-192z" />
    <glyph glyph-name="Ubreve" unicode="&#x16c;" horiz-adv-x="578" 
d="M535 655l-57 -462q-13 -104 -66 -154.5t-148 -50.5q-101 0 -151.5 54.5t-37.5 159.5l56 453h41l-57 -460q-11 -82 29.5 -125.5t123.5 -43.5q147 0 169 163l57 466h41zM460 799l-6 -44q-5 -5 -15 -11.5t-42 -18t-66 -11.5q-33 0 -62 10t-41 20l-12 11l6 44q5 -5 14 -13
t38 -21t60 -13t62.5 12t47.5 24z" />
    <glyph glyph-name="ubreve" unicode="&#x16d;" horiz-adv-x="494" 
d="M369 0h-38l4 30l37 168l-2 2l-3 -2q-30 -105 -81 -157.5t-112 -52.5q-132 0 -106 184l46 316h40l-45 -311q-12 -84 7 -118t66 -34q66 0 118.5 75t71.5 212l25 176h40zM407 655l-6 -45q-5 -6 -14 -15t-40.5 -23.5t-66.5 -14.5q-34 0 -61 13.5t-37 27.5l-10 13l6 44
q2 -2 4.5 -6.5t13 -14.5t21.5 -18t29.5 -14.5t37.5 -6.5q32 0 62.5 15t45.5 30z" />
    <glyph glyph-name="Uring" unicode="&#x16e;" horiz-adv-x="578" 
d="M535 655l-57 -462q-13 -104 -66 -154.5t-148 -50.5q-101 0 -151.5 54.5t-37.5 159.5l56 453h41l-57 -460q-11 -82 29.5 -125.5t123.5 -43.5q147 0 169 163l57 466h41zM346 848q86 0 88 -76q0 -43 -26.5 -69t-73.5 -26q-42 0 -65.5 20t-24.5 60q0 41 27.5 66t74.5 25z
M344 820q-32 0 -49.5 -17t-17.5 -44q0 -25 15 -39.5t42 -14.5q66 0 66 65q0 22 -15 36t-41 14z" />
    <glyph glyph-name="uring" unicode="&#x16f;" horiz-adv-x="494" 
d="M369 0h-38l4 30l37 168l-2 2l-3 -2q-30 -105 -81 -157.5t-112 -52.5q-132 0 -106 184l46 316h40l-45 -311q-12 -84 7 -118t66 -34q66 0 118.5 75t71.5 212l25 176h40zM295 710q42 0 65.5 -20t23.5 -56q0 -41 -26.5 -67t-72.5 -26q-42 0 -66 19.5t-24 57.5q0 42 26.5 67
t73.5 25zM294 683q-66 0 -66 -62q0 -24 15.5 -38.5t43.5 -14.5q65 0 65 64q0 24 -15 37.5t-43 13.5z" />
    <glyph glyph-name="Uhungarumlaut" unicode="&#x170;" horiz-adv-x="578" 
d="M535 655l-57 -462q-13 -104 -66 -154.5t-148 -50.5q-101 0 -151.5 54.5t-37.5 159.5l56 453h41l-57 -460q-11 -82 29.5 -125.5t123.5 -43.5q147 0 169 163l57 466h41zM286 706h-36l62 111h43zM396 706h-36l62 111h43z" />
    <glyph glyph-name="uhungarumlaut" unicode="&#x171;" horiz-adv-x="494" 
d="M369 0h-38l4 30l37 168l-2 2l-3 -2q-30 -105 -81 -157.5t-112 -52.5q-132 0 -106 184l46 316h40l-45 -311q-12 -84 7 -118t66 -34q66 0 118.5 75t71.5 212l25 176h40zM234 544h-36l67 122h43zM334 544h-36l67 122h43z" />
    <glyph glyph-name="Uogonek" unicode="&#x172;" horiz-adv-x="578" 
d="M535 655l-58 -462q-19 -161 -137 -195q-35 -16 -59 -44t-29 -58l-1 -8q-7 -51 48 -51q12 0 36 6l-4 -34q-25 -6 -44 -6q-39 0 -59 21.5t-15 56.5l1 9q8 60 69 99q-33 -2 -63.5 2.5t-60.5 18.5t-50.5 37.5t-30.5 63t-4 91.5l56 453h41l-57 -460q-10 -82 30.5 -125.5
t123.5 -43.5q148 0 168 163l58 466h41z" />
    <glyph glyph-name="uogonek" unicode="&#x173;" horiz-adv-x="494" 
d="M369 0h-5q-35 -16 -60.5 -45.5t-29.5 -58.5l-1 -8q-7 -51 48 -51q12 0 36 6l-5 -34q-26 -6 -43 -6q-39 0 -59 21.5t-15 56.5l1 9q4 35 31.5 66.5t63.5 45.5l4 28l37 168l-2 2l-3 -2q-30 -105 -81 -157.5t-112 -52.5q-132 0 -106 184l46 316h40l-45 -311q-12 -84 7 -118
t66 -34q66 0 118.5 75t71.5 212l25 176h40z" />
    <glyph glyph-name="Wcircumflex" unicode="&#x174;" horiz-adv-x="832" 
d="M606 0h-60l-91 609l-239 -609h-60l-83 655h41q50 -345 77 -611q118 289 238 611h59q56 -337 90 -611q112 290 223 611h47zM591 755l-3 -35l-116 52l-128 -52l4 36l130 58z" />
    <glyph glyph-name="wcircumflex" unicode="&#x175;" horiz-adv-x="666" 
d="M482 0h-52l-74 447l-201 -447h-52l-47 488h41q20 -199 35 -446l3 -2l2 2q94 205 197 446h52q44 -261 70 -446l2 -2l3 2q73 192 162 446h43zM488 597l-5 -35l-105 61l-125 -61l5 38l124 64z" />
    <glyph glyph-name="Ycircumflex" unicode="&#x176;" horiz-adv-x="463" 
d="M242 225l-27 -225h-40l27 225l-140 430h44q68 -208 119 -385q101 173 214 385h49zM402 755l-3 -35l-116 52l-128 -52l4 36l130 58z" />
    <glyph glyph-name="ycircumflex" unicode="&#x177;" horiz-adv-x="494" 
d="M437 488l-76 -541q-11 -80 -45.5 -112t-112.5 -32q-73 0 -154 24l6 38q81 -25 151 -25q57 0 81.5 22t33.5 82l13 86l38 168l-2 2l-3 -2q-30 -105 -81 -157.5t-112 -52.5q-132 0 -106 184l46 316h40l-45 -311q-12 -84 7 -118t66 -34q66 0 118.5 75t71.5 212l25 176h40z
M407 597l-5 -35l-105 61l-125 -61l5 38l124 64z" />
    <glyph glyph-name="Ydieresis" unicode="&#x178;" horiz-adv-x="463" 
d="M242 225l-27 -225h-40l27 225l-140 430h44q68 -208 119 -385q101 173 214 385h49zM243 765l-2 -11q-3 -24 -28 -24q-15 0 -23 8t-6 21l2 11q3 25 29 25q33 0 28 -30zM370 765l-2 -11q-3 -24 -28 -24q-15 0 -23 8t-6 21l2 11q3 25 29 25q33 0 28 -30z" />
    <glyph glyph-name="Zacute" unicode="&#x179;" horiz-adv-x="472" 
d="M15 32l393 586h-315l5 37h366l-5 -32q-168 -237 -392 -586h320l-3 -37h-372zM266 706l77 111h47l-88 -111h-36z" />
    <glyph glyph-name="zacute" unicode="&#x17a;" horiz-adv-x="403" 
d="M379 488l-4 -32q-138 -171 -310 -418h252l-5 -38h-305l4 31l310 420h-247l5 37h300zM222 546l82 120h48l-93 -120h-37z" />
    <glyph glyph-name="Zdotaccent" unicode="&#x17b;" horiz-adv-x="472" 
d="M15 32l393 586h-315l5 37h366l-5 -32q-168 -237 -392 -586h320l-3 -37h-372zM320 768l-1 -12q-3 -26 -31 -26q-34 0 -31 31l2 13q4 26 32 26q32 0 29 -32z" />
    <glyph glyph-name="zdotaccent" unicode="&#x17c;" horiz-adv-x="403" 
d="M379 488l-4 -32q-138 -171 -310 -418h252l-5 -38h-305l4 31l310 420h-247l5 37h300zM275 618l-1 -13q-4 -25 -32 -25q-33 0 -30 31l2 12q4 27 33 27q33 0 28 -32z" />
    <glyph glyph-name="Zcaron" unicode="&#x17d;" horiz-adv-x="472" 
d="M15 32l393 586h-315l5 37h366l-5 -32q-168 -237 -392 -586h320l-3 -37h-372zM412 781l-130 -59l-114 60l4 35l116 -52l128 52z" />
    <glyph glyph-name="zcaron" unicode="&#x17e;" horiz-adv-x="403" 
d="M379 488l-4 -32q-138 -171 -310 -418h252l-5 -38h-305l4 31l310 420h-247l5 37h300zM359 630l-124 -65l-106 67l5 36l105 -61l125 61z" />
    <glyph glyph-name="longs" unicode="&#x17f;" horiz-adv-x="255" 
d="M283 695q27 0 62 -10l-4 -35q-33 10 -61 10q-37 0 -57.5 -23t-27.5 -77l-79 -560h-41l64 454h-71l3 25l72 7l10 69q10 75 42 107.5t88 32.5z" />
    <glyph glyph-name="florin" unicode="&#x192;" horiz-adv-x="292" 
d="M257 613q27 0 62 -10l-4 -35q-33 10 -61 10q-36 0 -57 -22.5t-28 -77.5l-11 -72h90l-4 -34h-90l-85 -599h-40l85 599h-72l3 25l73 7l10 69q12 76 42.5 108t86.5 32z" />
    <glyph glyph-name="AEacute" unicode="&#x1fc;" horiz-adv-x="773" 
d="M736 618h-274l-33 -266h254l-5 -38h-254l-34 -277h274l-3 -37h-314l20 172h-245q-102 -153 -115 -172h-45l440 655h339zM372 209l51 416q-108 -165 -277 -416h226zM542 706l77 111h47l-88 -111h-36z" />
    <glyph glyph-name="aeacute" unicode="&#x1fd;" horiz-adv-x="729" 
d="M557 500q60 0 93 -30.5t32 -83.5q-2 -82 -77.5 -138.5t-221.5 -65.5l-2 -20q-10 -75 13.5 -106t85.5 -31q63 0 139 39l-6 -40q-77 -36 -138 -36q-77 0 -109.5 39t-22.5 124q-31 -81 -78.5 -122t-101.5 -41q-64 0 -92 46.5t-14 137.5l24 152q28 176 161 176q43 0 84.5 -27
t69.5 -71q56 98 161 98zM555 464q-58 0 -102.5 -50t-56.5 -144l-8 -59q76 8 146 31q53 29 80.5 66t27.5 74q0 39 -23.5 60.5t-63.5 21.5zM247 463q-102 0 -125 -139l-24 -147q-24 -152 75 -152q61 0 112 63.5t72 181.5q6 54 25 104q-24 41 -61 65t-74 24zM377 546l82 120h48
l-93 -120h-37z" />
    <glyph glyph-name="Oslashacute" unicode="&#x1fe;" horiz-adv-x="576" 
d="M572 705l-80 -115q32 -56 20 -145l-31 -248q-13 -108 -65.5 -158.5t-155.5 -50.5q-98 0 -145 46l-61 -84h-42l79 112q-33 54 -21 148l31 249q14 112 65 160t155 48q100 0 149 -49l60 87h42zM318 631q-81 0 -123.5 -39t-53.5 -129l-32 -267q-7 -59 11 -97l328 485
q-39 47 -130 47zM464 552l-328 -483q39 -45 126 -45q82 0 125 41t54 128l32 266q7 54 -9 93zM311 706l77 111h47l-88 -111h-36z" />
    <glyph glyph-name="oslashacute" unicode="&#x1ff;" horiz-adv-x="481" 
d="M484 538l-86 -112q22 -45 12 -109l-21 -153q-24 -176 -182 -176q-76 0 -115 39l-60 -78h-41l81 106q-23 46 -13 118l21 153q13 90 56.5 132t125.5 42q77 0 117 -45l64 83h41zM259 464q-63 0 -96 -32t-43 -103l-22 -159q-6 -46 6 -77l250 327q-29 44 -95 44zM365 387
l-248 -325q29 -38 90 -38t95.5 32.5t44.5 102.5l22 158q6 39 -4 70zM226 546l82 120h48l-93 -120h-37z" />
    <glyph glyph-name="Scommaaccent" unicode="&#x218;" horiz-adv-x="452" 
d="M208 367l83 -32q118 -48 102 -180l-2 -10q-10 -82 -52.5 -119.5t-125.5 -37.5q-74 0 -166 37l6 40q70 -27 124 -37q30 -2 41 -2q62 0 94 28t39 89l2 16q13 103 -77 139l-95 38q-59 23 -84.5 70.5t-14.5 111.5l1 8q12 74 54.5 107.5t125.5 33.5q62 0 140 -21l-5 -39
q-72 18 -100 22q-15 1 -42 1q-119 0 -133 -107l-2 -14q-14 -103 87 -142zM244 -87l-2 -10q-1 -9 -8 -27l-28 -63h-30l26 68q-20 7 -17 29l1 9q4 25 30 25q32 0 28 -31z" />
    <glyph glyph-name="scommaaccent" unicode="&#x219;" horiz-adv-x="393" 
d="M216 500q49 0 110 -18l-6 -41q-39 14 -69 21q-22 2 -41 2q-89 0 -101 -68l-1 -6q-11 -67 57 -101l86 -44q86 -44 71 -132l-2 -13q-8 -54 -44 -83t-96 -29q-72 0 -142 35l8 40q40 -21 89 -35q21 -4 46 -4q86 0 100 81l1 6q12 69 -56 104l-87 43q-42 21 -60 57t-10 80l2 12
q19 93 145 93zM212 -87l-2 -10q-1 -9 -8 -27l-28 -63h-30l26 68q-20 7 -17 29l1 9q4 25 30 25q32 0 28 -31z" />
    <glyph glyph-name="uni021A" unicode="&#x21a;" horiz-adv-x="519" 
d="M82 655h443l-5 -37h-201l-76 -618h-40l76 618h-202zM244 -87l-2 -10q-1 -9 -8 -27l-28 -63h-30l26 68q-20 7 -17 29l1 9q4 25 30 25q32 0 28 -31z" />
    <glyph glyph-name="uni021B" unicode="&#x21b;" horiz-adv-x="336" 
d="M169 488h145l-4 -34h-146l-45 -318q-9 -64 5 -87.5t57 -23.5q40 0 87 20l-5 -37q-45 -20 -88 -20q-61 0 -84.5 34.5t-11.5 116.5l45 315h-70l3 25l72 7l32 132h26zM189 -87l-2 -10q-1 -9 -8 -27l-28 -63h-30l26 68q-20 7 -17 29l1 9q4 25 30 25q32 0 28 -31z" />
    <glyph glyph-name="dotlessj" unicode="&#x237;" horiz-adv-x="211" 
d="M154 488l-83 -579q-7 -58 -32 -82t-73 -24q-26 0 -65 11l5 37q29 -11 61 -11q29 0 44 14.5t20 50.5l83 583h40z" />
    <glyph glyph-name="uni02BC" unicode="&#x2bc;" horiz-adv-x="129" 
d="M98 664l-2 -10q-1 -8 -8 -27l-28 -63h-30l26 68q-20 7 -17 29l1 9q4 25 30 25q32 0 28 -31z" />
    <glyph glyph-name="circumflex" unicode="&#x2c6;" horiz-adv-x="295" 
d="M265 597l-5 -35l-105 61l-125 -61l5 38l124 64z" />
    <glyph glyph-name="caron" unicode="&#x2c7;" horiz-adv-x="295" 
d="M260 630l-124 -65l-106 67l5 36l105 -61l125 61z" />
    <glyph glyph-name="uni02C9" unicode="&#x2c9;" horiz-adv-x="257" 
d="M35 634h192l-5 -39h-192z" />
    <glyph glyph-name="breve" unicode="&#x2d8;" horiz-adv-x="295" 
d="M265 655l-6 -45q-5 -6 -14 -15t-40.5 -23.5t-66.5 -14.5q-34 0 -61 13.5t-37 27.5l-10 13l6 44q2 -2 4.5 -6.5t13 -14.5t21.5 -18t29.5 -14.5t37.5 -6.5q32 0 62.5 15t45.5 30z" />
    <glyph glyph-name="dotaccent" unicode="&#x2d9;" horiz-adv-x="123" 
d="M93 618l-1 -13q-4 -25 -32 -25q-33 0 -30 31l2 12q4 27 33 27q33 0 28 -32z" />
    <glyph glyph-name="ring" unicode="&#x2da;" horiz-adv-x="249" 
d="M130 710q42 0 65.5 -20t23.5 -56q0 -41 -26.5 -67t-72.5 -26q-42 0 -66 19.5t-24 57.5q0 42 26.5 67t73.5 25zM129 683q-66 0 -66 -62q0 -24 15.5 -38.5t43.5 -14.5q65 0 65 64q0 24 -15 37.5t-43 13.5z" />
    <glyph glyph-name="ogonek" unicode="&#x2db;" horiz-adv-x="202" 
d="M153 -157l-4 -34q-27 -6 -44 -6q-39 0 -59 21.5t-15 56.5l1 9q5 41 41 76.5t78 43.5l21 -6q-40 -14 -68.5 -44.5t-33.5 -63.5l-1 -8q-7 -51 48 -51q12 0 36 6z" />
    <glyph glyph-name="tilde" unicode="&#x2dc;" horiz-adv-x="289" 
d="M259 638l-5 -36q-29 -23 -70 -23q-17 0 -43.5 12.5t-40.5 12.5q-15 0 -32.5 -5.5t-27.5 -10.5l-10 -6l5 35q29 25 71 25q23 0 47 -12.5t36 -12.5q15 0 32.5 5.5t27.5 10.5z" />
    <glyph glyph-name="hungarumlaut" unicode="&#x2dd;" horiz-adv-x="270" 
d="M65 544h-36l67 122h43zM165 544h-36l67 122h43z" />
    <glyph glyph-name="uni0312" unicode="&#x312;" horiz-adv-x="0" 
d="M31 590l2 10q1 12 9 27l28 63h29l-26 -69q20 -5 17 -28l-1 -10q-5 -24 -30 -24q-32 0 -28 31z" />
    <glyph glyph-name="uni0313" unicode="&#x313;" horiz-adv-x="0" 
d="M98 664l-2 -10q-1 -8 -8 -27l-28 -63h-30l26 68q-20 7 -17 29l1 9q4 25 30 25q32 0 28 -31z" />
    <glyph glyph-name="uni0326" unicode="&#x326;" horiz-adv-x="0" 
d="M98 -87l-2 -10q-1 -9 -8 -27l-28 -63h-30l26 68q-20 7 -17 29l1 9q4 25 30 25q32 0 28 -31z" />
    <glyph glyph-name="uni037E" unicode="&#x37e;" horiz-adv-x="199" 
d="M120 453q34 0 31 -31l-2 -13q-5 -26 -33 -26q-18 0 -26 8t-6 22l2 12q3 28 34 28zM64 58q36 0 31 -35l-2 -11q-1 -12 -9 -29l-37 -83h-35l34 89q-21 8 -16 32l1 12q4 25 33 25z" />
    <glyph glyph-name="tonos" unicode="&#x384;" horiz-adv-x="152" 
d="M30 544l45 139h47l-59 -139h-33z" />
    <glyph glyph-name="dieresistonos" unicode="&#x385;" horiz-adv-x="242" 
d="M109 668l45 132h46l-58 -132h-33zM87 614l-2 -11q-3 -23 -27 -23q-32 0 -27 28l1 11q4 24 29 24q31 0 26 -29zM211 614l-2 -11q-3 -23 -27 -23q-32 0 -27 28l1 11q4 24 29 24q31 0 26 -29z" />
    <glyph glyph-name="Alphatonos" unicode="&#x386;" horiz-adv-x="512" 
d="M462 0h-45q-22 114 -34 171h-284q-50 -114 -76 -171h-44l290 655h54zM290 616q-57 -135 -175 -407h260q-56 272 -85 407zM131 516h-33l40 139h46z" />
    <glyph glyph-name="anoteleia" unicode="&#x387;" horiz-adv-x="198" 
d="M64 259q34 0 31 -31l-2 -13q-5 -26 -33 -26q-18 0 -26 8t-6 22l2 12q3 28 34 28z" />
    <glyph glyph-name="Epsilontonos" unicode="&#x388;" horiz-adv-x="477" 
d="M131 655h314l-5 -37h-274l-33 -266h254l-5 -38h-254l-34 -277h274l-3 -37h-314zM40 516h-33l40 139h46z" />
    <glyph glyph-name="Etatonos" unicode="&#x389;" horiz-adv-x="579" 
d="M455 320h-326l-38 -320h-40l80 655h40l-37 -298h326l37 298h40l-80 -655h-40zM40 516h-33l40 139h46z" />
    <glyph glyph-name="Iotatonos" unicode="&#x38a;" horiz-adv-x="213" 
d="M131 655h40l-80 -655h-40zM40 516h-33l40 139h46z" />
    <glyph glyph-name="Omicrontonos" unicode="&#x38c;" horiz-adv-x="576" 
d="M322 667q105 0 154.5 -55.5t37.5 -157.5l-32 -259q-13 -105 -66 -156t-155 -51q-104 0 -154 56t-37 161l32 256q13 110 65 158t155 48zM318 631q-82 0 -124 -39t-53 -129l-32 -264q-10 -86 30 -130.5t123 -44.5q82 0 125 41t54 128l32 266q11 86 -29 129t-126 43zM55 516
h-33l40 139h46z" />
    <glyph glyph-name="Upsilontonos" unicode="&#x38e;" horiz-adv-x="463" 
d="M-9 516h-33l40 139h46zM242 225l-27 -225h-40l27 225l-140 430h44q68 -208 119 -385q101 173 214 385h49z" />
    <glyph glyph-name="Omegatonos" unicode="&#x38f;" horiz-adv-x="576" 
d="M321 667q105 0 155 -55.5t37 -158.5l-29 -244q-15 -122 -107 -171h96l-3 -38h-189l3 35h9q55 0 98.5 49.5t51.5 117.5l31 256q10 86 -31 129.5t-126 43.5q-80 0 -122.5 -39t-53.5 -129l-30 -260q-8 -69 24 -118.5t86 -49.5h7l-3 -35h-188l3 38h98q-82 52 -67 175l30 248
q14 111 66 158.5t154 47.5zM55 516h-33l40 139h46z" />
    <glyph glyph-name="iotadieresistonos" unicode="&#x390;" horiz-adv-x="211" 
d="M86 0h-40l68 488h40zM128 668l45 132h46l-58 -132h-33zM106 614l-2 -11q-3 -23 -27 -23q-32 0 -27 28l1 11q4 24 29 24q31 0 26 -29zM230 614l-2 -11q-3 -23 -27 -23q-32 0 -27 28l1 11q4 24 29 24q31 0 26 -29z" />
    <glyph glyph-name="Alpha" unicode="&#x391;" horiz-adv-x="512" 
d="M462 0h-45q-22 114 -34 171h-284q-50 -114 -76 -171h-44l290 655h54zM290 616q-57 -135 -175 -407h260q-56 272 -85 407z" />
    <glyph glyph-name="Beta" unicode="&#x392;" horiz-adv-x="527" 
d="M50 -5l82 667q115 5 151 5q106 0 156.5 -46t39.5 -125l-2 -13q-14 -113 -125 -148q58 -12 89 -55t24 -105l-2 -19q-18 -168 -239 -168q-63 0 -174 7zM132 349h153q60 0 101.5 36t49.5 92l2 13q10 69 -30 104.5t-134 35.5q-57 0 -108 -3zM128 315l-35 -284q64 -6 132 -6
q184 0 199 135l1 11q8 69 -29.5 106.5t-114.5 37.5h-153z" />
    <glyph glyph-name="Gamma" unicode="&#x393;" horiz-adv-x="434" 
d="M436 618h-270l-75 -618h-40l80 655h310z" />
    <glyph glyph-name="uni0394" unicode="&#x394;" horiz-adv-x="499" 
d="M446 29l-2 -29h-458l3 28l278 627h50zM286 616q-146 -351 -254 -579h370q-48 269 -116 579z" />
    <glyph glyph-name="Epsilon" unicode="&#x395;" horiz-adv-x="477" 
d="M131 655h314l-5 -37h-274l-33 -266h254l-5 -38h-254l-34 -277h274l-3 -37h-314z" />
    <glyph glyph-name="Zeta" unicode="&#x396;" horiz-adv-x="472" 
d="M15 32l393 586h-315l5 37h366l-5 -32q-168 -237 -392 -586h320l-3 -37h-372z" />
    <glyph glyph-name="Eta" unicode="&#x397;" horiz-adv-x="579" 
d="M455 320h-326l-38 -320h-40l80 655h40l-37 -298h326l37 298h40l-80 -655h-40z" />
    <glyph glyph-name="Theta" unicode="&#x398;" horiz-adv-x="576" 
d="M322 667q105 0 154.5 -55.5t37.5 -157.5l-32 -259q-13 -105 -66 -156t-155 -51q-104 0 -154 56t-37 161l32 256q13 110 65 158t155 48zM318 631q-82 0 -124 -39t-53 -129l-32 -264q-10 -86 30 -130.5t123 -44.5q82 0 125 41t54 128l32 266q11 86 -29 129t-126 43z
M372 319h-167l2 38h167z" />
    <glyph glyph-name="Iota" unicode="&#x399;" horiz-adv-x="213" 
d="M131 655h40l-80 -655h-40z" />
    <glyph glyph-name="Kappa" unicode="&#x39a;" horiz-adv-x="498" 
d="M131 655h40l-39 -313q184 162 339 313h51l-343 -319l287 -336h-53q-143 181 -282 331l-40 -331h-40z" />
    <glyph glyph-name="Lambda" unicode="&#x39b;" horiz-adv-x="511" 
d="M461 0h-44q-91 453 -125 617q-144 -340 -268 -617h-45l290 655h53z" />
    <glyph glyph-name="Mu" unicode="&#x39c;" horiz-adv-x="698" 
d="M581 0h-41l68 597l-261 -529h-53l-130 529l-77 -597h-41l85 655h58q84 -320 134 -547q130 249 267 547h66z" />
    <glyph glyph-name="Nu" unicode="&#x39d;" horiz-adv-x="582" 
d="M165 607l-74 -607h-40l80 655h58q125 -300 237 -603l74 603h40l-80 -655h-55z" />
    <glyph glyph-name="Xi" unicode="&#x39e;" horiz-adv-x="476" 
d="M458 613h-363l6 42h362zM353 312h-228l5 42h227zM384 0h-363l4 42h363z" />
    <glyph glyph-name="Omicron" unicode="&#x39f;" horiz-adv-x="576" 
d="M322 667q105 0 154.5 -55.5t37.5 -157.5l-32 -259q-13 -105 -66 -156t-155 -51q-104 0 -154 56t-37 161l32 256q13 110 65 158t155 48zM318 631q-82 0 -124 -39t-53 -129l-32 -264q-10 -86 30 -130.5t123 -44.5q82 0 125 41t54 128l32 266q11 86 -29 129t-126 43z" />
    <glyph glyph-name="Pi" unicode="&#x3a0;" horiz-adv-x="579" 
d="M457 0h-40l75 618h-326l-75 -618h-40l80 655h406z" />
    <glyph glyph-name="Rho" unicode="&#x3a1;" horiz-adv-x="505" 
d="M282 667q110 0 164 -52t43 -145l-2 -10q-10 -93 -68.5 -142.5t-162.5 -49.5q-51 0 -130 18l-35 -286h-40l81 660q129 7 150 7zM279 631q-45 0 -113 -5l-37 -306q67 -16 128 -16q168 0 189 156l1 9q10 77 -33 119.5t-135 42.5z" />
    <glyph glyph-name="Sigma" unicode="&#x3a3;" horiz-adv-x="457" 
d="M452 618h-315l146 -274l-4 -27l-211 -280h311l-3 -37h-361l2 31l229 302l-156 290l5 32h361z" />
    <glyph glyph-name="Tau" unicode="&#x3a4;" horiz-adv-x="519" 
d="M82 655h443l-5 -37h-201l-76 -618h-40l76 618h-202z" />
    <glyph glyph-name="Upsilon" unicode="&#x3a5;" horiz-adv-x="463" 
d="M242 225l-27 -225h-40l27 225l-140 430h44q68 -208 119 -385q101 173 214 385h49z" />
    <glyph glyph-name="Phi" unicode="&#x3a6;" horiz-adv-x="756" 
d="M445 695l-10 -86q43 8 79 8q104 0 147 -48.5t29 -159.5l-18 -145q-13 -107 -65 -151.5t-160 -44.5q-34 0 -78 7l-10 -87h-40l10 87q-47 -7 -79 -7q-102 0 -144.5 49.5t-28.5 160.5l18 145q13 107 63.5 150.5t157.5 43.5q43 0 79 -7l10 85h40zM312 583q-85 0 -126 -34.5
t-51 -115.5l-20 -167q-10 -86 24 -125t115 -39q36 0 78 7l58 468q-38 6 -78 6zM510 582q-41 0 -80 -6l-57 -467q35 -7 78 -7q86 0 128 35t52 117l20 167q10 85 -24 123t-117 38z" />
    <glyph glyph-name="Chi" unicode="&#x3a7;" horiz-adv-x="491" 
d="M277 337l160 -337h-48q-56 130 -143 302q-104 -155 -213 -302h-50l243 336l-152 319h45q74 -149 134 -285q124 169 204 285h50z" />
    <glyph glyph-name="Psi" unicode="&#x3a8;" horiz-adv-x="726" 
d="M685 655l-39 -313q-19 -160 -177 -160h-100l-21 -182h-40l21 182h-80q-85 0 -126 45.5t-31 132.5l37 295h40l-38 -299q-9 -68 22.5 -103t93.5 -35h86l55 437h40l-55 -437h98q119 0 134 121l40 316h40z" />
    <glyph glyph-name="uni03A9" unicode="&#x3a9;" horiz-adv-x="576" 
d="M321 667q105 0 155 -55.5t37 -158.5l-29 -244q-15 -122 -107 -171h96l-3 -38h-189l3 35h9q55 0 98.5 49.5t51.5 117.5l31 256q10 86 -31 129.5t-126 43.5q-80 0 -122.5 -39t-53.5 -129l-30 -260q-8 -69 24 -118.5t86 -49.5h7l-3 -35h-188l3 38h98q-82 52 -67 175l30 248
q14 111 66 158.5t154 47.5z" />
    <glyph glyph-name="Iotadieresis" unicode="&#x3aa;" horiz-adv-x="213" 
d="M131 655h40l-80 -655h-40zM125 765l-2 -11q-3 -24 -28 -24q-15 0 -23 8t-6 21l2 11q3 25 29 25q33 0 28 -30zM252 765l-2 -11q-3 -24 -28 -24q-15 0 -23 8t-6 21l2 11q3 25 29 25q32 0 28 -30z" />
    <glyph glyph-name="Upsilondieresis" unicode="&#x3ab;" horiz-adv-x="463" 
d="M245 765l-2 -11q-3 -24 -28 -24q-15 0 -23 8t-6 21l2 11q3 25 29 25q33 0 28 -30zM372 765l-2 -11q-3 -24 -28 -24q-15 0 -23 8t-6 21l2 11q3 25 29 25q32 0 28 -30zM242 225l-27 -225h-40l27 225l-140 430h44q68 -208 119 -385q101 173 214 385h49z" />
    <glyph glyph-name="alphatonos" unicode="&#x3ac;" horiz-adv-x="474" 
d="M239 500q78 0 141 -80l9 68h37l-8 -62l-21 -105l-18 -173l-21 -148h-37l5 39l35 159l-2 2l-3 -2q-30 -105 -81.5 -157.5t-111.5 -52.5q-62 0 -91 44.5t-14 139.5l23 151q28 177 158 177zM242 463q-98 0 -120 -139l-24 -147q-14 -83 6.5 -117.5t68.5 -34.5q64 0 115 71
t71 204l13 89q-62 74 -130 74zM253 544l45 139h47l-59 -139h-33z" />
    <glyph glyph-name="epsilontonos" unicode="&#x3ad;" horiz-adv-x="375" 
d="M216 500q50 0 117 -20l-7 -36q-60 21 -113 21q-83 0 -95 -75l-1 -7q-8 -48 19 -83.5t77 -35.5h73l-6 -34h-75q-58 0 -92 -24t-39 -67l-2 -9q-6 -51 18.5 -78.5t79.5 -27.5q47 0 110 22l-4 -37q-68 -21 -111 -21q-69 0 -104.5 38.5t-28.5 101.5l2 10q5 44 37 74.5t81 38.5
q-41 15 -62 54t-11 88l1 5q19 102 136 102zM209 544l45 139h47l-59 -139h-33z" />
    <glyph glyph-name="etatonos" unicode="&#x3ae;" horiz-adv-x="493" 
d="M327 500q57 0 79 -41.5t8 -140.5l-72 -503h-40l73 507q11 78 -4 109t-54 31q-68 0 -133 -111.5t-91 -297.5l-7 -53h-40l68 488h37l-12 -83l-34 -166l3 -2l3 2q35 125 95.5 193t120.5 68zM251 544l45 139h47l-59 -139h-33z" />
    <glyph glyph-name="iotatonos" unicode="&#x3af;" horiz-adv-x="211" 
d="M86 0h-40l68 488h40zM122 544l45 139h47l-59 -139h-33z" />
    <glyph glyph-name="upsilondieresistonos" unicode="&#x3b0;" horiz-adv-x="488" 
d="M431 488l-48 -333q-24 -167 -171 -167q-77 0 -117 48t-28 131l46 321h40l-46 -327q-9 -63 21.5 -100t85.5 -37q52 0 86 32.5t43 95.5l48 336h40zM265 668l45 132h46l-58 -132h-33zM243 614l-2 -11q-3 -23 -27 -23q-32 0 -27 28l1 11q4 24 29 24q31 0 26 -29zM367 614
l-2 -11q-3 -23 -27 -23q-32 0 -27 28l1 11q4 24 29 24q31 0 26 -29z" />
    <glyph glyph-name="alpha" unicode="&#x3b1;" horiz-adv-x="474" 
d="M239 500q78 0 141 -80l9 68h37l-8 -62l-21 -105l-18 -173l-21 -148h-37l5 39l35 159l-2 2l-3 -2q-30 -105 -81.5 -157.5t-111.5 -52.5q-62 0 -91 44.5t-14 139.5l23 151q28 177 158 177zM242 463q-98 0 -120 -139l-24 -147q-14 -83 6.5 -117.5t68.5 -34.5q64 0 115 71
t71 204l13 89q-62 74 -130 74z" />
    <glyph glyph-name="beta" unicode="&#x3b2;" horiz-adv-x="463" 
d="M272 695q66 0 103.5 -43.5t28.5 -115.5l-3 -24q-6 -48 -29.5 -82t-57.5 -45q46 -9 70.5 -51t16.5 -106l-9 -64q-24 -176 -156 -176q-37 0 -77 17.5t-66 44.5q-9 -53 -49 -235h-40q35 138 53 270l65 458q12 82 47.5 117t102.5 35zM269 658q-47 0 -73 -25.5t-34 -86.5
l-65 -462q26 -26 64.5 -42.5t70.5 -16.5q100 0 121 148l6 42q10 79 -14 113.5t-81 34.5h-47l5 33h34q90 0 104 123l2 16q7 59 -18.5 91t-74.5 32z" />
    <glyph glyph-name="gamma" unicode="&#x3b3;" horiz-adv-x="426" 
d="M193 0l-27 -185h-40l27 185l-107 488h41q63 -295 89 -441l1 -1l3 2q121 246 209 440h48z" />
    <glyph glyph-name="delta" unicode="&#x3b4;" horiz-adv-x="477" 
d="M452 687l-5 -34q-70 -7 -158 -7h-29q69 -33 111.5 -120t28.5 -192l-25 -180q-24 -166 -165 -166q-85 0 -126 49.5t-28 141.5l14 101q12 91 46 129.5t91 38.5q44 0 85 -30.5t68 -86.5l3 24q12 98 -37.5 183t-142.5 117l3 25h114q63 0 152 7zM210 411q-42 0 -66.5 -30.5
t-35.5 -106.5l-14 -105q-10 -72 22 -108.5t96 -36.5q104 0 121 123l20 141q-21 48 -59 85.5t-84 37.5z" />
    <glyph glyph-name="epsilon" unicode="&#x3b5;" horiz-adv-x="375" 
d="M216 500q50 0 117 -20l-7 -36q-60 21 -113 21q-83 0 -95 -75l-1 -7q-8 -48 19 -83.5t77 -35.5h73l-6 -34h-75q-58 0 -92 -24t-39 -67l-2 -9q-6 -51 18.5 -78.5t79.5 -27.5q47 0 110 22l-4 -37q-68 -21 -111 -21q-69 0 -104.5 38.5t-28.5 101.5l2 10q5 44 37 74.5t81 38.5
q-41 15 -62 54t-11 88l1 5q19 102 136 102z" />
    <glyph glyph-name="zeta" unicode="&#x3b6;" horiz-adv-x="404" 
d="M414 652l-84 -95q-119 -136 -170 -224.5t-61 -158.5q-10 -73 20 -105.5t100 -32.5q75 0 95 -16.5t12 -70.5q-6 -42 -15 -79h-40q8 27 15 75q5 34 -7.5 44.5t-58.5 10.5h-17q-83 0 -120 46t-24 136q11 77 64 166.5t171 217.5l75 81h-120q-83 0 -138 -13l4 36q66 13 171 13
h132z" />
    <glyph glyph-name="eta" unicode="&#x3b7;" horiz-adv-x="493" 
d="M327 500q57 0 79 -41.5t8 -140.5l-72 -503h-40l73 507q11 78 -4 109t-54 31q-68 0 -133 -111.5t-91 -297.5l-7 -53h-40l68 488h37l-12 -83l-34 -166l3 -2l3 2q35 125 95.5 193t120.5 68z" />
    <glyph glyph-name="theta" unicode="&#x3b8;" horiz-adv-x="505" 
d="M301 695q81 0 121.5 -48t27.5 -134l-48 -349q-13 -89 -57.5 -132.5t-125.5 -43.5q-84 0 -123 48t-26 140l48 346q13 90 57.5 131.5t125.5 41.5zM299 659q-62 0 -96 -32t-44 -103l-21 -150h252l20 141q10 70 -20.5 107t-90.5 37zM133 340l-24 -169q-10 -73 19.5 -110
t90.5 -37q122 0 141 135l25 181h-252z" />
    <glyph glyph-name="iota" unicode="&#x3b9;" horiz-adv-x="211" 
d="M86 0h-40l68 488h40z" />
    <glyph glyph-name="kappa" unicode="&#x3ba;" horiz-adv-x="407" 
d="M163 258l192 -258h-51q-57 85 -183 252l-35 -252h-40l68 488h40l-31 -223q80 74 233 223h51z" />
    <glyph glyph-name="lambda" unicode="&#x3bb;" horiz-adv-x="422" 
d="M177 683h40q61 -245 95 -409l59 -274h-41q-37 196 -97 458l-2 2l-3 -2q-85 -196 -209 -458h-41l228 488h20q-25 108 -49 195z" />
    <glyph glyph-name="uni03BC" unicode="&#x3bc;" horiz-adv-x="488" 
d="M369 0h-38l4 30l37 168l-2 2l-3 -2q-30 -104 -81 -157t-111 -53q-63 0 -86 51q-11 -72 -45 -224h-40q33 133 55 281l55 392h40l-45 -311q-12 -84 7 -118t66 -34q66 0 118.5 75t71.5 212l25 176h40z" />
    <glyph glyph-name="nu" unicode="&#x3bd;" horiz-adv-x="424" 
d="M197 0h-50l-101 488h39q57 -273 88 -448l2 -2l3 2q111 219 213 448h44z" />
    <glyph glyph-name="xi" unicode="&#x3be;" horiz-adv-x="383" 
d="M400 649h-18q-99 -1 -158 -42.5t-68 -111.5l-1 -13q-6 -46 21 -77t77 -31h53l-6 -34h-60q-113 0 -131 -140l-4 -27q-10 -73 20.5 -105.5t101.5 -32.5q66 0 84.5 -16t10.5 -66q-12 -66 -16 -83h-37q7 26 15 78q4 32 -7.5 42t-52.5 10h-7q-86 0 -125 42.5t-27 125.5l6 46
q8 60 41 97.5t85 48.5q-42 13 -64.5 47.5t-17.5 76.5l2 14q8 56 51 96.5t108 54.5h-28q-68 0 -146 -16l4 36q75 14 204 14h95z" />
    <glyph glyph-name="omicron" unicode="&#x3bf;" horiz-adv-x="480" 
d="M410 317l-20 -153q-24 -176 -183 -176q-84 0 -122.5 47.5t-25.5 137.5l21 153q13 90 56.5 132t125.5 42q81 0 121 -48.5t27 -134.5zM348 159l22 161q10 69 -20 106.5t-91 37.5q-63 0 -96 -32t-43 -103l-22 -160q-10 -71 19 -108t90 -37q122 0 141 135z" />
    <glyph glyph-name="pi" unicode="&#x3c0;" horiz-adv-x="543" 
d="M522 452h-70l-50 -358q-6 -42 2 -56t33 -14q22 0 44 8l-5 -35q-22 -9 -48 -9q-41 0 -57 26t-8 88l49 350h-243l-63 -452h-40l63 452h-3q-38 0 -69 -11l5 36q33 11 87 11h378z" />
    <glyph glyph-name="rho" unicode="&#x3c1;" horiz-adv-x="479" 
d="M261 500q81 0 120 -49.5t25 -146.5l-23 -154q-24 -162 -146 -162q-35 0 -77.5 18.5t-72.5 45.5q-9 -60 -48 -237h-40q38 150 53 270l34 241q13 91 55.5 132.5t119.5 41.5zM259 464q-58 0 -90.5 -31.5t-42.5 -102.5l-35 -246q27 -24 66 -41.5t69 -17.5q49 0 78 30t40 100
l22 153q21 156 -107 156z" />
    <glyph glyph-name="sigma1" unicode="&#x3c2;" horiz-adv-x="399" 
d="M249 500q40 0 101 -17l-6 -37q-59 18 -97 18q-110 0 -129 -134l-21 -157q-19 -137 110 -137q74 0 92.5 -16.5t10.5 -74.5q-2 -13 -14 -75h-40q9 32 14 74q5 35 -6 45.5t-56 10.5h-18q-72 0 -108 44.5t-25 127.5l21 155q12 92 55 132.5t116 40.5z" />
    <glyph glyph-name="sigma" unicode="&#x3c3;" horiz-adv-x="481" 
d="M262 500q39 0 70 -11h150l-5 -35h-100q44 -44 32 -142l-19 -148q-24 -176 -183 -176q-84 0 -122.5 47.5t-25.5 137.5l21 153q13 90 56.5 132t125.5 42zM259 464q-63 0 -96 -32t-43 -103l-22 -160q-10 -71 19 -108t90 -37q122 0 141 135l22 161q10 69 -20 106.5t-91 37.5z
" />
    <glyph glyph-name="tau" unicode="&#x3c4;" horiz-adv-x="427" 
d="M408 450h-152l-62 -450h-41l63 450h-152l6 38h344z" />
    <glyph glyph-name="upsilon" unicode="&#x3c5;" horiz-adv-x="488" 
d="M431 488l-48 -333q-24 -167 -171 -167q-77 0 -117 48t-28 131l46 321h40l-46 -327q-9 -63 21.5 -100t85.5 -37q52 0 86 32.5t43 95.5l48 336h40z" />
    <glyph glyph-name="phi" unicode="&#x3c6;" horiz-adv-x="693" 
d="M477 500q78 0 117 -48.5t26 -139.5l-22 -154q-13 -84 -57.5 -127t-115.5 -43q-46 0 -94 17l-27 -190h-40l27 187q-51 -14 -87 -14q-72 0 -108 53t-24 153q15 121 66 294h40q-53 -177 -67 -301q-9 -82 19 -122.5t80 -40.5q43 0 85 12l65 453q70 11 117 11zM473 465
q-39 0 -78 -6l-60 -423q37 -12 86 -12q117 0 137 133l22 157q12 75 -18 113t-89 38z" />
    <glyph glyph-name="chi" unicode="&#x3c7;" horiz-adv-x="393" 
d="M217 253l124 -253h-47q-54 122 -102 224l-2 2l-3 -2q-72 -103 -163 -224h-51l193 253l-113 235h44q72 -152 95 -205l2 -2l3 2q87 116 148 205h51z" />
    <glyph glyph-name="psi" unicode="&#x3c8;" horiz-adv-x="714" 
d="M656 488l-45 -321q-13 -87 -59 -133t-118 -46q-44 0 -96 15l-27 -188h-40l27 187q-54 -14 -91 -14q-75 0 -112 50.5t-25 142.5q13 112 65 307h39q-52 -204 -65 -317q-7 -71 21.5 -109t81.5 -38q46 0 91 12l63 452h40l-63 -452q36 -12 89 -12t91.5 36t47.5 103l45 325h40z
" />
    <glyph glyph-name="omega" unicode="&#x3c9;" horiz-adv-x="727" 
d="M669 488l-48 -338q-23 -162 -154 -162q-49 0 -86.5 36.5t-41.5 90.5q-18 -55 -63.5 -91t-92.5 -36q-63 0 -94 48t-18 147q15 123 64 305h40q-47 -177 -64 -308q-21 -154 81 -154q44 0 85 41t49 100l41 292h40l-41 -292q-8 -63 23.5 -102t77.5 -39q97 0 115 132l47 330h40
z" />
    <glyph glyph-name="iotadieresis" unicode="&#x3ca;" horiz-adv-x="211" 
d="M86 0h-40l68 488h40zM109 615l-2 -11q-3 -24 -29 -24q-14 0 -22 8t-6 21l2 11q3 25 30 25q32 0 27 -30zM236 615l-2 -11q-3 -24 -29 -24q-15 0 -22.5 8t-5.5 21l2 11q3 25 30 25q31 0 27 -30z" />
    <glyph glyph-name="upsilondieresis" unicode="&#x3cb;" horiz-adv-x="488" 
d="M431 488l-48 -333q-24 -167 -171 -167q-77 0 -117 48t-28 131l46 321h40l-46 -327q-9 -63 21.5 -100t85.5 -37q52 0 86 32.5t43 95.5l48 336h40zM246 615l-2 -11q-3 -24 -29 -24q-15 0 -22.5 8t-5.5 21l2 11q3 25 30 25q31 0 27 -30zM373 615l-2 -11q-3 -24 -29 -24
q-14 0 -22 8t-6 21l2 11q3 25 30 25q14 0 21.5 -7.5t5.5 -22.5z" />
    <glyph glyph-name="omicrontonos" unicode="&#x3cc;" horiz-adv-x="480" 
d="M245 544l45 139h47l-59 -139h-33zM410 317l-20 -153q-24 -176 -183 -176q-84 0 -122.5 47.5t-25.5 137.5l21 153q13 90 56.5 132t125.5 42q81 0 121 -48.5t27 -134.5zM348 159l22 161q10 69 -20 106.5t-91 37.5q-63 0 -96 -32t-43 -103l-22 -160q-10 -71 19 -108t90 -37
q122 0 141 135z" />
    <glyph glyph-name="upsilontonos" unicode="&#x3cd;" horiz-adv-x="488" 
d="M431 488l-48 -333q-24 -167 -171 -167q-77 0 -117 48t-28 131l46 321h40l-46 -327q-9 -63 21.5 -100t85.5 -37q52 0 86 32.5t43 95.5l48 336h40zM259 544l45 139h47l-59 -139h-33z" />
    <glyph glyph-name="omegatonos" unicode="&#x3ce;" horiz-adv-x="727" 
d="M669 488l-48 -338q-23 -162 -154 -162q-49 0 -86.5 36.5t-41.5 90.5q-18 -55 -63.5 -91t-92.5 -36q-63 0 -94 48t-18 147q15 123 64 305h40q-47 -177 -64 -308q-21 -154 81 -154q44 0 85 41t49 100l41 292h40l-41 -292q-8 -63 23.5 -102t77.5 -39q97 0 115 132l47 330h40
zM380 544l45 139h47l-59 -139h-33z" />
    <glyph glyph-name="uni0401" unicode="&#x401;" horiz-adv-x="477" 
d="M131 655h314l-5 -37h-274l-33 -266h254l-5 -38h-254l-34 -277h274l-3 -37h-314zM257 765l-2 -11q-3 -24 -28 -24q-15 0 -23 8t-6 21l2 11q3 25 29 25q33 0 28 -30zM384 765l-2 -11q-3 -24 -28 -24q-15 0 -23 8t-6 21l2 11q3 25 29 25q32 0 28 -30z" />
    <glyph glyph-name="uni0402" unicode="&#x402;" horiz-adv-x="701" 
d="M520 618h-202l-28 -227q98 36 170 36q93 0 139 -54t32 -159l-14 -106q-9 -66 -35 -93t-80 -27q-31 0 -77 12l4 38q35 -13 73 -13q34 0 51.5 18.5t23.5 65.5l14 109q11 87 -26 130t-112 43q-79 0 -167 -35l-43 -356h-40l76 618h-202l5 37h443z" />
    <glyph glyph-name="uni0403" unicode="&#x403;" horiz-adv-x="434" 
d="M436 618h-270l-75 -618h-40l80 655h310zM253 706l77 111h47l-88 -111h-36z" />
    <glyph glyph-name="uni0404" unicode="&#x404;" horiz-adv-x="481" 
d="M298 667q69 0 148 -27l-7 -39q-81 29 -146 29q-69 0 -105 -38t-48 -134l-12 -102h257l-5 -37h-257l-15 -128q-10 -86 22 -125.5t106 -39.5q54 0 139 32l-3 -41q-80 -29 -141 -29q-188 0 -162 212l31 254q15 120 60 166.5t138 46.5z" />
    <glyph glyph-name="uni0405" unicode="&#x405;" horiz-adv-x="452" 
d="M208 367l83 -32q118 -48 102 -180l-2 -10q-10 -82 -52.5 -119.5t-125.5 -37.5q-74 0 -166 37l6 40q70 -27 124 -37q30 -2 41 -2q62 0 94 28t39 89l2 16q13 103 -77 139l-95 38q-59 23 -84.5 70.5t-14.5 111.5l1 8q12 74 54.5 107.5t125.5 33.5q62 0 140 -21l-5 -39
q-72 18 -100 22q-15 1 -42 1q-119 0 -133 -107l-2 -14q-14 -103 87 -142z" />
    <glyph glyph-name="uni0406" unicode="&#x406;" horiz-adv-x="213" 
d="M131 655h40l-80 -655h-40z" />
    <glyph glyph-name="uni0407" unicode="&#x407;" horiz-adv-x="213" 
d="M131 655h40l-80 -655h-40zM125 765l-2 -11q-3 -24 -28 -24q-15 0 -23 8t-6 21l2 11q3 25 29 25q33 0 28 -30zM252 765l-2 -11q-3 -24 -28 -24q-15 0 -23 8t-6 21l2 11q3 25 29 25q32 0 28 -30z" />
    <glyph glyph-name="uni0408" unicode="&#x408;" horiz-adv-x="269" 
d="M227 655l-67 -545q-9 -68 -35 -95t-79 -27q-40 0 -78 12l4 38q37 -13 73 -13q34 0 51.5 18.5t23.5 66.5l67 545h40z" />
    <glyph glyph-name="uni0409" unicode="&#x409;" horiz-adv-x="857" 
d="M338 667q69 0 173 -26l-34 -279q72 10 118 10q109 0 162.5 -49t43.5 -138l-1 -12q-20 -185 -240 -185q-79 0 -168 10l75 614q-69 19 -130 19q-84 0 -127 -38t-55 -128l-41 -304q-13 -97 -39 -135t-72 -38q-23 0 -40 5l3 36q22 -4 37 -4q27 0 43.5 28t27.5 106l41 304
q15 110 67 157t156 47zM586 336q-29 0 -113 -9l-36 -294q56 -8 123 -8q180 0 199 150l1 10q8 74 -35 112.5t-139 38.5z" />
    <glyph glyph-name="uni040A" unicode="&#x40a;" horiz-adv-x="882" 
d="M538 655l-37 -296q60 10 118 10q109 0 162.5 -48.5t44.5 -135.5l-2 -12q-20 -185 -239 -185q-80 0 -169 10l39 322h-326l-38 -320h-40l80 655h40l-37 -298h326l37 298h41zM611 333q-37 0 -114 -8l-36 -292q56 -8 123 -8q182 0 199 150l2 10q8 72 -35 110t-139 38z" />
    <glyph glyph-name="uni040B" unicode="&#x40b;" horiz-adv-x="698" 
d="M520 618h-202l-28 -227q99 36 171 36q92 0 136.5 -53.5t31.5 -159.5l-25 -214h-40l25 212q21 179 -136 179q-79 0 -167 -35l-43 -356h-40l76 618h-202l5 37h443z" />
    <glyph glyph-name="uni040C" unicode="&#x40c;" horiz-adv-x="499" 
d="M277 343l185 -343h-49q-75 154 -167 319h-117l-38 -319h-40l80 655h40l-37 -299h108q89 115 221 299h48zM264 706l77 111h47l-88 -111h-36z" />
    <glyph glyph-name="uni040E" unicode="&#x40e;" horiz-adv-x="474" 
d="M89 0l122 215l-149 440h44q67 -198 129 -398q42 73 220 398h46l-369 -655h-43zM407 799l-6 -44q-5 -5 -15 -11.5t-42 -18t-66 -11.5q-33 0 -62 10t-41 20l-12 11l6 44q5 -5 14 -13t38 -21t60 -13t62.5 12t47.5 24z" />
    <glyph glyph-name="uni040F" unicode="&#x40f;" horiz-adv-x="579" 
d="M457 0h-184l-17 -130h-40l17 130h-182l80 655h40l-77 -618h326l77 618h40z" />
    <glyph glyph-name="uni0410" unicode="&#x410;" horiz-adv-x="512" 
d="M462 0h-45q-22 114 -34 171h-284q-50 -114 -76 -171h-44l290 655h54zM290 616q-57 -135 -175 -407h260q-56 272 -85 407z" />
    <glyph glyph-name="uni0411" unicode="&#x411;" horiz-adv-x="517" 
d="M437 618h-269l-32 -256q72 10 118 10q109 0 162.5 -49t43.5 -138l-1 -12q-20 -185 -240 -185q-79 0 -168 10l81 657h310zM245 336q-27 0 -114 -9l-36 -294q56 -8 123 -8q182 0 199 150l2 10q8 74 -35 112.5t-139 38.5z" />
    <glyph glyph-name="uni0412" unicode="&#x412;" horiz-adv-x="527" 
d="M50 -5l82 667q115 5 151 5q106 0 156.5 -46t39.5 -125l-2 -13q-14 -113 -125 -148q58 -12 89 -55t24 -105l-2 -19q-18 -168 -239 -168q-63 0 -174 7zM132 349h153q60 0 101.5 36t49.5 92l2 13q10 69 -30 104.5t-134 35.5q-57 0 -108 -3zM128 315l-35 -284q64 -6 132 -6
q184 0 199 135l1 11q8 69 -29.5 106.5t-114.5 37.5h-153z" />
    <glyph glyph-name="uni0413" unicode="&#x413;" horiz-adv-x="434" 
d="M436 618h-270l-75 -618h-40l80 655h310z" />
    <glyph glyph-name="uni0414" unicode="&#x414;" horiz-adv-x="571" 
d="M51 -5l82 665q105 7 157 7q120 0 176 -69t40 -201l-21 -172q-29 -237 -272 -237q-73 0 -162 7zM168 626l-74 -595q64 -6 122 -6q98 0 157.5 50t71.5 147l22 175q27 234 -180 234q-21 0 -67.5 -2.5t-51.5 -2.5z" />
    <glyph glyph-name="uni0415" unicode="&#x415;" horiz-adv-x="477" 
d="M131 655h314l-5 -37h-274l-33 -266h254l-5 -38h-254l-34 -277h274l-3 -37h-314z" />
    <glyph glyph-name="uni0416" unicode="&#x416;" horiz-adv-x="781" 
d="M589 338l128 -338h-47q-51 151 -117 319h-140l-38 -319h-40l38 319h-140q-96 -167 -194 -319h-46l210 338l-121 317h42q60 -154 112 -299h142l37 299h40l-37 -299h139q128 200 186 299h45z" />
    <glyph glyph-name="uni0417" unicode="&#x417;" horiz-adv-x="467" 
d="M234 667q98 0 145.5 -47.5t36.5 -128.5l-2 -11q-7 -54 -40 -92t-82 -51q51 -15 79.5 -59t22.5 -105l-1 -12q-19 -173 -208 -173q-81 0 -168 35l7 39q84 -37 164 -37q148 0 165 140l2 10q8 66 -32.5 105t-115.5 39h-82l5 36h82q142 0 162 128l1 8q11 66 -27.5 102.5
t-120.5 36.5q-56 0 -132 -21l1 39q85 19 138 19z" />
    <glyph glyph-name="uni0418" unicode="&#x418;" horiz-adv-x="580" 
d="M458 0h-40l72 591l-391 -591h-48l80 655h40l-73 -591q158 227 391 591h49z" />
    <glyph glyph-name="uni0419" unicode="&#x419;" horiz-adv-x="580" 
d="M458 0h-40l72 591l-391 -591h-48l80 655h40l-73 -591q158 227 391 591h49zM469 799l-6 -44q-5 -5 -15 -11.5t-42 -18t-66 -11.5q-33 0 -62 10t-41 20l-12 11l6 44q5 -5 14 -13t38 -21t60 -13t62.5 12t47.5 24z" />
    <glyph glyph-name="uni041A" unicode="&#x41a;" horiz-adv-x="499" 
d="M277 343l185 -343h-49q-75 154 -167 319h-117l-38 -319h-40l80 655h40l-37 -299h108q89 115 221 299h48z" />
    <glyph glyph-name="uni041B" unicode="&#x41b;" horiz-adv-x="555" 
d="M338 667q72 0 173 -26l-78 -641h-40l74 612q-69 19 -130 19q-84 0 -127 -38t-55 -128l-41 -304q-13 -97 -39 -135t-72 -38q-23 0 -40 5l3 36q22 -4 37 -4q27 0 43.5 28t27.5 106l41 304q15 110 67 157t156 47z" />
    <glyph glyph-name="uni041C" unicode="&#x41c;" horiz-adv-x="698" 
d="M581 0h-41l68 597l-261 -529h-53l-130 529l-77 -597h-41l85 655h58q84 -320 134 -547q130 249 267 547h66z" />
    <glyph glyph-name="uni041D" unicode="&#x41d;" horiz-adv-x="579" 
d="M455 320h-326l-38 -320h-40l80 655h40l-37 -298h326l37 298h40l-80 -655h-40z" />
    <glyph glyph-name="uni041E" unicode="&#x41e;" horiz-adv-x="576" 
d="M322 667q105 0 154.5 -55.5t37.5 -157.5l-32 -259q-13 -105 -66 -156t-155 -51q-104 0 -154 56t-37 161l32 256q13 110 65 158t155 48zM318 631q-82 0 -124 -39t-53 -129l-32 -264q-10 -86 30 -130.5t123 -44.5q82 0 125 41t54 128l32 266q11 86 -29 129t-126 43z" />
    <glyph glyph-name="uni041F" unicode="&#x41f;" horiz-adv-x="579" 
d="M457 0h-40l75 618h-326l-75 -618h-40l80 655h406z" />
    <glyph glyph-name="uni0420" unicode="&#x420;" horiz-adv-x="505" 
d="M282 667q110 0 164 -52t43 -145l-2 -10q-10 -93 -68.5 -142.5t-162.5 -49.5q-51 0 -130 18l-35 -286h-40l81 660q129 7 150 7zM279 631q-45 0 -113 -5l-37 -306q67 -16 128 -16q168 0 189 156l1 9q10 77 -33 119.5t-135 42.5z" />
    <glyph glyph-name="uni0421" unicode="&#x421;" horiz-adv-x="476" 
d="M298 667q69 0 148 -27l-7 -39q-81 29 -146 29q-69 0 -105 -38t-48 -134l-32 -267q-20 -165 128 -165q54 0 139 32l-3 -41q-80 -29 -140 -29q-189 0 -163 212l31 254q15 120 60 166.5t138 46.5z" />
    <glyph glyph-name="uni0422" unicode="&#x422;" horiz-adv-x="519" 
d="M82 655h443l-5 -37h-201l-76 -618h-40l76 618h-202z" />
    <glyph glyph-name="uni0423" unicode="&#x423;" horiz-adv-x="474" 
d="M89 0l122 215l-149 440h44q67 -198 129 -398q42 73 220 398h46l-369 -655h-43z" />
    <glyph glyph-name="uni0424" unicode="&#x424;" horiz-adv-x="762" 
d="M447 695l-7 -56q39 6 77 6q103 0 147 -54t29 -178l-23 -195q-13 -113 -66 -160.5t-162 -47.5q-43 0 -78 7l-7 -59h-40l7 58q-39 -6 -77 -6q-101 0 -144.5 55.5t-28.5 177.5l25 195q13 113 65.5 160t159.5 47q26 0 76 -6l7 56h40zM320 610q-85 0 -127 -37.5t-52 -126.5
l-29 -217q-10 -98 25.5 -141t114.5 -43q34 0 76 5l68 554q-37 6 -76 6zM514 610q-30 0 -78 -6l-68 -553q38 -6 78 -6q85 0 127.5 36.5t54.5 128.5l27 216q24 184 -141 184z" />
    <glyph glyph-name="uni0425" unicode="&#x425;" horiz-adv-x="491" 
d="M277 337l160 -337h-48q-56 130 -143 302q-104 -155 -213 -302h-50l243 336l-152 319h45q74 -149 134 -285q124 169 204 285h50z" />
    <glyph glyph-name="uni0426" unicode="&#x426;" horiz-adv-x="573" 
d="M454 37h60l-20 -167h-39l17 130h-421l80 655h40l-77 -618h320l77 618h40z" />
    <glyph glyph-name="uni0427" unicode="&#x427;" horiz-adv-x="561" 
d="M438 0h-40l31 254q-102 -26 -158 -26q-96 0 -143.5 51.5t-34.5 152.5l28 223h40l-28 -224q-10 -83 27.5 -125t115.5 -42q74 0 157 25l45 366h40z" />
    <glyph glyph-name="uni0428" unicode="&#x428;" horiz-adv-x="755" 
d="M633 0h-582l80 655h40l-77 -618h231l77 618h40l-77 -618h231l77 618h40z" />
    <glyph glyph-name="uni0429" unicode="&#x429;" horiz-adv-x="755" 
d="M636 37h60l-20 -167h-39l17 130h-603l80 655h40l-77 -618h231l77 618h40l-77 -618h231l77 618h40z" />
    <glyph glyph-name="uni042A" unicode="&#x42a;" horiz-adv-x="636" 
d="M292 655l-37 -293q72 10 118 10q109 0 163 -49.5t44 -137.5l-2 -12q-20 -185 -239 -185q-79 0 -169 10l77 619h-180l5 38h220zM365 336q-27 0 -114 -9l-36 -294q56 -8 123 -8q182 0 199 150l2 10q8 74 -35 112.5t-139 38.5z" />
    <glyph glyph-name="uni042B" unicode="&#x42b;" horiz-adv-x="707" 
d="M172 655l-36 -293q72 10 118 10q109 0 162.5 -49t43.5 -138l-1 -12q-20 -185 -240 -185q-79 0 -168 10l81 657h40zM584 0h-40l80 655h40zM245 336q-27 0 -114 -9l-36 -294q56 -8 123 -8q182 0 199 150l2 10q8 74 -35 112.5t-139 38.5z" />
    <glyph glyph-name="uni042C" unicode="&#x42c;" horiz-adv-x="517" 
d="M172 655l-36 -293q72 10 118 10q109 0 162.5 -49t43.5 -138l-1 -12q-20 -185 -240 -185q-79 0 -168 10l81 657h40zM245 336q-27 0 -114 -9l-36 -294q56 -8 123 -8q182 0 199 150l2 10q8 74 -35 112.5t-139 38.5z" />
    <glyph glyph-name="uni042D" unicode="&#x42d;" horiz-adv-x="487" 
d="M261 667q93 0 134 -50.5t28 -158.5l-34 -277q-13 -106 -55.5 -149.5t-124.5 -43.5q-74 0 -164 35l7 39q86 -37 159 -37q61 0 94.5 34.5t44.5 121.5l16 139h-258l5 36h258l12 105q11 93 -19.5 131.5t-107.5 38.5q-53 0 -137 -24l1 39q82 21 141 21z" />
    <glyph glyph-name="uni042E" unicode="&#x42e;" horiz-adv-x="772" 
d="M531 667q204 0 178 -222l-31 -248q-14 -113 -62 -161t-144 -48q-100 0 -145 55t-31 160l15 117h-182l-38 -320h-40l80 655h40l-37 -298h181l14 105q14 114 60.5 159.5t141.5 45.5zM527 631q-74 0 -111 -37t-49 -131l-32 -267q-22 -172 138 -172q76 0 114.5 37.5
t49.5 131.5l33 266q20 172 -143 172z" />
    <glyph glyph-name="uni042F" unicode="&#x42f;" horiz-adv-x="535" 
d="M330 667q54 0 163 -12l-80 -655h-40l34 289q-75 -12 -118 -12q-40 0 -73 9q-111 -181 -168 -286h-47l179 298q-54 24 -79.5 72.5t-17.5 112.5l1 9q20 175 246 175zM322 631q-180 0 -198 -138l-2 -14q-10 -75 36 -121t135 -46q57 0 118 12l36 297q-84 10 -125 10z" />
    <glyph glyph-name="uni0430" unicode="&#x430;" horiz-adv-x="484" 
d="M239 500q77 0 141 -79l9 67h37l-68 -488h-37l5 39l35 159l-2 2l-3 -2q-30 -105 -81.5 -157.5t-111.5 -52.5q-62 0 -91 44.5t-14 139.5l23 151q28 177 158 177zM242 463q-98 0 -120 -139l-24 -147q-14 -83 6.5 -117.5t68.5 -34.5q64 0 115 71t71 204l13 90q-61 73 -130 73
z" />
    <glyph glyph-name="uni0431" unicode="&#x431;" horiz-adv-x="489" 
d="M428 696l-5 -35q-134 1 -194 -37t-72 -123l-9 -60l-40 -190l2 -2l3 2q30 114 85 175.5t116 61.5q59 0 86.5 -46.5t10.5 -140.5l-22 -141q-13 -86 -58.5 -129t-114.5 -43q-171 0 -146 183l45 324q16 108 85.5 155.5t227.5 45.5zM305 451q-63 0 -117.5 -84t-78.5 -218
q-9 -63 18.5 -94.5t85.5 -31.5q52 0 88 34t48 102l21 137q14 79 -5 117t-60 38z" />
    <glyph glyph-name="uni0432" unicode="&#x432;" horiz-adv-x="483" 
d="M271 695q66 0 102 -41t28 -106l-2 -16q-13 -93 -86 -122q109 -22 89 -168l-13 -91q-21 -163 -172 -163q-81 0 -121 49t-27 139l52 358q12 89 47 125t103 36zM267 660q-46 0 -72 -28.5t-35 -94.5l-30 -218q36 42 78.5 67t70 33t50 33t30.5 72l2 13q9 57 -17 90t-77 33z
M287 383q-36 0 -81 -30.5t-82 -76.5l-16 -116q-10 -64 20.5 -100t90.5 -36q113 0 130 118l13 97q9 71 -12.5 107.5t-62.5 36.5z" />
    <glyph glyph-name="uni0433" unicode="&#x433;" horiz-adv-x="393" 
d="M225 500q71 0 102.5 -31.5t24.5 -89.5l-1 -9q-9 -74 -105 -114l-110 -45q-64 -29 -72 -83l-2 -13q-7 -43 20.5 -66t86.5 -23q49 0 122 25l-8 -42q-69 -21 -121 -21q-77 0 -113.5 35.5t-26.5 99.5l2 13q12 74 97 109l101 42q47 19 66.5 39t22.5 47l1 9q5 41 -18 61t-78 20
q-49 0 -119 -19l2 40q80 16 126 16z" />
    <glyph glyph-name="uni0434" unicode="&#x434;" horiz-adv-x="465" 
d="M162 660l7 34q94 -28 146 -67t74 -111t6 -184l-23 -160q-13 -91 -57.5 -137.5t-112.5 -46.5q-80 0 -121 50.5t-29 140.5l17 121q12 89 52 137t97 48q50 0 87 -49.5t51 -117.5l5 42q16 132 -31 199t-168 101zM222 449q-90 0 -113 -160l-17 -117q-10 -68 21 -108t88 -40
q52 0 86.5 36.5t44.5 105.5l14 97q-7 68 -42.5 127t-81.5 59z" />
    <glyph glyph-name="uni0435" unicode="&#x435;" horiz-adv-x="446" 
d="M275 500q59 0 92.5 -30.5t32.5 -83.5q-2 -81 -77.5 -138t-221.5 -66l-2 -15q-10 -78 13.5 -110t85.5 -32t138 39l-6 -40q-77 -36 -138 -36q-82 0 -113.5 45t-18.5 143l12 94q16 114 70.5 172t132.5 58zM272 464q-58 0 -102.5 -50t-56.5 -144l-8 -59q76 8 146 31
q53 29 80.5 66t27.5 74q0 39 -23.5 60.5t-63.5 21.5z" />
    <glyph glyph-name="uni0436" unicode="&#x436;" horiz-adv-x="602" 
d="M324 683h40q-4 -103 -19 -219l-26 -186h80q68 87 153 210h45l-164 -225l112 -263h-44q-51 133 -103 244h-84l-34 -244h-39l33 244h-81q-89 -134 -169 -244h-46l185 263l-102 225h42q53 -117 92 -210h84l26 179q13 94 19 226z" />
    <glyph glyph-name="uni0437" unicode="&#x437;" horiz-adv-x="398" 
d="M214 500q70 0 102.5 -40.5t20.5 -109.5l-6 -35q-7 -49 -35.5 -82.5t-72.5 -45.5q93 -31 73 -168l-10 -60q-13 -88 -49 -122t-111 -34q-65 0 -153 28l5 38q81 -29 150 -29q56 0 82 25t37 94l9 63q21 147 -93 147h-84l5 36h79q53 0 87.5 30t42.5 83l5 30q18 116 -92 116
q-44 0 -116 -16l3 37q70 15 121 15z" />
    <glyph glyph-name="uni0438" unicode="&#x438;" horiz-adv-x="494" 
d="M369 0h-38l4 30l37 168l-2 2l-3 -2q-30 -105 -81 -157.5t-112 -52.5q-132 0 -106 184l46 316h40l-45 -311q-12 -84 7 -118t66 -34q66 0 118.5 75t71.5 212l25 176h40z" />
    <glyph glyph-name="uni0439" unicode="&#x439;" horiz-adv-x="494" 
d="M406 655l-6 -45q-5 -6 -14 -15t-40.5 -23.5t-66.5 -14.5q-34 0 -61 13.5t-37 27.5l-10 13l6 44q2 -2 4.5 -6.5t13 -14.5t21.5 -18t29.5 -14.5t37.5 -6.5q32 0 62.5 15t45.5 30zM369 0h-38l4 30l37 168l-2 2l-3 -2q-30 -105 -81 -157.5t-112 -52.5q-132 0 -106 184l46 316
h40l-45 -311q-12 -84 7 -118t66 -34q66 0 118.5 75t71.5 212l25 176h40z" />
    <glyph glyph-name="uni043A" unicode="&#x43a;" horiz-adv-x="422" 
d="M130 683h40q-5 -116 -20 -219l-25 -186h80q91 115 160 210h47l-175 -226l123 -262h-48q-48 125 -112 243h-80l-34 -243h-40l64 457q12 93 20 226z" />
    <glyph glyph-name="uni043B" unicode="&#x43b;" horiz-adv-x="480" 
d="M287 500q60 0 136 -16l-68 -484h-40l63 453q-45 10 -97 10q-68 0 -103.5 -36.5t-49.5 -129.5l-26 -178q-11 -76 -34 -103.5t-67 -27.5q-21 0 -36 5l5 36q18 -5 33 -5q25 0 37.5 18t21.5 72l26 179q18 117 63 162t136 45z" />
    <glyph glyph-name="uni043C" unicode="&#x43c;" horiz-adv-x="592" 
d="M472 0h-40l55 421l-193 -353h-45l-105 353l-63 -421h-40l73 488h49q43 -137 110 -381l1 -3l2 2q80 142 204 382h55z" />
    <glyph glyph-name="uni043D" unicode="&#x43d;" horiz-adv-x="494" 
d="M369 0h-40l32 233h-243l-32 -233h-40l68 488h40l-30 -219h242l31 219h40z" />
    <glyph glyph-name="uni043E" unicode="&#x43e;" horiz-adv-x="480" 
d="M410 317l-20 -153q-24 -176 -183 -176q-84 0 -122.5 47.5t-25.5 137.5l21 153q13 90 56.5 132t125.5 42q81 0 121 -48.5t27 -134.5zM348 159l22 161q10 69 -20 106.5t-91 37.5q-63 0 -96 -32t-43 -103l-22 -160q-10 -71 19 -108t90 -37q122 0 141 135z" />
    <glyph glyph-name="uni043F" unicode="&#x43f;" horiz-adv-x="493" 
d="M327 500q57 0 79 -41.5t8 -140.5l-45 -318h-40l46 322q11 78 -4 109t-54 31q-68 0 -133 -111.5t-91 -297.5l-7 -53h-40l68 488h37l-12 -83l-33 -166l2 -2l3 2q36 126 96 193.5t120 67.5z" />
    <glyph glyph-name="uni0440" unicode="&#x440;" horiz-adv-x="481" 
d="M316 500q60 0 87 -46.5t10 -140.5l-29 -163q-28 -162 -146 -162q-33 0 -74.5 18.5t-71.5 45.5q-9 -58 -48 -237h-40q35 138 53 270l57 403h35l-10 -70l-32 -167l2 -2l3 2q34 125 88.5 187t115.5 62zM307 463q-64 0 -123.5 -93.5t-83.5 -258.5l-4 -28q26 -24 65 -41
t67 -17q48 0 76.5 30t40.5 100l28 153q13 79 -6.5 117t-59.5 38z" />
    <glyph glyph-name="uni0441" unicode="&#x441;" horiz-adv-x="398" 
d="M184 -12q-71 0 -104.5 46t-21.5 134l24 164q24 168 162 168q48 0 109 -17l-6 -37q-61 18 -105 18q-48 0 -79.5 -32t-40.5 -97l-23 -166q-20 -144 92 -144q48 0 108 26l-5 -39q-59 -24 -110 -24z" />
    <glyph glyph-name="uni0442" unicode="&#x442;" horiz-adv-x="766" 
d="M599 500q57 0 79.5 -41.5t8.5 -140.5l-46 -318h-40l46 321q12 79 -3 110t-54 31q-65 0 -129.5 -111t-89.5 -295l-7 -56h-40l46 321q11 79 -4 110t-53 31q-66 0 -130 -111t-89 -295l-8 -56h-40l68 488h37l-12 -83l-34 -166l3 -2l3 2q35 125 94 193t117 68q92 0 92 -108
l-30 -153l2 -2l3 2q35 125 94 193t116 68z" />
    <glyph glyph-name="uni0443" unicode="&#x443;" horiz-adv-x="494" 
d="M437 488l-76 -541q-11 -80 -45.5 -112t-112.5 -32q-73 0 -154 24l6 38q81 -25 151 -25q57 0 81.5 22t33.5 82l13 86l38 168l-2 2l-3 -2q-30 -105 -81 -157.5t-112 -52.5q-132 0 -106 184l46 316h40l-45 -311q-12 -84 7 -118t66 -34q66 0 118.5 75t71.5 212l25 176h40z
" />
    <glyph glyph-name="uni0444" unicode="&#x444;" horiz-adv-x="680" 
d="M383 449l-35 -156l2 -2l3 1q50 208 170 208q111 0 83 -190l-23 -149q-27 -173 -134 -173q-67 0 -122 64l-33 -237h-41l31 215l34 154l-2 2l-3 -2q-49 -196 -167 -196q-112 0 -84 184l22 152q28 176 136 176q65 0 120 -67l36 250h41zM224 463q-78 0 -99 -139l-23 -147
q-13 -85 2 -118.5t54 -33.5q53 0 97 65t66 207l14 101q-53 65 -111 65zM511 463q-53 0 -99.5 -74t-67.5 -223l-12 -80q51 -61 111 -61q78 0 99 138l23 142q14 88 -0.5 123t-53.5 35z" />
    <glyph glyph-name="uni0445" unicode="&#x445;" horiz-adv-x="393" 
d="M217 253l124 -253h-47q-54 122 -102 224l-2 2l-3 -2q-72 -103 -163 -224h-51l193 253l-113 235h44q72 -152 95 -205l2 -2l3 2q87 116 148 205h51z" />
    <glyph glyph-name="uni0446" unicode="&#x446;" horiz-adv-x="499" 
d="M373 35h45l-22 -155h-38l17 120h-44l4 30l37 168l-2 2l-3 -2q-30 -105 -81 -157.5t-112 -52.5q-132 0 -106 184l46 316h40l-45 -311q-12 -84 7 -118t66 -34q66 0 118.5 75t71.5 212l25 176h40z" />
    <glyph glyph-name="uni0447" unicode="&#x447;" horiz-adv-x="479" 
d="M354 0h-38l22 166l35 150l-2 2l-3 -2q-60 -192 -192 -192q-129 0 -104 180l27 184h40l-26 -180q-12 -83 7.5 -115t67.5 -32q66 0 117.5 70.5t68.5 201.5l7 55h41z" />
    <glyph glyph-name="uni0448" unicode="&#x448;" horiz-adv-x="757" 
d="M631 0h-37l4 30l37 168l-2 2l-3 -2q-29 -104 -80 -157t-108 -53q-89 0 -102 102l21 107l-2 2l-3 -2q-29 -103 -80 -156t-107 -53q-127 0 -101 184l46 316h40l-45 -311q-12 -84 6 -118t62 -34q60 0 112.5 75t70.5 198l27 190h40l-45 -311q-12 -83 6.5 -117.5t61.5 -34.5
q62 0 114 73t71 212l24 178h41z" />
    <glyph glyph-name="uni0449" unicode="&#x449;" horiz-adv-x="762" 
d="M637 35h44l-22 -155h-38l17 120h-44l4 30l37 168l-2 2l-3 -2q-29 -104 -80 -157t-108 -53q-89 0 -102 102l21 107l-2 2l-3 -2q-29 -103 -80 -156t-107 -53q-127 0 -101 184l46 316h40l-45 -311q-12 -84 6 -118t62 -34q60 0 112.5 75t70.5 198l27 190h40l-45 -311
q-12 -83 6.5 -117.5t61.5 -34.5q62 0 114 73t71 212l24 178h41z" />
    <glyph glyph-name="uni044A" unicode="&#x44a;" horiz-adv-x="557" 
d="M227 366l-29 -141l2 -2l3 2q69 156 182 156q59 0 87.5 -47t12.5 -143l-5 -31q-13 -82 -61.5 -127t-118.5 -45q-78 0 -115.5 45t-25.5 129l40 290h-140l5 36h180zM372 344q-53 0 -106 -60.5t-68 -144.5q-5 -55 22 -85t81 -30q52 0 90 34.5t49 102.5l4 23q27 160 -72 160z
" />
    <glyph glyph-name="uni044B" unicode="&#x44b;" horiz-adv-x="649" 
d="M136 366l-29 -141l2 -2l3 2q69 156 182 156q59 0 87 -46.5t12 -143.5l-5 -31q-13 -82 -61 -127t-118 -45q-78 0 -115.5 45t-25.5 129l45 326h40zM523 0h-41l68 488h41zM281 344q-53 0 -106 -60.5t-68 -144.5q-5 -55 22 -85t81 -30q52 0 90 34.5t49 102.5l4 23
q27 160 -72 160z" />
    <glyph glyph-name="uni044C" unicode="&#x44c;" horiz-adv-x="460" 
d="M136 366l-29 -141l2 -2l3 2q69 156 182 156q59 0 87 -46.5t12 -143.5l-5 -31q-13 -82 -61 -127t-118 -45q-78 0 -115.5 45t-25.5 129l45 326h40zM281 344q-53 0 -106 -60.5t-68 -144.5q-5 -55 22 -85t81 -30q52 0 90 34.5t49 102.5l4 23q27 160 -72 160z" />
    <glyph glyph-name="uni044D" unicode="&#x44d;" horiz-adv-x="396" 
d="M198 500q151 0 124 -197l-22 -159q-11 -84 -44.5 -120t-95.5 -36q-64 0 -133 29l7 37q72 -29 127 -29q42 0 66 26t32 88l13 95h-198l5 34h198l6 43q11 82 -12 117t-77 35q-41 0 -106 -14l4 38q61 13 106 13z" />
    <glyph glyph-name="uni044E" unicode="&#x44e;" horiz-adv-x="650" 
d="M132 683h40q-7 -127 -21 -219l-27 -196h139l8 56q13 92 54 134t118 42q76 0 112.5 -48.5t23.5 -139.5l-20 -147q-12 -90 -54 -133.5t-119 -43.5q-75 0 -111.5 48.5t-24.5 140.5l8 57h-139l-33 -234h-40l64 457q15 109 22 226zM440 464q-58 0 -88.5 -32t-40.5 -103
l-22 -160q-9 -70 18 -107.5t80 -37.5q57 0 88.5 32.5t41.5 102.5l22 162q10 70 -16 106.5t-83 36.5z" />
    <glyph glyph-name="uni044F" unicode="&#x44f;" horiz-adv-x="465" 
d="M409 500l-70 -500h-40l27 194q-110 0 -138 3q-70 -96 -136 -197h-50l146 206q-45 17 -65.5 57t-12.5 96l1 7q9 63 57.5 98.5t127.5 35.5h153zM364 464h-105q-66 0 -103.5 -27t-44.5 -75l-1 -6q-8 -58 21.5 -92t89.5 -34h110z" />
    <glyph glyph-name="uni0451" unicode="&#x451;" horiz-adv-x="446" 
d="M275 500q59 0 92.5 -30.5t32.5 -83.5q-2 -81 -77.5 -138t-221.5 -66l-2 -15q-10 -78 13.5 -110t85.5 -32t138 39l-6 -40q-77 -36 -138 -36q-82 0 -113.5 45t-18.5 143l12 94q16 114 70.5 172t132.5 58zM272 464q-58 0 -102.5 -50t-56.5 -144l-8 -59q76 8 146 31
q53 29 80.5 66t27.5 74q0 39 -23.5 60.5t-63.5 21.5zM243 615l-2 -11q-3 -24 -29 -24q-14 0 -22 8t-6 21l2 11q3 25 30 25q32 0 27 -30zM370 615l-2 -11q-3 -24 -29 -24q-15 0 -22.5 8t-5.5 21l2 11q3 25 30 25q14 0 21.5 -7.5t5.5 -22.5z" />
    <glyph glyph-name="uni0452" unicode="&#x452;" horiz-adv-x="494" 
d="M135 683h40q0 -12 -1.5 -37.5t-2.5 -38.5h147l-4 -34h-146q-3 -37 -11 -98l-8 -53l-38 -183l2 -2l3 2q36 126 96 193.5t120 67.5q57 0 79 -41.5t8 -140.5l-58 -409q-8 -58 -33 -82t-73 -24q-27 0 -65 11l5 37q29 -11 62 -11q28 0 43 14.5t20 50.5l60 417q11 78 -4 109
t-54 31q-67 0 -132.5 -111t-90.5 -290l-8 -61h-40l64 457q2 11 13 116h-67l5 34h64q1 13 2.5 38t2.5 38z" />
    <glyph glyph-name="uni0453" unicode="&#x453;" horiz-adv-x="393" 
d="M225 500q71 0 102.5 -31.5t24.5 -89.5l-1 -9q-9 -74 -105 -114l-110 -45q-64 -29 -72 -83l-2 -13q-7 -43 20.5 -66t86.5 -23q49 0 122 25l-8 -42q-69 -21 -121 -21q-77 0 -113.5 35.5t-26.5 99.5l2 13q12 74 97 109l101 42q47 19 66.5 39t22.5 47l1 9q5 41 -18 61t-78 20
q-49 0 -119 -19l2 40q80 16 126 16zM199 546l82 120h48l-93 -120h-37z" />
    <glyph glyph-name="uni0454" unicode="&#x454;" horiz-adv-x="403" 
d="M244 500q48 0 109 -17l-6 -37q-61 18 -105 18q-48 0 -79.5 -32t-40.5 -97l-9 -67h198l-5 -34h-198l-9 -65q-20 -144 92 -144q48 0 108 26l-5 -39q-59 -24 -110 -24q-71 0 -104.5 46t-21.5 134l24 164q24 168 162 168z" />
    <glyph glyph-name="uni0455" unicode="&#x455;" horiz-adv-x="393" 
d="M216 500q49 0 110 -18l-6 -41q-39 14 -69 21q-22 2 -41 2q-89 0 -101 -68l-1 -6q-11 -67 57 -101l86 -44q86 -44 71 -132l-2 -13q-8 -54 -44 -83t-96 -29q-72 0 -142 35l8 40q40 -21 89 -35q21 -4 46 -4q86 0 100 81l1 6q12 69 -56 104l-87 43q-42 21 -60 57t-10 80l2 12
q19 93 145 93z" />
    <glyph glyph-name="uni0456" unicode="&#x456;" horiz-adv-x="211" 
d="M178 618l-1 -13q-4 -25 -32 -25q-33 0 -30 31l2 12q4 27 33 27q33 0 28 -32zM114 488h40l-68 -488h-40z" />
    <glyph glyph-name="uni0457" unicode="&#x457;" horiz-adv-x="211" 
d="M114 488h40l-68 -488h-40zM111 615l-2 -11q-3 -24 -29 -24q-14 0 -22 8t-6 21l2 11q3 25 30 25q32 0 27 -30zM238 615l-2 -11q-3 -24 -29 -24q-15 0 -22.5 8t-5.5 21l2 11q3 25 30 25q31 0 27 -30z" />
    <glyph glyph-name="uni0458" unicode="&#x458;" horiz-adv-x="211" 
d="M178 618l-1 -13q-4 -25 -32 -25q-33 0 -30 31l2 12q4 27 33 27q33 0 28 -32zM154 488l-83 -579q-7 -58 -32 -82t-73 -24q-26 0 -65 11l5 37q29 -11 61 -11q29 0 44 14.5t20 50.5l83 583h40z" />
    <glyph glyph-name="uni0459" unicode="&#x459;" horiz-adv-x="734" 
d="M287 500q54 0 135 -15l-17 -119l-29 -141l2 -2l3 2q69 156 182 156q59 0 87 -47t12 -143l-5 -31q-13 -82 -61 -127t-118 -45q-78 0 -115.5 45t-25.5 129l40 291q-43 10 -96 10q-68 0 -103.5 -36.5t-49.5 -129.5l-26 -178q-11 -76 -33.5 -103.5t-67.5 -27.5q-21 0 -36 5
l5 36q18 -5 33 -5q25 0 37.5 18t21.5 72l26 179q18 117 63 162t136 45zM549 344q-53 0 -106 -60.5t-68 -144.5q-5 -55 22 -85t81 -30q52 0 90 34.5t49 102.5l4 23q27 160 -72 160z" />
    <glyph glyph-name="uni045A" unicode="&#x45a;" horiz-adv-x="739" 
d="M410 366l-30 -141l2 -2l3 2q71 156 182 156q60 0 88 -46.5t12 -143.5l-5 -31q-13 -82 -61.5 -127t-117.5 -45q-78 0 -115.5 45t-25.5 129l10 72h-233l-32 -234h-41l68 488h41l-31 -220h232l31 220h40zM554 344q-53 0 -106 -60.5t-68 -144.5q-5 -55 22 -85t81 -30
q52 0 90 34.5t49 102.5l4 23q27 160 -72 160z" />
    <glyph glyph-name="uni045B" unicode="&#x45b;" horiz-adv-x="494" 
d="M135 683h40l-4 -76h147l-4 -34h-146q-3 -37 -11 -98l-8 -53l-38 -183l2 -2l3 2q36 126 96 193.5t120 67.5q57 0 79 -41.5t8 -140.5l-45 -318h-40l46 322q11 78 -4 109t-54 31q-67 0 -132.5 -111t-90.5 -290l-8 -61h-40l64 457q2 11 13 116h-67l5 34h64z" />
    <glyph glyph-name="uni045C" unicode="&#x45c;" horiz-adv-x="418" 
d="M237 262l123 -262h-48q-48 125 -112 243h-80l-34 -243h-40l68 488h40l-29 -210h80q91 115 160 210h47zM209 546l82 120h48l-93 -120h-37z" />
    <glyph glyph-name="uni045E" unicode="&#x45e;" horiz-adv-x="494" 
d="M437 488l-76 -541q-11 -80 -45.5 -112t-112.5 -32q-73 0 -154 24l6 38q81 -25 151 -25q57 0 81.5 22t33.5 82l13 86l38 168l-2 2l-3 -2q-30 -105 -81 -157.5t-112 -52.5q-132 0 -106 184l46 316h40l-45 -311q-12 -84 7 -118t66 -34q66 0 118.5 75t71.5 212l25 176h40z
M408 655l-6 -45q-5 -6 -14 -15t-40.5 -23.5t-66.5 -14.5q-34 0 -61 13.5t-37 27.5l-10 13l6 44q2 -2 4.5 -6.5t13 -14.5t21.5 -18t29.5 -14.5t37.5 -6.5q32 0 62.5 15t45.5 30z" />
    <glyph glyph-name="uni045F" unicode="&#x45f;" horiz-adv-x="489" 
d="M364 0h-137l-17 -120h-38l17 120h-143l68 488h41l-64 -455h237l64 455h40z" />
    <glyph glyph-name="uni0462" unicode="&#x462;" horiz-adv-x="668" 
d="M520 618h-202l-31 -256q72 10 118 10q109 0 162.5 -49t43.5 -138l-1 -12q-20 -185 -240 -185q-79 0 -168 10l76 620h-201l5 37h443zM397 336q-27 0 -114 -9l-36 -294q56 -8 123 -8q182 0 199 150l2 10q8 74 -35 112.5t-139 38.5z" />
    <glyph glyph-name="uni0463" unicode="&#x463;" horiz-adv-x="466" 
d="M164 558h141l-4 -34h-142l-22 -158l-30 -141l2 -2l3 2q70 156 182 156q60 0 88 -46.5t12 -143.5l-5 -31q-13 -82 -61.5 -127t-117.5 -45q-78 0 -116 45t-26 129l51 362h-70l5 34h70l11 77h40zM281 344q-53 0 -106 -60.5t-68 -144.5q-5 -55 22 -85t81 -30q52 0 90 34.5
t49 102.5l4 23q27 160 -72 160z" />
    <glyph glyph-name="uni0472" unicode="&#x472;" horiz-adv-x="576" 
d="M322 667q105 0 154.5 -56t37.5 -157l-32 -259q-13 -105 -66 -156t-155 -51q-104 0 -154 56t-37 161l32 256q13 110 65 158t155 48zM318 631q-81 0 -123.5 -39t-52.5 -129l-13 -107h332l13 103q22 172 -156 172zM124 319l-14 -120q-10 -86 30 -130.5t123 -44.5
q82 0 125 41t54 128l15 126h-333z" />
    <glyph glyph-name="uni0473" unicode="&#x473;" horiz-adv-x="481" 
d="M262 500q81 0 121 -48.5t27 -134.5l-20 -153q-24 -176 -183 -176q-84 0 -122.5 47.5t-25.5 137.5l21 153q13 90 56.5 132t125.5 42zM259 464q-63 0 -95.5 -32t-42.5 -103l-9 -62h251l7 53q10 69 -20 106.5t-91 37.5zM107 233l-9 -64q-10 -71 19 -108t90 -37
q122 0 140 135l10 74h-250z" />
    <glyph glyph-name="uni0474" unicode="&#x474;" horiz-adv-x="533" 
d="M561 667q27 0 60 -10l-5 -35q-38 9 -50 9q-26 0 -42 -17t-43 -80l-233 -534h-56l-130 655h42q66 -312 118 -613q121 258 214 493q31 78 57.5 105t67.5 27z" />
    <glyph glyph-name="uni0475" unicode="&#x475;" horiz-adv-x="445" 
d="M458 500q16 0 46 -8l-5 -35q-28 7 -41 7q-22 0 -37.5 -17.5t-49.5 -87.5l-174 -359h-50l-101 488h40q50 -229 88 -448l2 -2l3 2q83 170 155 326q40 86 64 110t60 24z" />
    <glyph glyph-name="uni0490" unicode="&#x490;" horiz-adv-x="433" 
d="M436 618h-270l-75 -618h-40l80 655h271l16 130h39z" />
    <glyph glyph-name="uni0491" unicode="&#x491;" horiz-adv-x="361" 
d="M352 454h-202l-63 -454h-41l68 488h204l17 121h39z" />
    <glyph glyph-name="uni0492" unicode="&#x492;" horiz-adv-x="438" 
d="M441 618h-270l-33 -266h156l-4 -37h-156l-38 -315h-40l38 315h-66l4 37h66l38 303h310z" />
    <glyph glyph-name="uni0493" unicode="&#x493;" horiz-adv-x="366" 
d="M356 454h-202l-25 -178h144l-6 -34h-143l-33 -242h-41l33 242h-69l5 34h70l29 212h243z" />
    <glyph glyph-name="uni0496" unicode="&#x496;" horiz-adv-x="781" 
d="M589 338l113 -301h54l-21 -167h-39l17 130h-44q-46 140 -116 319h-140l-38 -319h-40l38 319h-140q-96 -167 -194 -319h-46l210 338l-121 317h42q60 -154 112 -299h142l37 299h40l-37 -299h139q128 200 186 299h45z" />
    <glyph glyph-name="uni0497" unicode="&#x497;" horiz-adv-x="602" 
d="M324 683h40q-4 -103 -19 -219l-26 -186h80q68 87 153 210h45l-164 -225l98 -228h46l-21 -155h-39l17 120h-33q-51 133 -103 244h-84l-34 -244h-39l33 244h-81q-80 -120 -169 -244h-46l185 263l-102 225h42q32 -70 92 -210h84l26 179q13 94 19 226z" />
    <glyph glyph-name="uni0498" unicode="&#x498;" horiz-adv-x="467" 
d="M234 667q98 0 145.5 -47.5t36.5 -128.5l-2 -11q-7 -54 -40 -92t-82 -51q51 -15 79.5 -59t22.5 -105l-1 -12q-18 -168 -199 -173l-14 -31h8q35 0 53 -22t12 -56l-1 -7q-10 -69 -81 -69q-25 0 -59 10l4 30q32 -10 56 -10q21 0 31 9t14 32l1 6q9 52 -47 52h-29l1 14l20 43
q-76 5 -146 34l7 39q84 -37 164 -37q148 0 165 140l2 10q8 66 -32.5 105t-115.5 39h-82l5 36h82q142 0 162 128l1 8q11 66 -27.5 102.5t-120.5 36.5q-56 0 -132 -21l1 39q85 19 138 19z" />
    <glyph glyph-name="uni0499" unicode="&#x499;" horiz-adv-x="351" 
d="M143 500q80 0 118 -34.5t30 -94.5l-1 -10q-5 -39 -31.5 -69.5t-71.5 -43.5q42 -14 63 -47.5t15 -78.5l-1 -7q-16 -121 -144 -127l-13 -31h8q35 0 53 -22t12 -56l-1 -7q-11 -69 -81 -69q-25 0 -59 10l4 30q32 -10 56 -10q20 0 30.5 9.5t14.5 31.5l1 6q9 52 -47 52h-29
l1 14l20 43q-55 4 -121 30l5 37q77 -32 139 -32q50 0 77 22.5t34 71.5l1 7q6 48 -21 76.5t-81 28.5h-82l5 35h86q48 0 80.5 26.5t38.5 68.5l1 9q7 46 -22 71t-92 25q-38 0 -95 -11l4 36q55 10 96 10z" />
    <glyph glyph-name="uni049A" unicode="&#x49a;" horiz-adv-x="499" 
d="M277 343l165 -306h54l-20 -167h-39l17 130h-43q-77 161 -165 319h-117l-38 -319h-40l80 655h40l-37 -299h108q89 115 221 299h48z" />
    <glyph glyph-name="uni049B" unicode="&#x49b;" horiz-adv-x="418" 
d="M237 262l107 -227h48l-21 -155h-39l17 120h-37q-48 125 -112 243h-80l-34 -243h-40l68 488h40l-29 -210h80q91 115 160 210h47z" />
    <glyph glyph-name="uni049C" unicode="&#x49c;" horiz-adv-x="505" 
d="M283 343l185 -343h-49q-75 154 -167 319h-33l-27 -219h-34l27 219h-56l-38 -319h-40l80 655h40l-37 -299h56l17 144h34l-17 -143h26q75 98 219 298h48z" />
    <glyph glyph-name="uni049D" unicode="&#x49d;" horiz-adv-x="428" 
d="M242 260l127 -260h-47q-54 128 -115 243h-17l-18 -133h-31l18 133h-40l-33 -243h-40l68 488h40l-29 -210h39l19 132h31l-19 -132h17q64 80 161 210h48z" />
    <glyph glyph-name="uni04A0" unicode="&#x4a0;" horiz-adv-x="621" 
d="M398 343l185 -343h-49q-79 161 -168 319h-116l-38 -319h-40l75 617h-180l5 38h220l-38 -299h109q79 103 221 299h48z" />
    <glyph glyph-name="uni04A1" unicode="&#x4a1;" horiz-adv-x="509" 
d="M327 262l123 -262h-47q-51 128 -113 243h-80l-34 -243h-40l63 452h-140l5 36h180l-29 -210h80q91 115 160 210h47z" />
    <glyph glyph-name="uni04A2" unicode="&#x4a2;" horiz-adv-x="579" 
d="M460 37h60l-20 -167h-39l17 130h-61l38 320h-326l-38 -320h-40l80 655h40l-37 -298h326l37 298h40z" />
    <glyph glyph-name="uni04A3" unicode="&#x4a3;" horiz-adv-x="499" 
d="M373 35h42l-21 -155h-38l17 120h-44l32 233h-243l-32 -233h-40l68 488h40l-30 -219h242l31 219h40z" />
    <glyph glyph-name="uni04AA" unicode="&#x4aa;" horiz-adv-x="476" 
d="M298 667q69 0 148 -27l-7 -39q-81 29 -146 29q-69 0 -105 -38t-48 -134l-32 -267q-20 -165 128 -165q54 0 139 32l-3 -41q-29 -11 -52 -16q-37 -15 -63.5 -44.5t-30.5 -60.5l-1 -8q-7 -51 48 -51q12 0 36 6l-4 -34q-27 -6 -44 -6q-39 0 -59 21.5t-15 56.5l1 9
q8 60 70 100q-18 -2 -26 -2q-189 0 -163 212l31 254q15 120 60 166.5t138 46.5z" />
    <glyph glyph-name="uni04AB" unicode="&#x4ab;" horiz-adv-x="398" 
d="M244 500q48 0 109 -17l-6 -37q-61 18 -105 18q-48 0 -79.5 -32t-40.5 -97l-23 -166q-20 -144 92 -144q48 0 108 26l-5 -39q-22 -8 -33 -11q-37 -15 -63 -44.5t-31 -60.5l-1 -8q-6 -51 48 -51q12 0 36 6l-4 -34q-26 -6 -43 -6q-40 0 -59.5 21t-14.5 57l1 9q8 59 68 99
q-6 -1 -17 -1q-70 1 -102.5 47t-20.5 133l24 164q24 168 162 168z" />
    <glyph glyph-name="uni04AE" unicode="&#x4ae;" horiz-adv-x="463" 
d="M242 225l-27 -225h-40l27 225l-140 430h44q68 -208 119 -385q101 173 214 385h49z" />
    <glyph glyph-name="uni04AF" unicode="&#x4af;" horiz-adv-x="426" 
d="M193 0l-27 -185h-40l27 185l-107 488h40q59 -280 89 -441l2 -2l3 2q138 275 212 441h45z" />
    <glyph glyph-name="uni04B0" unicode="&#x4b0;" horiz-adv-x="463" 
d="M257 251h99l-5 -37h-110l-26 -214h-40l26 214h-111l4 37h99l-131 404h44q68 -208 119 -385q101 173 214 385h49z" />
    <glyph glyph-name="uni04B1" unicode="&#x4b1;" horiz-adv-x="426" 
d="M210 34h79l-4 -34h-92l-27 -185h-40l27 185h-92l4 34h81l-100 454h40q59 -280 89 -441l2 -2l3 2q138 275 212 441h45z" />
    <glyph glyph-name="uni04B2" unicode="&#x4b2;" horiz-adv-x="491" 
d="M277 337l143 -300h54l-20 -167h-39l17 130h-43q-56 130 -143 302q-104 -155 -213 -302h-50l243 336l-152 319h45q74 -149 134 -285q124 169 204 285h50z" />
    <glyph glyph-name="uni04B3" unicode="&#x4b3;" horiz-adv-x="393" 
d="M217 253l107 -218h47l-21 -155h-39l17 120h-34q-54 122 -102 224l-2 2l-3 -2q-72 -103 -163 -224h-51l193 253l-113 235h44q72 -152 95 -205l2 -2l3 2q87 116 148 205h51z" />
    <glyph glyph-name="uni04B8" unicode="&#x4b8;" horiz-adv-x="561" 
d="M438 0h-40l31 254q-98 -24 -141 -25l-16 -129h-34l16 128q-88 5 -130.5 56.5t-30.5 147.5l28 223h40l-28 -224q-19 -155 125 -166l29 235h34l-29 -236q68 3 141 25l45 366h40z" />
    <glyph glyph-name="uni04B9" unicode="&#x4b9;" horiz-adv-x="458" 
d="M400 488l-68 -488h-38l22 166l35 150l-2 2l-3 -2q-48 -153 -142 -185l-10 -71h-31l9 65q-6 -1 -18 -1q-129 0 -104 180l27 184h40l-26 -180q-12 -83 7.5 -115t67.5 -32l11 1l28 198h31l-27 -191q52 20 90.5 88t52.5 176l7 55h41z" />
    <glyph glyph-name="uni04BA" unicode="&#x4ba;" horiz-adv-x="546" 
d="M171 655l-33 -264q99 36 171 36q92 0 136.5 -53.5t31.5 -159.5l-26 -214h-40l26 212q21 179 -136 179q-80 0 -167 -35l-43 -356h-40l80 655h40z" />
    <glyph glyph-name="uni04BB" unicode="&#x4bb;" horiz-adv-x="484" 
d="M130 683h40q-5 -109 -18 -208l-8 -59l-41 -200l2 -2l3 2q36 107 91.5 160.5t114.5 53.5q57 0 80.5 -43t9.5 -143l-35 -244h-40l35 249q11 80 -4.5 111.5t-54.5 31.5q-68 0 -130 -90.5t-83 -253.5l-6 -48h-40l64 457q12 93 20 226z" />
    <glyph glyph-name="uni04C0" unicode="&#x4c0;" horiz-adv-x="213" 
d="M131 655h40l-80 -655h-40z" />
    <glyph glyph-name="uni04CB" unicode="&#x4cb;" horiz-adv-x="561" 
d="M443 37h59l-21 -167h-39l17 130h-61l31 254q-102 -26 -158 -26q-96 0 -143.5 51.5t-34.5 152.5l28 223h40l-28 -224q-10 -83 27.5 -125t115.5 -42q74 0 157 25l45 366h40z" />
    <glyph glyph-name="uni04CC" unicode="&#x4cc;" horiz-adv-x="484" 
d="M359 35h44l-22 -155h-38l16 120h-43l22 166l35 150l-2 2l-3 -2q-60 -192 -192 -192q-60 0 -88.5 44t-15.5 136l27 184h40l-26 -180q-12 -83 7.5 -115t67.5 -32q66 0 117.5 70.5t68.5 201.5l7 55h41z" />
    <glyph glyph-name="uni04CF" unicode="&#x4cf;" horiz-adv-x="211" 
d="M114 488h40l-68 -488h-40z" />
    <glyph glyph-name="uni04D8" unicode="&#x4d8;" horiz-adv-x="566" 
d="M330 667q105 0 146.5 -49t26.5 -165l-32 -259q-13 -107 -65.5 -156.5t-149.5 -49.5q-99 0 -149 56.5t-37 160.5l18 151h363l13 104q12 97 -20 134t-120 37q-66 0 -152 -21l3 38q91 19 155 19zM124 319l-14 -117q-11 -85 29 -131t118 -46t121 38t53 124l16 132h-323z" />
    <glyph glyph-name="uni04D9" unicode="&#x4d9;" horiz-adv-x="475" 
d="M246 500q90 0 130 -46.5t27 -133.5l-20 -150q-26 -182 -175 -182q-84 0 -122.5 48.5t-25.5 140.5l12 88h284l9 61q15 137 -124 137q-51 0 -130 -17l3 38q76 16 132 16zM107 230l-9 -61q-9 -69 19 -107.5t89 -38.5q59 0 91.5 34.5t43.5 107.5l9 65h-243z" />
    <glyph glyph-name="uni04E2" unicode="&#x4e2;" horiz-adv-x="580" 
d="M458 0h-40l72 591l-391 -591h-48l80 655h40l-73 -591q158 227 391 591h49zM246 764h209l-5 -39h-209z" />
    <glyph glyph-name="uni04E3" unicode="&#x4e3;" horiz-adv-x="494" 
d="M194 634h192l-5 -39h-192zM369 0h-38l4 30l37 168l-2 2l-3 -2q-30 -105 -81 -157.5t-112 -52.5q-132 0 -106 184l46 316h40l-45 -311q-12 -84 7 -118t66 -34q66 0 118.5 75t71.5 212l25 176h40z" />
    <glyph glyph-name="uni04E8" unicode="&#x4e8;" horiz-adv-x="576" 
d="M322 667q105 0 154.5 -56t37.5 -157l-32 -259q-13 -105 -66 -156t-155 -51q-104 0 -154 56t-37 161l32 256q13 110 65 158t155 48zM318 631q-81 0 -123.5 -39t-52.5 -129l-13 -107h332l13 103q22 172 -156 172zM124 319l-14 -120q-10 -86 30 -130.5t123 -44.5
q82 0 125 41t54 128l15 126h-333z" />
    <glyph glyph-name="uni04E9" unicode="&#x4e9;" horiz-adv-x="481" 
d="M262 500q81 0 121 -48.5t27 -134.5l-20 -153q-24 -176 -183 -176q-84 0 -122.5 47.5t-25.5 137.5l21 153q13 90 56.5 132t125.5 42zM259 464q-63 0 -95.5 -32t-42.5 -103l-9 -62h251l7 53q10 69 -20 106.5t-91 37.5zM107 233l-9 -64q-10 -71 19 -108t90 -37
q122 0 140 135l10 74h-250z" />
    <glyph glyph-name="uni04EE" unicode="&#x4ee;" horiz-adv-x="474" 
d="M89 0l122 215l-149 440h44q67 -198 129 -398q42 73 220 398h46l-369 -655h-43zM184 764h209l-5 -39h-209z" />
    <glyph glyph-name="uni04EF" unicode="&#x4ef;" horiz-adv-x="494" 
d="M198 634h192l-5 -39h-192zM437 488l-76 -541q-11 -80 -45.5 -112t-112.5 -32q-73 0 -154 24l6 38q81 -25 151 -25q57 0 81.5 22t33.5 82l13 86l38 168l-2 2l-3 -2q-30 -105 -81 -157.5t-112 -52.5q-132 0 -106 184l46 316h40l-45 -311q-12 -84 7 -118t66 -34
q66 0 118.5 75t71.5 212l25 176h40z" />
    <glyph glyph-name="Wgrave" unicode="&#x1e80;" horiz-adv-x="832" 
d="M606 0h-60l-91 609l-239 -609h-60l-83 655h41q50 -345 77 -611q118 289 238 611h59q56 -337 90 -611q112 290 223 611h47zM406 817l72 -111h-36l-83 111h47z" />
    <glyph glyph-name="wgrave" unicode="&#x1e81;" horiz-adv-x="666" 
d="M482 0h-52l-74 447l-201 -447h-52l-47 488h41q20 -199 35 -446l3 -2l2 2q94 205 197 446h52q44 -261 70 -446l2 -2l3 2q73 192 162 446h43zM301 666l82 -120h-37l-93 120h48z" />
    <glyph glyph-name="Wacute" unicode="&#x1e82;" horiz-adv-x="832" 
d="M606 0h-60l-91 609l-239 -609h-60l-83 655h41q50 -345 77 -611q118 289 238 611h59q56 -337 90 -611q112 290 223 611h47zM442 706l77 111h47l-88 -111h-36z" />
    <glyph glyph-name="wacute" unicode="&#x1e83;" horiz-adv-x="666" 
d="M482 0h-52l-74 447l-201 -447h-52l-47 488h41q20 -199 35 -446l3 -2l2 2q94 205 197 446h52q44 -261 70 -446l2 -2l3 2q73 192 162 446h43zM346 546l82 120h48l-93 -120h-37z" />
    <glyph glyph-name="Wdieresis" unicode="&#x1e84;" horiz-adv-x="832" 
d="M606 0h-60l-91 609l-239 -609h-60l-83 655h41q50 -345 77 -611q118 289 238 611h59q56 -337 90 -611q112 290 223 611h47zM432 765l-2 -11q-3 -24 -28 -24q-15 0 -23 8t-6 21l2 11q3 25 29 25q32 0 28 -30zM559 765l-2 -11q-3 -24 -28 -24q-15 0 -23 8t-6 21l2 11
q3 25 29 25q33 0 28 -30z" />
    <glyph glyph-name="wdieresis" unicode="&#x1e85;" horiz-adv-x="666" 
d="M482 0h-52l-74 447l-201 -447h-52l-47 488h41q20 -199 35 -446l3 -2l2 2q94 205 197 446h52q44 -261 70 -446l2 -2l3 2q73 192 162 446h43zM335 615l-2 -11q-3 -24 -29 -24q-14 0 -22 8t-6 21l2 11q3 25 30 25q32 0 27 -30zM462 615l-2 -11q-3 -24 -29 -24q-15 0 -22.5 8
t-5.5 21l2 11q3 25 30 25q31 0 27 -30z" />
    <glyph glyph-name="Ygrave" unicode="&#x1ef2;" horiz-adv-x="463" 
d="M242 225l-27 -225h-40l27 225l-140 430h44q68 -208 119 -385q101 173 214 385h49zM217 817l72 -111h-36l-83 111h47z" />
    <glyph glyph-name="ygrave" unicode="&#x1ef3;" horiz-adv-x="494" 
d="M437 488l-76 -541q-11 -80 -45.5 -112t-112.5 -32q-73 0 -154 24l6 38q81 -25 151 -25q57 0 81.5 22t33.5 82l13 86l38 168l-2 2l-3 -2q-30 -105 -81 -157.5t-112 -52.5q-132 0 -106 184l46 316h40l-45 -311q-12 -84 7 -118t66 -34q66 0 118.5 75t71.5 212l25 176h40z
M220 666l82 -120h-37l-93 120h48z" />
    <glyph glyph-name="uni2007" unicode="&#x2007;" horiz-adv-x="510" 
 />
    <glyph glyph-name="uni2008" unicode="&#x2008;" horiz-adv-x="223" 
 />
    <glyph glyph-name="uni200B" unicode="&#x200b;" horiz-adv-x="0" 
 />
    <glyph glyph-name="endash" unicode="&#x2013;" horiz-adv-x="610" 
d="M532 279h-457l5 34h457z" />
    <glyph glyph-name="emdash" unicode="&#x2014;" horiz-adv-x="710" 
d="M632 279h-557l5 34h557z" />
    <glyph glyph-name="afii00208" unicode="&#x2015;" horiz-adv-x="610" 
d="M532 279h-457l5 34h457z" />
    <glyph glyph-name="quoteleft" unicode="&#x2018;" horiz-adv-x="197" 
d="M181 690l-22 -58q19 -8 16 -31l-2 -12q-3 -26 -33 -26q-35 0 -30 34l2 12q1 12 9 29l25 52h35z" />
    <glyph glyph-name="quoteright" unicode="&#x2019;" horiz-adv-x="197" 
d="M153 690q35 0 29 -34l-1 -12q-3 -13 -10 -29l-24 -52h-35l21 58q-18 7 -15 31l2 12q3 26 33 26z" />
    <glyph glyph-name="quotesinglbase" unicode="&#x201a;" horiz-adv-x="197" 
d="M64 58q35 0 29 -34l-1 -12q-3 -13 -10 -29l-24 -51h-35l21 57q-18 7 -15 31l2 12q3 26 33 26z" />
    <glyph glyph-name="quotedblleft" unicode="&#x201c;" horiz-adv-x="299" 
d="M181 690l-22 -58q19 -8 16 -31l-2 -12q-3 -26 -33 -26q-35 0 -30 34l2 12q1 12 9 29l25 52h35zM283 690l-22 -58q19 -8 16 -31l-2 -12q-3 -26 -33 -26q-35 0 -30 34l2 12q1 12 9 29l25 52h35z" />
    <glyph glyph-name="quotedblright" unicode="&#x201d;" horiz-adv-x="299" 
d="M153 690q35 0 29 -34l-1 -12q-3 -13 -10 -29l-24 -52h-35l21 58q-18 7 -15 31l2 12q3 26 33 26zM255 690q35 0 29 -34l-1 -12q-3 -13 -10 -29l-24 -52h-35l21 58q-18 7 -15 31l2 12q3 26 33 26z" />
    <glyph glyph-name="quotedblbase" unicode="&#x201e;" horiz-adv-x="299" 
d="M64 58q35 0 29 -34l-1 -12q-3 -13 -10 -29l-24 -51h-35l21 57q-18 7 -15 31l2 12q3 26 33 26zM166 58q35 0 29 -34l-1 -12q-3 -13 -10 -29l-24 -51h-35l21 57q-18 7 -15 31l2 12q3 26 33 26z" />
    <glyph glyph-name="dagger" unicode="&#x2020;" horiz-adv-x="420" 
d="M258 488h163l-5 -39h-163l-63 -449h-41l63 449h-163l6 39h162l24 167h41z" />
    <glyph glyph-name="daggerdbl" unicode="&#x2021;" horiz-adv-x="440" 
d="M268 488h163l-5 -39h-163l-26 -184h163l-5 -39h-163l-32 -226h-41l32 226h-163l6 39h162l26 184h-163l6 39h162l24 167h41z" />
    <glyph glyph-name="bullet" unicode="&#x2022;" horiz-adv-x="217" 
d="M109 316q21 0 32 -11t8 -28l-3 -25q-5 -33 -43 -33q-21 0 -32 11.5t-8 27.5l3 25q6 33 43 33z" />
    <glyph glyph-name="ellipsis" unicode="&#x2026;" horiz-adv-x="460" 
d="M192 58q34 0 31 -31l-2 -13q-5 -26 -33 -26q-18 0 -26 8t-6 22l2 12q3 28 34 28zM61 58q34 0 31 -31l-2 -13q-5 -26 -33 -26q-17 0 -25.5 8t-6.5 22l2 12q3 28 34 28zM323 58q34 0 31 -31l-2 -13q-5 -26 -33 -26q-17 0 -25.5 8t-6.5 22l2 12q3 28 34 28z" />
    <glyph glyph-name="perthousand" unicode="&#x2030;" horiz-adv-x="1249" 
d="M244 625q71 0 105.5 -41.5t24.5 -117.5l-6 -46q-21 -145 -162 -145q-72 0 -106 43t-23 119l6 44q11 75 50 109.5t111 34.5zM253 0h-44l419 613h46zM241 588q-53 0 -81.5 -26t-37.5 -84l-6 -45q-8 -57 16 -89t78 -32q53 0 81.5 26t36.5 85l6 45q16 120 -93 120zM674 338
q71 0 105.5 -41.5t24.5 -117.5l-6 -46q-21 -145 -162 -145q-72 0 -106 43t-23 119l6 44q11 75 50 109.5t111 34.5zM1059 338q71 0 105.5 -41.5t24.5 -117.5l-6 -46q-21 -145 -162 -145q-72 0 -106 43t-23 119l6 44q11 75 50 109.5t111 34.5zM671 301q-53 0 -81.5 -26
t-37.5 -84l-6 -45q-8 -57 16 -89t78 -32q53 0 81.5 26t36.5 85l6 45q16 120 -93 120zM1056 301q-53 0 -81.5 -26t-37.5 -84l-6 -45q-8 -57 16 -89t78 -32q53 0 81.5 26t36.5 85l6 45q16 120 -93 120z" />
    <glyph glyph-name="guilsinglleft" unicode="&#x2039;" horiz-adv-x="292" 
d="M121 268l68 -170h-40l-74 170l123 170h40z" />
    <glyph glyph-name="guilsinglright" unicode="&#x203a;" horiz-adv-x="292" 
d="M214 268l-122 -170h-40l116 170l-69 170h40z" />
    <glyph glyph-name="fraction" unicode="&#x2044;" horiz-adv-x="380" 
d="M17 0h-39l389 601h39z" />
    <glyph glyph-name="uni2070" unicode="&#x2070;" horiz-adv-x="400" 
d="M257 760q65 0 97.5 -39.5t22.5 -109.5l-20 -148q-19 -140 -145 -140q-66 0 -97.5 39t-22.5 109l20 151q19 138 145 138zM254 726q-90 0 -103 -104l-22 -159q-7 -50 15.5 -78.5t68.5 -28.5q91 0 104 105l21 159q7 51 -15.5 78.5t-68.5 27.5z" />
    <glyph glyph-name="uni2074" unicode="&#x2074;" horiz-adv-x="400" 
d="M117 454h163l1 7l22 156h37l-23 -163h56l-4 -33h-56l-13 -90h-38l13 90h-194l-8 22l143 309h37z" />
    <glyph glyph-name="uni2075" unicode="&#x2075;" horiz-adv-x="400" 
d="M350 720h-178l-27 -175q55 53 119 53q106 0 90 -126l-3 -18q-17 -131 -140 -131q-49 0 -122 22l4 34q78 -23 120 -23q86 0 100 100l2 17q7 49 -8.5 70.5t-54.5 21.5q-62 0 -122 -63h-26l35 252h216z" />
    <glyph glyph-name="uni2076" unicode="&#x2076;" horiz-adv-x="400" 
d="M269 760q42 0 102 -20l-4 -33q-52 19 -104 19q-93 0 -113 -134l-8 -49q63 60 124 60q51 0 76.5 -34.5t16.5 -92.5l-4 -26q-21 -127 -135 -127q-67 0 -101.5 42.5t-23.5 114.5l18 118q24 162 156 162zM256 569q-56 0 -119 -59l-5 -40q-7 -54 18 -84t70 -30q84 0 96 92
l4 32q5 44 -12 66.5t-52 22.5z" />
    <glyph glyph-name="uni2077" unicode="&#x2077;" horiz-adv-x="400" 
d="M390 723l-216 -392h-41l214 387h-214l4 33h257z" />
    <glyph glyph-name="uni2078" unicode="&#x2078;" horiz-adv-x="400" 
d="M260 760q58 0 89 -32t21 -82l-2 -9q-12 -62 -74 -80q78 -30 69 -109l-1 -11q-17 -114 -148 -114q-66 0 -102 33.5t-29 86.5l1 10q12 89 103 107q-64 24 -54 95l1 7q6 46 38.5 72t87.5 26zM257 729q-38 0 -61 -18.5t-26 -50.5l-1 -9q-5 -36 15 -58.5t60 -22.5q75 0 89 71
l2 9q7 35 -15 57t-63 22zM234 540q-50 0 -80 -23.5t-34 -63.5l-1 -10q-5 -40 21 -64t77 -24q48 0 75.5 22.5t32.5 63.5l1 9q4 40 -21 65t-71 25z" />
    <glyph glyph-name="uni2079" unicode="&#x2079;" horiz-adv-x="400" 
d="M259 759q62 0 95 -37.5t24 -104.5l-19 -141q-12 -85 -43.5 -119t-94.5 -34q-49 0 -117 18l5 34q66 -18 116 -18q42 0 63.5 24.5t30.5 88.5l8 60q-61 -51 -118 -51q-50 0 -77.5 35.5t-18.5 96.5l4 26q18 122 142 122zM256 725q-90 0 -100 -87l-4 -30q-6 -47 12.5 -71
t54.5 -24q48 0 114 50l8 60q7 48 -16.5 75t-68.5 27z" />
    <glyph glyph-name="uni207A" unicode="&#x207a;" horiz-adv-x="400" 
d="M254 560h110l-4 -33h-110l-15 -112h-36l16 112h-110l4 33h110l16 113h36z" />
    <glyph glyph-name="uni207B" unicode="&#x207b;" horiz-adv-x="400" 
d="M360 527h-254l4 33h254z" />
    <glyph glyph-name="uni207C" unicode="&#x207c;" horiz-adv-x="400" 
d="M368 591h-253l4 32h253zM350 464h-253l4 33h253z" />
    <glyph glyph-name="uni207D" unicode="&#x207d;" horiz-adv-x="400" 
d="M336 802l-5 -32q-55 6 -74.5 -15t-30.5 -91l-31 -220q-10 -70 3.5 -91.5t69.5 -25.5l-4 -32q-72 0 -96 31t-12 118l31 215q14 95 45.5 124.5t103.5 18.5z" />
    <glyph glyph-name="uni207E" unicode="&#x207e;" horiz-adv-x="400" 
d="M204 770l4 32q73 0 97 -31t11 -118l-31 -215q-13 -95 -45 -124.5t-103 -18.5l4 32q55 -6 75 15t30 91l32 220q10 70 -3.5 91.5t-70.5 25.5z" />
    <glyph glyph-name="uni2080" unicode="&#x2080;" horiz-adv-x="400" 
d="M191 279q65 0 97.5 -39.5t22.5 -109.5l-20 -148q-19 -140 -145 -140q-66 0 -97.5 39t-22.5 109l20 151q19 138 145 138zM188 245q-90 0 -103 -104l-22 -159q-7 -50 15.5 -78.5t68.5 -28.5q91 0 104 105l21 159q7 51 -15.5 78.5t-68.5 27.5z" />
    <glyph glyph-name="uni2081" unicode="&#x2081;" horiz-adv-x="400" 
d="M176 -117h90l-4 -33h-231l4 33h102l49 350l-111 -45l-5 34l127 49h33z" />
    <glyph glyph-name="uni2082" unicode="&#x2082;" horiz-adv-x="400" 
d="M198 279q53 0 80.5 -30.5t18.5 -82.5l-1 -7q-9 -63 -81 -135l-140 -141h188l-4 -33h-236l4 29l176 182q50 50 57 99l1 8q11 78 -71 78q-46 0 -98 -16l4 34q57 15 102 15z" />
    <glyph glyph-name="uni2083" unicode="&#x2083;" horiz-adv-x="400" 
d="M183 279q55 0 81 -28t19 -81l-1 -7q-5 -32 -25 -58t-51 -38q32 -11 47.5 -39t10.5 -65l-1 -7q-16 -114 -132 -114q-43 0 -104 16l5 33q58 -18 102 -18q79 0 91 85l1 7q6 39 -15 63t-62 24h-72l4 30h73q39 0 63 22t28 59l1 9q9 76 -69 76q-40 0 -96 -15l4 32q59 14 98 14z
" />
    <glyph glyph-name="uni2084" unicode="&#x2084;" horiz-adv-x="400" 
d="M48 -27h163l1 7l22 156h37l-23 -163h56l-4 -33h-56l-13 -90h-38l13 90h-194l-8 22l143 309h37z" />
    <glyph glyph-name="uni2085" unicode="&#x2085;" horiz-adv-x="400" 
d="M281 239h-178l-27 -175q55 53 119 53q106 0 90 -126l-3 -18q-17 -131 -140 -131q-49 0 -122 22l4 34q78 -23 120 -23q86 0 100 100l2 17q7 49 -8.5 70.5t-54.5 21.5q-62 0 -122 -63h-26l35 252h216z" />
    <glyph glyph-name="uni2086" unicode="&#x2086;" horiz-adv-x="400" 
d="M200 279q42 0 102 -20l-4 -33q-52 19 -104 19q-93 0 -113 -134l-8 -49q63 60 124 60q51 0 76.5 -34.5t16.5 -92.5l-4 -26q-21 -127 -135 -127q-67 0 -101.5 42.5t-23.5 114.5l18 118q24 162 156 162zM187 88q-56 0 -119 -59l-5 -40q-7 -54 18 -84t70 -30q84 0 96 92l4 32
q5 44 -12 66.5t-52 22.5z" />
    <glyph glyph-name="uni2087" unicode="&#x2087;" horiz-adv-x="400" 
d="M321 242l-216 -392h-41l214 387h-214l4 33h257z" />
    <glyph glyph-name="uni2088" unicode="&#x2088;" horiz-adv-x="400" 
d="M191 279q58 0 89 -32t21 -82l-2 -9q-12 -62 -74 -80q78 -30 69 -109l-1 -11q-17 -114 -148 -114q-66 0 -102 33.5t-29 86.5l1 10q12 89 103 107q-64 24 -54 95l1 7q6 46 38.5 72t87.5 26zM188 248q-38 0 -61 -18.5t-26 -50.5l-1 -9q-5 -36 15 -58.5t60 -22.5q75 0 89 71
l2 9q7 35 -15 57t-63 22zM165 59q-50 0 -80 -23.5t-34 -63.5l-1 -10q-5 -40 21 -64t77 -24q48 0 75.5 22.5t32.5 63.5l1 9q4 40 -21 65t-71 25z" />
    <glyph glyph-name="uni2089" unicode="&#x2089;" horiz-adv-x="400" 
d="M190 278q62 0 95 -37.5t24 -104.5l-19 -141q-12 -85 -43.5 -119t-94.5 -34q-49 0 -117 18l5 34q66 -18 116 -18q42 0 63.5 24.5t30.5 88.5l8 60q-61 -51 -118 -51q-50 0 -77.5 35.5t-18.5 96.5l4 26q18 122 142 122zM187 244q-89 0 -100 -87l-4 -30q-6 -47 12.5 -71
t54.5 -24q48 0 114 50l8 60q7 48 -16.5 75t-68.5 27z" />
    <glyph glyph-name="uni208A" unicode="&#x208a;" horiz-adv-x="400" 
d="M185 79h110l-4 -33h-110l-15 -112h-36l16 112h-110l4 33h110l16 113h36z" />
    <glyph glyph-name="uni208B" unicode="&#x208b;" horiz-adv-x="400" 
d="M291 46h-254l4 33h254z" />
    <glyph glyph-name="uni208C" unicode="&#x208c;" horiz-adv-x="400" 
d="M299 110h-253l4 32h253zM281 -17h-253l4 33h253z" />
    <glyph glyph-name="uni208D" unicode="&#x208d;" horiz-adv-x="400" 
d="M267 321l-5 -32q-55 6 -74.5 -15t-30.5 -91l-31 -220q-10 -70 3.5 -91.5t69.5 -25.5l-4 -32q-72 0 -96 31t-12 118l31 215q14 95 45.5 124.5t103.5 18.5z" />
    <glyph glyph-name="uni208E" unicode="&#x208e;" horiz-adv-x="400" 
d="M135 289l4 32q73 0 97 -31t11 -118l-31 -215q-13 -95 -45 -124.5t-103 -18.5l4 32q55 -6 75 15t30 91l32 220q10 70 -3.5 91.5t-70.5 25.5z" />
    <glyph glyph-name="Euro" unicode="&#x20ac;" horiz-adv-x="436" 
d="M296 614q62 0 143 -26l-7 -39q-78 28 -141 28t-96.5 -38t-46.5 -135l-4 -24h209l-15 -35h-199l-13 -97h209l-16 -35h-198l-3 -24q-21 -163 120 -163q54 0 134 30l-3 -42q-76 -26 -136 -26q-88 0 -128 51.5t-26 155.5l2 18h-68l16 35h57l14 97h-68l15 35h57l3 21
q18 121 60.5 167t128.5 46z" />
    <glyph glyph-name="uni2116" unicode="&#x2116;" horiz-adv-x="1059" 
d="M165 607l-74 -607h-40l80 655h58q125 -300 237 -603l74 603h40l-80 -655h-55zM1003 479l-12 -87q-13 -91 -56 -134t-125 -43q-84 0 -121 48t-24 141l12 87q14 93 55.5 134.5t125.5 41.5q82 0 120 -48.5t25 -139.5zM949 386l14 102q10 69 -18.5 106t-89.5 37
q-62 0 -94.5 -32t-42.5 -103l-15 -100q-10 -72 18 -108.5t89 -36.5q120 0 139 135zM615 34h327l-5 -35h-327z" />
    <glyph glyph-name="trademark" unicode="&#x2122;" horiz-adv-x="781" 
d="M381 650h-116l-42 -300h-37l42 300h-117l4 33h270zM729 350h-38l38 277l-138 -246h-34l-68 246l-44 -277h-38l55 333h46q46 -161 71 -262q78 137 142 262h50z" />
    <glyph glyph-name="Omega" unicode="&#x2126;" horiz-adv-x="576" 
d="M321 667q105 0 155 -55.5t37 -158.5l-29 -244q-15 -122 -107 -171h96l-3 -38h-189l3 35h9q55 0 98.5 49.5t51.5 117.5l31 256q10 86 -31 129.5t-126 43.5q-80 0 -122.5 -39t-53.5 -129l-30 -260q-8 -69 24 -118.5t86 -49.5h7l-3 -35h-188l3 38h98q-82 52 -67 175l30 248
q14 111 66 158.5t154 47.5z" />
    <glyph glyph-name="estimated" unicode="&#x212e;" horiz-adv-x="955" 
d="M481 703q165 0 284 -106.5t119 -269.5h-657v-218q30 -45 104.5 -71t150.5 -26q75 0 147.5 25.5t112.5 72.5h58q-118 -137 -319 -137q-172 0 -287 102.5t-115 259.5q0 156 117.5 262t284.5 106zM482 664q-172 0 -255 -101v-196h509v195q-94 102 -254 102z" />
    <glyph glyph-name="onethird" unicode="&#x2153;" horiz-adv-x="1023" 
d="M222 214h90l-4 -33h-231l4 33h102l49 350l-111 -45l-5 34l127 49h33zM337 0h-39l389 601h39zM835 429q55 0 81 -28t19 -81l-1 -7q-5 -32 -25 -58t-51 -38q32 -11 47.5 -39t10.5 -65l-1 -7q-16 -114 -132 -114q-43 0 -104 16l5 33q58 -18 102 -18q79 0 91 85l1 7
q6 39 -15 63t-62 24h-72l4 30h73q39 0 63 22t28 59l1 9q9 76 -69 76q-40 0 -96 -15l4 32q59 14 98 14z" />
    <glyph glyph-name="twothirds" unicode="&#x2154;" horiz-adv-x="1023" 
d="M240 610q53 0 80.5 -30.5t18.5 -82.5l-1 -7q-9 -63 -81 -135l-140 -141h188l-4 -33h-236l4 29l176 182q50 50 57 99l1 8q11 78 -71 78q-46 0 -98 -16l4 34q57 15 102 15zM333 0h-39l389 601h39zM835 429q55 0 81 -28t19 -81l-1 -7q-5 -32 -25 -58t-51 -38
q32 -11 47.5 -39t10.5 -65l-1 -7q-16 -114 -132 -114q-43 0 -104 16l5 33q58 -18 102 -18q79 0 91 85l1 7q6 39 -15 63t-62 24h-72l4 30h73q39 0 63 22t28 59l1 9q9 76 -69 76q-40 0 -96 -15l4 32q59 14 98 14z" />
    <glyph glyph-name="arrowleft" unicode="&#x2190;" horiz-adv-x="900" 
d="M416 620l-271 -278h353v-40h-353l271 -278l-29 -29l-317 327l317 327zM679 302h-127v40h127v-40zM830 302h-97v40h97v-40z" />
    <glyph glyph-name="arrowup" unicode="&#x2191;" horiz-adv-x="900" 
d="M776 379l-28 -29l-277 270v-353h-42v353l-277 -270l-28 29l326 316zM471 85h-42v128h42v-128zM471 -66h-42v97h42v-97z" />
    <glyph glyph-name="arrowright" unicode="&#x2192;" horiz-adv-x="900" 
d="M830 322l-316 -327l-29 29l270 278h-353v40h353l-270 278l29 29zM167 302h-97v40h97v-40zM348 302h-127v40h127v-40z" />
    <glyph glyph-name="arrowdown" unicode="&#x2193;" horiz-adv-x="900" 
d="M471 606h-42v97h42v-97zM471 424h-42v128h42v-128zM471 17l277 270l28 -29l-326 -316l-326 316l28 29l277 -270v353h42v-353z" />
    <glyph glyph-name="arrowboth" unicode="&#x2194;" horiz-adv-x="1289" 
d="M416 620l-271 -278h283v-40h-283l271 -278l-29 -29l-317 327l317 327zM1219 322l-316 -327l-29 29l270 278h-283v40h283l-270 278l29 29zM563 302h-81v40h81v-40zM672 302h-55v40h55v-40zM807 302h-81v40h81v-40z" />
    <glyph glyph-name="arrowupdn" unicode="&#x2195;" horiz-adv-x="900" 
d="M776 509l-28 -30l-277 271v-284h-42v284l-277 -271l-28 30l326 315zM471 331h-42v81h42v-81zM471 222h-42v55h42v-55zM471 87h-42v81h42v-81zM776 -10l-326 -315l-326 315l28 30l277 -271v284h42v-284l277 271z" />
    <glyph glyph-name="uni2196" unicode="&#x2196;" horiz-adv-x="900" 
d="M632 571l-388 -5l250 -249l-28 -28l-250 250l-5 -389h-41l7 456l455 7v-42zM623 188l-28 -28l-91 91l28 28zM730 82l-28 -28l-69 68l28 28z" />
    <glyph glyph-name="uni2197" unicode="&#x2197;" horiz-adv-x="900" 
d="M722 606l7 -456h-41l-5 389l-250 -250l-27 28l249 249l-388 5v42zM396 251l-91 -91l-28 28l91 91zM267 122l-69 -68l-28 28l69 68z" />
    <glyph glyph-name="uni2198" unicode="&#x2198;" horiz-adv-x="900" 
d="M267 552l-28 -28l-69 68l28 28zM722 68l-455 -7v42l388 5l-249 249l27 28l250 -250l5 389h41zM396 423l-28 -28l-91 91l28 28z" />
    <glyph glyph-name="uni2199" unicode="&#x2199;" horiz-adv-x="900" 
d="M730 592l-69 -68l-28 28l69 68zM216 135l250 250l28 -28l-250 -249l388 -5v-42l-455 7l-7 456h41zM623 486l-91 -91l-28 28l91 91z" />
    <glyph glyph-name="partialdiff" unicode="&#x2202;" horiz-adv-x="461" 
d="M159 661l4 34q137 0 197 -93t35 -275l-25 -175q-23 -164 -171 -164q-79 0 -119.5 49.5t-28.5 138.5l13 97q21 166 146 166q48 0 85.5 -33t59.5 -81l4 35q19 141 -32.5 221t-167.5 80zM216 402q-47 0 -74 -31.5t-38 -109.5l-13 -90q-10 -68 21 -107.5t88 -39.5
q112 0 129 120l20 137q-19 46 -56.5 83.5t-76.5 37.5z" />
    <glyph glyph-name="Delta" unicode="&#x2206;" horiz-adv-x="499" 
d="M446 29l-2 -29h-458l3 28l278 627h50zM286 616q-146 -351 -254 -579h370q-48 269 -116 579z" />
    <glyph glyph-name="product" unicode="&#x220f;" horiz-adv-x="559" 
d="M606 617h-90l-110 -802h-40l110 802h-302l-110 -802h-40l110 802h-90l6 38h561z" />
    <glyph glyph-name="summation" unicode="&#x2211;" horiz-adv-x="399" 
d="M427 617h-318l144 -367l-4 -30l-240 -367h313l-5 -38h-365l5 33l256 391l-151 383l5 33h365z" />
    <glyph glyph-name="minus" unicode="&#x2212;" horiz-adv-x="398" 
d="M365 288h-333l5 35h333z" />
    <glyph glyph-name="uni2219" unicode="&#x2219;" horiz-adv-x="198" 
d="M64 259q34 0 31 -31l-2 -13q-5 -26 -33 -26q-18 0 -26 8t-6 22l2 12q3 28 34 28z" />
    <glyph glyph-name="radical" unicode="&#x221a;" horiz-adv-x="476" 
d="M606 644h-89l-315 -644h-51l-95 488h44q46 -236 80 -449q147 290 309 644h122z" />
    <glyph glyph-name="infinity" unicode="&#x221e;" horiz-adv-x="517" 
d="M383 432q63 0 94 -36t21 -100l-2 -11q-10 -66 -44.5 -95t-95.5 -29q-33 0 -62 16.5t-42 43.5q-39 -60 -112 -60q-66 0 -96 37t-20 99l2 12q18 123 139 123q34 0 62.5 -16t41.5 -44q39 60 114 60zM163 396q-45 0 -68.5 -20.5t-30.5 -68.5l-2 -17q-12 -93 81 -93
q84 0 98 89l3 16q7 42 -16 68t-65 26zM379 396q-87 0 -98 -89l-3 -16q-7 -43 15.5 -68.5t64.5 -25.5q45 0 69 21t31 68l2 17q7 45 -14 69t-67 24z" />
    <glyph glyph-name="integral" unicode="&#x222b;" horiz-adv-x="300" 
d="M295 695q28 0 63 -10l-5 -35q-33 10 -60 10q-38 0 -58 -22.5t-28 -77.5l-91 -647q-8 -60 -33 -85t-73 -25q-35 0 -65 10l5 37q33 -11 61 -11t43.5 16t21.5 55l91 646q11 77 41.5 108t86.5 31z" />
    <glyph glyph-name="approxequal" unicode="&#x2248;" horiz-adv-x="398" 
d="M381 409l-5 -38q-47 -25 -99 -25q-34 0 -69.5 16.5t-67.5 16.5q-16 0 -40.5 -6t-40.5 -12l-16 -6l5 39q48 24 100 24q34 0 69.5 -16t66.5 -16q16 0 40.5 6t40.5 12zM361 262l-6 -39q-47 -24 -99 -24q-34 0 -69 16t-67 16q-16 0 -40.5 -5.5t-40.5 -11.5l-16 -6l5 38
q47 25 99 25q35 0 70 -16.5t66 -16.5q16 0 40.5 6t40.5 12z" />
    <glyph glyph-name="notequal" unicode="&#x2260;" horiz-adv-x="398" 
d="M301 412h81l-5 -35h-102l-115 -150h196l-4 -35h-219l-54 -72h-39l54 72h-74l5 35h96l116 150h-191l5 35h212l59 77h39z" />
    <glyph glyph-name="lessequal" unicode="&#x2264;" horiz-adv-x="398" 
d="M388 430l-320 -138l282 -139l-6 -39l-318 159l5 40l364 159zM330 0h-341l4 34h342z" />
    <glyph glyph-name="greaterequal" unicode="&#x2265;" horiz-adv-x="398" 
d="M373 312l-5 -40l-364 -158l7 42l320 137l-282 139l6 40zM330 0h-341l4 34h342z" />
    <glyph glyph-name="dotmath" unicode="&#x22c5;" horiz-adv-x="198" 
d="M64 259q34 0 31 -31l-2 -13q-5 -26 -33 -26q-18 0 -26 8t-6 22l2 12q3 28 34 28z" />
    <glyph glyph-name="uni25AF" unicode="&#x25af;" horiz-adv-x="493" 
d="M46 0v655h401v-655h-401zM81 35h331v585h-331v-585z" />
    <glyph glyph-name="lozenge" unicode="&#x25ca;" horiz-adv-x="522" 
d="M521 342l-278 -342h-41l-185 342l278 341h41zM66 342l160 -302l247 303l-161 304z" />
    <glyph glyph-name="uniFB00" unicode="&#xfb00;" horiz-adv-x="551" 
d="M535 695q29 0 62 -10l-4 -35q-33 10 -61 10q-37 0 -57.5 -23t-27.5 -77l-11 -72h90l-4 -34h-90l-77 -541q-8 -60 -33 -85t-73 -25q-35 0 -65 10l5 37q31 -11 61 -11q28 0 43.5 16t21.5 55l76 544h-223l-64 -461q-8 -60 -33 -85t-72 -25q-36 0 -66 10l5 37q31 -11 61 -11
q28 0 43.5 16t21.5 55l64 464h-71l3 25l72 7l8 57q11 83 47.5 116.5t113.5 33.5q68 0 149 -28q30 30 85 30zM299 658q-58 0 -83.5 -24t-33.5 -86l-9 -60h223l9 67q5 44 23 80q-78 23 -129 23z" />
    <glyph glyph-name="fi" unicode="&#xfb01;" horiz-adv-x="505" 
d="M309 695q47 0 119 -18l-4 -36q-74 19 -119 19q-53 0 -78 -24.5t-34 -85.5l-8 -62h263l-68 -488h-40l63 454h-223l-76 -541q-8 -60 -33 -85t-72 -25q-36 0 -66 10l5 37q31 -11 61 -11q28 0 43.5 16t21.5 55l75 544h-71l4 25l72 7l8 58q11 82 47.5 116.5t109.5 34.5z" />
    <glyph glyph-name="fl" unicode="&#xfb02;" horiz-adv-x="507" 
d="M310 695q63 0 128 -18l29 2q-4 -98 -21 -215l-65 -464h-40l64 457q14 93 20 186q-63 17 -119 17q-53 0 -78 -24.5t-34 -85.5l-8 -62h90l-5 -34h-90l-76 -541q-8 -60 -33 -85t-72 -25q-36 0 -66 10l5 37q31 -11 61 -11q28 0 43.5 16t21.5 55l75 544h-71l4 25l72 7l8 58
q11 82 47.5 116.5t109.5 34.5z" />
    <glyph glyph-name="uniFB03" unicode="&#xfb03;" horiz-adv-x="732" 
d="M560 695q48 0 120 -18l-5 -36q-73 19 -118 19q-53 0 -78.5 -25t-33.5 -85l-9 -62h264l-68 -488h-40l63 454h-223l-76 -541q-9 -60 -33.5 -85t-72.5 -25q-35 0 -65 10l5 37q31 -11 61 -11q55 0 64 71l76 544h-223l-64 -461q-8 -60 -33 -85t-72 -25q-36 0 -66 10l5 37
q31 -11 61 -11q28 0 43.5 16t21.5 55l64 464h-71l3 25l72 7l8 57q11 83 47.5 116.5t113.5 33.5q72 0 153 -29q37 31 106 31zM299 658q-58 0 -83.5 -24t-33.5 -86l-9 -60h223l7 56q9 60 28 90q-78 24 -132 24z" />
    <glyph glyph-name="uniFB04" unicode="&#xfb04;" horiz-adv-x="756" 
d="M559 695q61 0 129 -17l29 1q-4 -98 -21 -215l-65 -464h-40l64 457q13 85 21 187q-67 16 -120 16t-78 -24.5t-34 -85.5l-9 -62h90l-4 -34h-90l-76 -541q-8 -60 -33 -85t-73 -25q-35 0 -65 10l5 37q31 -11 61 -11q28 0 43.5 16t21.5 55l75 544h-222l-64 -461
q-8 -60 -33 -85t-72 -25q-36 0 -66 10l5 37q31 -11 61 -11q28 0 43.5 16t21.5 55l64 464h-71l3 25l72 7l8 57q11 83 47.5 116.5t113.5 33.5q72 0 153 -29q37 31 105 31zM299 658q-58 0 -83.5 -24t-33.5 -86l-9 -60h222l8 56q7 59 28 90q-78 24 -132 24z" />
    <glyph glyph-name="uniFB06" unicode="&#xfb06;" horiz-adv-x="716" 
d="M386 695q43 0 87 -18.5t70 -45.5l24 1l-19 -144h146l-5 -34h-145l-46 -318q-9 -64 5.5 -87.5t56.5 -23.5t87 20l-4 -37q-45 -20 -88 -20q-61 0 -85 34.5t-12 116.5l46 315h-70l3 25l72 7l23 105q-20 30 -61.5 50.5t-84.5 20.5q-58 0 -79 -35t-6 -86l18 -60l-6 -40
q-39 14 -69 21q-22 2 -41 2q-89 0 -101 -68l-1 -6q-11 -67 57 -101l86 -44q86 -44 71 -132l-2 -13q-8 -53 -44 -82.5t-96 -29.5q-72 0 -142 35l8 40q40 -21 89 -35q21 -4 46 -4q86 0 100 81l1 6q11 69 -56 104l-87 43q-42 21 -60 57t-10 80l2 12q19 93 145 93q29 0 76 -10
l-15 39q-26 67 4 116.5t112 49.5z" />
    <glyph glyph-name="uniFEFF" unicode="&#xfeff;" horiz-adv-x="0" 
 />
    <glyph glyph-name="i.latn_TRK" horiz-adv-x="211" 
d="M178 618l-1 -13q-4 -25 -32 -25q-33 0 -30 31l2 12q4 27 33 27q33 0 28 -32zM114 488h40l-68 -488h-40z" />
    <glyph glyph-name="Ldot.latn_CAT" horiz-adv-x="440" 
d="M131 655h40l-77 -618h276l-3 -37h-316zM342 349l-1 -12q-3 -26 -31 -26q-34 0 -31 31l2 13q4 26 32 26q32 0 29 -32z" />
    <glyph glyph-name="ldot.latn_CAT" horiz-adv-x="211" 
d="M132 683h40q-7 -127 -21 -219l-65 -464h-40l64 457q15 109 22 226zM260 433l-1 -13q-4 -25 -32 -25q-33 0 -30 31l2 12q4 27 33 27q33 0 28 -32z" />
    <glyph glyph-name="parenleft.numr" horiz-adv-x="400" 
d="M315 652l-5 -32q-55 6 -74.5 -15t-30.5 -91l-31 -220q-10 -70 3.5 -91.5t69.5 -25.5l-4 -32q-72 0 -96 31t-12 118l31 215q14 95 45.5 124.5t103.5 18.5z" />
    <glyph glyph-name="parenright.numr" horiz-adv-x="400" 
d="M183 620l4 32q73 0 97 -31t11 -118l-31 -215q-13 -95 -45 -124.5t-103 -18.5l4 32q55 -6 75 15t30 91l32 220q10 70 -3.5 91.5t-70.5 25.5z" />
    <glyph glyph-name="plus.numr" horiz-adv-x="400" 
d="M233 410h110l-4 -33h-110l-15 -112h-36l16 112h-110l4 33h110l16 113h36z" />
    <glyph glyph-name="zero.numr" horiz-adv-x="400" 
d="M237 610q65 0 97.5 -39.5t22.5 -109.5l-20 -148q-19 -140 -145 -140q-66 0 -97.5 39t-22.5 109l20 151q19 138 145 138zM234 576q-90 0 -103 -104l-22 -159q-7 -50 15.5 -78.5t68.5 -28.5q91 0 104 105l21 159q7 51 -15.5 78.5t-68.5 27.5z" />
    <glyph glyph-name="one.numr" horiz-adv-x="400" 
d="M222 214h90l-4 -33h-231l4 33h102l49 350l-111 -45l-5 34l127 49h33z" />
    <glyph glyph-name="two.numr" horiz-adv-x="400" 
d="M244 610q53 0 80.5 -30.5t18.5 -82.5l-1 -7q-9 -63 -81 -135l-140 -141h188l-4 -33h-236l4 29l176 182q50 50 57 99l1 8q11 78 -71 78q-46 0 -98 -16l4 34q57 15 102 15z" />
    <glyph glyph-name="three.numr" horiz-adv-x="400" 
d="M231 610q55 0 81 -28t19 -81l-1 -7q-5 -32 -25 -58t-51 -38q32 -11 47.5 -39t10.5 -65l-1 -7q-16 -114 -132 -114q-43 0 -104 16l5 33q58 -18 102 -18q79 0 91 85l1 7q6 39 -15 63t-62 24h-72l4 30h73q39 0 63 22t28 59l1 9q9 76 -69 76q-40 0 -96 -15l4 32q59 14 98 14z
" />
    <glyph glyph-name="four.numr" horiz-adv-x="400" 
d="M96 304h163l1 7l22 156h37l-23 -163h56l-4 -33h-56l-13 -90h-38l13 90h-194l-8 22l143 309h37z" />
    <glyph glyph-name="five.numr" horiz-adv-x="400" 
d="M328 570h-178l-27 -175q55 53 119 53q106 0 90 -126l-3 -18q-17 -131 -140 -131q-49 0 -122 22l4 34q78 -23 120 -23q86 0 100 100l2 17q7 49 -8.5 70.5t-54.5 21.5q-62 0 -122 -63h-26l35 252h216z" />
    <glyph glyph-name="six.numr" horiz-adv-x="400" 
d="M248 610q42 0 102 -20l-4 -33q-52 19 -104 19q-93 0 -113 -134l-8 -49q63 60 124 60q51 0 76.5 -34.5t16.5 -92.5l-4 -26q-21 -127 -135 -127q-67 0 -101.5 42.5t-23.5 114.5l18 118q24 162 156 162zM235 419q-56 0 -119 -59l-5 -40q-7 -54 18 -84t70 -30q84 0 96 92
l4 32q5 44 -12 66.5t-52 22.5z" />
    <glyph glyph-name="seven.numr" horiz-adv-x="400" 
d="M369 573l-216 -392h-41l214 387h-214l4 33h257z" />
    <glyph glyph-name="eight.numr" horiz-adv-x="400" 
d="M239 610q58 0 89 -32t21 -82l-2 -9q-12 -62 -74 -80q78 -30 69 -109l-1 -11q-17 -114 -148 -114q-66 0 -102 33.5t-29 86.5l1 10q12 89 103 107q-64 24 -54 95l1 7q6 46 38.5 72t87.5 26zM236 579q-38 0 -61 -18.5t-26 -50.5l-1 -9q-5 -36 15 -58.5t60 -22.5q75 0 89 71
l2 9q7 35 -15 57t-63 22zM213 390q-50 0 -80 -23.5t-34 -63.5l-1 -10q-5 -40 21 -64t77 -24q48 0 75.5 22.5t32.5 63.5l1 9q4 40 -21 65t-71 25z" />
    <glyph glyph-name="nine.numr" horiz-adv-x="400" 
d="M238 609q62 0 95 -37.5t24 -104.5l-19 -141q-12 -85 -43.5 -119t-94.5 -34q-50 0 -117 18l5 34q66 -18 116 -18q42 0 63.5 24.5t30.5 88.5l8 60q-61 -51 -118 -51q-50 0 -77.5 35.5t-18.5 96.5l4 26q18 122 142 122zM235 575q-89 0 -100 -87l-4 -30q-6 -47 12.5 -71
t54.5 -24q48 0 114 50l8 60q7 48 -16.5 75t-68.5 27z" />
    <glyph glyph-name="equal.numr" horiz-adv-x="400" 
d="M347 441h-253l4 32h253zM329 314h-253l4 33h253z" />
    <glyph glyph-name="minus.numr" horiz-adv-x="400" 
d="M339 377h-254l4 33h254z" />
    <glyph glyph-name="parenleft.dnom" horiz-adv-x="400" 
d="M290 471l-5 -32q-55 6 -74.5 -15t-30.5 -91l-31 -220q-10 -70 3.5 -91.5t69.5 -25.5l-4 -32q-72 0 -96 31t-12 118l31 215q14 95 45.5 124.5t103.5 18.5z" />
    <glyph glyph-name="parenright.dnom" horiz-adv-x="400" 
d="M158 439l4 32q73 0 97 -31t11 -118l-31 -215q-13 -95 -45 -124.5t-103 -18.5l4 32q55 -6 75 15t30 91l32 220q10 70 -3.5 91.5t-70.5 25.5z" />
    <glyph glyph-name="plus.dnom" horiz-adv-x="400" 
d="M208 229h110l-4 -33h-110l-15 -112h-36l16 112h-110l4 33h110l16 113h36z" />
    <glyph glyph-name="zero.dnom" horiz-adv-x="400" 
d="M212 429q65 0 97.5 -39.5t22.5 -109.5l-20 -148q-19 -140 -145 -140q-66 0 -97.5 39t-22.5 109l20 151q19 138 145 138zM209 395q-90 0 -103 -104l-22 -159q-7 -50 15.5 -78.5t68.5 -28.5q91 0 104 105l21 159q7 51 -15.5 78.5t-68.5 27.5z" />
    <glyph glyph-name="one.dnom" horiz-adv-x="400" 
d="M196 33h90l-4 -33h-231l4 33h102l49 350l-111 -45l-5 34l127 49h33z" />
    <glyph glyph-name="two.dnom" horiz-adv-x="400" 
d="M218 429q53 0 80.5 -30.5t18.5 -82.5l-1 -7q-9 -63 -81 -135l-140 -141h188l-4 -33h-236l4 29l176 182q50 50 57 99l1 8q11 78 -71 78q-46 0 -98 -16l4 34q57 15 102 15z" />
    <glyph glyph-name="three.dnom" horiz-adv-x="400" 
d="M205 429q55 0 81 -28t19 -81l-1 -7q-5 -32 -25 -58t-51 -38q32 -11 47.5 -39t10.5 -65l-1 -7q-16 -114 -132 -114q-43 0 -104 16l5 33q58 -18 102 -18q79 0 91 85l1 7q6 39 -15 63t-62 24h-72l4 30h73q39 0 63 22t28 59l1 9q9 76 -69 76q-40 0 -96 -15l4 32q60 14 98 14z
" />
    <glyph glyph-name="four.dnom" horiz-adv-x="400" 
d="M70 123h163l1 7l22 156h37l-23 -163h56l-4 -33h-56l-13 -90h-38l13 90h-194l-8 22l143 309h37z" />
    <glyph glyph-name="five.dnom" horiz-adv-x="400" 
d="M303 389h-178l-27 -175q55 53 119 53q106 0 90 -126l-3 -18q-17 -131 -140 -131q-49 0 -122 22l4 34q78 -23 120 -23q86 0 100 100l2 17q7 49 -8.5 70.5t-54.5 21.5q-62 0 -122 -63h-26l35 252h216z" />
    <glyph glyph-name="six.dnom" horiz-adv-x="400" 
d="M222 429q42 0 102 -20l-4 -33q-52 19 -104 19q-93 0 -113 -134l-8 -49q63 60 124 60q51 0 76.5 -34.5t16.5 -92.5l-4 -26q-21 -127 -135 -127q-67 0 -101.5 42.5t-23.5 114.5l18 118q24 162 156 162zM209 238q-56 0 -119 -59l-5 -40q-7 -54 18 -84t70 -30q84 0 96 92
l4 32q5 44 -12 66.5t-52 22.5z" />
    <glyph glyph-name="seven.dnom" horiz-adv-x="400" 
d="M343 392l-216 -392h-41l214 387h-214l4 33h257z" />
    <glyph glyph-name="eight.dnom" horiz-adv-x="400" 
d="M213 429q58 0 89 -32t21 -82l-2 -9q-12 -62 -74 -80q78 -30 69 -109l-1 -11q-17 -114 -148 -114q-66 0 -102 33.5t-29 86.5l1 10q12 89 103 107q-64 24 -54 95l1 7q6 46 38.5 72t87.5 26zM210 398q-38 0 -61 -18.5t-26 -50.5l-1 -9q-5 -36 15 -58.5t60 -22.5q75 0 89 71
l2 9q7 35 -15 57t-63 22zM187 209q-50 0 -80 -23.5t-34 -63.5l-1 -10q-5 -40 21 -64t77 -24q48 0 75.5 22.5t32.5 63.5l1 9q4 40 -21 65t-71 25z" />
    <glyph glyph-name="nine.dnom" horiz-adv-x="400" 
d="M212 428q62 0 95 -37.5t24 -104.5l-19 -141q-12 -85 -43.5 -119t-94.5 -34q-49 0 -117 18l5 34q66 -18 116 -18q42 0 63.5 24.5t30.5 88.5l8 60q-61 -51 -118 -51q-50 0 -77.5 35.5t-18.5 96.5l4 26q18 122 142 122zM209 394q-89 0 -100 -87l-4 -30q-6 -47 12.5 -71
t54.5 -24q48 0 114 50l8 60q7 48 -16.5 75t-68.5 27z" />
    <glyph glyph-name="equal.dnom" horiz-adv-x="400" 
d="M322 260h-253l4 32h253zM304 133h-253l4 33h253z" />
    <glyph glyph-name="minus.dnom" horiz-adv-x="400" 
d="M314 196h-254l4 33h254z" />
    <glyph glyph-name="space.frac" horiz-adv-x="60" 
 />
    <glyph glyph-name="quotedbl.osf" horiz-adv-x="290" 
d="M118 429h-41l35 254h41zM254 429h-41l35 254h41z" />
    <glyph glyph-name="numbersign.osf" horiz-adv-x="530" 
d="M435 409h89l-5 -34h-89l-32 -227h90l-5 -34h-89l-16 -114h-41l16 114h-223l-16 -114h-40l15 114h-89l5 34h89l31 227h-89l5 34h90l16 114h40l-15 -114h222l16 114h41zM166 375l-32 -227h223l31 227h-222z" />
    <glyph glyph-name="dollar.osf" horiz-adv-x="386" 
d="M262 605l-12 -85q45 -5 86 -17l-6 -37q-43 13 -83 20q-21 2 -46 2q-49 0 -71 -16.5t-30 -56.5l-3 -17q-12 -73 71 -105l81 -33q48 -20 67.5 -51.5t14.5 -82.5l-1 -15q-6 -62 -42.5 -92t-112.5 -31l-12 -82h-37l12 85q-56 9 -108 30l5 38q45 -19 105 -32q21 -3 38 -3
q54 0 80.5 21t31.5 64l2 20q4 40 -10.5 61t-55.5 38l-78 31q-109 44 -89 148l3 13q11 56 43 78.5t108 23.5l12 83h37z" />
    <glyph glyph-name="percent.osf" horiz-adv-x="865" 
d="M244 625q71 0 105.5 -41.5t24.5 -117.5l-6 -46q-21 -145 -162 -145q-72 0 -106 43t-23 119l6 44q11 75 50 109.5t111 34.5zM253 0h-44l419 613h46zM241 588q-53 0 -81.5 -26t-37.5 -84l-6 -45q-8 -57 16 -89t78 -32q53 0 81.5 26t36.5 85l6 45q16 120 -93 120zM674 338
q71 0 105.5 -41.5t24.5 -117.5l-6 -46q-21 -145 -162 -145q-72 0 -106 43t-23 119l6 44q11 75 50 109.5t111 34.5zM671 301q-53 0 -81.5 -26t-37.5 -84l-6 -45q-8 -57 16 -89t78 -32q53 0 81.5 26t36.5 85l6 45q16 120 -93 120z" />
    <glyph glyph-name="quotesingle.osf" horiz-adv-x="154" 
d="M118 429h-41l35 254h41z" />
    <glyph glyph-name="plus.osf" horiz-adv-x="398" 
d="M216 284h149l-5 -36h-149l-23 -165h-36l23 165h-149l5 36h149l22 164h37z" />
    <glyph glyph-name="zero.osf" horiz-adv-x="492" 
d="M268 523q87 0 129.5 -51.5t28.5 -151.5l-18 -137q-27 -195 -194 -195q-84 0 -127 52.5t-30 149.5l20 138q14 103 61.5 149t129.5 46zM265 487q-63 0 -100.5 -37t-48.5 -119l-20 -145q-11 -79 22.5 -120.5t96.5 -41.5q130 0 151 157l20 144q11 81 -22 121.5t-99 40.5z" />
    <glyph glyph-name="one.osf" horiz-adv-x="287" 
d="M162 0h-40l66 469h-1l-150 -64l-7 37l167 69h36z" />
    <glyph glyph-name="two.osf" horiz-adv-x="399" 
d="M207 523q78 0 114 -38.5t25 -104.5l-1 -7q-7 -46 -34 -86.5t-86 -90.5l-188 -160h265l-4 -36h-324l4 31l238 204q78 66 89 138l1 6q9 53 -18 81t-86 28q-64 0 -143 -29l5 39q80 25 143 25z" />
    <glyph glyph-name="three.osf" horiz-adv-x="377" 
d="M191 523q74 0 109 -37.5t27 -111.5l-1 -9q-5 -48 -37 -88t-78 -57q46 -17 69.5 -57t16.5 -90l-2 -15q-14 -91 -95 -141.5t-223 -50.5l5 37q123 0 192.5 40.5t80.5 115.5l2 14q9 60 -21 95t-84 35h-101l5 33h100q48 0 85.5 35.5t44.5 92.5l1 10q14 115 -100 115
q-52 0 -126 -18l4 37q75 15 126 15z" />
    <glyph glyph-name="four.osf" horiz-adv-x="406" 
d="M290 36h69l-4 -36h-70l-17 -115h-40l17 115h-307l4 30l373 481h41zM-7 36h258l57 408z" />
    <glyph glyph-name="five.osf" horiz-adv-x="429" 
d="M370 474h-246l-37 -267q78 81 172 81q135 0 108 -185l-2 -14q-16 -112 -96 -165.5t-246 -57.5l5 37q150 5 216 48.5t81 136.5l3 18q26 146 -79 146q-90 0 -180 -100h-28l51 359h283z" />
    <glyph glyph-name="six.osf" horiz-adv-x="478" 
d="M292 613q57 0 126 -21l-5 -37q-72 22 -125 22q-133 0 -162 -209l-10 -70q89 91 172 91q68 0 101 -45.5t22 -133.5l-4 -32q-25 -190 -187 -190q-87 0 -129.5 55t-29.5 152l25 178q33 240 206 240zM279 352q-74 0 -168 -92l-11 -76q-10 -76 23.5 -118t96.5 -42
q125 0 145 149l6 40q9 70 -15.5 104.5t-76.5 34.5z" />
    <glyph glyph-name="seven.osf" horiz-adv-x="396" 
d="M397 480l-328 -593h-46l330 587v1h-316l5 36h359z" />
    <glyph glyph-name="eight.osf" horiz-adv-x="468" 
d="M269 613q75 0 115 -44t30 -116l-1 -6q-8 -46 -36 -79.5t-72 -47.5q52 -17 77 -59.5t17 -97.5l-2 -14q-11 -77 -62 -119t-133 -42q-87 0 -134.5 50t-34.5 131l2 12q17 115 137 146q-39 20 -57.5 57t-13.5 80l1 9q9 67 52 103.5t115 36.5zM266 579q-108 0 -124 -109l-1 -7
q-8 -52 23 -89t81 -37q53 0 86 29t42 83l1 6q10 57 -20 90.5t-88 33.5zM230 305q-63 0 -105 -35t-50 -90l-2 -12q-10 -68 26 -106t105 -38q64 0 103.5 33.5t48.5 92.5l2 15q10 61 -26.5 100.5t-101.5 39.5z" />
    <glyph glyph-name="nine.osf" horiz-adv-x="482" 
d="M257 523q86 0 128 -53t29 -147l-32 -223q-18 -127 -62.5 -177t-126.5 -50q-67 0 -143 26l6 38q88 -28 141 -28q60 0 95 41t49 146l14 97q-41 -40 -88.5 -65.5t-86.5 -25.5q-66 0 -100 47t-20 138l8 52q15 98 60.5 141t128.5 43zM254 487q-62 0 -97.5 -34t-47.5 -111
l-9 -59q-11 -74 14 -109t76 -35q36 0 82.5 26.5t87.5 65.5l15 99q10 75 -23.5 116t-97.5 41z" />
    <glyph glyph-name="less.osf" horiz-adv-x="398" 
d="M384 399l-320 -137l282 -139l-6 -40l-318 159l5 40l364 159z" />
    <glyph glyph-name="equal.osf" horiz-adv-x="398" 
d="M372 338h-332l5 34h331zM345 152h-331l5 36h332z" />
    <glyph glyph-name="greater.osf" horiz-adv-x="398" 
d="M368 282l-5 -40l-364 -159l7 42l320 137l-282 139l6 40z" />
    <glyph glyph-name="asciitilde.osf" horiz-adv-x="398" 
d="M365 289l-6 -38q-47 -25 -99 -25q-34 0 -69.5 16t-67.5 16q-16 0 -40.5 -6t-40.5 -12l-16 -5l5 38q46 25 99 25q34 0 70 -16.5t67 -16.5q16 0 40.5 6t40.5 12z" />
    <glyph glyph-name="cent.osf" horiz-adv-x="385" 
d="M113 335l-23 -166q-20 -144 92 -144q48 0 108 26l-5 -39q-49 -20 -96 -23l-11 -77h-37l11 77q-125 16 -103 179l24 164q22 162 151 168l10 76h37l-10 -77q46 -5 83 -16l-6 -37q-61 18 -105 18q-48 0 -79.5 -32t-40.5 -97z" />
    <glyph glyph-name="sterling.osf" horiz-adv-x="387" 
d="M255 523q53 0 102 -17l-5 -36q-51 17 -97 17q-50 0 -75 -23.5t-32 -81.5l-8 -79h118l-4 -36h-119l-15 -104q-12 -86 -53 -126h282l-4 -37h-324l3 31q47 48 56 123l14 113h-70l5 36h70l9 77q11 77 46 110t101 33z" />
    <glyph glyph-name="currency.osf" horiz-adv-x="478" 
d="M468 439l-75 -65q12 -35 6 -82l-8 -52q-7 -48 -31 -85l54 -62l-29 -26l-51 60q-44 -36 -114 -36q-71 0 -107 41l-74 -64l-23 26l76 67q-17 39 -10 92l7 53q8 46 25 76l-50 59l29 26l47 -55q44 42 120 42q79 0 114 -50l71 62zM256 417q-111 0 -128 -113l-8 -53
q-8 -57 19.5 -90t84.5 -33q112 0 129 113l7 53q9 57 -19 90t-85 33z" />
    <glyph glyph-name="yen.osf" horiz-adv-x="393" 
d="M218 209h93l-4 -35h-106l-7 -56h106l-4 -36h-106l-10 -82h-39l9 82h-105l5 36h105l6 56h-105l5 35h91l-108 302h42q58 -159 99 -295q113 188 172 295h47z" />
    <glyph glyph-name="section.osf" horiz-adv-x="466" 
d="M277 695q43 0 117 -19l-7 -38q-61 16 -78 19q-20 2 -36 2q-48 0 -71 -18.5t-30 -61.5l-1 -7q-6 -42 8.5 -69t53.5 -44l102 -44q89 -39 77 -131l-2 -15q-7 -45 -44.5 -76t-104.5 -44q95 -45 80 -144l-2 -13q-17 -110 -145 -110q-47 0 -122 21l8 38q43 -14 83 -21
q20 -2 35 -2q48 0 72 19t31 63l1 6q13 80 -61 111l-102 44q-91 40 -76 138l2 13q7 46 43.5 76.5t98.5 40.5q-92 45 -75 145l2 13q17 108 143 108zM315 382l-63 27q-63 -4 -102 -31t-47 -71l-2 -10q-12 -71 57 -103l58 -25q139 15 155 105l2 11q10 68 -58 97z" />
    <glyph glyph-name="logicalnot.osf" horiz-adv-x="398" 
d="M341 83h-37l23 165h-304l5 35h340z" />
    <glyph glyph-name="degree.osf" horiz-adv-x="399" 
d="M248 695q76 0 112 -45t25 -127l-4 -34q-12 -83 -53 -121t-114 -38q-74 0 -111 45t-26 127l5 34q11 81 51 120t115 39zM246 660q-57 0 -87.5 -29t-39.5 -96l-4 -34q-9 -67 17.5 -101.5t82.5 -34.5q110 0 127 125l4 34q9 68 -17 102t-83 34z" />
    <glyph glyph-name="plusminus.osf" horiz-adv-x="398" 
d="M216 284h149l-5 -36h-149l-21 -156h-37l22 156h-149l5 36h149l22 164h37zM326 0h-334l4 36h334z" />
    <glyph glyph-name="mu.osf" horiz-adv-x="493" 
d="M368 0h-38l4 30l37 168l-2 2l-3 -2q-30 -104 -81 -157t-111 -53q-64 0 -86 51q-11 -72 -45 -224h-40q33 133 55 281l55 392h40l-45 -311q-12 -84 7 -118t66 -34q66 0 118.5 75t71.5 212l25 176h40z" />
    <glyph glyph-name="multiply.osf" horiz-adv-x="398" 
d="M354 383l-133 -118l99 -116l-29 -25l-100 116l-132 -116l-22 25l132 116l-99 117l28 25l101 -116l133 117z" />
    <glyph glyph-name="divide.osf" horiz-adv-x="398" 
d="M220 449q31 0 28 -30l-1 -11q-5 -26 -34 -26q-31 0 -28 29l2 11q3 27 33 27zM360 248h-333l5 35h333zM179 149q32 0 27 -30l-1 -11q-5 -26 -34 -26q-31 0 -28 29l2 11q5 27 34 27z" />
    <glyph glyph-name="florin.osf" horiz-adv-x="311" 
d="M268 613q29 0 64 -10l-5 -35q-33 10 -62 10q-35 0 -55.5 -23t-28.5 -77l-10 -72h90l-5 -34h-90l-79 -557h-40l79 557h-71l3 25l73 7l10 69q12 77 42 108.5t85 31.5z" />
    <glyph glyph-name="dagger.osf" horiz-adv-x="409" 
d="M235 361h154l-6 -38h-153l-45 -323h-41l45 323h-154l6 38h153l23 163h41z" />
    <glyph glyph-name="daggerdbl.osf" horiz-adv-x="429" 
d="M247 381h154l-5 -38h-153l-17 -112h154l-5 -38h-154l-26 -193h-41l27 193h-154l5 38h154l16 112h-154l5 38h154l20 143h41z" />
    <glyph glyph-name="perthousand.osf" horiz-adv-x="1249" 
d="M244 625q71 0 105.5 -41.5t24.5 -117.5l-6 -46q-21 -145 -162 -145q-72 0 -106 43t-23 119l6 44q11 75 50 109.5t111 34.5zM253 0h-44l419 613h46zM241 588q-53 0 -81.5 -26t-37.5 -84l-6 -45q-8 -57 16 -89t78 -32q53 0 81.5 26t36.5 85l6 45q16 120 -93 120zM674 338
q71 0 105.5 -41.5t24.5 -117.5l-6 -46q-21 -145 -162 -145q-72 0 -106 43t-23 119l6 44q11 75 50 109.5t111 34.5zM1059 338q71 0 105.5 -41.5t24.5 -117.5l-6 -46q-21 -145 -162 -145q-72 0 -106 43t-23 119l6 44q11 75 50 109.5t111 34.5zM671 301q-53 0 -81.5 -26
t-37.5 -84l-6 -45q-8 -57 16 -89t78 -32q53 0 81.5 26t36.5 85l6 45q16 120 -93 120zM1056 301q-53 0 -81.5 -26t-37.5 -84l-6 -45q-8 -57 16 -89t78 -32q53 0 81.5 26t36.5 85l6 45q16 120 -93 120z" />
    <glyph glyph-name="Euro.osf" horiz-adv-x="378" 
d="M246 523q49 0 127 -22l-7 -36q-62 22 -123 22q-56 0 -84 -28.5t-37 -98.5l-4 -33h207l-17 -36h-195l-8 -73h200l-16 -36h-188l-4 -32q-13 -124 109 -124q45 0 112 19l-3 -38q-67 -19 -114 -19q-160 0 -143 168l3 26h-66l15 36h55l8 73h-65l16 36h54l4 34q12 86 51.5 124
t112.5 38z" />
    <glyph glyph-name="Omega.osf" horiz-adv-x="576" 
d="M321 667q105 0 155 -55.5t37 -158.5l-29 -244q-15 -122 -107 -171h96l-3 -38h-189l3 35h9q55 0 98.5 49.5t51.5 117.5l31 256q10 86 -31 129.5t-126 43.5q-80 0 -122.5 -39t-53.5 -129l-30 -260q-8 -69 24 -118.5t86 -49.5h7l-3 -35h-188l3 38h98q-82 52 -67 175l30 248
q14 111 66 158.5t154 47.5z" />
    <glyph glyph-name="partialdiff.osf" horiz-adv-x="461" 
d="M159 661l4 34q137 0 197 -93t35 -275l-25 -175q-23 -164 -171 -164q-79 0 -119.5 49.5t-28.5 138.5l13 97q21 166 146 166q48 0 85.5 -33t59.5 -81l4 35q19 141 -32.5 221t-167.5 80zM216 402q-47 0 -74 -31.5t-38 -109.5l-13 -90q-10 -68 21 -107.5t88 -39.5
q112 0 129 120l20 137q-19 46 -56.5 83.5t-76.5 37.5z" />
    <glyph glyph-name="Delta.osf" horiz-adv-x="499" 
d="M446 29l-2 -29h-458l3 28l278 627h50zM286 616q-146 -351 -254 -579h370q-48 269 -116 579z" />
    <glyph glyph-name="product.osf" horiz-adv-x="559" 
d="M606 617h-90l-110 -802h-40l110 802h-302l-110 -802h-40l110 802h-90l6 38h561z" />
    <glyph glyph-name="summation.osf" horiz-adv-x="399" 
d="M427 617h-318l144 -367l-4 -30l-240 -367h313l-5 -38h-365l5 33l256 391l-151 383l5 33h365z" />
    <glyph glyph-name="minus.osf" horiz-adv-x="398" 
d="M359 248h-333l5 35h333z" />
    <glyph glyph-name="radical.osf" horiz-adv-x="476" 
d="M606 644h-89l-315 -644h-51l-95 488h44q46 -236 80 -449q147 290 309 644h122z" />
    <glyph glyph-name="infinity.osf" horiz-adv-x="517" 
d="M376 385q63 0 94 -36t21 -100l-2 -11q-10 -66 -44.5 -95t-95.5 -29q-33 0 -62 16.5t-42 43.5q-39 -60 -112 -60q-66 0 -96 37t-20 99l2 12q18 123 139 123q34 0 62.5 -16t41.5 -44q39 60 114 60zM156 349q-45 0 -68.5 -20.5t-30.5 -68.5l-2 -17q-12 -93 81 -93
q84 0 98 89l3 16q7 42 -16 68t-65 26zM372 349q-87 0 -98 -89l-3 -16q-7 -43 15.5 -68.5t64.5 -25.5q45 0 69 21t31 68l2 17q7 45 -14 69t-67 24z" />
    <glyph glyph-name="integral.osf" horiz-adv-x="300" 
d="M295 695q28 0 63 -10l-5 -35q-33 10 -60 10q-38 0 -58 -22.5t-28 -77.5l-91 -647q-8 -60 -33 -85t-73 -25q-35 0 -65 10l5 37q33 -11 61 -11t43.5 16t21.5 55l91 646q11 77 41.5 108t86.5 31z" />
    <glyph glyph-name="approxequal.osf" horiz-adv-x="398" 
d="M376 370l-5 -38q-47 -25 -99 -25q-34 0 -70 16.5t-67 16.5q-16 0 -40.5 -6t-40.5 -12l-16 -6l5 39q48 24 100 24q34 0 69.5 -16t66.5 -16q16 0 40.5 6t40.5 11zM356 223l-6 -39q-47 -24 -99 -24q-34 0 -69 16t-67 16q-16 0 -40.5 -6t-40.5 -12l-16 -5l5 38q47 25 99 25
q35 0 70 -16.5t66 -16.5q16 0 40.5 6t41.5 12z" />
    <glyph glyph-name="notequal.osf" horiz-adv-x="398" 
d="M295 372h80l-4 -34h-102l-115 -150h196l-5 -36h-218l-54 -71h-37l53 71h-76l5 36h99l115 150h-193l5 34h214l60 78h37z" />
    <glyph glyph-name="lessequal.osf" horiz-adv-x="398" 
d="M383 390l-320 -133l283 -135l-6 -39l-319 154l6 41l362 154zM330 0h-341l4 34h342z" />
    <glyph glyph-name="greaterequal.osf" horiz-adv-x="398" 
d="M367 277l-5 -40l-363 -154l7 42l320 133l-283 134l5 40zM330 0h-341l4 34h342z" />
    <glyph glyph-name="lozenge.osf" horiz-adv-x="522" 
d="M521 342l-278 -342h-41l-185 342l278 341h41zM66 342l160 -302l247 303l-161 304z" />
    <glyph glyph-name="quotedbl.tf" 
d="M123 429h-41l35 254h41zM259 429h-41l35 254h41z" />
    <glyph glyph-name="numbersign.tf" 
d="M552 505h-89l-49 -346h90l-5 -34h-89l-17 -125h-41l17 125h-225l-17 -125h-41l17 125h-89l5 34h89l49 346h-90l6 34h89l17 125h41l-17 -125h225l17 125h41l-18 -125h90zM198 505l-49 -346h225l49 346h-225z" />
    </font>
</defs>
</svg>
